<?xml version="1.0" standalone="no"?>
<!DOCTYPE svg PUBLIC "-//W3C//DTD SVG 1.1//EN" "http://www.w3.org/Graphics/SVG/1.1/DTD/svg11.dtd" >
<svg xmlns="http://www.w3.org/2000/svg" xmlns:xlink="http://www.w3.org/1999/xlink" version="1.1">
<metadata>
Created by FontForge 20201107 at Wed Sep 11 16:34:47 2019
 By 
Copyright 2019 The Big Shoulders Project Authors (https://github.com/xotypeco/big_shoulders)
</metadata>
<defs>
<font id="BigShouldersDisplay-ExtraBold" horiz-adv-x="471" >
  <font-face 
    font-family="Big Shoulders Display ExtraBold"
    font-weight="800"
    font-stretch="normal"
    units-per-em="1000"
    panose-1="0 0 0 0 0 0 0 0 0 0"
    ascent="800"
    descent="-200"
    x-height="600"
    cap-height="800"
    bbox="-286 -325 893 1089"
    underline-thickness="20"
    underline-position="-50"
    unicode-range="U+000D-FB02"
  />
<missing-glyph horiz-adv-x="620" 
 />
    <glyph glyph-name="fi" unicode="fi" horiz-adv-x="563" 
d="M92 0v502h-62v98h62v46q0 88 45 126t139 38q17 0 35 -2t35 -5v-94q-17 0 -34.5 0.5t-34.5 0.5q-56 0 -56 -54v-56h103v-98h-103v-502h-129zM385 695v105h139v-105h-139zM390 0v600h129v-600h-129z" />
    <glyph glyph-name="fl" unicode="fl" horiz-adv-x="572" 
d="M92 0v502h-62v98h62v46q0 88 45 126t139 38q17 0 35 -2t35 -5v-94q-17 0 -34.5 0.5t-34.5 0.5q-56 0 -56 -54v-56h103v-98h-103v-502h-129zM399 0v800h129v-800h-129z" />
    <glyph glyph-name="f_f" unicode="ff" horiz-adv-x="652" 
d="M92 0v502h-62v98h62v46q0 88 45 126t139 38q17 0 35 -2t35 -5v-94q-17 0 -34.5 0.5t-34.5 0.5q-56 0 -56 -54v-56h167v46q0 87 45 125t139 38q16 0 34.5 -2t35.5 -4v-95q-17 0 -34.5 0.5t-35.5 0.5q-55 0 -55 -53v-56h102v-98h-102v-503h-129v503h-167v-502h-129z" />
    <glyph glyph-name="f_f_i" unicode="ffi" horiz-adv-x="859" 
d="M92 0v502h-62v98h62v46q0 88 45 126t139 38q17 0 35 -2t35 -5v-94q-17 0 -34.5 0.5t-34.5 0.5q-56 0 -56 -54v-56h167v46q0 87 45 125t139 38q16 0 34.5 -2t35.5 -4v-95q-17 0 -34.5 0.5t-35.5 0.5q-55 0 -55 -53v-56h102v-98h-102v-503h-129v503h-167v-502h-129z
M680 695v105h139v-105h-139zM685 0v600h129v-600h-129z" />
    <glyph glyph-name="f_f_l" unicode="ffl" horiz-adv-x="867" 
d="M92 0v502h-62v98h62v46q0 88 45 126t139 38q17 0 35 -2t35 -5v-94q-17 0 -34.5 0.5t-34.5 0.5q-56 0 -56 -54v-56h167v46q0 87 45 125t139 38q16 0 34.5 -2t35.5 -4v-95q-17 0 -34.5 0.5t-35.5 0.5q-55 0 -55 -53v-56h102v-98h-102v-503h-129v503h-167v-502h-129zM695 0
v800h129v-800h-129z" />
    <glyph glyph-name=".notdef" horiz-adv-x="620" 
 />
    <glyph glyph-name=".null" horiz-adv-x="0" 
 />
    <glyph glyph-name="nonmarkingreturn" horiz-adv-x="333" 
 />
    <glyph glyph-name="NULL" horiz-adv-x="0" 
 />
    <glyph glyph-name="NULL" horiz-adv-x="0" 
 />
    <glyph glyph-name="CR" unicode="&#xd;" horiz-adv-x="217" 
 />
    <glyph glyph-name="space" unicode=" " horiz-adv-x="217" 
 />
    <glyph glyph-name="exclam" unicode="!" horiz-adv-x="239" 
d="M72 205l-17 404v191h129v-191l-17 -404h-95zM42 0v127h155v-127h-155z" />
    <glyph glyph-name="quotedbl" unicode="&#x22;" horiz-adv-x="369" 
d="M64 536l-22 133v131h107v-131l-23 -133h-62zM221 669v131h107v-131l-23 -133h-62z" />
    <glyph glyph-name="numbersign" unicode="#" horiz-adv-x="692" 
d="M82 0l47 215h-99l25 106h96l38 162h-99l24 105h96l47 212h129l-47 -212h97l48 212h129l-48 -212h97l-24 -105h-94l-38 -162h95l-25 -106h-91l-48 -215h-129l48 215h-98l-47 -215h-129zM279 321h98l38 162h-97z" />
    <glyph glyph-name="dollar" unicode="$" 
d="M179 915h113v-110q66 -11 97 -53.5t35 -125.5q0 -23 -0.5 -56.5t-1.5 -63.5h-124q1 36 1.5 72t-0.5 72q-2 54 -63 54q-31 0 -45.5 -14t-17.5 -40q-5 -57 0 -116q2 -26 13.5 -44t37.5 -24l66 -16q77 -19 106 -65t31 -121q1 -24 0.5 -45.5t-0.5 -44.5q-4 -83 -35 -126
t-100 -54v-99h-113v100q-68 11 -98 53.5t-33 125.5q-1 30 -0.5 62t3.5 61h121q-2 -38 -2 -76t2 -70q5 -55 64 -55q31 0 45 14t17 41q2 30 2 56t-2 57q-2 25 -12.5 44.5t-36.5 25.5l-74 19q-73 19 -101 63t-30 118q-1 24 -0.5 47t0.5 46q4 82 34.5 125t100.5 53v110z" />
    <glyph glyph-name="percent" unicode="%" horiz-adv-x="636" 
d="M165 433q-55 0 -84.5 29.5t-33.5 84.5q-1 17 -1.5 44t0 54.5t1.5 47.5q3 53 32.5 82.5t85.5 29.5t86 -29.5t34 -82.5q0 -20 0.5 -47.5t0 -54.5t-0.5 -44q-5 -54 -34.5 -84t-85.5 -30zM49 0l453 800h90l-454 -800h-89zM165 508q25 0 26 23q3 38 3 87t-3 90q-1 9 -7.5 15.5
t-18.5 6.5t-18.5 -6.5t-7.5 -15.5q-2 -41 -2 -90t2 -87q1 -8 7.5 -15.5t18.5 -7.5zM464 -6q-55 0 -84.5 29.5t-33.5 84.5q-1 17 -1.5 44t0 54.5t1.5 47.5q3 53 32.5 82.5t85.5 29.5t86 -29.5t34 -82.5q0 -20 0.5 -47.5t0 -54.5t-0.5 -44q-5 -54 -34.5 -84t-85.5 -30zM464 69
q24 0 26 23q3 38 3 87t-3 90q-1 9 -7.5 15.5t-18.5 6.5t-18.5 -6.5t-7.5 -15.5q-2 -41 -2 -90t2 -87q1 -8 7.5 -15.5t18.5 -7.5z" />
    <glyph glyph-name="ampersand" unicode="&#x26;" horiz-adv-x="581" 
d="M244 -9q-103 0 -149 42.5t-50 140.5v36t0.5 27t1.5 48q2 58 26 94.5t56 63.5q-20 45 -33.5 89.5t-17.5 85.5q-11 86 30.5 138.5t136.5 52.5q92 0 132 -47.5t31 -136.5q-5 -60 -35.5 -112t-89.5 -104q14 -27 30.5 -54t33.5 -52q-1 22 -3.5 48t-6.5 54l104 1
q6 -49 8.5 -111.5t-1.5 -114.5q27 -32 50 -58.5t40 -45.5l-83 -79q-13 15 -27 31t-28 33q-22 -36 -59.5 -53t-96.5 -17zM227 505q38 36 52.5 65t17.5 55q7 45 -4 72t-48 27q-31 0 -43 -25t-10 -60q1 -30 10.5 -64t24.5 -70zM247 93q32 0 49 14t24 45q-34 43 -67 89t-62 93
q-7 -11 -12.5 -24.5t-6.5 -29.5q-2 -19 -3 -33t-0.5 -31t1.5 -46q4 -77 77 -77z" />
    <glyph glyph-name="quotesingle" unicode="'" horiz-adv-x="190" 
d="M42 669v131h107v-131l-23 -133h-62z" />
    <glyph glyph-name="parenleft" unicode="(" horiz-adv-x="277" 
d="M30 304q0 89 13.5 181t41 174t70.5 141h92q-42 -113 -63.5 -242.5t-21.5 -257.5t21.5 -258t63.5 -242h-92q-38 57 -66 137t-43.5 173.5t-15.5 193.5z" />
    <glyph glyph-name="parenright" unicode=")" horiz-adv-x="277" 
d="M247 304q0 89 -13.5 181t-41 174t-70.5 141h-92q42 -113 63.5 -242.5t21.5 -257.5t-21.5 -258t-63.5 -242h92q38 57 66 137t43.5 173.5t15.5 193.5z" />
    <glyph glyph-name="asterisk" unicode="*" horiz-adv-x="297" 
d="M42 665l64 31l-64 31l26 46l59 -41l-6 72h55l-7 -71l60 40l27 -46l-65 -31l65 -31l-27 -46l-60 41l7 -72h-55l6 71l-59 -40z" />
    <glyph glyph-name="plus" unicode="+" horiz-adv-x="512" 
d="M207 152v164h-164v97h164v164h97v-164h165v-97h-165v-164h-97z" />
    <glyph glyph-name="comma" unicode="," horiz-adv-x="240" 
d="M42 0v129h156v-117l-74 -144h-67l56 132h-71z" />
    <glyph glyph-name="hyphen" unicode="-" horiz-adv-x="414" 
d="M30 304v114h354v-114h-354z" />
    <glyph glyph-name="period" unicode="." horiz-adv-x="239" 
d="M42 0v127h155v-127h-155z" />
    <glyph glyph-name="slash" unicode="/" horiz-adv-x="389" 
d="M30 -200l200 1000h129l-200 -1000h-129z" />
    <glyph glyph-name="zero" unicode="0" horiz-adv-x="473" 
d="M236 -9q-90 0 -139.5 47.5t-51.5 135.5q-2 109 -2 226t2 227q2 88 51.5 135t139.5 47t139 -47t52 -135q3 -110 3 -227t-3 -226q-3 -88 -52 -135.5t-139 -47.5zM236 96q59 0 62 54q4 126 4 255t-4 245q-2 54 -62 54t-62 -54q-4 -124 -4 -253.5t4 -246.5q2 -54 62 -54z" />
    <glyph glyph-name="one" unicode="1" horiz-adv-x="255" 
d="M83 0v683h-47l-3 46l77 71h102v-800h-129z" />
    <glyph glyph-name="two" unicode="2" horiz-adv-x="470" 
d="M46 0q-1 36 -1.5 59t-0.5 45.5t1 56.5q2 84 36.5 140t102.5 96l61 36q32 19 41 46.5t10 50.5q3 60 0 120q-3 54 -64 54q-57 0 -59 -54q-3 -73 0 -144h-127q-1 30 -2 63t0 57q4 98 48 140.5t140 42.5q103 0 146 -42t47 -140q1 -22 1 -48t-1 -48q-2 -74 -34.5 -123.5
t-95.5 -87.5l-70 -40q-29 -18 -39.5 -54t-10.5 -65v-47h240v-114h-369z" />
    <glyph glyph-name="three" unicode="3" horiz-adv-x="470" 
d="M233 -9q-104 0 -150.5 42.5t-48.5 140.5q-1 27 -1 45.5t1 48.5h129v-110q0 -62 66 -62q65 0 66 62q1 29 1 64t-1 62q-1 33 -15 54t-58 20l-86 -1l-3 109l139 220h-229v114h377l-2 -110l-145 -221q76 -6 111.5 -50t39.5 -134q2 -61 0 -111q-4 -98 -48.5 -140.5
t-142.5 -42.5z" />
    <glyph glyph-name="four" unicode="4" horiz-adv-x="503" 
d="M257 0v212h-227v107l177 481h172v-475h81v-113h-81v-212h-122zM153 325h104l17 192l15 169h-26l-48 -169z" />
    <glyph glyph-name="five" unicode="5" horiz-adv-x="480" 
d="M242 -9q-103 0 -149.5 42.5t-49.5 140.5v49t1 45h129q-2 -24 -2 -57t1 -53q3 -31 19 -46.5t48 -15.5q62 0 66 62q4 49 4.5 96t-3.5 91q-4 55 -61 55q-31 0 -49 -15t-19 -40h-122v455h368v-114h-239v-233h20q12 22 38.5 38t63.5 16q62 0 93.5 -42.5t35.5 -116.5
q2 -46 2 -90.5t-3 -83.5q-6 -65 -26 -105.5t-60 -59t-106 -18.5z" />
    <glyph glyph-name="six" unicode="6" horiz-adv-x="473" 
d="M234 -9q-101 0 -145 42.5t-44 140.5q-1 92 -1.5 181t-0.5 160.5t2 110.5q3 94 52 138.5t136 44.5q184 0 191 -183v-36t-1 -38h-128q1 23 1 43t-1 55q-1 25 -15 39t-45 14q-60 0 -61 -53q-3 -88 -3 -206h23q12 23 39.5 38.5t63.5 15.5q74 0 102 -37t30 -122q1 -47 0.5 -87
t-1.5 -78q-5 -98 -49.5 -140.5t-144.5 -42.5zM235 96q62 0 64 55q1 52 1 98v87q-2 55 -61 55q-31 0 -49.5 -14t-18.5 -40q0 -44 0.5 -90.5t2.5 -95.5q1 -55 61 -55z" />
    <glyph glyph-name="seven" unicode="7" horiz-adv-x="446" 
d="M76 0l212 686h-265v114h393v-116l-206 -684h-134z" />
    <glyph glyph-name="eight" unicode="8" 
d="M235 -9q-98 0 -142.5 42.5t-48.5 140.5q-1 24 -0.5 47t1.5 49q5 52 24 82t57 46v20q-27 11 -46.5 34t-25.5 59q-4 24 -5.5 58.5t-0.5 56.5q4 98 47.5 140.5t139.5 42.5q97 0 140 -42.5t48 -140.5q1 -22 -1 -56.5t-5 -58.5q-7 -36 -26.5 -59t-46.5 -34v-21q35 -16 55 -46
t26 -81q2 -26 2.5 -49t-0.5 -47q-4 -98 -49 -140.5t-143 -42.5zM235 469q63 0 63 62v56.5v54.5q-1 62 -63 62t-62 -62q-1 -54 0 -111q0 -62 62 -62zM235 96q62 0 63 62q1 59 0 125q-1 62 -63 62t-62 -62q-1 -66 0 -125q0 -62 62 -62z" />
    <glyph glyph-name="nine" unicode="9" horiz-adv-x="473" 
d="M243 -9q-99 0 -142.5 42t-43.5 140q-1 15 -0.5 36.5t0.5 38.5h129q-1 -23 -1.5 -46.5t1.5 -51.5q1 -25 12.5 -39.5t42.5 -14.5q29 0 42.5 13.5t14.5 40.5q2 41 3 93t2 111h-20q-11 -23 -35 -38.5t-61 -15.5t-70 17t-53 54t-21 96v97.5t1 60.5q4 99 49 141.5t145 42.5
q101 0 144 -42.5t45 -141.5q3 -125 3 -233t-3 -219q-2 -98 -46 -140t-138 -42zM238 407q59 0 65 48q-1 47 -2 96t-3 98q-1 54 -61 54q-63 0 -64 -54v-32t-0.5 -56.5t-0.5 -59v-39.5q1 -27 19.5 -41t46.5 -14z" />
    <glyph glyph-name="colon" unicode=":" horiz-adv-x="239" 
d="M42 300v127h155v-127h-155zM42 0v127h155v-127h-155z" />
    <glyph glyph-name="semicolon" unicode=";" horiz-adv-x="256" 
d="M42 0v129h156v-117l-74 -144h-67l56 132h-71zM42 300v127h155v-127h-155z" />
    <glyph glyph-name="less" unicode="&#x3c;" horiz-adv-x="526" 
d="M483 222v106l-208 22l-136 5v26l136 4l208 24v105l-440 -69v-156z" />
    <glyph glyph-name="equal" unicode="=" horiz-adv-x="492" 
d="M43 404v97h406v-97h-406zM43 230v97h406v-97h-406z" />
    <glyph glyph-name="greater" unicode="&#x3e;" horiz-adv-x="526" 
d="M43 222v106l208 22l136 5v26l-136 4l-208 24v105l440 -69v-156z" />
    <glyph glyph-name="question" unicode="?" horiz-adv-x="462" 
d="M174 205l-3 69q-3 61 12.5 95t63.5 64l18 10q17 11 21.5 34t4.5 54v120q0 53 -62 53q-57 0 -60 -53q-2 -38 -2 -74t1 -71h-125q0 26 -1 57t1 64q4 98 46.5 140.5t138.5 42.5q103 0 147.5 -42.5t44.5 -140.5v-54.5v-41.5q0 -52 -8.5 -84t-22.5 -50t-29.5 -27.5
t-29.5 -16.5l-23 -12q-21 -11 -25 -29.5t-6 -37.5l-4 -69h-98zM147 0v127h155v-127h-155z" />
    <glyph glyph-name="at" unicode="@" horiz-adv-x="665" 
d="M332 -150q-151 0 -218 49t-69 161q-1 81 -1.5 154.5t0 149.5t1.5 165q2 118 69 169t218 51q148 0 216 -51.5t71 -169.5q3 -97 3 -174t-3 -156q-2 -50 -36 -74.5t-92 -24.5q-57 0 -85 13.5t-37 34.5h-21q-12 -22 -26 -35.5t-43 -13.5q-38 0 -57.5 25.5t-23.5 86.5
q-2 29 -2.5 64.5t0.5 68.5t2 57q3 60 23.5 86t59.5 26q26 0 40 -12.5t27 -37.5h13v43h100v-305q0 -35 30 -35q25 0 28 36q3 59 3.5 148.5t-2.5 184.5q-3 68 -45.5 98.5t-142.5 30.5q-99 0 -141 -30t-44 -99q-8 -244 0 -479q2 -65 44.5 -92.5t140.5 -27.5q97 0 139.5 27
t43.5 92v16h98q1 -10 1 -16q-1 -75 -29.5 -119.5t-90.5 -64.5t-162 -20zM321 170q10 0 23 8.5t17 20.5v212q-5 13 -18.5 20.5t-21.5 7.5q-22 0 -24 -29q-3 -55 -2.5 -102.5t3.5 -107.5q1 -17 6.5 -23.5t16.5 -6.5z" />
    <glyph glyph-name="A" unicode="A" horiz-adv-x="459" 
d="M22 0l104 800h208l105 -800h-133l-18 183h-116l-18 -183h-132zM184 297h92l-17 177l-15 212h-28l-14 -212z" />
    <glyph glyph-name="B" unicode="B" horiz-adv-x="432" 
d="M43 0v800h169q100 0 147 -41.5t47 -137.5v-42t-1 -37q-3 -52 -22.5 -82t-59.5 -44v-22q42 -14 61.5 -45t21.5 -83q2 -43 0 -87q-4 -96 -48.5 -137.5t-145.5 -41.5h-169zM172 463h39q65 0 66 82v83q-1 58 -65 58h-40v-223zM172 114h40q64 0 65 66q1 40 0 80
q0 48 -15.5 68.5t-50.5 20.5h-39v-235z" />
    <glyph glyph-name="C" unicode="C" horiz-adv-x="454" 
d="M235 -9q-102 0 -145 42.5t-45 140.5q-2 65 -2 145.5v161t2 146.5q1 85 45.5 133.5t144.5 48.5q98 0 142 -42.5t47 -140.5v-60t-1 -61h-129q1 31 1 72.5v72.5q-2 53 -60 53q-60 0 -61 -53q-3 -77 -3.5 -163.5t0 -172.5t3.5 -163q1 -55 61 -55q62 0 64 55v73v73h129
q0 -28 0.5 -61t-0.5 -62q-3 -98 -48 -140.5t-145 -42.5z" />
    <glyph glyph-name="D" unicode="D" horiz-adv-x="467" 
d="M43 0v800h184q102 0 147.5 -43.5t47.5 -143.5q1 -76 1.5 -144.5t0 -136.5t-1.5 -144q-2 -101 -47.5 -144.5t-147.5 -43.5h-184zM172 114h55q64 0 66 59q5 227 0 455q-2 58 -66 58h-55v-572z" />
    <glyph glyph-name="E" unicode="E" horiz-adv-x="382" 
d="M43 0v800h316v-114h-187v-223h177v-114h-177v-235h187v-114h-316z" />
    <glyph glyph-name="F" unicode="F" horiz-adv-x="382" 
d="M43 0v800h316v-114h-187v-223h177v-114h-177v-349h-129z" />
    <glyph glyph-name="G" unicode="G" horiz-adv-x="453" 
d="M237 -9q-102 0 -145 42.5t-46 140.5q-2 65 -2.5 144.5t0 158.5t2.5 142q4 103 47.5 146.5t143.5 43.5q95 0 138.5 -42.5t49.5 -140.5q2 -27 2 -60t-2 -60h-129q2 31 2 72t-2 72q-3 54 -59 54q-59 0 -62 -54q-3 -77 -4.5 -163.5t0 -172.5t4.5 -163q3 -55 62 -55
q62 0 66 55q1 23 1 57t-1 57h-58v112h183q2 -43 2 -97t-2 -106q-5 -98 -49 -140.5t-142 -42.5z" />
    <glyph glyph-name="H" unicode="H" horiz-adv-x="455" 
d="M43 0v800h129v-337h111v337h129v-800h-129v349h-111v-349h-129z" />
    <glyph glyph-name="I" unicode="I" horiz-adv-x="215" 
d="M43 0v800h129v-800h-129z" />
    <glyph glyph-name="J" unicode="J" horiz-adv-x="441" 
d="M212 -9q-67 0 -106 18.5t-56 59t-19 105.5q-2 62 0 123h121v-73v-73q2 -55 60 -55q30 0 43.5 14t13.5 41v649h129v-626q0 -98 -42 -140.5t-144 -42.5z" />
    <glyph glyph-name="K" unicode="K" 
d="M43 0v800h138l-2 -188l-23 -190h25l52 190l68 188h141l-130 -336l137 -464h-131l-91 319l-52 -116v-203h-132z" />
    <glyph glyph-name="L" unicode="L" horiz-adv-x="382" 
d="M43 0v800h129v-686h188v-114h-317z" />
    <glyph glyph-name="M" unicode="M" horiz-adv-x="694" 
d="M43 0v800h213l60 -309l19 -376h24l19 376l61 309h211v-800h-129v244l25 442h-26l-45 -452l-55 -233h-146l-54 233l-46 452h-25l23 -443v-243h-129z" />
    <glyph glyph-name="N" unicode="N" horiz-adv-x="511" 
d="M43 0v800h193l56 -255l59 -431h25l-23 359l-10 327h124v-800h-201l-57 268l-47 419h-27l22 -381l11 -306h-125z" />
    <glyph glyph-name="O" unicode="O" horiz-adv-x="474" 
d="M237 -9q-101 0 -145.5 42.5t-46.5 140.5q-2 110 -2 226.5t2 226.5q2 98 46.5 140t145.5 42q100 0 143.5 -42t46.5 -140q3 -111 3 -227t-3 -226q-3 -98 -46.5 -140.5t-143.5 -42.5zM237 96q59 0 61 54q3 76 4 163.5t0 174.5t-4 162q-2 54 -61 54q-61 0 -63 -54
q-2 -75 -3 -162t0 -174.5t3 -163.5q2 -54 63 -54z" />
    <glyph glyph-name="P" unicode="P" horiz-adv-x="435" 
d="M43 0v800h175q101 0 146 -41.5t49 -137.5q1 -48 1 -88t-1 -86q-4 -95 -49 -136.5t-146 -41.5h-46v-269h-129zM172 383h46q62 0 65 58q3 42 3 93.5t-3 93.5q-3 58 -65 58h-46v-303z" />
    <glyph glyph-name="Q" unicode="Q" horiz-adv-x="474" 
d="M415 -116q-78 -6 -121 19t-58 88q-100 0 -144.5 42.5t-46.5 140.5q-2 110 -2 226.5t2 226.5q2 98 46.5 140t145.5 42q100 0 143.5 -42t46.5 -140q3 -111 3 -227t-3 -226q-4 -119 -71 -158q10 -35 59 -29v-103zM237 96q59 0 61 54q3 76 4 163.5t0 174.5t-4 162
q-2 54 -61 54q-61 0 -63 -54q-2 -75 -3 -162t0 -174.5t3 -163.5q2 -54 63 -54z" />
    <glyph glyph-name="R" unicode="R" horiz-adv-x="446" 
d="M43 0v800h175q101 0 146 -41.5t49 -137.5q1 -48 1 -83t-1 -81q-3 -61 -21.5 -99t-57.5 -58l91 -300h-137l-76 279h-40v-279h-129zM172 393h46q62 0 65 58q5 88 0 177q-3 58 -65 58h-46v-293z" />
    <glyph glyph-name="S" unicode="S" 
d="M237 -9q-100 0 -142.5 42.5t-46.5 140.5q-1 30 -0.5 62t3.5 61h121q-2 -38 -2 -76t2 -70q5 -55 64 -55q31 0 45 14t17 41q2 30 2 56t-2 57q-2 25 -12.5 44.5t-36.5 25.5l-74 19q-73 19 -101 63t-30 118q-1 24 -0.5 47t0.5 46q4 98 47 140t145 42q97 0 140.5 -42.5
t47.5 -140.5q0 -23 -0.5 -56.5t-1.5 -63.5h-124q1 36 1.5 72t-0.5 72q-2 54 -63 54q-31 0 -45.5 -14t-17.5 -40q-5 -57 0 -116q2 -26 13.5 -44t37.5 -24l66 -16q77 -19 106 -65t31 -121q1 -24 0.5 -45.5t-0.5 -44.5q-4 -98 -47 -140.5t-143 -42.5z" />
    <glyph glyph-name="T" unicode="T" horiz-adv-x="416" 
d="M144 0v686h-122v114h372v-114h-121v-686h-129z" />
    <glyph glyph-name="U" unicode="U" 
d="M236 -9q-102 0 -146 42.5t-45 140.5q-4 313 0 626h129q-2 -104 -2 -214.5t0.5 -221t1.5 -214.5q0 -54 62 -54q61 0 61 54q1 104 1.5 214.5t0.5 221t-2 214.5h129q4 -313 0 -626q-1 -98 -45 -140.5t-145 -42.5z" />
    <glyph glyph-name="V" unicode="V" horiz-adv-x="472" 
d="M131 0l-109 800h133l56 -412l12 -274h26l12 274l56 412h133l-109 -800h-210z" />
    <glyph glyph-name="W" unicode="W" horiz-adv-x="738" 
d="M94 0l-71 800h130l24 -350l17 -336h24l6 336l60 345h170l61 -345l5 -336h25l17 336l24 350h129l-70 -800h-214l-34 233l-16 452h-24l-16 -452l-34 -233h-213z" />
    <glyph glyph-name="X" unicode="X" horiz-adv-x="450" 
d="M22 0l117 414l-114 386h126l49 -186l17 -148h18l17 148l47 186h126l-109 -390l112 -410h-126l-50 197l-17 155h-18l-17 -155l-52 -197h-126z" />
    <glyph glyph-name="Y" unicode="Y" horiz-adv-x="452" 
d="M161 0v196l-10 42l-129 562h132l41 -202l18 -233h26l18 233l42 202h131l-129 -561l-10 -43v-196h-130z" />
    <glyph glyph-name="Z" unicode="Z" horiz-adv-x="397" 
d="M22 0v107l215 579h-204v114h342v-110l-224 -576h208v-114h-337z" />
    <glyph glyph-name="bracketleft" unicode="[" horiz-adv-x="329" 
d="M43 -200v1000h256v-62h-127v-876h127v-62h-256z" />
    <glyph glyph-name="backslash" unicode="\" horiz-adv-x="389" 
d="M359 -200l-200 1000h-129l200 -1000h129z" />
    <glyph glyph-name="bracketright" unicode="]" horiz-adv-x="329" 
d="M294 -200v1000h-256v-62h127v-876h-127v-62h256z" />
    <glyph glyph-name="asciicircum" unicode="^" horiz-adv-x="412" 
d="M43 439l121 250h84l120 -250h-84l-78 165l-79 -165h-84z" />
    <glyph glyph-name="underscore" unicode="_" horiz-adv-x="656" 
d="M30 -60v20h596v-20h-596z" />
    <glyph glyph-name="grave" unicode="`" horiz-adv-x="256" 
d="M43 791h84l86 -133h-84z" />
    <glyph glyph-name="a" unicode="a" horiz-adv-x="439" 
d="M151 -8q-62 0 -91.5 31.5t-35.5 105.5q-1 9 -1 22t1 23q5 60 36 95.5t106 65.5q25 11 49.5 19t51.5 15v90q-1 26 -11 39.5t-40 13.5q-26 0 -36.5 -11t-12.5 -38v-25v-34.5v-27.5h-125q-1 8 -1.5 31.5t0.5 41.5q3 84 42 122t136 38q68 0 105.5 -18.5t53 -58.5t17.5 -104
l-1 -428h-129v62h-17q-16 -36 -37.5 -53t-59.5 -17zM204 85q21 0 36.5 12t25.5 33v153q-18 -4 -35 -10.5t-33 -15.5q-27 -14 -36 -35t-11 -48q-1 -19 1 -35q4 -54 52 -54z" />
    <glyph glyph-name="b" unicode="b" horiz-adv-x="460" 
d="M425 453q1 -30 1.5 -70.5t0.5 -84t-0.5 -83t-1.5 -68.5q-4 -84 -38 -120t-93 -36q-44 0 -66 18t-41 53h-15v-62h-129v800h129v-262h23q20 35 42 53t66 18q58 0 88 -36t34 -120zM296 136q2 44 2.5 101.5t0 117t-2.5 109.5q-2 26 -13 38.5t-35 12.5q-22 0 -44 -12.5
t-32 -35.5v-334q10 -23 32 -35.5t44 -12.5q24 0 35 12.5t13 38.5z" />
    <glyph glyph-name="c" unicode="c" horiz-adv-x="439" 
d="M45 155q-1 22 -1.5 60.5t-0.5 82t0.5 82.5t1.5 64q6 89 48 127t134 38t133.5 -37.5t45.5 -122.5v-41t-1 -32h-126q1 11 1 28v34t-1 25q-1 27 -13 38t-39 11q-28 0 -40 -11t-13 -38q-4 -162 0 -322q1 -29 13.5 -41t41.5 -12q26 0 37.5 12t12.5 41q1 14 1 36t-1 49h126
q1 -9 1 -31.5v-39.5q-4 -88 -45.5 -126t-131.5 -38q-94 0 -136.5 38t-47.5 126z" />
    <glyph glyph-name="d" unicode="d" horiz-adv-x="460" 
d="M287 800h129v-800h-129v62h-19q-19 -34 -42 -52.5t-67 -18.5q-58 0 -89 36t-35 120q-1 29 -1.5 68.5t-0.5 83t0.5 84t1.5 70.5q4 84 36 120t90 36q44 0 66 -18t42 -53h18v262zM211 85q23 0 45 12.5t31 35.5v334q-9 23 -31 35.5t-44 12.5q-25 0 -36 -12.5t-12 -38.5
q-2 -50 -3 -109.5t0 -117t3 -101.5q1 -26 12 -38.5t35 -12.5z" />
    <glyph glyph-name="e" unicode="e" horiz-adv-x="440" 
d="M279 226h126q1 -9 1 -31.5v-39.5q-4 -88 -45 -126t-132 -38q-94 0 -136.5 38t-47.5 126q-1 22 -1.5 60.5t-0.5 82t0.5 82.5t1.5 64q6 89 48.5 127t134.5 38q91 0 132.5 -37.5t45.5 -122.5q0 -13 0.5 -41t0 -63t-1.5 -67h-233q0 -35 1 -69t1 -68q1 -29 13.5 -41t41.5 -12
q26 0 37.5 12t12.5 41q2 29 0 85zM228 512q-29 0 -41 -11.5t-13 -37.5q0 -25 -0.5 -48t-1.5 -47h108q0 33 -0.5 59.5t-0.5 35.5q-1 26 -13 37.5t-38 11.5z" />
    <glyph glyph-name="f" unicode="f" horiz-adv-x="356" 
d="M92 0v502h-62v98h62v46q0 88 45 126t139 38q17 0 35 -2t35 -5v-94q-17 0 -34.5 0.5t-34.5 0.5q-56 0 -56 -54v-56h103v-98h-103v-502h-129z" />
    <glyph glyph-name="g" unicode="g" horiz-adv-x="476" 
d="M236 -192q-84 0 -132.5 25t-56.5 63q-3 18 -1 35q3 23 19 38.5t50 21.5v19q-59 9 -67 56q-2 14 0 29q4 21 21 37.5t48 19.5v18q-73 35 -80 148q-1 38 -1 65t1 61q7 89 50 127t137 38q121 0 161 -66h17q7 56 73 57v-98h-14q-50 0 -50 -56q1 -53 0.5 -79.5t-1.5 -48.5
q-5 -89 -48 -127.5t-138 -38.5h-10q-38 -1 -50.5 -8.5t-12.5 -21.5v-4q0 -16 22 -22.5t73 -6.5q95 -2 142 -31t57 -88q1 -8 1 -19t-1 -24q-7 -45 -35.5 -71t-73.5 -37t-100 -11zM224 249q59 0 62 54q3 71 0 156q-3 53 -62 53q-60 0 -62 -53q-3 -85 0 -156q3 -54 62 -54z
M241 -103q85 0 97 40q5 14 -1 30q-6 20 -30 27.5t-66 8.5q-41 0 -60.5 -9.5t-24.5 -29.5q-5 -15 0 -29q5 -20 24.5 -29t60.5 -9z" />
    <glyph glyph-name="h" unicode="h" horiz-adv-x="461" 
d="M43 0v800h129v-262h23q20 35 42 53t66 18q58 0 90.5 -36t32.5 -120v-453h-129v464q0 51 -49 51q-22 0 -44 -12.5t-32 -35.5v-467h-129z" />
    <glyph glyph-name="i" unicode="i" horiz-adv-x="219" 
d="M40 695v105h139v-105h-139zM45 0v600h129v-600h-129z" />
    <glyph glyph-name="j" unicode="j" horiz-adv-x="218" 
d="M39 695v105h138v-105h-138zM-82 -204v96q13 -1 34 -1.5t36 -0.5q56 0 56 53v657h129v-647q0 -88 -45.5 -126t-139.5 -38q-16 0 -34.5 2t-35.5 5z" />
    <glyph glyph-name="k" unicode="k" horiz-adv-x="451" 
d="M43 0v800h121v-191l-15 -248h20l44 124l53 115h134l-117 -230l138 -370h-132l-87 240l-36 -59v-181h-123z" />
    <glyph glyph-name="l" unicode="l" horiz-adv-x="215" 
d="M43 0v800h129v-800h-129z" />
    <glyph glyph-name="m" unicode="m" horiz-adv-x="719" 
d="M43 0v600h129v-62h23q19 35 41.5 53t66.5 18q42 0 70.5 -18.5t41.5 -60.5h21q19 34 45 56.5t71 22.5q58 0 89 -36t32 -120l2 -453h-129l-2 464q-1 51 -47 51q-21 0 -41.5 -14.5t-30.5 -35.5l1 -465h-129l-1 464q-1 51 -48 51q-22 0 -44 -12.5t-32 -35.5v-467h-129z" />
    <glyph glyph-name="n" unicode="n" 
d="M43 0v600h129v-62h23q20 34 42 52.5t66 18.5q58 0 90.5 -36t32.5 -120v-453h-129v464q0 51 -49 51q-21 0 -44 -13t-32 -35v-467h-129z" />
    <glyph glyph-name="o" unicode="o" horiz-adv-x="464" 
d="M232 -9q-66 0 -106 18t-58.5 58.5t-22.5 106.5q0 23 -1 55.5t-1 69t0.5 70t1.5 58.5q4 65 22.5 105t58 58.5t106.5 18.5q68 0 107.5 -18.5t57.5 -58.5t21 -105q2 -31 2.5 -78t0 -95t-2.5 -80q-3 -65 -21 -105.5t-57.5 -59t-107.5 -18.5zM232 88q31 0 44 13.5t13 40.5
q5 158 0 317q0 27 -13 40t-44 13q-29 0 -43 -13t-15 -40q-5 -159 0 -317q2 -54 58 -54z" />
    <glyph glyph-name="p" unicode="p" horiz-adv-x="470" 
d="M43 -200v800h129v-62h19q20 35 41.5 53t66.5 18q58 0 90 -36t36 -120q1 -27 1.5 -67t0.5 -84.5t-0.5 -85.5t-1.5 -69q-4 -84 -39.5 -120t-93.5 -36q-32 0 -56 16.5t-45 54.5h-19v-262h-129zM240 85q24 0 39 12.5t17 38.5q2 48 2.5 106t0 116t-2.5 106q-2 26 -13 38.5
t-35 12.5q-22 0 -44 -12.5t-32 -35.5v-334q11 -26 26.5 -37t41.5 -11z" />
    <glyph glyph-name="q" unicode="q" horiz-adv-x="470" 
d="M298 -200v262h-18q-21 -38 -44 -54.5t-56 -16.5q-59 0 -95 36t-40 120q-1 26 -1.5 66t-0.5 85t0.5 86t1.5 69q4 84 36 120t90 36q44 0 66 -18t42 -53h19v62h129v-800h-129zM230 85q25 0 41 11t27 37v334q-10 23 -32 35.5t-44 12.5q-25 0 -35.5 -12.5t-12.5 -38.5
q-2 -51 -3 -110t0 -116t3 -102q2 -26 17 -38.5t39 -12.5z" />
    <glyph glyph-name="r" unicode="r" horiz-adv-x="335" 
d="M43 0v600h129v-70h23q6 41 26.5 57t53.5 16q12 0 23 -0.5t17 -1.5v-99h-38q-54 0 -76.5 -17t-28.5 -48v-437h-129z" />
    <glyph glyph-name="s" unicode="s" horiz-adv-x="435" 
d="M214 -9q-89 0 -127 38t-42 126q-1 17 -0.5 39.5t1.5 31.5h113q-1 -27 -1 -49t1 -36q1 -29 15 -41t40 -12q31 0 45.5 12t14.5 41v21.5v20.5q0 21 -7.5 34t-27.5 18l-65 19q-63 19 -97.5 53.5t-34.5 100.5v17v18q0 89 40 127.5t138 38.5q89 0 126.5 -37.5t41.5 -122.5
q0 -18 -0.5 -41t-0.5 -32h-118q1 11 1 28v34t-1 25q-1 27 -12 38t-37 11q-29 0 -40 -11t-12 -38q-1 -13 -1 -23v-21q0 -24 7 -39.5t31 -21.5l58 -15q64 -16 97 -51t33 -102v-19.5v-19.5q-1 -85 -42 -122.5t-137 -37.5z" />
    <glyph glyph-name="t" unicode="t" horiz-adv-x="364" 
d="M286 -9q-103 0 -147 38t-44 126v347h-53v98h54v170h131l-2 -170h99v-98h-100v-362q0 -29 12 -41t51 -12q12 0 22.5 0.5t24.5 1.5v-93q-11 -3 -23 -4t-25 -1z" />
    <glyph glyph-name="u" unicode="u" 
d="M173 -9q-59 0 -93 36t-34 120v453h129v-464q0 -51 47 -51q22 0 44.5 13t31.5 35v467h129v-600h-129v62h-18q-21 -38 -46.5 -54.5t-60.5 -16.5z" />
    <glyph glyph-name="v" unicode="v" horiz-adv-x="447" 
d="M120 0l-90 600h131l38 -301l11 -204h26l11 204l39 301h131l-92 -600h-205z" />
    <glyph glyph-name="w" unicode="w" horiz-adv-x="715" 
d="M103 0l-80 600h131l29 -301l10 -204h25l10 204l30 300h199l29 -300l10 -204h25l10 204l30 301h131l-81 -600h-209l-21 233l-11 271h-26l-11 -271l-21 -233h-209z" />
    <glyph glyph-name="x" unicode="x" horiz-adv-x="430" 
d="M30 0l97 315l-95 285h125l36 -126l10 -107h25l11 107l35 126h124l-94 -287l96 -313h-124l-38 151l-10 123h-25l-9 -123l-39 -151h-125z" />
    <glyph glyph-name="y" unicode="y" horiz-adv-x="430" 
d="M127 0l-106 600h132l34 -276l20 -228h25l17 228l28 276h131l-98 -645q-9 -58 -30.5 -94t-62 -53t-109.5 -17q-16 0 -34.5 2t-35.5 5v96q13 -1 34 -2t36 -1q39 0 54 12t19 42l7 55h-61z" />
    <glyph glyph-name="z" unicode="z" horiz-adv-x="376" 
d="M22 0v82l195 423l-191 -1v96h328v-85l-198 -420h196v-95h-330z" />
    <glyph glyph-name="braceleft" unicode="{" horiz-adv-x="364" 
d="M334 -202q-59 0 -108 17.5t-78.5 56.5t-29.5 105q0 14 1 43.5t2 62.5t2 60.5t1 38.5q0 41 -13.5 51t-39.5 10h-41v111h41q26 0 39.5 10t13.5 50q0 11 -1 39t-2 61.5t-1.5 63t-0.5 43.5q0 66 29 105.5t78 56.5t108 17v-64q-23 0 -43 -15.5t-33 -42t-13 -57.5q0 -15 1 -47
t2 -66t1 -54q0 -57 -22 -96.5t-68 -48.5v-19q46 -9 68 -48.5t22 -96.5q0 -21 -1 -54.5t-2 -66t-1 -47.5q0 -31 13 -57t33 -42t43 -16v-64z" />
    <glyph glyph-name="bar" unicode="|" horiz-adv-x="215" 
d="M43 -200v1000h129v-1000h-129z" />
    <glyph glyph-name="braceright" unicode="}" horiz-adv-x="361" 
d="M27 -202q59 0 108 17.5t78.5 56.5t29.5 105q0 14 -1 43.5t-2 62.5t-2 60.5t-1 38.5q0 41 13.5 51t39.5 10h41v111h-41q-26 0 -39.5 10t-13.5 50q0 11 1 39t2 61.5t1.5 63t0.5 43.5q0 66 -29 105.5t-78 56.5t-108 17v-64q23 0 43 -15.5t33 -42t13 -57.5q0 -15 -1 -47
t-2 -66t-1 -54q0 -57 22 -96.5t68 -48.5v-19q-46 -9 -68 -48.5t-22 -96.5q0 -21 1 -54.5t2 -66t1 -47.5q0 -31 -13 -57t-33 -42t-43 -16v-64z" />
    <glyph glyph-name="asciitilde" unicode="~" horiz-adv-x="515" 
d="M43 299q5 82 41.5 117.5t91.5 34.5q34 0 56.5 -10t39.5 -23t33 -23t37 -10q57 -1 60 50h70q-4 -77 -39.5 -111t-93.5 -34q-30 1 -52.5 11t-41 23t-35.5 23.5t-38 10.5q-25 1 -40.5 -14.5t-17.5 -44.5h-71z" />
    <glyph glyph-name="uni00A0" unicode="&#xa0;" horiz-adv-x="217" 
 />
    <glyph glyph-name="exclamdown" unicode="&#xa1;" horiz-adv-x="239" 
d="M72 395l-17 -404v-191h129v191l-17 404h-95zM42 600v-127h155v127h-155z" />
    <glyph glyph-name="cent" unicode="&#xa2;" horiz-adv-x="431" 
d="M168 0v96q-61 10 -90 48.5t-33 110.5q-1 22 -1.5 60.5t-0.5 82t0.5 82.5t1.5 64q4 73 33 111.5t90 48.5v96h113v-95q63 -9 92 -46.5t33 -109.5q0 -18 -0.5 -41t-0.5 -32h-126q0 11 0.5 28t0 34t-0.5 25q-1 27 -13 38t-39 11q-28 0 -40 -11t-13 -38q-4 -162 0 -322
q1 -29 13.5 -41t41.5 -12q26 0 37.5 12t12.5 41q1 14 1 36t-1 49h126q0 -9 0.5 -31.5t0.5 -39.5q-4 -74 -33.5 -112.5t-91.5 -48.5v-94h-113z" />
    <glyph glyph-name="sterling" unicode="&#xa3;" horiz-adv-x="492" 
d="M68 0v111q20 11 32.5 62t12.5 131q0 21 -1.5 40t-4.5 36h-63v64h47q-10 40 -20 82t-10 101q2 85 46.5 133.5t144.5 48.5q98 0 142 -42.5t46 -140.5q1 -25 0.5 -60t-0.5 -61h-129q0 31 0.5 72.5t-0.5 72.5q-1 53 -59 53q-60 0 -62 -53q0 -52 12.5 -100.5t23.5 -105.5h88
v-64h-80q1 -14 2 -28.5t1 -29.5q0 -63 -13.5 -111t-37.5 -77v-20h262v-114h-380z" />
    <glyph glyph-name="currency" unicode="&#xa4;" horiz-adv-x="588" 
d="M100 25l-53 45l76 88q-19 39 -23 108q0 22 -0.5 55t-1 69.5t0 70t1.5 57.5q2 35 8 62t16 48l-80 89l51 45l76 -84q41 23 116 23q83 0 124 -28l83 88l51 -47l-91 -95q9 -20 13.5 -45t6.5 -56q1 -30 1.5 -77.5t0 -95t-1.5 -79.5q-2 -32 -7 -57t-13 -45l82 -93l-53 -46
l-74 84q-41 -27 -122 -27q-76 0 -117 24zM287 180q31 0 44 13t14 41q5 158 0 316q-1 27 -14 40.5t-44 13.5q-29 0 -43 -13.5t-14 -40.5q-6 -159 0 -316q1 -54 57 -54z" />
    <glyph glyph-name="yen" unicode="&#xa5;" horiz-adv-x="462" 
d="M297 261v-31h96v-66h-96v-41h96v-66h-96v-57h-132v57h-95v66h95v41h-95v66h95v31h-19l-124 539h135l42 -202l17 -233h29l18 233l42 202h135l-125 -539h-18z" />
    <glyph glyph-name="brokenbar" unicode="&#xa6;" horiz-adv-x="215" 
d="M43 800h129v-372h-129v372zM43 -200v388h129v-388h-129z" />
    <glyph glyph-name="section" unicode="&#xa7;" horiz-adv-x="440" 
d="M216 -209q-59 0 -95 13t-53.5 46t-19.5 91q-1 12 -1 29.5t0.5 33.5t1.5 22h113q-2 -55 0 -85q1 -29 14.5 -41t39.5 -12q32 0 46 12t14 41q0 18 0.5 36t-0.5 35q0 21 -6 33.5t-28 18.5l-63 17q-63 17 -97.5 50t-37.5 95v53.5v56.5q2 48 21 77t48 41v19q-27 9 -46.5 30
t-22.5 64q-1 21 -1 46t2 41q5 60 21.5 91.5t53.5 43.5t102 12q90 0 127 -37.5t41 -123.5q1 -17 1 -38t-2 -43h-117q1 23 1 53t-1 42q-2 27 -12.5 34t-37.5 7q-28 0 -38.5 -7t-13.5 -34q-1 -12 -1.5 -40.5t0.5 -46.5q1 -23 7.5 -37.5t31.5 -20.5l57 -14q63 -15 95 -56.5
t35 -106.5q2 -35 2 -56t-2 -50q-3 -39 -21.5 -64.5t-44.5 -36.5v-16q30 -12 48 -38t19 -63q1 -16 0.5 -34.5t-1.5 -32.5q-3 -57 -21 -89.5t-56 -46.5t-102 -14zM224 177q30 0 41.5 14.5t14.5 39.5q2 22 2 52.5t-2 52.5q-3 24 -14.5 38.5t-41.5 14.5t-43 -14.5t-15 -38.5
q-2 -22 -2 -53t2 -52q3 -25 15.5 -39.5t42.5 -14.5z" />
    <glyph glyph-name="dieresis" unicode="&#xa8;" horiz-adv-x="331" 
d="M188 661v100h99v-100h-99zM43 661v100h100v-100h-100z" />
    <glyph glyph-name="copyright" unicode="&#xa9;" horiz-adv-x="651" 
d="M326 -5q-138 0 -210.5 77.5t-72.5 227.5t72.5 227.5t210.5 77.5t209.5 -77.5t71.5 -227.5t-71.5 -227.5t-209.5 -77.5zM326 57q103 0 157 61.5t54 181.5q0 119 -54 181t-157 62q-104 0 -158 -61.5t-54 -181.5t54 -181.5t158 -61.5zM210 218q-1 17 -1.5 48t0 62t1.5 51
q3 58 30 83t86 25q60 0 85.5 -24.5t29.5 -80.5q1 -10 0.5 -18.5t-1.5 -13.5h-78q1 8 0.5 20.5t-0.5 20.5q0 19 -8.5 26.5t-27.5 7.5t-27 -7.5t-9 -26.5q-2 -50 -1 -92t1 -91q0 -20 9 -28t28 -8q18 0 26 8t9 28q1 9 1 17.5t-1 24.5h78q1 -6 1.5 -14t-0.5 -18
q-4 -58 -29.5 -82.5t-84.5 -24.5q-60 0 -86.5 24.5t-30.5 82.5z" />
    <glyph glyph-name="ordfeminine" unicode="&#xaa;" horiz-adv-x="381" 
d="M144 377q-49 0 -70.5 22t-29.5 77q-1 14 0 31q5 44 29 68.5t84 44.5q20 7 39 12t42 10q0 14 -0.5 28.5t-1.5 28.5q-1 16 -8 25.5t-33 9.5q-20 0 -28.5 -7.5t-10.5 -25.5q-1 -4 -0.5 -17t0.5 -26v-15h-98q-1 4 -1 21v27q4 61 34 89.5t107 28.5q54 0 83.5 -13.5t41.5 -43.5
t14 -77v-58.5v-77v-82.5v-74h-102q0 11 0.5 22t0.5 23h-14q-12 -25 -29 -38t-49 -13zM186 450q35 0 51 30q1 24 1 48t1 49q-15 -3 -30.5 -7t-27.5 -10q-21 -8 -28 -21.5t-9 -31.5q-1 -5 -0.5 -12t0.5 -10q0 -19 12 -27t30 -8z" />
    <glyph glyph-name="guillemotleft" unicode="&#xab;" horiz-adv-x="353" 
d="M161 88l-151 166v120l151 166v-120l-96 -106l96 -106v-120zM308 88l-151 166v120l151 166v-120l-96 -106l96 -106v-120z" />
    <glyph glyph-name="logicalnot" unicode="&#xac;" horiz-adv-x="492" 
d="M351 221v183h-308v97h406v-280h-98z" />
    <glyph glyph-name="uni00AD" unicode="&#xad;" horiz-adv-x="414" 
d="M30 304v114h354v-114h-354z" />
    <glyph glyph-name="registered" unicode="&#xae;" horiz-adv-x="452" 
d="M227 491q-89 0 -136.5 50t-47.5 146t47.5 146t136.5 50t135.5 -50t46.5 -146t-46.5 -146t-135.5 -50zM227 530q142 0 142 157q0 80 -35 118t-107 38q-73 0 -108.5 -38t-35.5 -118q0 -157 144 -157zM172 588v212h58q32 0 46.5 -13t16.5 -42v-16q-2 -33 -32 -41v-6
q29 -7 31 -40q1 -12 1 -25v-29h-44q0 14 -0.5 30t-1.5 30q0 20 -17 20h-14v-80h-44zM216 707h15q17 0 17 17q1 11 0 23q0 14 -18 14h-14v-54z" />
    <glyph glyph-name="macron" unicode="&#xaf;" horiz-adv-x="440" 
d="M43 661v64h354v-64h-354z" />
    <glyph glyph-name="degree" unicode="&#xb0;" horiz-adv-x="305" 
d="M153 591q-30 0 -55 15t-40 40t-15 54q0 30 15 55t40 40t55 15t54.5 -15t39.5 -40t15 -55q0 -29 -15 -54t-39.5 -40t-54.5 -15zM96 700q0 -23 16.5 -39.5t40.5 -16.5t40.5 16.5t16.5 39.5q0 24 -16.5 40.5t-40.5 16.5t-40.5 -16.5t-16.5 -40.5z" />
    <glyph glyph-name="plusminus" unicode="&#xb1;" horiz-adv-x="512" 
d="M207 237v79h-164v97h164v104h97v-104h165v-97h-165v-79h-97zM43 115v79h426v-79h-426z" />
    <glyph glyph-name="uni00B2" unicode="&#xb2;" horiz-adv-x="320" 
d="M43 439q-1 37 -1 52.5t1 26.5q1 35 23 60.5t59 43.5l37 17q14 8 17.5 15.5t5.5 20.5q1 17 0 35q-2 20 -26 20q-22 0 -23 -19q-1 -16 -1 -31t1 -23h-92q0 8 -0.5 19.5t-0.5 21.5q2 52 32 79.5t84 27.5q58 0 88.5 -27.5t30.5 -79.5v-10.5v-12.5q0 -38 -20.5 -62t-57.5 -41
l-45 -19q-6 -4 -11 -10t-5 -13v-10h129v-81h-225z" />
    <glyph glyph-name="uni00B3" unicode="&#xb3;" horiz-adv-x="319" 
d="M156 434q-59 0 -91.5 25.5t-32.5 74.5v9.5t1 12.5h92q0 -6 -0.5 -11.5t-0.5 -10.5q1 -25 30 -25t29 23v14.5v15.5q0 26 -29 26h-57l-3 68l61 63h-114v81h228l-1 -79l-71 -62q38 -6 58.5 -30t20.5 -66q1 -16 0 -30q0 -47 -30.5 -73t-89.5 -26z" />
    <glyph glyph-name="acute" unicode="&#xb4;" horiz-adv-x="252" 
d="M35 641l82 133h84l-86 -133h-80z" />
    <glyph glyph-name="uni00B5" unicode="&#xb5;" horiz-adv-x="484" 
d="M45 -200l-2 800h129l1 -464q0 -51 48 -51q22 0 44 13t32 35v467h129v-483q0 -38 3.5 -68.5t10.5 -48.5h-129q-4 11 -7 27t-5 35h-21q-17 -33 -39 -52t-50 -19q-10 0 -15 3v-194h-129z" />
    <glyph glyph-name="paragraph" unicode="&#xb6;" horiz-adv-x="538" 
d="M263 -100v451h-32q-67 0 -106.5 18.5t-58 58.5t-22.5 106q-1 17 -1 41.5t1 42.5q3 66 21.5 106t58.5 58t107 18h264v-70h-41v-830h-79v830h-33v-830h-79z" />
    <glyph glyph-name="periodcentered" unicode="&#xb7;" horiz-adv-x="239" 
d="M42 345v121h155v-121h-155z" />
    <glyph glyph-name="cedilla" unicode="&#xb8;" horiz-adv-x="223" 
d="M106 -160q-34 0 -58 7l11 41q15 -2 47 -2q24 0 24 18q0 23 -24 23h-57l-6 6v68h47v-32h16q74 0 74 -65q0 -64 -74 -64z" />
    <glyph glyph-name="uni00B9" unicode="&#xb9;" horiz-adv-x="229" 
d="M61 442v283h-47l-1 32l68 45h73v-360h-93z" />
    <glyph glyph-name="ordmasculine" unicode="&#xba;" horiz-adv-x="384" 
d="M192 376q-77 0 -110 31t-37 106q0 14 -0.5 45t-0.5 63.5t1 51.5q7 75 38 105.5t107 30.5q82 0 114 -32.5t36 -103.5q1 -19 1.5 -51.5t0 -63.5t-1.5 -45q-4 -47 -17.5 -77.5t-44.5 -45t-86 -14.5zM193 451q25 0 35 9.5t11 26.5q3 63 2.5 109.5t-2.5 102.5q-1 17 -11 26
t-35 9q-24 0 -35 -9t-11 -26q-3 -56 -3 -102.5t3 -109.5q0 -17 11 -26.5t35 -9.5z" />
    <glyph glyph-name="guillemotright" unicode="&#xbb;" horiz-adv-x="353" 
d="M192 88l151 166v120l-151 166v-120l96 -106l-96 -106v-120zM45 88l151 166v120l-151 166v-120l96 -106l-96 -106v-120z" />
    <glyph glyph-name="onequarter" unicode="&#xbc;" horiz-adv-x="583" 
d="M61 441v283h-47l-1 32l68 45h73v-360h-93zM-30 0l486 800h90l-487 -800h-89zM423 0v78h-132v77l102 205h117v-202h43v-80h-43v-78h-87zM382 158h41l12 73l11 48h-16l-19 -48z" />
    <glyph glyph-name="onehalf" unicode="&#xbd;" horiz-adv-x="598" 
d="M61 441v283h-47l-1 32l68 45h73v-360h-93zM-30 0l486 800h90l-487 -800h-89zM321 0q-1 37 -1 52.5t1 26.5q1 35 23 60.5t59 43.5l37 17q14 8 17.5 15.5t5.5 20.5q1 17 0 35q-2 20 -26 20q-22 0 -23 -19q-1 -16 -1 -31t1 -23h-92q0 8 -0.5 19.5t-0.5 21.5q2 52 32 79.5
t84 27.5q58 0 88.5 -27.5t30.5 -79.5v-10.5v-12.5q0 -38 -20.5 -62t-57.5 -41l-45 -19q-6 -4 -11 -10t-5 -13v-10h129v-81h-225z" />
    <glyph glyph-name="threequarters" unicode="&#xbe;" horiz-adv-x="679" 
d="M156 434q-59 0 -91.5 25.5t-32.5 74.5v9.5t1 12.5h92q0 -6 -0.5 -11.5t-0.5 -10.5q1 -25 30 -25t29 23v14.5v15.5q0 26 -29 26h-57l-3 68l61 63h-114v81h228l-1 -79l-71 -62q38 -6 58.5 -30t20.5 -66q1 -16 0 -30q0 -47 -30.5 -73t-89.5 -26zM66 0l486 800h90l-487 -800
h-89zM519 0v78h-132v77l102 205h117v-202h43v-80h-43v-78h-87zM478 158h41l12 73l11 48h-16l-19 -48z" />
    <glyph glyph-name="questiondown" unicode="&#xbf;" horiz-adv-x="462" 
d="M288 395l3 -69q3 -61 -12.5 -95t-63.5 -64l-18 -10q-17 -11 -21.5 -34t-4.5 -54v-120q0 -53 62 -53q57 0 60 53q2 38 2 74t-1 71h125q0 -26 1 -57t-1 -64q-4 -98 -46.5 -140.5t-138.5 -42.5q-103 0 -147.5 42.5t-44.5 140.5v54.5v41.5q0 52 8.5 84t22.5 50t29.5 27.5
t29.5 16.5l23 12q21 11 25 29.5t6 37.5l4 69h98zM315 600v-127h-155v127h155z" />
    <glyph glyph-name="Agrave" unicode="&#xc0;" horiz-adv-x="459" 
d="M22 0l104 800h208l105 -800h-133l-18 183h-116l-18 -183h-132zM184 297h92l-17 177l-15 212h-28l-14 -212zM90 928v3h76l104 -81v-3h-68z" />
    <glyph glyph-name="Aacute" unicode="&#xc1;" horiz-adv-x="459" 
d="M22 0l104 800h208l105 -800h-133l-18 183h-116l-18 -183h-132zM184 297h92l-17 177l-15 212h-28l-14 -212zM204 847v3l104 81h76v-3l-112 -81h-68z" />
    <glyph glyph-name="Acircumflex" unicode="&#xc2;" horiz-adv-x="459" 
d="M22 0l104 800h208l105 -800h-133l-18 183h-116l-18 -183h-132zM184 297h92l-17 177l-15 212h-28l-14 -212zM85 839l103 91h76l103 -91h-85l-56 54l-56 -54h-85z" />
    <glyph glyph-name="Atilde" unicode="&#xc3;" horiz-adv-x="459" 
d="M22 0l104 800h208l105 -800h-133l-18 183h-116l-18 -183h-132zM184 297h92l-17 177l-15 212h-28l-14 -212zM94 838q3 44 25.5 63.5t60.5 18.5q28 -1 44 -9t28.5 -16t30.5 -8q17 0 27 9t10 24h46q-4 -88 -84 -87q-27 0 -44 8t-31 16.5t-31 8.5q-33 2 -36 -28h-46z" />
    <glyph glyph-name="Adieresis" unicode="&#xc4;" horiz-adv-x="459" 
d="M22 0l104 800h208l105 -800h-133l-18 183h-116l-18 -183h-132zM184 297h92l-17 177l-15 212h-28l-14 -212zM253 848v81h99v-81h-99zM108 848v81h100v-81h-100z" />
    <glyph glyph-name="Aring" unicode="&#xc5;" horiz-adv-x="459" 
d="M22 0l104 800h208l105 -800h-133l-18 183h-116l-18 -183h-132zM184 297h92l-17 177l-15 212h-28l-14 -212zM230 753q-37 0 -63.5 26t-26.5 64q0 37 26.5 63t63.5 26t63 -26t26 -63q0 -38 -26 -64t-63 -26zM190 843q0 -17 11.5 -29t28.5 -12t28.5 12t11.5 29
q0 16 -11.5 28t-28.5 12t-28.5 -12t-11.5 -28z" />
    <glyph glyph-name="AE" unicode="&#xc6;" horiz-adv-x="641" 
d="M618 686h-187v-223h177v-114h-177v-235h187v-114h-316v183h-103l-37 -183h-140l157 800h439v-114zM222 297h80v389h-25l-26 -246z" />
    <glyph glyph-name="Ccedilla" unicode="&#xc7;" horiz-adv-x="454" 
d="M235 -9q-102 0 -145 42.5t-45 140.5q-2 65 -2 145.5v161t2 146.5q1 85 45.5 133.5t144.5 48.5q98 0 142 -42.5t47 -140.5v-60t-1 -61h-129q1 31 1 72.5v72.5q-2 53 -60 53q-60 0 -61 -53q-3 -77 -3.5 -163.5t0 -172.5t3.5 -163q1 -55 61 -55q62 0 64 55v73v73h129
q0 -28 0.5 -61t-0.5 -62q-3 -98 -48 -140.5t-145 -42.5zM276 -152q-34 0 -58 7l11 41q15 -2 47 -2q24 0 24 18q0 23 -24 23h-57l-6 6v68h47v-32h16q74 0 74 -65q0 -64 -74 -64z" />
    <glyph glyph-name="Egrave" unicode="&#xc8;" horiz-adv-x="382" 
d="M43 0v800h316v-114h-187v-223h177v-114h-177v-235h187v-114h-316zM62 928v3h76l104 -81v-3h-68z" />
    <glyph glyph-name="Eacute" unicode="&#xc9;" horiz-adv-x="382" 
d="M43 0v800h316v-114h-187v-223h177v-114h-177v-235h187v-114h-316zM176 847v3l104 81h76v-3l-112 -81h-68z" />
    <glyph glyph-name="Ecircumflex" unicode="&#xca;" horiz-adv-x="382" 
d="M43 0v800h316v-114h-187v-223h177v-114h-177v-235h187v-114h-316zM57 839l103 91h76l103 -91h-85l-56 54l-56 -54h-85z" />
    <glyph glyph-name="Edieresis" unicode="&#xcb;" horiz-adv-x="382" 
d="M43 0v800h316v-114h-187v-223h177v-114h-177v-235h187v-114h-316zM225 848v81h99v-81h-99zM80 848v81h100v-81h-100z" />
    <glyph glyph-name="Igrave" unicode="&#xcc;" horiz-adv-x="215" 
d="M43 0v800h129v-800h-129zM-33 928v3h76l104 -81v-3h-68z" />
    <glyph glyph-name="Iacute" unicode="&#xcd;" horiz-adv-x="215" 
d="M43 0v800h129v-800h-129zM82 847v3l104 81h76v-3l-112 -81h-68z" />
    <glyph glyph-name="Icircumflex" unicode="&#xce;" horiz-adv-x="215" 
d="M43 0v800h129v-800h-129zM-38 839l103 91h76l103 -91h-85l-56 54l-56 -54h-85z" />
    <glyph glyph-name="Idieresis" unicode="&#xcf;" horiz-adv-x="215" 
d="M43 0v800h129v-800h-129zM130 848v81h99v-81h-99zM-15 848v81h100v-81h-100z" />
    <glyph glyph-name="Eth" unicode="&#xd0;" horiz-adv-x="513" 
d="M89 0v409h-39v64h39v327h184q102 0 147 -43.5t47 -143.5q2 -76 2.5 -144.5t0 -136.5t-2.5 -144q-2 -101 -47 -144.5t-147 -43.5h-184zM218 114h55q64 0 65 59q6 227 0 455q-1 58 -65 58h-55v-213h68v-64h-68v-295z" />
    <glyph glyph-name="Ntilde" unicode="&#xd1;" horiz-adv-x="511" 
d="M43 0v800h193l56 -255l59 -431h25l-23 359l-10 327h124v-800h-201l-57 268l-47 419h-27l22 -381l11 -306h-125zM121 838q3 44 25.5 63.5t60.5 18.5q28 -1 44 -9t28.5 -16t30.5 -8q17 0 27 9t10 24h46q-4 -88 -84 -87q-27 0 -44 8t-31 16.5t-31 8.5q-33 2 -36 -28h-46z
" />
    <glyph glyph-name="Ograve" unicode="&#xd2;" horiz-adv-x="474" 
d="M237 -9q-101 0 -145.5 42.5t-46.5 140.5q-2 110 -2 226.5t2 226.5q2 98 46.5 140t145.5 42q100 0 143.5 -42t46.5 -140q3 -111 3 -227t-3 -226q-3 -98 -46.5 -140.5t-143.5 -42.5zM237 96q59 0 61 54q3 76 4 163.5t0 174.5t-4 162q-2 54 -61 54q-61 0 -63 -54
q-2 -75 -3 -162t0 -174.5t3 -163.5q2 -54 63 -54zM97 928v3h76l104 -81v-3h-68z" />
    <glyph glyph-name="Oacute" unicode="&#xd3;" horiz-adv-x="474" 
d="M237 -9q-101 0 -145.5 42.5t-46.5 140.5q-2 110 -2 226.5t2 226.5q2 98 46.5 140t145.5 42q100 0 143.5 -42t46.5 -140q3 -111 3 -227t-3 -226q-3 -98 -46.5 -140.5t-143.5 -42.5zM237 96q59 0 61 54q3 76 4 163.5t0 174.5t-4 162q-2 54 -61 54q-61 0 -63 -54
q-2 -75 -3 -162t0 -174.5t3 -163.5q2 -54 63 -54zM211 847v3l104 81h76v-3l-112 -81h-68z" />
    <glyph glyph-name="Ocircumflex" unicode="&#xd4;" horiz-adv-x="474" 
d="M237 -9q-101 0 -145.5 42.5t-46.5 140.5q-2 110 -2 226.5t2 226.5q2 98 46.5 140t145.5 42q100 0 143.5 -42t46.5 -140q3 -111 3 -227t-3 -226q-3 -98 -46.5 -140.5t-143.5 -42.5zM237 96q59 0 61 54q3 76 4 163.5t0 174.5t-4 162q-2 54 -61 54q-61 0 -63 -54
q-2 -75 -3 -162t0 -174.5t3 -163.5q2 -54 63 -54zM92 839l103 91h76l103 -91h-85l-56 54l-56 -54h-85z" />
    <glyph glyph-name="Otilde" unicode="&#xd5;" horiz-adv-x="474" 
d="M237 -9q-101 0 -145.5 42.5t-46.5 140.5q-2 110 -2 226.5t2 226.5q2 98 46.5 140t145.5 42q100 0 143.5 -42t46.5 -140q3 -111 3 -227t-3 -226q-3 -98 -46.5 -140.5t-143.5 -42.5zM237 96q59 0 61 54q3 76 4 163.5t0 174.5t-4 162q-2 54 -61 54q-61 0 -63 -54
q-2 -75 -3 -162t0 -174.5t3 -163.5q2 -54 63 -54zM101 838q3 44 25.5 63.5t60.5 18.5q28 -1 44 -9t28.5 -16t30.5 -8q17 0 27 9t10 24h46q-4 -88 -84 -87q-27 0 -44 8t-31 16.5t-31 8.5q-33 2 -36 -28h-46z" />
    <glyph glyph-name="Odieresis" unicode="&#xd6;" horiz-adv-x="474" 
d="M237 -9q-101 0 -145.5 42.5t-46.5 140.5q-2 110 -2 226.5t2 226.5q2 98 46.5 140t145.5 42q100 0 143.5 -42t46.5 -140q3 -111 3 -227t-3 -226q-3 -98 -46.5 -140.5t-143.5 -42.5zM237 96q59 0 61 54q3 76 4 163.5t0 174.5t-4 162q-2 54 -61 54q-61 0 -63 -54
q-2 -75 -3 -162t0 -174.5t3 -163.5q2 -54 63 -54zM260 848v81h99v-81h-99zM115 848v81h100v-81h-100z" />
    <glyph glyph-name="multiply" unicode="&#xd7;" horiz-adv-x="456" 
d="M43 248l117 117l-117 116l69 69l116 -117l116 117l69 -69l-116 -116l116 -117l-69 -68l-116 116l-116 -116z" />
    <glyph glyph-name="Oslash" unicode="&#xd8;" horiz-adv-x="474" 
d="M237 -9q-101 0 -145.5 42.5t-46.5 140.5q-2 110 -2 226.5t2 226.5q2 98 46.5 140t145.5 42q100 0 143.5 -42t46.5 -140q3 -111 3 -227t-3 -226q-3 -98 -46.5 -140.5t-143.5 -42.5zM174 650q-2 -73 -3 -158t0 -169l121 354q-13 27 -55 27q-61 0 -63 -54zM237 96
q59 0 61 54q2 64 3 136.5t1 145.5l-111 -322q16 -14 46 -14z" />
    <glyph glyph-name="Ugrave" unicode="&#xd9;" 
d="M236 -9q-102 0 -146 42.5t-45 140.5q-4 313 0 626h129q-2 -104 -2 -214.5t0.5 -221t1.5 -214.5q0 -54 62 -54q61 0 61 54q1 104 1.5 214.5t0.5 221t-2 214.5h129q4 -313 0 -626q-1 -98 -45 -140.5t-145 -42.5zM95 928v3h76l104 -81v-3h-68z" />
    <glyph glyph-name="Uacute" unicode="&#xda;" 
d="M236 -9q-102 0 -146 42.5t-45 140.5q-4 313 0 626h129q-2 -104 -2 -214.5t0.5 -221t1.5 -214.5q0 -54 62 -54q61 0 61 54q1 104 1.5 214.5t0.5 221t-2 214.5h129q4 -313 0 -626q-1 -98 -45 -140.5t-145 -42.5zM210 847v3l104 81h76v-3l-112 -81h-68z" />
    <glyph glyph-name="Ucircumflex" unicode="&#xdb;" 
d="M236 -9q-102 0 -146 42.5t-45 140.5q-4 313 0 626h129q-2 -104 -2 -214.5t0.5 -221t1.5 -214.5q0 -54 62 -54q61 0 61 54q1 104 1.5 214.5t0.5 221t-2 214.5h129q4 -313 0 -626q-1 -98 -45 -140.5t-145 -42.5zM91 839l103 91h76l103 -91h-85l-56 54l-56 -54h-85z" />
    <glyph glyph-name="Udieresis" unicode="&#xdc;" 
d="M236 -9q-102 0 -146 42.5t-45 140.5q-4 313 0 626h129q-2 -104 -2 -214.5t0.5 -221t1.5 -214.5q0 -54 62 -54q61 0 61 54q1 104 1.5 214.5t0.5 221t-2 214.5h129q4 -313 0 -626q-1 -98 -45 -140.5t-145 -42.5zM259 848v81h99v-81h-99zM114 848v81h100v-81h-100z" />
    <glyph glyph-name="Yacute" unicode="&#xdd;" horiz-adv-x="452" 
d="M161 0v196l-10 42l-129 562h132l41 -202l18 -233h26l18 233l42 202h131l-129 -561l-10 -43v-196h-130zM196 847v3l104 81h76v-3l-112 -81h-68z" />
    <glyph glyph-name="Thorn" unicode="&#xde;" horiz-adv-x="435" 
d="M43 0v800h129v-126h46q101 0 146 -42t49 -137q1 -48 1 -88.5t-1 -85.5q-4 -96 -49 -137.5t-146 -41.5h-46v-142h-129zM172 256h46q62 0 65 58q3 43 3 94t-3 94q-3 58 -65 58h-46v-304z" />
    <glyph glyph-name="germandbls" unicode="&#xdf;" horiz-adv-x="459" 
d="M428 266q1 -43 0 -87q-4 -96 -49 -137.5t-146 -41.5h-18v114h18q65 0 66 66v80q-1 48 -16.5 68.5t-50.5 20.5h-12v114h8q65 0 66 82v44.5t-1 47.5q-1 28 -15.5 42.5t-46.5 14.5q-30 0 -43.5 -15t-14.5 -42l-1 -637h-129v618q0 97 46 139.5t146 42.5q101 0 144 -41.5
t44 -137.5v-79q-1 -52 -22 -81.5t-62 -43.5v-22q44 -13 65.5 -44t23.5 -85z" />
    <glyph glyph-name="agrave" unicode="&#xe0;" horiz-adv-x="439" 
d="M151 -8q-62 0 -91.5 31.5t-35.5 105.5q-1 9 -1 22t1 23q5 60 36 95.5t106 65.5q25 11 49.5 19t51.5 15v90q-1 26 -11 39.5t-40 13.5q-26 0 -36.5 -11t-12.5 -38v-25v-34.5v-27.5h-125q-1 8 -1.5 31.5t0.5 41.5q3 84 42 122t136 38q68 0 105.5 -18.5t53 -58.5t17.5 -104
l-1 -428h-129v62h-17q-16 -36 -37.5 -53t-59.5 -17zM204 85q21 0 36.5 12t25.5 33v153q-18 -4 -35 -10.5t-33 -15.5q-27 -14 -36 -35t-11 -48q-1 -19 1 -35q4 -54 52 -54zM92 791h84l86 -133h-84z" />
    <glyph glyph-name="aacute" unicode="&#xe1;" horiz-adv-x="439" 
d="M151 -8q-62 0 -91.5 31.5t-35.5 105.5q-1 9 -1 22t1 23q5 60 36 95.5t106 65.5q25 11 49.5 19t51.5 15v90q-1 26 -11 39.5t-40 13.5q-26 0 -36.5 -11t-12.5 -38v-25v-34.5v-27.5h-125q-1 8 -1.5 31.5t0.5 41.5q3 84 42 122t136 38q68 0 105.5 -18.5t53 -58.5t17.5 -104
l-1 -428h-129v62h-17q-16 -36 -37.5 -53t-59.5 -17zM204 85q21 0 36.5 12t25.5 33v153q-18 -4 -35 -10.5t-33 -15.5q-27 -14 -36 -35t-11 -48q-1 -19 1 -35q4 -54 52 -54zM181 658l82 133h84l-86 -133h-80z" />
    <glyph glyph-name="acircumflex" unicode="&#xe2;" horiz-adv-x="439" 
d="M151 -8q-62 0 -91.5 31.5t-35.5 105.5q-1 9 -1 22t1 23q5 60 36 95.5t106 65.5q25 11 49.5 19t51.5 15v90q-1 26 -11 39.5t-40 13.5q-26 0 -36.5 -11t-12.5 -38v-25v-34.5v-27.5h-125q-1 8 -1.5 31.5t0.5 41.5q3 84 42 122t136 38q68 0 105.5 -18.5t53 -58.5t17.5 -104
l-1 -428h-129v62h-17q-16 -36 -37.5 -53t-59.5 -17zM204 85q21 0 36.5 12t25.5 33v153q-18 -4 -35 -10.5t-33 -15.5q-27 -14 -36 -35t-11 -48q-1 -19 1 -35q4 -54 52 -54zM99 641l78 133h75l78 -133h-84l-31 61l-32 -61h-84z" />
    <glyph glyph-name="atilde" unicode="&#xe3;" horiz-adv-x="439" 
d="M151 -8q-62 0 -91.5 31.5t-35.5 105.5q-1 9 -1 22t1 23q5 60 36 95.5t106 65.5q25 11 49.5 19t51.5 15v90q-1 26 -11 39.5t-40 13.5q-26 0 -36.5 -11t-12.5 -38v-25v-34.5v-27.5h-125q-1 8 -1.5 31.5t0.5 41.5q3 84 42 122t136 38q68 0 105.5 -18.5t53 -58.5t17.5 -104
l-1 -428h-129v62h-17q-16 -36 -37.5 -53t-59.5 -17zM204 85q21 0 36.5 12t25.5 33v153q-18 -4 -35 -10.5t-33 -15.5q-27 -14 -36 -35t-11 -48q-1 -19 1 -35q4 -54 52 -54zM70 659q4 58 29 82t63 24q31 -1 49 -12t32 -22t33 -12q39 0 40 34h50q-3 -53 -27.5 -77t-64.5 -23
q-28 0 -47 11t-34.5 22.5t-33.5 12.5q-35 1 -39 -40h-50z" />
    <glyph glyph-name="adieresis" unicode="&#xe4;" horiz-adv-x="439" 
d="M151 -8q-62 0 -91.5 31.5t-35.5 105.5q-1 9 -1 22t1 23q5 60 36 95.5t106 65.5q25 11 49.5 19t51.5 15v90q-1 26 -11 39.5t-40 13.5q-26 0 -36.5 -11t-12.5 -38v-25v-34.5v-27.5h-125q-1 8 -1.5 31.5t0.5 41.5q3 84 42 122t136 38q68 0 105.5 -18.5t53 -58.5t17.5 -104
l-1 -428h-129v62h-17q-16 -36 -37.5 -53t-59.5 -17zM204 85q21 0 36.5 12t25.5 33v153q-18 -4 -35 -10.5t-33 -15.5q-27 -14 -36 -35t-11 -48q-1 -19 1 -35q4 -54 52 -54zM241 661v100h99v-100h-99zM96 661v100h100v-100h-100z" />
    <glyph glyph-name="aring" unicode="&#xe5;" horiz-adv-x="439" 
d="M151 -8q-62 0 -91.5 31.5t-35.5 105.5q-1 9 -1 22t1 23q5 60 36 95.5t106 65.5q25 11 49.5 19t51.5 15v90q-1 26 -11 39.5t-40 13.5q-26 0 -36.5 -11t-12.5 -38v-25v-34.5v-27.5h-125q-1 8 -1.5 31.5t0.5 41.5q3 84 42 122t136 38q68 0 105.5 -18.5t53 -58.5t17.5 -104
l-1 -428h-129v62h-17q-16 -36 -37.5 -53t-59.5 -17zM204 85q21 0 36.5 12t25.5 33v153q-18 -4 -35 -10.5t-33 -15.5q-27 -14 -36 -35t-11 -48q-1 -19 1 -35q4 -54 52 -54zM218 542q-35 0 -64 17.5t-46.5 46t-17.5 64.5q0 35 17.5 64t46.5 46t64 17t64 -17t46 -46t17 -64
q0 -36 -17 -64.5t-46 -46t-64 -17.5zM159 670q0 -25 17 -42.5t42 -17.5q24 0 41.5 17.5t17.5 42.5q0 24 -17.5 41.5t-41.5 17.5q-25 0 -42 -17.5t-17 -41.5z" />
    <glyph glyph-name="ae" unicode="&#xe6;" horiz-adv-x="662" 
d="M151 -8q-56 0 -89 31.5t-38 105.5q-1 9 -1 22t1 23q5 58 38 93t104 63q25 10 49.5 18t50.5 16v47.5v47.5q0 26 -10 39.5t-40 13.5q-26 0 -36.5 -11t-12.5 -38v-25v-34.5v-27.5h-125q-1 8 -1.5 31.5t0.5 41.5q3 84 42 122t136 38q77 0 115 -26q21 14 49.5 20t66.5 6
q91 0 132.5 -37.5t45.5 -122.5q0 -13 0.5 -40.5t0 -62t-1.5 -66.5h-234q0 -34 0.5 -68t0.5 -71q0 -29 14 -41t43 -12q26 0 37.5 12t12.5 41q2 30 0 85h126q1 -9 1.5 -31.5t-0.5 -39.5q-4 -88 -45 -126t-132 -38q-125 0 -164 71h-10q-17 -36 -50.5 -53t-75.5 -17zM393 369
h109v53t-1 41q0 49 -51 49q-56 0 -56 -49q0 -25 -0.5 -48t-0.5 -46zM204 85q13 0 27.5 7.5t24.5 29t11 64.5q0 21 -0.5 44.5t-0.5 48.5q-16 -4 -33.5 -10t-34.5 -16q-26 -13 -35.5 -32.5t-11.5 -46.5q-1 -18 1 -35q4 -54 52 -54z" />
    <glyph glyph-name="ccedilla" unicode="&#xe7;" horiz-adv-x="439" 
d="M45 155q-1 22 -1.5 60.5t-0.5 82t0.5 82.5t1.5 64q6 89 48 127t134 38t133.5 -37.5t45.5 -122.5v-41t-1 -32h-126q1 11 1 28v34t-1 25q-1 27 -13 38t-39 11q-28 0 -40 -11t-13 -38q-4 -162 0 -322q1 -29 13.5 -41t41.5 -12q26 0 37.5 12t12.5 41q1 14 1 36t-1 49h126
q1 -9 1 -31.5v-39.5q-4 -88 -45.5 -126t-131.5 -38q-94 0 -136.5 38t-47.5 126zM265 -152q-34 0 -58 7l11 41q15 -2 47 -2q24 0 24 18q0 23 -24 23h-57l-6 6v68h47v-32h16q74 0 74 -65q0 -64 -74 -64z" />
    <glyph glyph-name="egrave" unicode="&#xe8;" horiz-adv-x="440" 
d="M279 226h126q1 -9 1 -31.5v-39.5q-4 -88 -45 -126t-132 -38q-94 0 -136.5 38t-47.5 126q-1 22 -1.5 60.5t-0.5 82t0.5 82.5t1.5 64q6 89 48.5 127t134.5 38q91 0 132.5 -37.5t45.5 -122.5q0 -13 0.5 -41t0 -63t-1.5 -67h-233q0 -35 1 -69t1 -68q1 -29 13.5 -41t41.5 -12
q26 0 37.5 12t12.5 41q2 29 0 85zM228 512q-29 0 -41 -11.5t-13 -37.5q0 -25 -0.5 -48t-1.5 -47h108q0 33 -0.5 59.5t-0.5 35.5q-1 26 -13 37.5t-38 11.5zM99 791h84l86 -133h-84z" />
    <glyph glyph-name="eacute" unicode="&#xe9;" horiz-adv-x="440" 
d="M279 226h126q1 -9 1 -31.5v-39.5q-4 -88 -45 -126t-132 -38q-94 0 -136.5 38t-47.5 126q-1 22 -1.5 60.5t-0.5 82t0.5 82.5t1.5 64q6 89 48.5 127t134.5 38q91 0 132.5 -37.5t45.5 -122.5q0 -13 0.5 -41t0 -63t-1.5 -67h-233q0 -35 1 -69t1 -68q1 -29 13.5 -41t41.5 -12
q26 0 37.5 12t12.5 41q2 29 0 85zM228 512q-29 0 -41 -11.5t-13 -37.5q0 -25 -0.5 -48t-1.5 -47h108q0 33 -0.5 59.5t-0.5 35.5q-1 26 -13 37.5t-38 11.5zM188 658l82 133h84l-86 -133h-80z" />
    <glyph glyph-name="ecircumflex" unicode="&#xea;" horiz-adv-x="440" 
d="M279 226h126q1 -9 1 -31.5v-39.5q-4 -88 -45 -126t-132 -38q-94 0 -136.5 38t-47.5 126q-1 22 -1.5 60.5t-0.5 82t0.5 82.5t1.5 64q6 89 48.5 127t134.5 38q91 0 132.5 -37.5t45.5 -122.5q0 -13 0.5 -41t0 -63t-1.5 -67h-233q0 -35 1 -69t1 -68q1 -29 13.5 -41t41.5 -12
q26 0 37.5 12t12.5 41q2 29 0 85zM228 512q-29 0 -41 -11.5t-13 -37.5q0 -25 -0.5 -48t-1.5 -47h108q0 33 -0.5 59.5t-0.5 35.5q-1 26 -13 37.5t-38 11.5zM106 641l78 133h75l78 -133h-84l-31 61l-32 -61h-84z" />
    <glyph glyph-name="edieresis" unicode="&#xeb;" horiz-adv-x="440" 
d="M279 226h126q1 -9 1 -31.5v-39.5q-4 -88 -45 -126t-132 -38q-94 0 -136.5 38t-47.5 126q-1 22 -1.5 60.5t-0.5 82t0.5 82.5t1.5 64q6 89 48.5 127t134.5 38q91 0 132.5 -37.5t45.5 -122.5q0 -13 0.5 -41t0 -63t-1.5 -67h-233q0 -35 1 -69t1 -68q1 -29 13.5 -41t41.5 -12
q26 0 37.5 12t12.5 41q2 29 0 85zM228 512q-29 0 -41 -11.5t-13 -37.5q0 -25 -0.5 -48t-1.5 -47h108q0 33 -0.5 59.5t-0.5 35.5q-1 26 -13 37.5t-38 11.5zM248 661v100h99v-100h-99zM103 661v100h100v-100h-100z" />
    <glyph glyph-name="igrave" unicode="&#xec;" horiz-adv-x="215" 
d="M43 0v600h129v-600h-129zM-19 791h84l86 -133h-84z" />
    <glyph glyph-name="iacute" unicode="&#xed;" horiz-adv-x="215" 
d="M43 0v600h129v-600h-129zM70 658l82 133h84l-86 -133h-80z" />
    <glyph glyph-name="icircumflex" unicode="&#xee;" horiz-adv-x="215" 
d="M43 0v600h129v-600h-129zM-12 641l78 133h75l78 -133h-84l-31 61l-32 -61h-84z" />
    <glyph glyph-name="idieresis" unicode="&#xef;" horiz-adv-x="215" 
d="M43 0v600h129v-600h-129zM130 661v100h99v-100h-99zM-15 661v100h100v-100h-100z" />
    <glyph glyph-name="eth" unicode="&#xf0;" horiz-adv-x="463" 
d="M237 -9q-100 0 -144.5 42.5t-48.5 140.5q-2 38 -2 94.5t1 109.5q1 72 38 114.5t93 42.5q37 0 62 -14t37 -37h12q-17 64 -55 116l-60 -30l-22 44l49 24q-16 18 -35 33t-41 29l70 109q36 -23 66.5 -48.5t54.5 -55.5l66 33l22 -44l-58 -28q42 -62 61.5 -138.5t23.5 -168.5
q1 -26 1.5 -59.5t0 -67t-1.5 -58.5q-4 -98 -46.5 -140.5t-143.5 -42.5zM236 96q59 0 62 55q2 53 2 114.5t-2 117.5q-1 23 -18.5 35t-46.5 12q-60 0 -61 -54q-1 -48 -1 -110.5t2 -114.5q1 -55 63 -55z" />
    <glyph glyph-name="ntilde" unicode="&#xf1;" 
d="M43 0v600h129v-62h23q20 34 42 52.5t66 18.5q58 0 90.5 -36t32.5 -120v-453h-129v464q0 51 -49 51q-21 0 -44 -13t-32 -35v-467h-129zM87 659q4 58 29 82t63 24q31 -1 49 -12t32 -22t33 -12q39 0 40 34h50q-3 -53 -27.5 -77t-64.5 -23q-28 0 -47 11t-34.5 22.5
t-33.5 12.5q-35 1 -39 -40h-50z" />
    <glyph glyph-name="ograve" unicode="&#xf2;" horiz-adv-x="464" 
d="M232 -9q-66 0 -106 18t-58.5 58.5t-22.5 106.5q0 23 -1 55.5t-1 69t0.5 70t1.5 58.5q4 65 22.5 105t58 58.5t106.5 18.5q68 0 107.5 -18.5t57.5 -58.5t21 -105q2 -31 2.5 -78t0 -95t-2.5 -80q-3 -65 -21 -105.5t-57.5 -59t-107.5 -18.5zM232 88q31 0 44 13.5t13 40.5
q5 158 0 317q0 27 -13 40t-44 13q-29 0 -43 -13t-15 -40q-5 -159 0 -317q2 -54 58 -54zM106 791h84l86 -133h-84z" />
    <glyph glyph-name="oacute" unicode="&#xf3;" horiz-adv-x="464" 
d="M232 -9q-66 0 -106 18t-58.5 58.5t-22.5 106.5q0 23 -1 55.5t-1 69t0.5 70t1.5 58.5q4 65 22.5 105t58 58.5t106.5 18.5q68 0 107.5 -18.5t57.5 -58.5t21 -105q2 -31 2.5 -78t0 -95t-2.5 -80q-3 -65 -21 -105.5t-57.5 -59t-107.5 -18.5zM232 88q31 0 44 13.5t13 40.5
q5 158 0 317q0 27 -13 40t-44 13q-29 0 -43 -13t-15 -40q-5 -159 0 -317q2 -54 58 -54zM195 658l82 133h84l-86 -133h-80z" />
    <glyph glyph-name="ocircumflex" unicode="&#xf4;" horiz-adv-x="464" 
d="M232 -9q-66 0 -106 18t-58.5 58.5t-22.5 106.5q0 23 -1 55.5t-1 69t0.5 70t1.5 58.5q4 65 22.5 105t58 58.5t106.5 18.5q68 0 107.5 -18.5t57.5 -58.5t21 -105q2 -31 2.5 -78t0 -95t-2.5 -80q-3 -65 -21 -105.5t-57.5 -59t-107.5 -18.5zM232 88q31 0 44 13.5t13 40.5
q5 158 0 317q0 27 -13 40t-44 13q-29 0 -43 -13t-15 -40q-5 -159 0 -317q2 -54 58 -54zM113 641l78 133h75l78 -133h-84l-31 61l-32 -61h-84z" />
    <glyph glyph-name="otilde" unicode="&#xf5;" horiz-adv-x="464" 
d="M232 -9q-66 0 -106 18t-58.5 58.5t-22.5 106.5q0 23 -1 55.5t-1 69t0.5 70t1.5 58.5q4 65 22.5 105t58 58.5t106.5 18.5q68 0 107.5 -18.5t57.5 -58.5t21 -105q2 -31 2.5 -78t0 -95t-2.5 -80q-3 -65 -21 -105.5t-57.5 -59t-107.5 -18.5zM232 88q31 0 44 13.5t13 40.5
q5 158 0 317q0 27 -13 40t-44 13q-29 0 -43 -13t-15 -40q-5 -159 0 -317q2 -54 58 -54zM84 659q4 58 29 82t63 24q31 -1 49 -12t32 -22t33 -12q39 0 40 34h50q-3 -53 -27.5 -77t-64.5 -23q-28 0 -47 11t-34.5 22.5t-33.5 12.5q-35 1 -39 -40h-50z" />
    <glyph glyph-name="odieresis" unicode="&#xf6;" horiz-adv-x="464" 
d="M232 -9q-66 0 -106 18t-58.5 58.5t-22.5 106.5q0 23 -1 55.5t-1 69t0.5 70t1.5 58.5q4 65 22.5 105t58 58.5t106.5 18.5q68 0 107.5 -18.5t57.5 -58.5t21 -105q2 -31 2.5 -78t0 -95t-2.5 -80q-3 -65 -21 -105.5t-57.5 -59t-107.5 -18.5zM232 88q31 0 44 13.5t13 40.5
q5 158 0 317q0 27 -13 40t-44 13q-29 0 -43 -13t-15 -40q-5 -159 0 -317q2 -54 58 -54zM255 661v100h99v-100h-99zM110 661v100h100v-100h-100z" />
    <glyph glyph-name="divide" unicode="&#xf7;" horiz-adv-x="515" 
d="M208 472v99h100v-99h-100zM43 316v97h429v-97h-429zM208 158v100h100v-100h-100z" />
    <glyph glyph-name="oslash" unicode="&#xf8;" horiz-adv-x="464" 
d="M232 -9q-66 0 -106 18t-58.5 58.5t-22.5 106.5q0 23 -1 55.5t-1 69t0.5 70t1.5 58.5q4 65 22.5 105t58 58.5t106.5 18.5q68 0 107.5 -18.5t57.5 -58.5t21 -105q2 -31 2.5 -78t0 -95t-2.5 -80q-3 -65 -21 -105.5t-57.5 -59t-107.5 -18.5zM174 459q-3 -123 -1 -247l102 287
q-14 13 -43 13t-43 -13t-15 -40zM232 88q31 0 44 13.5t13 40.5q4 106 3 214l-94 -261q13 -7 34 -7z" />
    <glyph glyph-name="ugrave" unicode="&#xf9;" 
d="M173 -9q-59 0 -93 36t-34 120v453h129v-464q0 -51 47 -51q22 0 44.5 13t31.5 35v467h129v-600h-129v62h-18q-21 -38 -46.5 -54.5t-60.5 -16.5zM109 791h84l86 -133h-84z" />
    <glyph glyph-name="uacute" unicode="&#xfa;" 
d="M173 -9q-59 0 -93 36t-34 120v453h129v-464q0 -51 47 -51q22 0 44.5 13t31.5 35v467h129v-600h-129v62h-18q-21 -38 -46.5 -54.5t-60.5 -16.5zM198 658l82 133h84l-86 -133h-80z" />
    <glyph glyph-name="ucircumflex" unicode="&#xfb;" 
d="M173 -9q-59 0 -93 36t-34 120v453h129v-464q0 -51 47 -51q22 0 44.5 13t31.5 35v467h129v-600h-129v62h-18q-21 -38 -46.5 -54.5t-60.5 -16.5zM116 641l78 133h75l78 -133h-84l-31 61l-32 -61h-84z" />
    <glyph glyph-name="udieresis" unicode="&#xfc;" 
d="M173 -9q-59 0 -93 36t-34 120v453h129v-464q0 -51 47 -51q22 0 44.5 13t31.5 35v467h129v-600h-129v62h-18q-21 -38 -46.5 -54.5t-60.5 -16.5zM258 661v100h99v-100h-99zM113 661v100h100v-100h-100z" />
    <glyph glyph-name="yacute" unicode="&#xfd;" horiz-adv-x="430" 
d="M127 0l-106 600h132l34 -276l20 -228h25l17 228l28 276h131l-98 -645q-9 -58 -30.5 -94t-62 -53t-109.5 -17q-16 0 -34.5 2t-35.5 5v96q13 -1 34 -2t36 -1q39 0 54 12t19 42l7 55h-61zM177 658l82 133h84l-86 -133h-80z" />
    <glyph glyph-name="thorn" unicode="&#xfe;" horiz-adv-x="470" 
d="M43 -200v1000h129v-262h19q20 35 41.5 53t66.5 18q58 0 90 -36t36 -120q1 -27 1.5 -67t0.5 -84.5t-0.5 -85.5t-1.5 -69q-4 -84 -39.5 -120t-93.5 -36q-32 0 -56 16.5t-45 54.5h-19v-262h-129zM240 85q24 0 39 12.5t17 38.5q2 48 2.5 106t0 116t-2.5 106q-2 26 -13 38.5
t-35 12.5q-22 0 -44 -12.5t-32 -35.5v-334q11 -26 26.5 -37t41.5 -11z" />
    <glyph glyph-name="ydieresis" unicode="&#xff;" horiz-adv-x="430" 
d="M127 0l-106 600h132l34 -276l20 -228h25l17 228l28 276h131l-98 -645q-9 -58 -30.5 -94t-62 -53t-109.5 -17q-16 0 -34.5 2t-35.5 5v96q13 -1 34 -2t36 -1q39 0 54 12t19 42l7 55h-61zM237 661v100h99v-100h-99zM92 661v100h100v-100h-100z" />
    <glyph glyph-name="Amacron" unicode="&#x100;" horiz-adv-x="459" 
d="M22 0l104 800h208l105 -800h-133l-18 183h-116l-18 -183h-132zM184 297h92l-17 177l-15 212h-28l-14 -212zM71 840v55h320v-55h-320z" />
    <glyph glyph-name="amacron" unicode="&#x101;" horiz-adv-x="439" 
d="M151 -8q-62 0 -91.5 31.5t-35.5 105.5q-1 9 -1 22t1 23q5 60 36 95.5t106 65.5q25 11 49.5 19t51.5 15v90q-1 26 -11 39.5t-40 13.5q-26 0 -36.5 -11t-12.5 -38v-25v-34.5v-27.5h-125q-1 8 -1.5 31.5t0.5 41.5q3 84 42 122t136 38q68 0 105.5 -18.5t53 -58.5t17.5 -104
l-1 -428h-129v62h-17q-16 -36 -37.5 -53t-59.5 -17zM204 85q21 0 36.5 12t25.5 33v153q-18 -4 -35 -10.5t-33 -15.5q-27 -14 -36 -35t-11 -48q-1 -19 1 -35q4 -54 52 -54zM41 661v64h354v-64h-354z" />
    <glyph glyph-name="Abreve" unicode="&#x102;" horiz-adv-x="459" 
d="M22 0l104 800h208l105 -800h-133l-18 183h-116l-18 -183h-132zM184 297h92l-17 177l-15 212h-28l-14 -212zM95 932h74q0 -18 17 -29.5t45 -11.5q27 0 44 11.5t17 29.5h75q-3 -42 -41.5 -69.5t-94.5 -27.5q-57 0 -95 27.5t-41 69.5z" />
    <glyph glyph-name="abreve" unicode="&#x103;" horiz-adv-x="439" 
d="M151 -8q-62 0 -91.5 31.5t-35.5 105.5q-1 9 -1 22t1 23q5 60 36 95.5t106 65.5q25 11 49.5 19t51.5 15v90q-1 26 -11 39.5t-40 13.5q-26 0 -36.5 -11t-12.5 -38v-25v-34.5v-27.5h-125q-1 8 -1.5 31.5t0.5 41.5q3 84 42 122t136 38q68 0 105.5 -18.5t53 -58.5t17.5 -104
l-1 -428h-129v62h-17q-16 -36 -37.5 -53t-59.5 -17zM204 85q21 0 36.5 12t25.5 33v153q-18 -4 -35 -10.5t-33 -15.5q-27 -14 -36 -35t-11 -48q-1 -19 1 -35q4 -54 52 -54zM79 789h78q0 -39 14.5 -55t47.5 -16t47 16t14 55h78q-4 -74 -36.5 -105.5t-102.5 -31.5
q-71 0 -103.5 31.5t-36.5 105.5z" />
    <glyph glyph-name="Aogonek" unicode="&#x104;" horiz-adv-x="459" 
d="M22 0l104 800h208l105 -800h-133l-18 183h-116l-18 -183h-132zM184 297h92l-17 177l-15 212h-28l-14 -212zM258 -66q1 23 13.5 35.5t34.5 16.5v25h51l9 -11q-28 -11 -41.5 -26.5t-13.5 -31.5q0 -10 7 -17t24 -7q9 0 20.5 1.5t19.5 3.5l10 -43q-11 -4 -26 -6t-28 -2
q-40 0 -60 17t-20 45z" />
    <glyph glyph-name="aogonek" unicode="&#x105;" horiz-adv-x="439" 
d="M151 -8q-62 0 -91.5 31.5t-35.5 105.5q-1 9 -1 22t1 23q5 60 36 95.5t106 65.5q25 11 49.5 19t51.5 15v90q-1 26 -11 39.5t-40 13.5q-26 0 -36.5 -11t-12.5 -38v-25v-34.5v-27.5h-125q-1 8 -1.5 31.5t0.5 41.5q3 84 42 122t136 38q68 0 105.5 -18.5t53 -58.5t17.5 -104
l-1 -428h-129v62h-17q-16 -36 -37.5 -53t-59.5 -17zM204 85q21 0 36.5 12t25.5 33v153q-18 -4 -35 -10.5t-33 -15.5q-27 -14 -36 -35t-11 -48q-1 -19 1 -35q4 -54 52 -54zM217 -66q1 23 13.5 35.5t34.5 16.5v25h51l9 -11q-28 -11 -41.5 -26.5t-13.5 -31.5q0 -10 7 -17t24 -7
q9 0 20.5 1.5t19.5 3.5l10 -43q-11 -4 -26 -6t-28 -2q-40 0 -60 17t-20 45z" />
    <glyph glyph-name="Cacute" unicode="&#x106;" horiz-adv-x="454" 
d="M235 -9q-102 0 -145 42.5t-45 140.5q-2 65 -2 145.5v161t2 146.5q1 85 45.5 133.5t144.5 48.5q98 0 142 -42.5t47 -140.5v-60t-1 -61h-129q1 31 1 72.5v72.5q-2 53 -60 53q-60 0 -61 -53q-3 -77 -3.5 -163.5t0 -172.5t3.5 -163q1 -55 61 -55q62 0 64 55v73v73h129
q0 -28 0.5 -61t-0.5 -62q-3 -98 -48 -140.5t-145 -42.5zM205 847v3l104 81h76v-3l-112 -81h-68z" />
    <glyph glyph-name="cacute" unicode="&#x107;" horiz-adv-x="439" 
d="M45 155q-1 22 -1.5 60.5t-0.5 82t0.5 82.5t1.5 64q6 89 48 127t134 38t133.5 -37.5t45.5 -122.5v-41t-1 -32h-126q1 11 1 28v34t-1 25q-1 27 -13 38t-39 11q-28 0 -40 -11t-13 -38q-4 -162 0 -322q1 -29 13.5 -41t41.5 -12q26 0 37.5 12t12.5 41q1 14 1 36t-1 49h126
q1 -9 1 -31.5v-39.5q-4 -88 -45.5 -126t-131.5 -38q-94 0 -136.5 38t-47.5 126zM189 658l82 133h84l-86 -133h-80z" />
    <glyph glyph-name="Ccircumflex" unicode="&#x108;" horiz-adv-x="454" 
d="M235 -9q-102 0 -145 42.5t-45 140.5q-2 65 -2 145.5v161t2 146.5q1 85 45.5 133.5t144.5 48.5q98 0 142 -42.5t47 -140.5v-60t-1 -61h-129q1 31 1 72.5v72.5q-2 53 -60 53q-60 0 -61 -53q-3 -77 -3.5 -163.5t0 -172.5t3.5 -163q1 -55 61 -55q62 0 64 55v73v73h129
q0 -28 0.5 -61t-0.5 -62q-3 -98 -48 -140.5t-145 -42.5zM86 839l103 91h76l103 -91h-85l-56 54l-56 -54h-85z" />
    <glyph glyph-name="ccircumflex" unicode="&#x109;" horiz-adv-x="439" 
d="M45 155q-1 22 -1.5 60.5t-0.5 82t0.5 82.5t1.5 64q6 89 48 127t134 38t133.5 -37.5t45.5 -122.5v-41t-1 -32h-126q1 11 1 28v34t-1 25q-1 27 -13 38t-39 11q-28 0 -40 -11t-13 -38q-4 -162 0 -322q1 -29 13.5 -41t41.5 -12q26 0 37.5 12t12.5 41q1 14 1 36t-1 49h126
q1 -9 1 -31.5v-39.5q-4 -88 -45.5 -126t-131.5 -38q-94 0 -136.5 38t-47.5 126zM107 641l78 133h75l78 -133h-84l-31 61l-32 -61h-84z" />
    <glyph glyph-name="Cdotaccent" unicode="&#x10a;" horiz-adv-x="454" 
d="M235 -9q-102 0 -145 42.5t-45 140.5q-2 65 -2 145.5v161t2 146.5q1 85 45.5 133.5t144.5 48.5q98 0 142 -42.5t47 -140.5v-60t-1 -61h-129q1 31 1 72.5v72.5q-2 53 -60 53q-60 0 -61 -53q-3 -77 -3.5 -163.5t0 -172.5t3.5 -163q1 -55 61 -55q62 0 64 55v73v73h129
q0 -28 0.5 -61t-0.5 -62q-3 -98 -48 -140.5t-145 -42.5zM182 861v100h100v-100h-100z" />
    <glyph glyph-name="cdotaccent" unicode="&#x10b;" horiz-adv-x="439" 
d="M45 155q-1 22 -1.5 60.5t-0.5 82t0.5 82.5t1.5 64q6 89 48 127t134 38t133.5 -37.5t45.5 -122.5v-41t-1 -32h-126q1 11 1 28v34t-1 25q-1 27 -13 38t-39 11q-28 0 -40 -11t-13 -38q-4 -162 0 -322q1 -29 13.5 -41t41.5 -12q26 0 37.5 12t12.5 41q1 14 1 36t-1 49h126
q1 -9 1 -31.5v-39.5q-4 -88 -45.5 -126t-131.5 -38q-94 0 -136.5 38t-47.5 126zM178 661v100h100v-100h-100z" />
    <glyph glyph-name="Ccaron" unicode="&#x10c;" horiz-adv-x="454" 
d="M235 -9q-102 0 -145 42.5t-45 140.5q-2 65 -2 145.5v161t2 146.5q1 85 45.5 133.5t144.5 48.5q98 0 142 -42.5t47 -140.5v-60t-1 -61h-129q1 31 1 72.5v72.5q-2 53 -60 53q-60 0 -61 -53q-3 -77 -3.5 -163.5t0 -172.5t3.5 -163q1 -55 61 -55q62 0 64 55v73v73h129
q0 -28 0.5 -61t-0.5 -62q-3 -98 -48 -140.5t-145 -42.5zM86 932h85l56 -54l56 54h85l-103 -90h-76z" />
    <glyph glyph-name="ccaron" unicode="&#x10d;" horiz-adv-x="439" 
d="M45 155q-1 22 -1.5 60.5t-0.5 82t0.5 82.5t1.5 64q6 89 48 127t134 38t133.5 -37.5t45.5 -122.5v-41t-1 -32h-126q1 11 1 28v34t-1 25q-1 27 -13 38t-39 11q-28 0 -40 -11t-13 -38q-4 -162 0 -322q1 -29 13.5 -41t41.5 -12q26 0 37.5 12t12.5 41q1 14 1 36t-1 49h126
q1 -9 1 -31.5v-39.5q-4 -88 -45.5 -126t-131.5 -38q-94 0 -136.5 38t-47.5 126zM115 791h76l35 -69l36 69h76l-78 -133h-67z" />
    <glyph glyph-name="Dcaron" unicode="&#x10e;" horiz-adv-x="467" 
d="M43 0v800h184q102 0 147.5 -43.5t47.5 -143.5q1 -76 1.5 -144.5t0 -136.5t-1.5 -144q-2 -101 -47.5 -144.5t-147.5 -43.5h-184zM172 114h55q64 0 66 59q5 227 0 455q-2 58 -66 58h-55v-572zM86 932h85l56 -54l56 54h85l-103 -90h-76z" />
    <glyph glyph-name="dcaron" unicode="&#x10f;" horiz-adv-x="460" 
d="M287 800h129v-800h-129v62h-19q-19 -34 -42 -52.5t-67 -18.5q-58 0 -89 36t-35 120q-1 29 -1.5 68.5t-0.5 83t0.5 84t1.5 70.5q4 84 36 120t90 36q44 0 66 -18t42 -53h18v262zM211 85q23 0 45 12.5t31 35.5v334q-9 23 -31 35.5t-44 12.5q-25 0 -36 -12.5t-12 -38.5
q-2 -50 -3 -109.5t0 -117t3 -101.5q1 -26 12 -38.5t35 -12.5zM44 791h76l35 -69l36 69h76l-78 -133h-67z" />
    <glyph glyph-name="Dcroat" unicode="&#x110;" horiz-adv-x="513" 
d="M89 0v409h-39v64h39v327h184q102 0 147 -43.5t47 -143.5q2 -76 2.5 -144.5t0 -136.5t-2.5 -144q-2 -101 -47 -144.5t-147 -43.5h-184zM218 114h55q64 0 65 59q6 227 0 455q-1 58 -65 58h-55v-213h68v-64h-68v-295z" />
    <glyph glyph-name="dcroat" unicode="&#x111;" horiz-adv-x="467" 
d="M209 733h78v67h129v-67h46v-63h-46v-670h-129v62h-19q-19 -34 -42 -52.5t-67 -18.5q-58 0 -89 36t-35 120q-1 29 -1.5 68.5t-0.5 83t0.5 84t1.5 70.5q4 84 36 120t90 36q44 0 66 -18t42 -53h18v132h-78v63zM211 85q23 0 45 12.5t31 35.5v334q-9 23 -31 35.5t-44 12.5
q-25 0 -36 -12.5t-12 -38.5q-2 -50 -3 -109.5t0 -117t3 -101.5q1 -26 12 -38.5t35 -12.5z" />
    <glyph glyph-name="Emacron" unicode="&#x112;" horiz-adv-x="382" 
d="M43 0v800h316v-114h-187v-223h177v-114h-177v-235h187v-114h-316zM42 840v55h320v-55h-320z" />
    <glyph glyph-name="emacron" unicode="&#x113;" horiz-adv-x="440" 
d="M279 226h126q1 -9 1 -31.5v-39.5q-4 -88 -45 -126t-132 -38q-94 0 -136.5 38t-47.5 126q-1 22 -1.5 60.5t-0.5 82t0.5 82.5t1.5 64q6 89 48.5 127t134.5 38q91 0 132.5 -37.5t45.5 -122.5q0 -13 0.5 -41t0 -63t-1.5 -67h-233q0 -35 1 -69t1 -68q1 -29 13.5 -41t41.5 -12
q26 0 37.5 12t12.5 41q2 29 0 85zM228 512q-29 0 -41 -11.5t-13 -37.5q0 -25 -0.5 -48t-1.5 -47h108q0 33 -0.5 59.5t-0.5 35.5q-1 26 -13 37.5t-38 11.5zM48 661v64h354v-64h-354z" />
    <glyph glyph-name="Ebreve" unicode="&#x114;" horiz-adv-x="382" 
d="M43 0v800h316v-114h-187v-223h177v-114h-177v-235h187v-114h-316zM67 932h74q0 -18 17 -29.5t45 -11.5q27 0 44 11.5t17 29.5h75q-3 -42 -41.5 -69.5t-94.5 -27.5q-57 0 -95 27.5t-41 69.5z" />
    <glyph glyph-name="ebreve" unicode="&#x115;" horiz-adv-x="440" 
d="M279 226h126q1 -9 1 -31.5v-39.5q-4 -88 -45 -126t-132 -38q-94 0 -136.5 38t-47.5 126q-1 22 -1.5 60.5t-0.5 82t0.5 82.5t1.5 64q6 89 48.5 127t134.5 38q91 0 132.5 -37.5t45.5 -122.5q0 -13 0.5 -41t0 -63t-1.5 -67h-233q0 -35 1 -69t1 -68q1 -29 13.5 -41t41.5 -12
q26 0 37.5 12t12.5 41q2 29 0 85zM228 512q-29 0 -41 -11.5t-13 -37.5q0 -25 -0.5 -48t-1.5 -47h108q0 33 -0.5 59.5t-0.5 35.5q-1 26 -13 37.5t-38 11.5zM86 789h78q0 -39 14.5 -55t47.5 -16t47 16t14 55h78q-4 -74 -36.5 -105.5t-102.5 -31.5q-71 0 -103.5 31.5
t-36.5 105.5z" />
    <glyph glyph-name="Edotaccent" unicode="&#x116;" horiz-adv-x="382" 
d="M43 0v800h316v-114h-187v-223h177v-114h-177v-235h187v-114h-316zM152 847v82h101v-82h-101z" />
    <glyph glyph-name="edotaccent" unicode="&#x117;" horiz-adv-x="440" 
d="M279 226h126q1 -9 1 -31.5v-39.5q-4 -88 -45 -126t-132 -38q-94 0 -136.5 38t-47.5 126q-1 22 -1.5 60.5t-0.5 82t0.5 82.5t1.5 64q6 89 48.5 127t134.5 38q91 0 132.5 -37.5t45.5 -122.5q0 -13 0.5 -41t0 -63t-1.5 -67h-233q0 -35 1 -69t1 -68q1 -29 13.5 -41t41.5 -12
q26 0 37.5 12t12.5 41q2 29 0 85zM228 512q-29 0 -41 -11.5t-13 -37.5q0 -25 -0.5 -48t-1.5 -47h108q0 33 -0.5 59.5t-0.5 35.5q-1 26 -13 37.5t-38 11.5zM176 661v100h100v-100h-100z" />
    <glyph glyph-name="Eogonek" unicode="&#x118;" horiz-adv-x="382" 
d="M43 0v800h316v-114h-187v-223h177v-114h-177v-235h187v-114h-316zM251 -66q1 23 13.5 35.5t34.5 16.5v25h51l9 -11q-28 -11 -41.5 -26.5t-13.5 -31.5q0 -10 7 -17t24 -7q9 0 20.5 1.5t19.5 3.5l10 -43q-11 -4 -26 -6t-28 -2q-40 0 -60 17t-20 45z" />
    <glyph glyph-name="eogonek" unicode="&#x119;" horiz-adv-x="440" 
d="M279 226h126q1 -9 1 -31.5v-39.5q-4 -88 -45 -126t-132 -38q-94 0 -136.5 38t-47.5 126q-1 22 -1.5 60.5t-0.5 82t0.5 82.5t1.5 64q6 89 48.5 127t134.5 38q91 0 132.5 -37.5t45.5 -122.5q0 -13 0.5 -41t0 -63t-1.5 -67h-233q0 -35 1 -69t1 -68q1 -29 13.5 -41t41.5 -12
q26 0 37.5 12t12.5 41q2 29 0 85zM228 512q-29 0 -41 -11.5t-13 -37.5q0 -25 -0.5 -48t-1.5 -47h108q0 33 -0.5 59.5t-0.5 35.5q-1 26 -13 37.5t-38 11.5zM254 -66q1 23 13.5 35.5t34.5 16.5l17 -14q-12 -15 -12 -30q0 -10 7 -17t24 -7q9 0 20.5 1.5t19.5 3.5l10 -43
q-11 -4 -26 -6t-28 -2q-40 0 -60 17t-20 45z" />
    <glyph glyph-name="Ecaron" unicode="&#x11a;" horiz-adv-x="382" 
d="M43 0v800h316v-114h-187v-223h177v-114h-177v-235h187v-114h-316zM57 932h85l56 -54l56 54h85l-103 -90h-76z" />
    <glyph glyph-name="ecaron" unicode="&#x11b;" horiz-adv-x="440" 
d="M279 226h126q1 -9 1 -31.5v-39.5q-4 -88 -45 -126t-132 -38q-94 0 -136.5 38t-47.5 126q-1 22 -1.5 60.5t-0.5 82t0.5 82.5t1.5 64q6 89 48.5 127t134.5 38q91 0 132.5 -37.5t45.5 -122.5q0 -13 0.5 -41t0 -63t-1.5 -67h-233q0 -35 1 -69t1 -68q1 -29 13.5 -41t41.5 -12
q26 0 37.5 12t12.5 41q2 29 0 85zM228 512q-29 0 -41 -11.5t-13 -37.5q0 -25 -0.5 -48t-1.5 -47h108q0 33 -0.5 59.5t-0.5 35.5q-1 26 -13 37.5t-38 11.5zM113 791h76l35 -69l36 69h76l-78 -133h-67z" />
    <glyph glyph-name="Gcircumflex" unicode="&#x11c;" horiz-adv-x="453" 
d="M237 -9q-102 0 -145 42.5t-46 140.5q-2 65 -2.5 144.5t0 158.5t2.5 142q4 103 47.5 146.5t143.5 43.5q95 0 138.5 -42.5t49.5 -140.5q2 -27 2 -60t-2 -60h-129q2 31 2 72t-2 72q-3 54 -59 54q-59 0 -62 -54q-3 -77 -4.5 -163.5t0 -172.5t4.5 -163q3 -55 62 -55
q62 0 66 55q1 23 1 57t-1 57h-58v112h183q2 -43 2 -97t-2 -106q-5 -98 -49 -140.5t-142 -42.5zM88 839l103 91h76l103 -91h-85l-56 54l-56 -54h-85z" />
    <glyph glyph-name="gcircumflex" unicode="&#x11d;" horiz-adv-x="476" 
d="M236 -192q-84 0 -132.5 25t-56.5 63q-3 18 -1 35q3 23 19 38.5t50 21.5v19q-59 9 -67 56q-2 14 0 29q4 21 21 37.5t48 19.5v18q-73 35 -80 148q-1 38 -1 65t1 61q7 89 50 127t137 38q121 0 161 -66h17q7 56 73 57v-98h-14q-50 0 -50 -56q1 -53 0.5 -79.5t-1.5 -48.5
q-5 -89 -48 -127.5t-138 -38.5h-10q-38 -1 -50.5 -8.5t-12.5 -21.5v-4q0 -16 22 -22.5t73 -6.5q95 -2 142 -31t57 -88q1 -8 1 -19t-1 -24q-7 -45 -35.5 -71t-73.5 -37t-100 -11zM224 249q59 0 62 54q3 71 0 156q-3 53 -62 53q-60 0 -62 -53q-3 -85 0 -156q3 -54 62 -54z
M241 -103q85 0 97 40q5 14 -1 30q-6 20 -30 27.5t-66 8.5q-41 0 -60.5 -9.5t-24.5 -29.5q-5 -15 0 -29q5 -20 24.5 -29t60.5 -9zM105 641l78 133h75l78 -133h-84l-31 61l-32 -61h-84z" />
    <glyph glyph-name="Gbreve" unicode="&#x11e;" horiz-adv-x="453" 
d="M237 -9q-102 0 -145 42.5t-46 140.5q-2 65 -2.5 144.5t0 158.5t2.5 142q4 103 47.5 146.5t143.5 43.5q95 0 138.5 -42.5t49.5 -140.5q2 -27 2 -60t-2 -60h-129q2 31 2 72t-2 72q-3 54 -59 54q-59 0 -62 -54q-3 -77 -4.5 -163.5t0 -172.5t4.5 -163q3 -55 62 -55
q62 0 66 55q1 23 1 57t-1 57h-58v112h183q2 -43 2 -97t-2 -106q-5 -98 -49 -140.5t-142 -42.5zM97 932h74q0 -18 17 -29.5t45 -11.5q27 0 44 11.5t17 29.5h75q-3 -42 -41.5 -69.5t-94.5 -27.5q-57 0 -95 27.5t-41 69.5z" />
    <glyph glyph-name="gbreve" unicode="&#x11f;" horiz-adv-x="476" 
d="M236 -192q-84 0 -132.5 25t-56.5 63q-3 18 -1 35q3 23 19 38.5t50 21.5v19q-59 9 -67 56q-2 14 0 29q4 21 21 37.5t48 19.5v18q-73 35 -80 148q-1 38 -1 65t1 61q7 89 50 127t137 38q121 0 161 -66h17q7 56 73 57v-98h-14q-50 0 -50 -56q1 -53 0.5 -79.5t-1.5 -48.5
q-5 -89 -48 -127.5t-138 -38.5h-10q-38 -1 -50.5 -8.5t-12.5 -21.5v-4q0 -16 22 -22.5t73 -6.5q95 -2 142 -31t57 -88q1 -8 1 -19t-1 -24q-7 -45 -35.5 -71t-73.5 -37t-100 -11zM224 249q59 0 62 54q3 71 0 156q-3 53 -62 53q-60 0 -62 -53q-3 -85 0 -156q3 -54 62 -54z
M241 -103q85 0 97 40q5 14 -1 30q-6 20 -30 27.5t-66 8.5q-41 0 -60.5 -9.5t-24.5 -29.5q-5 -15 0 -29q5 -20 24.5 -29t60.5 -9zM85 789h78q0 -39 14.5 -55t47.5 -16t47 16t14 55h78q-4 -74 -36.5 -105.5t-102.5 -31.5q-71 0 -103.5 31.5t-36.5 105.5z" />
    <glyph glyph-name="Gdotaccent" unicode="&#x120;" horiz-adv-x="453" 
d="M237 -9q-102 0 -145 42.5t-46 140.5q-2 65 -2.5 144.5t0 158.5t2.5 142q4 103 47.5 146.5t143.5 43.5q95 0 138.5 -42.5t49.5 -140.5q2 -27 2 -60t-2 -60h-129q2 31 2 72t-2 72q-3 54 -59 54q-59 0 -62 -54q-3 -77 -4.5 -163.5t0 -172.5t4.5 -163q3 -55 62 -55
q62 0 66 55q1 23 1 57t-1 57h-58v112h183q2 -43 2 -97t-2 -106q-5 -98 -49 -140.5t-142 -42.5zM183 847v82h101v-82h-101z" />
    <glyph glyph-name="gdotaccent" unicode="&#x121;" horiz-adv-x="476" 
d="M236 -192q-84 0 -132.5 25t-56.5 63q-3 18 -1 35q3 23 19 38.5t50 21.5v19q-59 9 -67 56q-2 14 0 29q4 21 21 37.5t48 19.5v18q-73 35 -80 148q-1 38 -1 65t1 61q7 89 50 127t137 38q121 0 161 -66h17q7 56 73 57v-98h-14q-50 0 -50 -56q1 -53 0.5 -79.5t-1.5 -48.5
q-5 -89 -48 -127.5t-138 -38.5h-10q-38 -1 -50.5 -8.5t-12.5 -21.5v-4q0 -16 22 -22.5t73 -6.5q95 -2 142 -31t57 -88q1 -8 1 -19t-1 -24q-7 -45 -35.5 -71t-73.5 -37t-100 -11zM224 249q59 0 62 54q3 71 0 156q-3 53 -62 53q-60 0 -62 -53q-3 -85 0 -156q3 -54 62 -54z
M241 -103q85 0 97 40q5 14 -1 30q-6 20 -30 27.5t-66 8.5q-41 0 -60.5 -9.5t-24.5 -29.5q-5 -15 0 -29q5 -20 24.5 -29t60.5 -9zM175 661v100h100v-100h-100z" />
    <glyph glyph-name="uni0122" unicode="&#x122;" horiz-adv-x="453" 
d="M237 -9q-102 0 -145 42.5t-46 140.5q-2 65 -2.5 144.5t0 158.5t2.5 142q4 103 47.5 146.5t143.5 43.5q95 0 138.5 -42.5t49.5 -140.5q2 -27 2 -60t-2 -60h-129q2 31 2 72t-2 72q-3 54 -59 54q-59 0 -62 -54q-3 -77 -4.5 -163.5t0 -172.5t4.5 -163q3 -55 62 -55
q62 0 66 55q1 23 1 57t-1 57h-58v112h183q2 -43 2 -97t-2 -106q-5 -98 -49 -140.5t-142 -42.5zM179 -130v81h100v-81l-30 -57h-49l25 57h-46z" />
    <glyph glyph-name="uni0123" unicode="&#x123;" horiz-adv-x="476" 
d="M236 -192q-84 0 -132.5 25t-56.5 63q-3 18 -1 35q3 23 19 38.5t50 21.5v19q-59 9 -67 56q-2 14 0 29q4 21 21 37.5t48 19.5v18q-73 35 -80 148q-1 38 -1 65t1 61q7 89 50 127t137 38q121 0 161 -66h17q7 56 73 57v-98h-14q-50 0 -50 -56q1 -53 0.5 -79.5t-1.5 -48.5
q-5 -89 -48 -127.5t-138 -38.5h-10q-38 -1 -50.5 -8.5t-12.5 -21.5v-4q0 -16 22 -22.5t73 -6.5q95 -2 142 -31t57 -88q1 -8 1 -19t-1 -24q-7 -45 -35.5 -71t-73.5 -37t-100 -11zM224 249q59 0 62 54q3 71 0 156q-3 53 -62 53q-60 0 -62 -53q-3 -85 0 -156q3 -54 62 -54z
M241 -103q85 0 97 40q5 14 -1 30q-6 20 -30 27.5t-66 8.5q-41 0 -60.5 -9.5t-24.5 -29.5q-5 -15 0 -29q5 -20 24.5 -29t60.5 -9zM166 661v90l45 85h63l-32 -73h47v-102h-123z" />
    <glyph glyph-name="Hcircumflex" unicode="&#x124;" horiz-adv-x="455" 
d="M43 0v800h129v-337h111v337h129v-800h-129v349h-111v-349h-129zM83 839l103 91h76l103 -91h-85l-56 54l-56 -54h-85z" />
    <glyph glyph-name="hcircumflex" unicode="&#x125;" horiz-adv-x="461" 
d="M43 0v800h129v-262h23q20 35 42 53t66 18q58 0 90.5 -36t32.5 -120v-453h-129v464q0 51 -49 51q-22 0 -44 -12.5t-32 -35.5v-467h-129zM180 667l78 133h75l78 -133h-84l-31 61l-32 -61h-84z" />
    <glyph glyph-name="Hbar" unicode="&#x126;" horiz-adv-x="535" 
d="M83 0v570h-55v64h55v166h129v-166h111v166h129v-166h55v-64h-55v-570h-129v349h-111v-349h-129zM212 463h111v107h-111v-107z" />
    <glyph glyph-name="hbar" unicode="&#x127;" horiz-adv-x="467" 
d="M50 0v653h-48v63h48v84h129v-84h75v-63h-75v-115h23q19 35 41 53t66 18q59 0 91.5 -36t32.5 -120v-453h-129v464q0 51 -49 51q-22 0 -44.5 -12.5t-31.5 -35.5v-467h-129z" />
    <glyph glyph-name="Itilde" unicode="&#x128;" horiz-adv-x="215" 
d="M43 0v800h129v-800h-129zM-28 838q3 44 25.5 63.5t60.5 18.5q28 -1 44 -9t28.5 -16t30.5 -8q17 0 27 9t10 24h46q-4 -88 -84 -87q-27 0 -44 8t-31 16.5t-31 8.5q-33 2 -36 -28h-46z" />
    <glyph glyph-name="itilde" unicode="&#x129;" horiz-adv-x="215" 
d="M43 0v600h129v-600h-129zM-40 659q4 58 29 82t63 24q31 -1 49 -12t32 -22t33 -12q39 0 40 34h50q-3 -53 -27.5 -77t-64.5 -23q-28 0 -47 11t-34.5 22.5t-33.5 12.5q-35 1 -39 -40h-50z" />
    <glyph glyph-name="Imacron" unicode="&#x12a;" horiz-adv-x="215" 
d="M43 0v800h129v-800h-129zM-52 840v55h320v-55h-320z" />
    <glyph glyph-name="imacron" unicode="&#x12b;" horiz-adv-x="215" 
d="M43 0v600h129v-600h-129zM-69 661v64h354v-64h-354z" />
    <glyph glyph-name="Ibreve" unicode="&#x12c;" horiz-adv-x="215" 
d="M43 0v800h129v-800h-129zM-28 932h74q0 -18 17 -29.5t45 -11.5q27 0 44 11.5t17 29.5h75q-3 -42 -41.5 -69.5t-94.5 -27.5q-57 0 -95 27.5t-41 69.5z" />
    <glyph glyph-name="ibreve" unicode="&#x12d;" horiz-adv-x="215" 
d="M43 0v600h129v-600h-129zM-32 789h78q0 -39 14.5 -55t47.5 -16t47 16t14 55h78q-4 -74 -36.5 -105.5t-102.5 -31.5q-71 0 -103.5 31.5t-36.5 105.5z" />
    <glyph glyph-name="Iogonek" unicode="&#x12e;" horiz-adv-x="215" 
d="M43 0v800h129v-800h-129zM64 -66q1 23 13.5 35.5t34.5 16.5v25h51l9 -11q-28 -11 -41.5 -26.5t-13.5 -31.5q0 -10 7 -17t24 -7q9 0 20.5 1.5t19.5 3.5l10 -43q-11 -4 -26 -6t-28 -2q-40 0 -60 17t-20 45z" />
    <glyph glyph-name="iogonek" unicode="&#x12f;" horiz-adv-x="215" 
d="M43 0v600h129v-600h-129zM58 661v100h100v-100h-100zM64 -66q1 23 13.5 35.5t34.5 16.5v25h51l9 -11q-28 -11 -41.5 -26.5t-13.5 -31.5q0 -10 7 -17t24 -7q9 0 20.5 1.5t19.5 3.5l10 -43q-11 -4 -26 -6t-28 -2q-40 0 -60 17t-20 45z" />
    <glyph glyph-name="Idotaccent" unicode="&#x130;" horiz-adv-x="215" 
d="M43 0v800h129v-800h-129zM57 847v82h101v-82h-101z" />
    <glyph glyph-name="dotlessi" unicode="&#x131;" horiz-adv-x="215" 
d="M43 0v600h129v-600h-129z" />
    <glyph glyph-name="Jcircumflex" unicode="&#x134;" horiz-adv-x="441" 
d="M212 -9q-67 0 -106 18.5t-56 59t-19 105.5q-2 62 0 123h121v-73v-73q2 -55 60 -55q30 0 43.5 14t13.5 41v649h129v-626q0 -98 -42 -140.5t-144 -42.5zM94 839l103 91h76l103 -91h-85l-56 54l-56 -54h-85z" />
    <glyph glyph-name="jcircumflex" unicode="&#x135;" horiz-adv-x="218" 
d="M-82 -204v96q13 -1 34 -1.5t36 -0.5q56 0 56 53v657h129v-647q0 -88 -45.5 -126t-139.5 -38q-16 0 -34.5 2t-35.5 5zM-10 641l78 133h75l78 -133h-84l-31 61l-32 -61h-84z" />
    <glyph glyph-name="uni0136" unicode="&#x136;" 
d="M43 0v800h138l-2 -188l-23 -190h25l52 190l68 188h141l-130 -336l137 -464h-131l-91 319l-52 -116v-203h-132zM193 -130v81h100v-81l-30 -57h-49l25 57h-46z" />
    <glyph glyph-name="uni0137" unicode="&#x137;" horiz-adv-x="451" 
d="M43 0v800h121v-191l-15 -248h20l44 124l53 115h134l-117 -230l138 -370h-132l-87 240l-36 -59v-181h-123zM165 -167v102h123v-90l-44 -85h-63l31 73h-47z" />
    <glyph glyph-name="kgreenlandic" unicode="&#x138;" horiz-adv-x="451" 
d="M43 0v600h121v-74l-15 -181h20l45 123l67 132h133l-131 -247l138 -353h-132l-86 222l-37 -64v-158h-123z" />
    <glyph glyph-name="Lacute" unicode="&#x139;" horiz-adv-x="382" 
d="M43 0v800h129v-686h188v-114h-317zM178 847v3l104 81h76v-3l-112 -81h-68z" />
    <glyph glyph-name="lacute" unicode="&#x13a;" horiz-adv-x="215" 
d="M43 0v800h129v-800h-129zM70 858l82 133h84l-86 -133h-80z" />
    <glyph glyph-name="uni013B" unicode="&#x13b;" horiz-adv-x="382" 
d="M43 0v800h129v-686h188v-114h-317zM140 -130v81h100v-81l-30 -57h-49l25 57h-46z" />
    <glyph glyph-name="uni013C" unicode="&#x13c;" horiz-adv-x="215" 
d="M43 0v800h129v-800h-129zM50 -167v102h123v-90l-44 -85h-63l31 73h-47z" />
    <glyph glyph-name="Lcaron" unicode="&#x13d;" horiz-adv-x="382" 
d="M43 0v800h129v-686h188v-114h-317zM58 932h85l56 -54l56 54h85l-103 -90h-76z" />
    <glyph glyph-name="lcaron" unicode="&#x13e;" horiz-adv-x="215" 
d="M43 0v800h129v-800h-129zM-4 991h76l35 -69l36 69h76l-78 -133h-67z" />
    <glyph glyph-name="Ldot" unicode="&#x13f;" horiz-adv-x="382" 
d="M43 0v800h129v-686h188v-114h-317zM212 345v121h135v-121h-135z" />
    <glyph glyph-name="ldot" unicode="&#x140;" horiz-adv-x="384" 
d="M43 0v800h129v-800h-129zM212 345v121h155v-121h-155z" />
    <glyph glyph-name="Lslash" unicode="&#x141;" horiz-adv-x="405" 
d="M67 0v382l-47 -15v64l47 14v355h129v-315l74 22v-64l-74 -22v-307h188v-114h-317z" />
    <glyph glyph-name="lslash" unicode="&#x142;" horiz-adv-x="260" 
d="M65 0v386l-60 -19v64l60 18v351h129v-311l61 18v-64l-61 -18v-425h-129z" />
    <glyph glyph-name="Nacute" unicode="&#x143;" horiz-adv-x="511" 
d="M43 0v800h193l56 -255l59 -431h25l-23 359l-10 327h124v-800h-201l-57 268l-47 419h-27l22 -381l11 -306h-125zM231 847v3l104 81h76v-3l-112 -81h-68z" />
    <glyph glyph-name="nacute" unicode="&#x144;" 
d="M43 0v600h129v-62h23q20 34 42 52.5t66 18.5q58 0 90.5 -36t32.5 -120v-453h-129v464q0 51 -49 51q-21 0 -44 -13t-32 -35v-467h-129zM198 658l82 133h84l-86 -133h-80z" />
    <glyph glyph-name="uni0145" unicode="&#x145;" horiz-adv-x="511" 
d="M43 0v800h193l56 -255l59 -431h25l-23 359l-10 327h124v-800h-201l-57 268l-47 419h-27l22 -381l11 -306h-125zM202 -130v81h100v-81l-30 -57h-49l25 57h-46z" />
    <glyph glyph-name="uni0146" unicode="&#x146;" 
d="M43 0v600h129v-62h23q20 34 42 52.5t66 18.5q58 0 90.5 -36t32.5 -120v-453h-129v464q0 51 -49 51q-21 0 -44 -13t-32 -35v-467h-129zM178 -167v102h123v-90l-44 -85h-63l31 73h-47z" />
    <glyph glyph-name="Ncaron" unicode="&#x147;" horiz-adv-x="511" 
d="M43 0v800h193l56 -255l59 -431h25l-23 359l-10 327h124v-800h-201l-57 268l-47 419h-27l22 -381l11 -306h-125zM111 932h85l56 -54l56 54h85l-103 -90h-76z" />
    <glyph glyph-name="ncaron" unicode="&#x148;" 
d="M43 0v600h129v-62h23q20 34 42 52.5t66 18.5q58 0 90.5 -36t32.5 -120v-453h-129v464q0 51 -49 51q-21 0 -44 -13t-32 -35v-467h-129zM123 791h76l35 -69l36 69h76l-78 -133h-67z" />
    <glyph glyph-name="Eng" unicode="&#x14a;" horiz-adv-x="511" 
d="M266 -209q-17 0 -35 2t-35 4v95q13 -1 34 -1.5t35 -0.5q40 0 64.5 12t24.5 41v57h-88l-57 268l-47 419h-27l22 -381l11 -306h-125v800h193l56 -255l59 -431h25l-23 359l-10 327h124v-845q0 -88 -49 -126t-152 -38z" />
    <glyph glyph-name="eng" unicode="&#x14b;" horiz-adv-x="470" 
d="M223 -209q-16 0 -34.5 2t-34.5 4v95q13 -1 34 -1.5t35 -0.5q39 0 56 12t17 41l-1 521q-1 51 -47 51q-21 0 -44 -13t-32 -35v-467h-129v600h129v-62h23q20 34 42 52.5t66 18.5q58 0 89 -36t32 -120l1 -498q-1 -88 -49.5 -126t-152.5 -38z" />
    <glyph glyph-name="Omacron" unicode="&#x14c;" horiz-adv-x="474" 
d="M237 -9q-101 0 -145.5 42.5t-46.5 140.5q-2 110 -2 226.5t2 226.5q2 98 46.5 140t145.5 42q100 0 143.5 -42t46.5 -140q3 -111 3 -227t-3 -226q-3 -98 -46.5 -140.5t-143.5 -42.5zM237 96q59 0 61 54q3 76 4 163.5t0 174.5t-4 162q-2 54 -61 54q-61 0 -63 -54
q-2 -75 -3 -162t0 -174.5t3 -163.5q2 -54 63 -54zM78 840v55h320v-55h-320z" />
    <glyph glyph-name="omacron" unicode="&#x14d;" horiz-adv-x="464" 
d="M232 -9q-66 0 -106 18t-58.5 58.5t-22.5 106.5q0 23 -1 55.5t-1 69t0.5 70t1.5 58.5q4 65 22.5 105t58 58.5t106.5 18.5q68 0 107.5 -18.5t57.5 -58.5t21 -105q2 -31 2.5 -78t0 -95t-2.5 -80q-3 -65 -21 -105.5t-57.5 -59t-107.5 -18.5zM232 88q31 0 44 13.5t13 40.5
q5 158 0 317q0 27 -13 40t-44 13q-29 0 -43 -13t-15 -40q-5 -159 0 -317q2 -54 58 -54zM55 661v64h354v-64h-354z" />
    <glyph glyph-name="Obreve" unicode="&#x14e;" horiz-adv-x="474" 
d="M237 -9q-101 0 -145.5 42.5t-46.5 140.5q-2 110 -2 226.5t2 226.5q2 98 46.5 140t145.5 42q100 0 143.5 -42t46.5 -140q3 -111 3 -227t-3 -226q-3 -98 -46.5 -140.5t-143.5 -42.5zM237 96q59 0 61 54q3 76 4 163.5t0 174.5t-4 162q-2 54 -61 54q-61 0 -63 -54
q-2 -75 -3 -162t0 -174.5t3 -163.5q2 -54 63 -54zM102 932h74q0 -18 17 -29.5t45 -11.5q27 0 44 11.5t17 29.5h75q-3 -42 -41.5 -69.5t-94.5 -27.5q-57 0 -95 27.5t-41 69.5z" />
    <glyph glyph-name="obreve" unicode="&#x14f;" horiz-adv-x="464" 
d="M232 -9q-66 0 -106 18t-58.5 58.5t-22.5 106.5q0 23 -1 55.5t-1 69t0.5 70t1.5 58.5q4 65 22.5 105t58 58.5t106.5 18.5q68 0 107.5 -18.5t57.5 -58.5t21 -105q2 -31 2.5 -78t0 -95t-2.5 -80q-3 -65 -21 -105.5t-57.5 -59t-107.5 -18.5zM232 88q31 0 44 13.5t13 40.5
q5 158 0 317q0 27 -13 40t-44 13q-29 0 -43 -13t-15 -40q-5 -159 0 -317q2 -54 58 -54zM93 789h78q0 -39 14.5 -55t47.5 -16t47 16t14 55h78q-4 -74 -36.5 -105.5t-102.5 -31.5q-71 0 -103.5 31.5t-36.5 105.5z" />
    <glyph glyph-name="Ohungarumlaut" unicode="&#x150;" horiz-adv-x="474" 
d="M237 -9q-101 0 -145.5 42.5t-46.5 140.5q-2 110 -2 226.5t2 226.5q2 98 46.5 140t145.5 42q100 0 143.5 -42t46.5 -140q3 -111 3 -227t-3 -226q-3 -98 -46.5 -140.5t-143.5 -42.5zM237 96q59 0 61 54q3 76 4 163.5t0 174.5t-4 162q-2 54 -61 54q-61 0 -63 -54
q-2 -75 -3 -162t0 -174.5t3 -163.5q2 -54 63 -54zM338 839h-57v3l105 69h58v-1zM159 839v3l105 69h58v-1l-106 -71h-57z" />
    <glyph glyph-name="ohungarumlaut" unicode="&#x151;" horiz-adv-x="464" 
d="M232 -9q-66 0 -106 18t-58.5 58.5t-22.5 106.5q0 23 -1 55.5t-1 69t0.5 70t1.5 58.5q4 65 22.5 105t58 58.5t106.5 18.5q68 0 107.5 -18.5t57.5 -58.5t21 -105q2 -31 2.5 -78t0 -95t-2.5 -80q-3 -65 -21 -105.5t-57.5 -59t-107.5 -18.5zM232 88q31 0 44 13.5t13 40.5
q5 158 0 317q0 27 -13 40t-44 13q-29 0 -43 -13t-15 -40q-5 -159 0 -317q2 -54 58 -54zM319 641h-57v3l129 147h57v-2zM140 641v3l129 147h57v-2l-129 -148h-57z" />
    <glyph glyph-name="OE" unicode="&#x152;" horiz-adv-x="642" 
d="M237 -9q-101 0 -145.5 42.5t-46.5 140.5q-2 110 -2 226.5t2 226.5q2 98 46.5 140t145.5 42q100 0 143.5 -42t46.5 -140q3 -111 3 -227t-3 -226q-3 -98 -46.5 -140.5t-143.5 -42.5zM237 96q59 0 61 54q3 76 4 163.5t0 174.5t-4 162q-2 54 -61 54q-61 0 -63 -54
q-2 -75 -3 -162t0 -174.5t3 -163.5q2 -54 63 -54zM302 0v800h316v-114h-187v-223h177v-114h-177v-235h187v-114h-316z" />
    <glyph glyph-name="oe" unicode="&#x153;" horiz-adv-x="689" 
d="M232 -9q-66 0 -106 18t-58.5 58.5t-22.5 106.5q0 23 -1 55.5t-1 69t0.5 70t1.5 58.5q4 65 22.5 105t58 58.5t106.5 18.5q68 0 107.5 -18.5t57.5 -58.5t21 -105q2 -31 2.5 -78t0 -95t-2.5 -80q-3 -65 -21 -105.5t-57.5 -59t-107.5 -18.5zM232 88q31 0 44 13.5t13 40.5
q5 158 0 317q0 27 -13 40t-44 13q-29 0 -43 -13t-15 -40q-5 -159 0 -317q2 -54 58 -54zM528 226h126q1 -9 1 -31.5v-39.5q-4 -88 -45 -126t-132 -38q-94 0 -136.5 38t-47.5 126q-1 22 -1.5 60.5t-0.5 82t0.5 82.5t1.5 64q6 89 48.5 127t134.5 38q91 0 132.5 -37.5
t45.5 -122.5q0 -13 0.5 -41t0 -63t-1.5 -67h-233q0 -35 1 -69t1 -68q1 -29 13.5 -41t41.5 -12q26 0 37.5 12t12.5 41q2 29 0 85zM477 512q-29 0 -41 -11.5t-13 -37.5q0 -25 -0.5 -48t-1.5 -47h108q0 33 -0.5 59.5t-0.5 35.5q-1 26 -13 37.5t-38 11.5z" />
    <glyph glyph-name="Racute" unicode="&#x154;" horiz-adv-x="446" 
d="M43 0v800h175q101 0 146 -41.5t49 -137.5q1 -48 1 -83t-1 -81q-3 -61 -21.5 -99t-57.5 -58l91 -300h-137l-76 279h-40v-279h-129zM172 393h46q62 0 65 58q5 88 0 177q-3 58 -65 58h-46v-293zM193 847v3l104 81h76v-3l-112 -81h-68z" />
    <glyph glyph-name="racute" unicode="&#x155;" horiz-adv-x="335" 
d="M43 0v600h129v-70h23q6 41 26.5 57t53.5 16q12 0 23 -0.5t17 -1.5v-99h-38q-54 0 -76.5 -17t-28.5 -48v-437h-129zM139 658l82 133h84l-86 -133h-80z" />
    <glyph glyph-name="uni0156" unicode="&#x156;" horiz-adv-x="446" 
d="M43 0v800h175q101 0 146 -41.5t49 -137.5q1 -48 1 -83t-1 -81q-3 -61 -21.5 -99t-57.5 -58l91 -300h-137l-76 279h-40v-279h-129zM172 393h46q62 0 65 58q5 88 0 177q-3 58 -65 58h-46v-293zM180 -130v81h100v-81l-30 -57h-49l25 57h-46z" />
    <glyph glyph-name="uni0157" unicode="&#x157;" horiz-adv-x="335" 
d="M43 0v600h129v-70h23q6 41 26.5 57t53.5 16q12 0 23 -0.5t17 -1.5v-99h-38q-54 0 -76.5 -17t-28.5 -48v-437h-129zM119 -167v102h123v-90l-44 -85h-63l31 73h-47z" />
    <glyph glyph-name="Rcaron" unicode="&#x158;" horiz-adv-x="446" 
d="M43 0v800h175q101 0 146 -41.5t49 -137.5q1 -48 1 -83t-1 -81q-3 -61 -21.5 -99t-57.5 -58l91 -300h-137l-76 279h-40v-279h-129zM172 393h46q62 0 65 58q5 88 0 177q-3 58 -65 58h-46v-293zM74 932h85l56 -54l56 54h85l-103 -90h-76z" />
    <glyph glyph-name="rcaron" unicode="&#x159;" horiz-adv-x="335" 
d="M43 0v600h129v-70h23q6 41 26.5 57t53.5 16q12 0 23 -0.5t17 -1.5v-99h-38q-54 0 -76.5 -17t-28.5 -48v-437h-129zM65 791h76l35 -69l36 69h76l-78 -133h-67z" />
    <glyph glyph-name="Sacute" unicode="&#x15a;" 
d="M237 -9q-100 0 -142.5 42.5t-46.5 140.5q-1 30 -0.5 62t3.5 61h121q-2 -38 -2 -76t2 -70q5 -55 64 -55q31 0 45 14t17 41q2 30 2 56t-2 57q-2 25 -12.5 44.5t-36.5 25.5l-74 19q-73 19 -101 63t-30 118q-1 24 -0.5 47t0.5 46q4 98 47 140t145 42q97 0 140.5 -42.5
t47.5 -140.5q0 -23 -0.5 -56.5t-1.5 -63.5h-124q1 36 1.5 72t-0.5 72q-2 54 -63 54q-31 0 -45.5 -14t-17.5 -40q-5 -57 0 -116q2 -26 13.5 -44t37.5 -24l66 -16q77 -19 106 -65t31 -121q1 -24 0.5 -45.5t-0.5 -44.5q-4 -98 -47 -140.5t-143 -42.5zM209 847v3l104 81h76v-3
l-112 -81h-68z" />
    <glyph glyph-name="sacute" unicode="&#x15b;" horiz-adv-x="435" 
d="M214 -9q-89 0 -127 38t-42 126q-1 17 -0.5 39.5t1.5 31.5h113q-1 -27 -1 -49t1 -36q1 -29 15 -41t40 -12q31 0 45.5 12t14.5 41v21.5v20.5q0 21 -7.5 34t-27.5 18l-65 19q-63 19 -97.5 53.5t-34.5 100.5v17v18q0 89 40 127.5t138 38.5q89 0 126.5 -37.5t41.5 -122.5
q0 -18 -0.5 -41t-0.5 -32h-118q1 11 1 28v34t-1 25q-1 27 -12 38t-37 11q-29 0 -40 -11t-12 -38q-1 -13 -1 -23v-21q0 -24 7 -39.5t31 -21.5l58 -15q64 -16 97 -51t33 -102v-19.5v-19.5q-1 -85 -42 -122.5t-137 -37.5zM178 658l82 133h84l-86 -133h-80z" />
    <glyph glyph-name="Scircumflex" unicode="&#x15c;" 
d="M237 -9q-100 0 -142.5 42.5t-46.5 140.5q-1 30 -0.5 62t3.5 61h121q-2 -38 -2 -76t2 -70q5 -55 64 -55q31 0 45 14t17 41q2 30 2 56t-2 57q-2 25 -12.5 44.5t-36.5 25.5l-74 19q-73 19 -101 63t-30 118q-1 24 -0.5 47t0.5 46q4 98 47 140t145 42q97 0 140.5 -42.5
t47.5 -140.5q0 -23 -0.5 -56.5t-1.5 -63.5h-124q1 36 1.5 72t-0.5 72q-2 54 -63 54q-31 0 -45.5 -14t-17.5 -40q-5 -57 0 -116q2 -26 13.5 -44t37.5 -24l66 -16q77 -19 106 -65t31 -121q1 -24 0.5 -45.5t-0.5 -44.5q-4 -98 -47 -140.5t-143 -42.5zM90 839l103 91h76l103 -91
h-85l-56 54l-56 -54h-85z" />
    <glyph glyph-name="scircumflex" unicode="&#x15d;" horiz-adv-x="435" 
d="M214 -9q-89 0 -127 38t-42 126q-1 17 -0.5 39.5t1.5 31.5h113q-1 -27 -1 -49t1 -36q1 -29 15 -41t40 -12q31 0 45.5 12t14.5 41v21.5v20.5q0 21 -7.5 34t-27.5 18l-65 19q-63 19 -97.5 53.5t-34.5 100.5v17v18q0 89 40 127.5t138 38.5q89 0 126.5 -37.5t41.5 -122.5
q0 -18 -0.5 -41t-0.5 -32h-118q1 11 1 28v34t-1 25q-1 27 -12 38t-37 11q-29 0 -40 -11t-12 -38q-1 -13 -1 -23v-21q0 -24 7 -39.5t31 -21.5l58 -15q64 -16 97 -51t33 -102v-19.5v-19.5q-1 -85 -42 -122.5t-137 -37.5zM96 641l78 133h75l78 -133h-84l-31 61l-32 -61h-84z
" />
    <glyph glyph-name="Scedilla" unicode="&#x15e;" 
d="M237 -9q-100 0 -142.5 42.5t-46.5 140.5q-1 30 -0.5 62t3.5 61h121q-2 -38 -2 -76t2 -70q5 -55 64 -55q31 0 45 14t17 41q2 30 2 56t-2 57q-2 25 -12.5 44.5t-36.5 25.5l-74 19q-73 19 -101 63t-30 118q-1 24 -0.5 47t0.5 46q4 98 47 140t145 42q97 0 140.5 -42.5
t47.5 -140.5q0 -23 -0.5 -56.5t-1.5 -63.5h-124q1 36 1.5 72t-0.5 72q-2 54 -63 54q-31 0 -45.5 -14t-17.5 -40q-5 -57 0 -116q2 -26 13.5 -44t37.5 -24l66 -16q77 -19 106 -65t31 -121q1 -24 0.5 -45.5t-0.5 -44.5q-4 -98 -47 -140.5t-143 -42.5zM280 -152q-34 0 -58 7
l11 41q15 -2 47 -2q24 0 24 18q0 23 -24 23h-57l-6 6v68h47v-32h16q74 0 74 -65q0 -64 -74 -64z" />
    <glyph glyph-name="scedilla" unicode="&#x15f;" horiz-adv-x="435" 
d="M214 -9q-89 0 -127 38t-42 126q-1 17 -0.5 39.5t1.5 31.5h113q-1 -27 -1 -49t1 -36q1 -29 15 -41t40 -12q31 0 45.5 12t14.5 41v21.5v20.5q0 21 -7.5 34t-27.5 18l-65 19q-63 19 -97.5 53.5t-34.5 100.5v17v18q0 89 40 127.5t138 38.5q89 0 126.5 -37.5t41.5 -122.5
q0 -18 -0.5 -41t-0.5 -32h-118q1 11 1 28v34t-1 25q-1 27 -12 38t-37 11q-29 0 -40 -11t-12 -38q-1 -13 -1 -23v-21q0 -24 7 -39.5t31 -21.5l58 -15q64 -16 97 -51t33 -102v-19.5v-19.5q-1 -85 -42 -122.5t-137 -37.5zM260 -152q-34 0 -58 7l11 41q15 -2 47 -2q24 0 24 18
q0 23 -24 23h-57l-6 6v68h47v-32h16q74 0 74 -65q0 -64 -74 -64z" />
    <glyph glyph-name="Scaron" unicode="&#x160;" 
d="M237 -9q-100 0 -142.5 42.5t-46.5 140.5q-1 30 -0.5 62t3.5 61h121q-2 -38 -2 -76t2 -70q5 -55 64 -55q31 0 45 14t17 41q2 30 2 56t-2 57q-2 25 -12.5 44.5t-36.5 25.5l-74 19q-73 19 -101 63t-30 118q-1 24 -0.5 47t0.5 46q4 98 47 140t145 42q97 0 140.5 -42.5
t47.5 -140.5q0 -23 -0.5 -56.5t-1.5 -63.5h-124q1 36 1.5 72t-0.5 72q-2 54 -63 54q-31 0 -45.5 -14t-17.5 -40q-5 -57 0 -116q2 -26 13.5 -44t37.5 -24l66 -16q77 -19 106 -65t31 -121q1 -24 0.5 -45.5t-0.5 -44.5q-4 -98 -47 -140.5t-143 -42.5zM90 932h85l56 -54l56 54
h85l-103 -90h-76z" />
    <glyph glyph-name="scaron" unicode="&#x161;" horiz-adv-x="435" 
d="M214 -9q-89 0 -127 38t-42 126q-1 17 -0.5 39.5t1.5 31.5h113q-1 -27 -1 -49t1 -36q1 -29 15 -41t40 -12q31 0 45.5 12t14.5 41v21.5v20.5q0 21 -7.5 34t-27.5 18l-65 19q-63 19 -97.5 53.5t-34.5 100.5v17v18q0 89 40 127.5t138 38.5q89 0 126.5 -37.5t41.5 -122.5
q0 -18 -0.5 -41t-0.5 -32h-118q1 11 1 28v34t-1 25q-1 27 -12 38t-37 11q-29 0 -40 -11t-12 -38q-1 -13 -1 -23v-21q0 -24 7 -39.5t31 -21.5l58 -15q64 -16 97 -51t33 -102v-19.5v-19.5q-1 -85 -42 -122.5t-137 -37.5zM103 791h76l35 -69l36 69h76l-78 -133h-67z" />
    <glyph glyph-name="uni0162" unicode="&#x162;" horiz-adv-x="416" 
d="M144 0v686h-122v114h372v-114h-121v-686h-129zM253 -152q-34 0 -58 7l11 41q15 -2 47 -2q24 0 24 18q0 23 -24 23h-57l-6 6v68h47v-32h16q74 0 74 -65q0 -64 -74 -64z" />
    <glyph glyph-name="uni0163" unicode="&#x163;" horiz-adv-x="364" 
d="M286 -9q-103 0 -147 38t-44 126v347h-53v98h54v170h131l-2 -170h99v-98h-100v-362q0 -29 12 -41t51 -12q12 0 22.5 0.5t24.5 1.5v-93q-11 -3 -23 -4t-25 -1zM265 -152q-34 0 -58 7l11 41q15 -2 47 -2q24 0 24 18q0 23 -24 23h-57l-6 6v68h47v-32h16q74 0 74 -65
q0 -64 -74 -64z" />
    <glyph glyph-name="Tcaron" unicode="&#x164;" horiz-adv-x="416" 
d="M144 0v686h-122v114h372v-114h-121v-686h-129zM63 932h85l56 -54l56 54h85l-103 -90h-76z" />
    <glyph glyph-name="tcaron" unicode="&#x165;" horiz-adv-x="364" 
d="M286 -9q-103 0 -147 38t-44 126v347h-53v98h54v170h131l-2 -170h99v-98h-100v-362q0 -29 12 -41t51 -12q12 0 22.5 0.5t24.5 1.5v-93q-11 -3 -23 -4t-25 -1zM59 959h76l35 -69l36 69h76l-78 -133h-67z" />
    <glyph glyph-name="Tbar" unicode="&#x166;" horiz-adv-x="416" 
d="M144 0v311h-54v64h54v311h-122v114h372v-114h-121v-311h71v-64h-71v-311h-129z" />
    <glyph glyph-name="tbar" unicode="&#x167;" horiz-adv-x="364" 
d="M287 -9q-103 0 -147.5 38t-44.5 126v156h-49v64h49v127h-53v98h54v170h132l-2 -170h98v-98h-100v-127h104v-64h-104v-171q0 -29 12 -41t51 -12q12 0 23 0.5t24 1.5v-93q-10 -3 -22 -4t-25 -1z" />
    <glyph glyph-name="Utilde" unicode="&#x168;" 
d="M236 -9q-102 0 -146 42.5t-45 140.5q-4 313 0 626h129q-2 -104 -2 -214.5t0.5 -221t1.5 -214.5q0 -54 62 -54q61 0 61 54q1 104 1.5 214.5t0.5 221t-2 214.5h129q4 -313 0 -626q-1 -98 -45 -140.5t-145 -42.5zM100 838q3 44 25.5 63.5t60.5 18.5q28 -1 44 -9t28.5 -16
t30.5 -8q17 0 27 9t10 24h46q-4 -88 -84 -87q-27 0 -44 8t-31 16.5t-31 8.5q-33 2 -36 -28h-46z" />
    <glyph glyph-name="utilde" unicode="&#x169;" 
d="M173 -9q-59 0 -93 36t-34 120v453h129v-464q0 -51 47 -51q22 0 44.5 13t31.5 35v467h129v-600h-129v62h-18q-21 -38 -46.5 -54.5t-60.5 -16.5zM87 659q4 58 29 82t63 24q31 -1 49 -12t32 -22t33 -12q39 0 40 34h50q-3 -53 -27.5 -77t-64.5 -23q-28 0 -47 11t-34.5 22.5
t-33.5 12.5q-35 1 -39 -40h-50z" />
    <glyph glyph-name="Umacron" unicode="&#x16a;" 
d="M236 -9q-102 0 -146 42.5t-45 140.5q-4 313 0 626h129q-2 -104 -2 -214.5t0.5 -221t1.5 -214.5q0 -54 62 -54q61 0 61 54q1 104 1.5 214.5t0.5 221t-2 214.5h129q4 -313 0 -626q-1 -98 -45 -140.5t-145 -42.5zM76 840v55h320v-55h-320z" />
    <glyph glyph-name="umacron" unicode="&#x16b;" 
d="M173 -9q-59 0 -93 36t-34 120v453h129v-464q0 -51 47 -51q22 0 44.5 13t31.5 35v467h129v-600h-129v62h-18q-21 -38 -46.5 -54.5t-60.5 -16.5zM58 661v64h354v-64h-354z" />
    <glyph glyph-name="Ubreve" unicode="&#x16c;" 
d="M236 -9q-102 0 -146 42.5t-45 140.5q-4 313 0 626h129q-2 -104 -2 -214.5t0.5 -221t1.5 -214.5q0 -54 62 -54q61 0 61 54q1 104 1.5 214.5t0.5 221t-2 214.5h129q4 -313 0 -626q-1 -98 -45 -140.5t-145 -42.5zM100 932h74q0 -18 17 -29.5t45 -11.5q27 0 44 11.5t17 29.5
h75q-3 -42 -41.5 -69.5t-94.5 -27.5q-57 0 -95 27.5t-41 69.5z" />
    <glyph glyph-name="ubreve" unicode="&#x16d;" 
d="M173 -9q-59 0 -93 36t-34 120v453h129v-464q0 -51 47 -51q22 0 44.5 13t31.5 35v467h129v-600h-129v62h-18q-21 -38 -46.5 -54.5t-60.5 -16.5zM96 789h78q0 -39 14.5 -55t47.5 -16t47 16t14 55h78q-4 -74 -36.5 -105.5t-102.5 -31.5q-71 0 -103.5 31.5t-36.5 105.5z" />
    <glyph glyph-name="Uring" unicode="&#x16e;" 
d="M236 -9q-102 0 -146 42.5t-45 140.5q-4 313 0 626h129q-2 -104 -2 -214.5t0.5 -221t1.5 -214.5q0 -54 62 -54q61 0 61 54q1 104 1.5 214.5t0.5 221t-2 214.5h129q4 -313 0 -626q-1 -98 -45 -140.5t-145 -42.5zM236 753q-37 0 -63.5 26t-26.5 64q0 37 26.5 63t63.5 26
t63 -26t26 -63q0 -38 -26 -64t-63 -26zM196 843q0 -17 11.5 -29t28.5 -12t28.5 12t11.5 29q0 16 -11.5 28t-28.5 12t-28.5 -12t-11.5 -28z" />
    <glyph glyph-name="uring" unicode="&#x16f;" 
d="M173 -9q-59 0 -93 36t-34 120v453h129v-464q0 -51 47 -51q22 0 44.5 13t31.5 35v467h129v-600h-129v62h-18q-21 -38 -46.5 -54.5t-60.5 -16.5zM237 533q-35 0 -64 17.5t-46.5 46t-17.5 64.5q0 35 17.5 64t46.5 46t64 17t64 -17t46 -46t17 -64q0 -36 -17 -64.5t-46 -46
t-64 -17.5zM178 661q0 -25 17 -42.5t42 -17.5q24 0 41.5 17.5t17.5 42.5q0 24 -17.5 41.5t-41.5 17.5q-25 0 -42 -17.5t-17 -41.5z" />
    <glyph glyph-name="Uhungarumlaut" unicode="&#x170;" 
d="M236 -9q-102 0 -146 42.5t-45 140.5q-4 313 0 626h129q-2 -104 -2 -214.5t0.5 -221t1.5 -214.5q0 -54 62 -54q61 0 61 54q1 104 1.5 214.5t0.5 221t-2 214.5h129q4 -313 0 -626q-1 -98 -45 -140.5t-145 -42.5zM336 839h-57v3l105 69h58v-1zM157 839v3l105 69h58v-1
l-106 -71h-57z" />
    <glyph glyph-name="uhungarumlaut" unicode="&#x171;" 
d="M173 -9q-59 0 -93 36t-34 120v453h129v-464q0 -51 47 -51q22 0 44.5 13t31.5 35v467h129v-600h-129v62h-18q-21 -38 -46.5 -54.5t-60.5 -16.5zM322 641h-57v3l129 147h57v-2zM143 641v3l129 147h57v-2l-129 -148h-57z" />
    <glyph glyph-name="Uogonek" unicode="&#x172;" 
d="M236 -9q-102 0 -146 42.5t-45 140.5q-4 313 0 626h129q-2 -104 -2 -214.5t0.5 -221t1.5 -214.5q0 -54 62 -54q61 0 61 54q1 104 1.5 214.5t0.5 221t-2 214.5h129q4 -313 0 -626q-1 -98 -45 -140.5t-145 -42.5zM243 -74q1 23 13.5 35.5t34.5 16.5l17 -14q-12 -15 -12 -30
q0 -10 7 -17t24 -7q9 0 20.5 1.5t19.5 3.5l10 -43q-11 -4 -26 -6t-28 -2q-40 0 -60 17t-20 45z" />
    <glyph glyph-name="uogonek" unicode="&#x173;" 
d="M173 -9q-59 0 -93 36t-34 120v453h129v-464q0 -51 47 -51q22 0 44.5 13t31.5 35v467h129v-600h-129v62h-18q-21 -38 -46.5 -54.5t-60.5 -16.5zM251 -66q1 23 13.5 35.5t34.5 16.5v25h51l9 -11q-28 -11 -41.5 -26.5t-13.5 -31.5q0 -10 7 -17t24 -7q9 0 20.5 1.5t19.5 3.5
l10 -43q-11 -4 -26 -6t-28 -2q-40 0 -60 17t-20 45z" />
    <glyph glyph-name="Wcircumflex" unicode="&#x174;" horiz-adv-x="738" 
d="M94 0l-71 800h130l24 -350l17 -336h24l6 336l60 345h170l61 -345l5 -336h25l17 336l24 350h129l-70 -800h-214l-34 233l-16 452h-24l-16 -452l-34 -233h-213zM224 839l103 91h76l103 -91h-85l-56 54l-56 -54h-85z" />
    <glyph glyph-name="wcircumflex" unicode="&#x175;" horiz-adv-x="715" 
d="M103 0l-80 600h131l29 -301l10 -204h25l10 204l30 300h199l29 -300l10 -204h25l10 204l30 301h131l-81 -600h-209l-21 233l-11 271h-26l-11 -271l-21 -233h-209zM238 641l78 133h75l78 -133h-84l-31 61l-32 -61h-84z" />
    <glyph glyph-name="Ycircumflex" unicode="&#x176;" horiz-adv-x="452" 
d="M161 0v196l-10 42l-129 562h132l41 -202l18 -233h26l18 233l42 202h131l-129 -561l-10 -43v-196h-130zM76 839l103 91h76l103 -91h-85l-56 54l-56 -54h-85z" />
    <glyph glyph-name="ycircumflex" unicode="&#x177;" horiz-adv-x="430" 
d="M127 0l-106 600h132l34 -276l20 -228h25l17 228l28 276h131l-98 -645q-9 -58 -30.5 -94t-62 -53t-109.5 -17q-16 0 -34.5 2t-35.5 5v96q13 -1 34 -2t36 -1q39 0 54 12t19 42l7 55h-61zM95 641l78 133h75l78 -133h-84l-31 61l-32 -61h-84z" />
    <glyph glyph-name="Ydieresis" unicode="&#x178;" horiz-adv-x="452" 
d="M161 0v196l-10 42l-129 562h132l41 -202l18 -233h26l18 233l42 202h131l-129 -561l-10 -43v-196h-130zM244 848v81h99v-81h-99zM99 848v81h100v-81h-100z" />
    <glyph glyph-name="Zacute" unicode="&#x179;" horiz-adv-x="397" 
d="M22 0v107l215 579h-204v114h342v-110l-224 -576h208v-114h-337zM170 847v3l104 81h76v-3l-112 -81h-68z" />
    <glyph glyph-name="zacute" unicode="&#x17a;" horiz-adv-x="376" 
d="M22 0v82l195 423l-191 -1v96h328v-85l-198 -420h196v-95h-330zM150 658l82 133h84l-86 -133h-80z" />
    <glyph glyph-name="Zdotaccent" unicode="&#x17b;" horiz-adv-x="397" 
d="M22 0v107l215 579h-204v114h342v-110l-224 -576h208v-114h-337zM146 847v82h101v-82h-101z" />
    <glyph glyph-name="zdotaccent" unicode="&#x17c;" horiz-adv-x="376" 
d="M22 0v82l195 423l-191 -1v96h328v-85l-198 -420h196v-95h-330zM138 661v100h100v-100h-100z" />
    <glyph glyph-name="Zcaron" unicode="&#x17d;" horiz-adv-x="397" 
d="M22 0v107l215 579h-204v114h342v-110l-224 -576h208v-114h-337zM51 932h85l56 -54l56 54h85l-103 -90h-76z" />
    <glyph glyph-name="zcaron" unicode="&#x17e;" horiz-adv-x="376" 
d="M22 0v82l195 423l-191 -1v96h328v-85l-198 -420h196v-95h-330zM76 791h76l35 -69l36 69h76l-78 -133h-67z" />
    <glyph glyph-name="uni018F" unicode="&#x18f;" horiz-adv-x="474" 
d="M238 -9q-99 0 -143.5 42t-46.5 140q-1 67 -1 127t1 138h256q-1 55 -2 108.5t-2 102.5q-2 54 -62 54q-63 0 -65 -54v-70.5v-75.5h-129q0 30 -0.5 62.5t0.5 59.5q3 99 48 141.5t146 42.5q102 0 145.5 -42.5t45.5 -141.5q1 -64 1.5 -144.5t0 -161.5t-1.5 -146
q-1 -85 -46 -133.5t-145 -48.5zM238 96q60 0 62 54q1 47 2 97t2 102h-129q0 -53 0.5 -101.5t1.5 -97.5q2 -54 61 -54z" />
    <glyph glyph-name="florin" unicode="&#x192;" horiz-adv-x="672" 
d="M115 -9q-19 0 -37.5 2t-34.5 5l16 95q13 -1 33 -1.5t32 -0.5q30 0 52 16.5t29 43.5l61 229h-116v64h133l56 209q23 88 75.5 122.5t142.5 34.5q20 0 38 -2t34 -5l-15 -94q-16 0 -32 0.5t-32 0.5q-32 0 -53.5 -17t-29.5 -43l-55 -206h138v-64h-156l-62 -232
q-23 -88 -74.5 -122.5t-142.5 -34.5z" />
    <glyph glyph-name="Ohorn" unicode="&#x1a0;" horiz-adv-x="538" 
d="M237 -9q-101 0 -145.5 42.5t-46.5 140.5q-2 110 -2 226.5t2 226.5q2 98 46.5 140t145.5 42q100 0 143.5 -42t46.5 -140q3 -111 3 -227t-3 -226q-3 -98 -46.5 -140.5t-143.5 -42.5zM237 96q59 0 61 54q3 76 4 163.5t0 174.5t-4 162q-2 54 -61 54q-61 0 -63 -54
q-2 -75 -3 -162t0 -174.5t3 -163.5q2 -54 63 -54zM411 571h-20t-18 2v59q10 0 19 -0.5t19 -0.5q34 2 50.5 20t18.5 56q0 9 0.5 27.5t0 37t-0.5 28.5h66q0 -9 0.5 -28t0 -37.5t-0.5 -27.5q-4 -73 -35.5 -104.5t-99.5 -31.5z" />
    <glyph glyph-name="ohorn" unicode="&#x1a1;" horiz-adv-x="528" 
d="M232 -9q-66 0 -106 18t-58.5 58.5t-22.5 106.5q0 23 -1 55.5t-1 69t0.5 70t1.5 58.5q4 65 22.5 105t58 58.5t106.5 18.5q68 0 107.5 -18.5t57.5 -58.5t21 -105q2 -31 2.5 -78t0 -95t-2.5 -80q-3 -65 -21 -105.5t-57.5 -59t-107.5 -18.5zM232 88q31 0 44 13.5t13 40.5
q5 158 0 317q0 27 -13 40t-44 13q-29 0 -43 -13t-15 -40q-5 -159 0 -317q2 -54 58 -54zM401 371h-20t-18 2v59q10 0 19 -0.5t19 -0.5q34 2 50.5 20t18.5 56q0 9 0.5 27.5t0 37t-0.5 28.5h66q0 -9 0.5 -28t0 -37.5t-0.5 -27.5q-4 -73 -35.5 -104.5t-99.5 -31.5z" />
    <glyph glyph-name="Uhorn" unicode="&#x1af;" horiz-adv-x="543" 
d="M236 -9q-102 0 -146 42.5t-45 140.5q-4 313 0 626h129q-2 -104 -2 -214.5t0.5 -221t1.5 -214.5q0 -54 62 -54q61 0 61 54q1 104 1.5 214.5t0.5 221t-2 214.5h129q4 -313 0 -626q-1 -98 -45 -140.5t-145 -42.5zM407 571h-20t-18 2v59q10 0 19 -0.5t19 -0.5q34 2 50.5 20
t18.5 56q0 9 0.5 27.5t0 37t-0.5 28.5h66q0 -9 0.5 -28t0 -37.5t-0.5 -27.5q-4 -73 -35.5 -104.5t-99.5 -31.5z" />
    <glyph glyph-name="uhorn" unicode="&#x1b0;" horiz-adv-x="541" 
d="M173 -9q-59 0 -93 36t-34 120v453h129v-464q0 -51 47 -51q22 0 44.5 13t31.5 35v467h129v-600h-129v62h-18q-21 -38 -46.5 -54.5t-60.5 -16.5zM408 371h-20t-18 2v59q10 0 19 -0.5t19 -0.5q34 2 50.5 20t18.5 56q0 9 0.5 27.5t0 37t-0.5 28.5h66q0 -9 0.5 -28t0 -37.5
t-0.5 -27.5q-4 -73 -35.5 -104.5t-99.5 -31.5z" />
    <glyph glyph-name="uni01C4" unicode="&#x1c4;" horiz-adv-x="847" 
d="M43 0v800h184q102 0 147.5 -43.5t47.5 -143.5q1 -76 1.5 -144.5t0 -136.5t-1.5 -144q-2 -101 -47.5 -144.5t-147.5 -43.5h-184zM172 114h55q64 0 66 59q5 227 0 455q-2 58 -66 58h-55v-572zM472 0v107l215 579h-204v114h342v-110l-224 -576h208v-114h-337zM501 932h85
l56 -54l56 54h85l-103 -90h-76z" />
    <glyph glyph-name="uni01C5" unicode="&#x1c5;" horiz-adv-x="842" 
d="M43 0v800h184q102 0 147.5 -43.5t47.5 -143.5q1 -76 1.5 -144.5t0 -136.5t-1.5 -144q-2 -101 -47.5 -144.5t-147.5 -43.5h-184zM172 114h55q64 0 66 59q5 227 0 455q-2 58 -66 58h-55v-572zM489 0v82l195 423l-191 -1v96h328v-85l-198 -420h196v-95h-330zM543 791h76
l35 -69l36 69h76l-78 -133h-67z" />
    <glyph glyph-name="uni01C6" unicode="&#x1c6;" horiz-adv-x="835" 
d="M287 800h129v-800h-129v62h-19q-19 -34 -42 -52.5t-67 -18.5q-58 0 -89 36t-35 120q-1 29 -1.5 68.5t-0.5 83t0.5 84t1.5 70.5q4 84 36 120t90 36q44 0 66 -18t42 -53h18v262zM211 85q23 0 45 12.5t31 35.5v334q-9 23 -31 35.5t-44 12.5q-25 0 -36 -12.5t-12 -38.5
q-2 -50 -3 -109.5t0 -117t3 -101.5q1 -26 12 -38.5t35 -12.5zM482 0v82l195 423l-191 -1v96h328v-85l-198 -420h196v-95h-330zM536 791h76l35 -69l36 69h76l-78 -133h-67z" />
    <glyph glyph-name="uni01C7" unicode="&#x1c7;" horiz-adv-x="823" 
d="M43 0v800h129v-686h188v-114h-317zM594 -9q-67 0 -106 18.5t-56 59t-19 105.5q-2 62 0 123h121v-73v-73q2 -55 60 -55q30 0 43.5 14t13.5 41v649h129v-626q0 -98 -42 -140.5t-144 -42.5z" />
    <glyph glyph-name="uni01C8" unicode="&#x1c8;" horiz-adv-x="600" 
d="M43 0v800h129v-686h188v-114h-317zM421 695v105h138v-105h-138zM300 -204v96q13 -1 34 -1.5t36 -0.5q56 0 56 53v657h129v-647q0 -88 -45.5 -126t-139.5 -38q-16 0 -34.5 2t-35.5 5z" />
    <glyph glyph-name="uni01C9" unicode="&#x1c9;" horiz-adv-x="434" 
d="M43 0v800h129v-800h-129zM254 695v105h138v-105h-138zM133 -204v96q13 -1 34 -1.5t36 -0.5q56 0 56 53v657h129v-647q0 -88 -45.5 -126t-139.5 -38q-16 0 -34.5 2t-35.5 5z" />
    <glyph glyph-name="uni01CA" unicode="&#x1ca;" horiz-adv-x="936" 
d="M43 0v800h193l56 -255l59 -431h25l-23 359l-10 327h124v-800h-201l-57 268l-47 419h-27l22 -381l11 -306h-125zM707 -9q-67 0 -106 18.5t-56 59t-19 105.5q-2 62 0 123h121v-73v-73q2 -55 60 -55q30 0 43.5 14t13.5 41v649h129v-626q0 -98 -42 -140.5t-144 -42.5z" />
    <glyph glyph-name="uni01CB" unicode="&#x1cb;" horiz-adv-x="729" 
d="M43 0v800h193l56 -255l59 -431h25l-23 359l-10 327h124v-800h-201l-57 268l-47 419h-27l22 -381l11 -306h-125zM550 695v105h138v-105h-138zM429 -204v96q13 -1 34 -1.5t36 -0.5q56 0 56 53v657h129v-647q0 -88 -45.5 -126t-139.5 -38q-16 0 -34.5 2t-35.5 5z" />
    <glyph glyph-name="uni01CC" unicode="&#x1cc;" horiz-adv-x="689" 
d="M43 0v600h129v-62h23q20 34 42 52.5t66 18.5q58 0 90.5 -36t32.5 -120v-453h-129v464q0 51 -49 51q-21 0 -44 -13t-32 -35v-467h-129zM510 695v105h138v-105h-138zM389 -204v96q13 -1 34 -1.5t36 -0.5q56 0 56 53v657h129v-647q0 -88 -45.5 -126t-139.5 -38
q-16 0 -34.5 2t-35.5 5z" />
    <glyph glyph-name="uni01CD" unicode="&#x1cd;" horiz-adv-x="459" 
d="M22 0l104 800h208l105 -800h-133l-18 183h-116l-18 -183h-132zM184 297h92l-17 177l-15 212h-28l-14 -212zM85 932h85l56 -54l56 54h85l-103 -90h-76z" />
    <glyph glyph-name="uni01CE" unicode="&#x1ce;" horiz-adv-x="439" 
d="M151 -8q-62 0 -91.5 31.5t-35.5 105.5q-1 9 -1 22t1 23q5 60 36 95.5t106 65.5q25 11 49.5 19t51.5 15v90q-1 26 -11 39.5t-40 13.5q-26 0 -36.5 -11t-12.5 -38v-25v-34.5v-27.5h-125q-1 8 -1.5 31.5t0.5 41.5q3 84 42 122t136 38q68 0 105.5 -18.5t53 -58.5t17.5 -104
l-1 -428h-129v62h-17q-16 -36 -37.5 -53t-59.5 -17zM204 85q21 0 36.5 12t25.5 33v153q-18 -4 -35 -10.5t-33 -15.5q-27 -14 -36 -35t-11 -48q-1 -19 1 -35q4 -54 52 -54zM106 791h76l35 -69l36 69h76l-78 -133h-67z" />
    <glyph glyph-name="uni01CF" unicode="&#x1cf;" horiz-adv-x="215" 
d="M43 0v800h129v-800h-129zM-38 932h85l56 -54l56 54h85l-103 -90h-76z" />
    <glyph glyph-name="uni01D0" unicode="&#x1d0;" horiz-adv-x="215" 
d="M43 0v600h129v-600h-129zM-4 791h76l35 -69l36 69h76l-78 -133h-67z" />
    <glyph glyph-name="uni01D1" unicode="&#x1d1;" horiz-adv-x="474" 
d="M237 -9q-101 0 -145.5 42.5t-46.5 140.5q-2 110 -2 226.5t2 226.5q2 98 46.5 140t145.5 42q100 0 143.5 -42t46.5 -140q3 -111 3 -227t-3 -226q-3 -98 -46.5 -140.5t-143.5 -42.5zM237 96q59 0 61 54q3 76 4 163.5t0 174.5t-4 162q-2 54 -61 54q-61 0 -63 -54
q-2 -75 -3 -162t0 -174.5t3 -163.5q2 -54 63 -54zM92 932h85l56 -54l56 54h85l-103 -90h-76z" />
    <glyph glyph-name="uni01D2" unicode="&#x1d2;" horiz-adv-x="464" 
d="M232 -9q-66 0 -106 18t-58.5 58.5t-22.5 106.5q0 23 -1 55.5t-1 69t0.5 70t1.5 58.5q4 65 22.5 105t58 58.5t106.5 18.5q68 0 107.5 -18.5t57.5 -58.5t21 -105q2 -31 2.5 -78t0 -95t-2.5 -80q-3 -65 -21 -105.5t-57.5 -59t-107.5 -18.5zM232 88q31 0 44 13.5t13 40.5
q5 158 0 317q0 27 -13 40t-44 13q-29 0 -43 -13t-15 -40q-5 -159 0 -317q2 -54 58 -54zM120 791h76l35 -69l36 69h76l-78 -133h-67z" />
    <glyph glyph-name="uni01D3" unicode="&#x1d3;" 
d="M236 -9q-102 0 -146 42.5t-45 140.5q-4 313 0 626h129q-2 -104 -2 -214.5t0.5 -221t1.5 -214.5q0 -54 62 -54q61 0 61 54q1 104 1.5 214.5t0.5 221t-2 214.5h129q4 -313 0 -626q-1 -98 -45 -140.5t-145 -42.5zM91 932h85l56 -54l56 54h85l-103 -90h-76z" />
    <glyph glyph-name="uni01D4" unicode="&#x1d4;" 
d="M173 -9q-59 0 -93 36t-34 120v453h129v-464q0 -51 47 -51q22 0 44.5 13t31.5 35v467h129v-600h-129v62h-18q-21 -38 -46.5 -54.5t-60.5 -16.5zM123 791h76l35 -69l36 69h76l-78 -133h-67z" />
    <glyph glyph-name="uni01D5" unicode="&#x1d5;" 
d="M236 -9q-102 0 -146 42.5t-45 140.5q-4 313 0 626h129q-2 -104 -2 -214.5t0.5 -221t1.5 -214.5q0 -54 62 -54q61 0 61 54q1 104 1.5 214.5t0.5 221t-2 214.5h129q4 -313 0 -626q-1 -98 -45 -140.5t-145 -42.5zM259 848v81h99v-81h-99zM114 848v81h100v-81h-100zM76 969
v55h320v-55h-320z" />
    <glyph glyph-name="uni01D6" unicode="&#x1d6;" 
d="M173 -9q-59 0 -93 36t-34 120v453h129v-464q0 -51 47 -51q22 0 44.5 13t31.5 35v467h129v-600h-129v62h-18q-21 -38 -46.5 -54.5t-60.5 -16.5zM258 661v100h99v-100h-99zM113 661v100h100v-100h-100zM58 812v64h354v-64h-354z" />
    <glyph glyph-name="uni01D7" unicode="&#x1d7;" 
d="M236 -9q-102 0 -146 42.5t-45 140.5q-4 313 0 626h129q-2 -104 -2 -214.5t0.5 -221t1.5 -214.5q0 -54 62 -54q61 0 61 54q1 104 1.5 214.5t0.5 221t-2 214.5h129q4 -313 0 -626q-1 -98 -45 -140.5t-145 -42.5zM259 848v81h99v-81h-99zM114 848v81h100v-81h-100zM210 976
v3l104 81h76v-3l-112 -81h-68z" />
    <glyph glyph-name="uni01D8" unicode="&#x1d8;" 
d="M173 -9q-59 0 -93 36t-34 120v453h129v-464q0 -51 47 -51q22 0 44.5 13t31.5 35v467h129v-600h-129v62h-18q-21 -38 -46.5 -54.5t-60.5 -16.5zM258 661v100h99v-100h-99zM113 661v100h100v-100h-100zM198 809l82 133h84l-86 -133h-80z" />
    <glyph glyph-name="uni01D9" unicode="&#x1d9;" 
d="M236 -9q-102 0 -146 42.5t-45 140.5q-4 313 0 626h129q-2 -104 -2 -214.5t0.5 -221t1.5 -214.5q0 -54 62 -54q61 0 61 54q1 104 1.5 214.5t0.5 221t-2 214.5h129q4 -313 0 -626q-1 -98 -45 -140.5t-145 -42.5zM259 848v81h99v-81h-99zM114 848v81h100v-81h-100zM91 1061
h85l56 -54l56 54h85l-103 -90h-76z" />
    <glyph glyph-name="uni01DA" unicode="&#x1da;" 
d="M173 -9q-59 0 -93 36t-34 120v453h129v-464q0 -51 47 -51q22 0 44.5 13t31.5 35v467h129v-600h-129v62h-18q-21 -38 -46.5 -54.5t-60.5 -16.5zM258 661v100h99v-100h-99zM113 661v100h100v-100h-100zM123 942h76l35 -69l36 69h76l-78 -133h-67z" />
    <glyph glyph-name="uni01DB" unicode="&#x1db;" 
d="M236 -9q-102 0 -146 42.5t-45 140.5q-4 313 0 626h129q-2 -104 -2 -214.5t0.5 -221t1.5 -214.5q0 -54 62 -54q61 0 61 54q1 104 1.5 214.5t0.5 221t-2 214.5h129q4 -313 0 -626q-1 -98 -45 -140.5t-145 -42.5zM259 848v81h99v-81h-99zM114 848v81h100v-81h-100zM95 1057
v3h76l104 -81v-3h-68z" />
    <glyph glyph-name="uni01DC" unicode="&#x1dc;" 
d="M173 -9q-59 0 -93 36t-34 120v453h129v-464q0 -51 47 -51q22 0 44.5 13t31.5 35v467h129v-600h-129v62h-18q-21 -38 -46.5 -54.5t-60.5 -16.5zM258 661v100h99v-100h-99zM113 661v100h100v-100h-100zM109 942h84l86 -133h-84z" />
    <glyph glyph-name="uni01DD" unicode="&#x1dd;" horiz-adv-x="440" 
d="M161 374h-126q-1 9 -1 31.5v39.5q4 88 45 126t132 38q94 0 136.5 -38t47.5 -126q1 -22 1.5 -60.5t0.5 -82t-0.5 -82.5t-1.5 -64q-6 -89 -48.5 -127t-134.5 -38q-91 0 -132.5 37.5t-45.5 122.5q0 13 -0.5 41t0 63t1.5 67h233q0 35 -1 69t-1 68q-1 29 -13.5 41t-41.5 12
q-26 0 -37.5 -12t-12.5 -41q-2 -29 0 -85zM212 88q29 0 41 11.5t13 37.5q0 25 0.5 48t1.5 47h-108q0 -33 0.5 -59.5t0.5 -35.5q1 -26 13 -37.5t38 -11.5z" />
    <glyph glyph-name="Gcaron" unicode="&#x1e6;" horiz-adv-x="453" 
d="M237 -9q-102 0 -145 42.5t-46 140.5q-2 65 -2.5 144.5t0 158.5t2.5 142q4 103 47.5 146.5t143.5 43.5q95 0 138.5 -42.5t49.5 -140.5q2 -27 2 -60t-2 -60h-129q2 31 2 72t-2 72q-3 54 -59 54q-59 0 -62 -54q-3 -77 -4.5 -163.5t0 -172.5t4.5 -163q3 -55 62 -55
q62 0 66 55q1 23 1 57t-1 57h-58v112h183q2 -43 2 -97t-2 -106q-5 -98 -49 -140.5t-142 -42.5zM88 932h85l56 -54l56 54h85l-103 -90h-76z" />
    <glyph glyph-name="gcaron" unicode="&#x1e7;" horiz-adv-x="476" 
d="M236 -192q-84 0 -132.5 25t-56.5 63q-3 18 -1 35q3 23 19 38.5t50 21.5v19q-59 9 -67 56q-2 14 0 29q4 21 21 37.5t48 19.5v18q-73 35 -80 148q-1 38 -1 65t1 61q7 89 50 127t137 38q121 0 161 -66h17q7 56 73 57v-98h-14q-50 0 -50 -56q1 -53 0.5 -79.5t-1.5 -48.5
q-5 -89 -48 -127.5t-138 -38.5h-10q-38 -1 -50.5 -8.5t-12.5 -21.5v-4q0 -16 22 -22.5t73 -6.5q95 -2 142 -31t57 -88q1 -8 1 -19t-1 -24q-7 -45 -35.5 -71t-73.5 -37t-100 -11zM224 249q59 0 62 54q3 71 0 156q-3 53 -62 53q-60 0 -62 -53q-3 -85 0 -156q3 -54 62 -54z
M241 -103q85 0 97 40q5 14 -1 30q-6 20 -30 27.5t-66 8.5q-41 0 -60.5 -9.5t-24.5 -29.5q-5 -15 0 -29q5 -20 24.5 -29t60.5 -9zM112 791h76l35 -69l36 69h76l-78 -133h-67z" />
    <glyph glyph-name="uni01EA" unicode="&#x1ea;" horiz-adv-x="474" 
d="M237 -9q-101 0 -145.5 42.5t-46.5 140.5q-2 110 -2 226.5t2 226.5q2 98 46.5 140t145.5 42q100 0 143.5 -42t46.5 -140q3 -111 3 -227t-3 -226q-3 -98 -46.5 -140.5t-143.5 -42.5zM237 96q59 0 61 54q3 76 4 163.5t0 174.5t-4 162q-2 54 -61 54q-61 0 -63 -54
q-2 -75 -3 -162t0 -174.5t3 -163.5q2 -54 63 -54zM249 -72q1 23 13.5 35.5t34.5 16.5l17 -14q-12 -15 -12 -30q0 -10 7 -17t24 -7q9 0 20.5 1.5t19.5 3.5l10 -43q-11 -4 -26 -6t-28 -2q-40 0 -60 17t-20 45z" />
    <glyph glyph-name="uni01EB" unicode="&#x1eb;" horiz-adv-x="464" 
d="M232 -9q-66 0 -106 18t-58.5 58.5t-22.5 106.5q0 23 -1 55.5t-1 69t0.5 70t1.5 58.5q4 65 22.5 105t58 58.5t106.5 18.5q68 0 107.5 -18.5t57.5 -58.5t21 -105q2 -31 2.5 -78t0 -95t-2.5 -80q-3 -65 -21 -105.5t-57.5 -59t-107.5 -18.5zM232 88q31 0 44 13.5t13 40.5
q5 158 0 317q0 27 -13 40t-44 13q-29 0 -43 -13t-15 -40q-5 -159 0 -317q2 -54 58 -54zM261 -66q1 23 13.5 35.5t34.5 16.5l17 -14q-12 -15 -12 -30q0 -10 7 -17t24 -7q9 0 20.5 1.5t19.5 3.5l10 -43q-11 -4 -26 -6t-28 -2q-40 0 -60 17t-20 45z" />
    <glyph glyph-name="Aringacute" unicode="&#x1fa;" horiz-adv-x="459" 
d="M22 0l104 800h208l105 -800h-133l-18 183h-116l-18 -183h-132zM184 297h92l-17 177l-15 212h-28l-14 -212zM230 753q-37 0 -63.5 26t-26.5 64q0 37 26.5 63t63.5 26t63 -26t26 -63q0 -38 -26 -64t-63 -26zM190 843q0 -17 11.5 -29t28.5 -12t28.5 12t11.5 29
q0 16 -11.5 28t-28.5 12t-28.5 -12t-11.5 -28zM204 987v3l104 81h76v-3l-112 -81h-68z" />
    <glyph glyph-name="aringacute" unicode="&#x1fb;" horiz-adv-x="439" 
d="M151 -8q-62 0 -91.5 31.5t-35.5 105.5q-1 9 -1 22t1 23q5 60 36 95.5t106 65.5q25 11 49.5 19t51.5 15v90q-1 26 -11 39.5t-40 13.5q-26 0 -36.5 -11t-12.5 -38v-25v-34.5v-27.5h-125q-1 8 -1.5 31.5t0.5 41.5q3 84 42 122t136 38q68 0 105.5 -18.5t53 -58.5t17.5 -104
l-1 -428h-129v62h-17q-16 -36 -37.5 -53t-59.5 -17zM204 85q21 0 36.5 12t25.5 33v153q-18 -4 -35 -10.5t-33 -15.5q-27 -14 -36 -35t-11 -48q-1 -19 1 -35q4 -54 52 -54zM218 542q-35 0 -64 17.5t-46.5 46t-17.5 64.5q0 35 17.5 64t46.5 46t64 17t64 -17t46 -46t17 -64
q0 -36 -17 -64.5t-46 -46t-64 -17.5zM159 670q0 -25 17 -42.5t42 -17.5q24 0 41.5 17.5t17.5 42.5q0 24 -17.5 41.5t-41.5 17.5q-25 0 -42 -17.5t-17 -41.5zM180 833l82 133h84l-86 -133h-80z" />
    <glyph glyph-name="AEacute" unicode="&#x1fc;" horiz-adv-x="641" 
d="M618 686h-187v-223h177v-114h-177v-235h187v-114h-316v183h-103l-37 -183h-140l157 800h439v-114zM222 297h80v389h-25l-26 -246zM352 847v3l104 81h76v-3l-112 -81h-68z" />
    <glyph glyph-name="aeacute" unicode="&#x1fd;" horiz-adv-x="662" 
d="M151 -8q-56 0 -89 31.5t-38 105.5q-1 9 -1 22t1 23q5 58 38 93t104 63q25 10 49.5 18t50.5 16v47.5v47.5q0 26 -10 39.5t-40 13.5q-26 0 -36.5 -11t-12.5 -38v-25v-34.5v-27.5h-125q-1 8 -1.5 31.5t0.5 41.5q3 84 42 122t136 38q77 0 115 -26q21 14 49.5 20t66.5 6
q91 0 132.5 -37.5t45.5 -122.5q0 -13 0.5 -40.5t0 -62t-1.5 -66.5h-234q0 -34 0.5 -68t0.5 -71q0 -29 14 -41t43 -12q26 0 37.5 12t12.5 41q2 30 0 85h126q1 -9 1.5 -31.5t-0.5 -39.5q-4 -88 -45 -126t-132 -38q-125 0 -164 71h-10q-17 -36 -50.5 -53t-75.5 -17zM393 369
h109v53t-1 41q0 49 -51 49q-56 0 -56 -49q0 -25 -0.5 -48t-0.5 -46zM204 85q13 0 27.5 7.5t24.5 29t11 64.5q0 21 -0.5 44.5t-0.5 48.5q-16 -4 -33.5 -10t-34.5 -16q-26 -13 -35.5 -32.5t-11.5 -46.5q-1 -18 1 -35q4 -54 52 -54zM298 658l82 133h84l-86 -133h-80z" />
    <glyph glyph-name="Oslashacute" unicode="&#x1fe;" horiz-adv-x="474" 
d="M237 -9q-101 0 -145.5 42.5t-46.5 140.5q-2 110 -2 226.5t2 226.5q2 98 46.5 140t145.5 42q100 0 143.5 -42t46.5 -140q3 -111 3 -227t-3 -226q-3 -98 -46.5 -140.5t-143.5 -42.5zM174 650q-2 -73 -3 -158t0 -169l121 354q-13 27 -55 27q-61 0 -63 -54zM237 96
q59 0 61 54q2 64 3 136.5t1 145.5l-111 -322q16 -14 46 -14zM211 847v3l104 81h76v-3l-112 -81h-68z" />
    <glyph glyph-name="oslashacute" unicode="&#x1ff;" horiz-adv-x="464" 
d="M232 -9q-66 0 -106 18t-58.5 58.5t-22.5 106.5q0 23 -1 55.5t-1 69t0.5 70t1.5 58.5q4 65 22.5 105t58 58.5t106.5 18.5q68 0 107.5 -18.5t57.5 -58.5t21 -105q2 -31 2.5 -78t0 -95t-2.5 -80q-3 -65 -21 -105.5t-57.5 -59t-107.5 -18.5zM174 459q-3 -123 -1 -247l102 287
q-14 13 -43 13t-43 -13t-15 -40zM232 88q31 0 44 13.5t13 40.5q4 106 3 214l-94 -261q13 -7 34 -7zM195 658l82 133h84l-86 -133h-80z" />
    <glyph glyph-name="uni0200" unicode="&#x200;" horiz-adv-x="459" 
d="M22 0l104 800h208l105 -800h-133l-18 183h-116l-18 -183h-132zM184 297h92l-17 177l-15 212h-28l-14 -212zM144 839l-106 71v2h57l106 -70v-3h-57zM157 910v2h57l105 -70v-3h-56z" />
    <glyph glyph-name="uni0201" unicode="&#x201;" horiz-adv-x="439" 
d="M151 -8q-62 0 -91.5 31.5t-35.5 105.5q-1 9 -1 22t1 23q5 60 36 95.5t106 65.5q25 11 49.5 19t51.5 15v90q-1 26 -11 39.5t-40 13.5q-26 0 -36.5 -11t-12.5 -38v-25v-34.5v-27.5h-125q-1 8 -1.5 31.5t0.5 41.5q3 84 42 122t136 38q68 0 105.5 -18.5t53 -58.5t17.5 -104
l-1 -428h-129v62h-17q-16 -36 -37.5 -53t-59.5 -17zM204 85q21 0 36.5 12t25.5 33v153q-18 -4 -35 -10.5t-33 -15.5q-27 -14 -36 -35t-11 -48q-1 -19 1 -35q4 -54 52 -54zM125 641l-101 95v2h58l100 -94v-3h-57zM143 736v2h57l100 -94v-3h-56z" />
    <glyph glyph-name="uni0202" unicode="&#x202;" horiz-adv-x="459" 
d="M22 0l104 800h208l105 -800h-133l-18 183h-116l-18 -183h-132zM184 297h92l-17 177l-15 212h-28l-14 -212zM94 839q3 42 41 69.5t95 27.5q56 0 94.5 -27.5t41.5 -69.5h-75q0 18 -17 29t-44 11q-28 0 -45 -11t-17 -29h-74z" />
    <glyph glyph-name="uni0203" unicode="&#x203;" horiz-adv-x="439" 
d="M151 -8q-62 0 -91.5 31.5t-35.5 105.5q-1 9 -1 22t1 23q5 60 36 95.5t106 65.5q25 11 49.5 19t51.5 15v90q-1 26 -11 39.5t-40 13.5q-26 0 -36.5 -11t-12.5 -38v-25v-34.5v-27.5h-125q-1 8 -1.5 31.5t0.5 41.5q3 84 42 122t136 38q68 0 105.5 -18.5t53 -58.5t17.5 -104
l-1 -428h-129v62h-17q-16 -36 -37.5 -53t-59.5 -17zM204 85q21 0 36.5 12t25.5 33v153q-18 -4 -35 -10.5t-33 -15.5q-27 -14 -36 -35t-11 -48q-1 -19 1 -35q4 -54 52 -54zM79 660h78q0 39 14.5 55t47.5 16t47 -16t14 -55h78q-4 74 -36.5 105.5t-102.5 31.5
q-71 0 -103.5 -31.5t-36.5 -105.5z" />
    <glyph glyph-name="uni0204" unicode="&#x204;" horiz-adv-x="382" 
d="M43 0v800h316v-114h-187v-223h177v-114h-177v-235h187v-114h-316zM116 839l-106 71v2h57l106 -70v-3h-57zM129 910v2h57l105 -70v-3h-56z" />
    <glyph glyph-name="uni0205" unicode="&#x205;" horiz-adv-x="440" 
d="M279 226h126q1 -9 1 -31.5v-39.5q-4 -88 -45 -126t-132 -38q-94 0 -136.5 38t-47.5 126q-1 22 -1.5 60.5t-0.5 82t0.5 82.5t1.5 64q6 89 48.5 127t134.5 38q91 0 132.5 -37.5t45.5 -122.5q0 -13 0.5 -41t0 -63t-1.5 -67h-233q0 -35 1 -69t1 -68q1 -29 13.5 -41t41.5 -12
q26 0 37.5 12t12.5 41q2 29 0 85zM228 512q-29 0 -41 -11.5t-13 -37.5q0 -25 -0.5 -48t-1.5 -47h108q0 33 -0.5 59.5t-0.5 35.5q-1 26 -13 37.5t-38 11.5zM132 641l-101 95v2h58l100 -94v-3h-57zM150 736v2h57l100 -94v-3h-56z" />
    <glyph glyph-name="uni0206" unicode="&#x206;" horiz-adv-x="382" 
d="M43 0v800h316v-114h-187v-223h177v-114h-177v-235h187v-114h-316zM66 839q3 42 41 69.5t95 27.5q56 0 94.5 -27.5t41.5 -69.5h-75q0 18 -17 29t-44 11q-28 0 -45 -11t-17 -29h-74z" />
    <glyph glyph-name="uni0207" unicode="&#x207;" horiz-adv-x="440" 
d="M279 226h126q1 -9 1 -31.5v-39.5q-4 -88 -45 -126t-132 -38q-94 0 -136.5 38t-47.5 126q-1 22 -1.5 60.5t-0.5 82t0.5 82.5t1.5 64q6 89 48.5 127t134.5 38q91 0 132.5 -37.5t45.5 -122.5q0 -13 0.5 -41t0 -63t-1.5 -67h-233q0 -35 1 -69t1 -68q1 -29 13.5 -41t41.5 -12
q26 0 37.5 12t12.5 41q2 29 0 85zM228 512q-29 0 -41 -11.5t-13 -37.5q0 -25 -0.5 -48t-1.5 -47h108q0 33 -0.5 59.5t-0.5 35.5q-1 26 -13 37.5t-38 11.5zM86 660h78q0 39 14.5 55t47.5 16t47 -16t14 -55h78q-4 74 -36.5 105.5t-102.5 31.5q-71 0 -103.5 -31.5t-36.5 -105.5
z" />
    <glyph glyph-name="uni0208" unicode="&#x208;" horiz-adv-x="215" 
d="M43 0v800h129v-800h-129zM22 839l-106 71v2h57l106 -70v-3h-57zM35 910v2h57l105 -70v-3h-56z" />
    <glyph glyph-name="uni0209" unicode="&#x209;" horiz-adv-x="215" 
d="M43 0v600h129v-600h-129zM14 641l-101 95v2h58l100 -94v-3h-57zM32 736v2h57l100 -94v-3h-56z" />
    <glyph glyph-name="uni020A" unicode="&#x20a;" horiz-adv-x="215" 
d="M43 0v800h129v-800h-129zM-29 839q3 42 41 69.5t95 27.5q56 0 94.5 -27.5t41.5 -69.5h-75q0 18 -17 29t-44 11q-28 0 -45 -11t-17 -29h-74z" />
    <glyph glyph-name="uni020B" unicode="&#x20b;" horiz-adv-x="215" 
d="M43 0v600h129v-600h-129zM-32 660h78q0 39 14.5 55t47.5 16t47 -16t14 -55h78q-4 74 -36.5 105.5t-102.5 31.5q-71 0 -103.5 -31.5t-36.5 -105.5z" />
    <glyph glyph-name="uni020C" unicode="&#x20c;" horiz-adv-x="474" 
d="M237 -9q-101 0 -145.5 42.5t-46.5 140.5q-2 110 -2 226.5t2 226.5q2 98 46.5 140t145.5 42q100 0 143.5 -42t46.5 -140q3 -111 3 -227t-3 -226q-3 -98 -46.5 -140.5t-143.5 -42.5zM237 96q59 0 61 54q3 76 4 163.5t0 174.5t-4 162q-2 54 -61 54q-61 0 -63 -54
q-2 -75 -3 -162t0 -174.5t3 -163.5q2 -54 63 -54zM151 839l-106 71v2h57l106 -70v-3h-57zM164 910v2h57l105 -70v-3h-56z" />
    <glyph glyph-name="uni020D" unicode="&#x20d;" horiz-adv-x="464" 
d="M232 -9q-66 0 -106 18t-58.5 58.5t-22.5 106.5q0 23 -1 55.5t-1 69t0.5 70t1.5 58.5q4 65 22.5 105t58 58.5t106.5 18.5q68 0 107.5 -18.5t57.5 -58.5t21 -105q2 -31 2.5 -78t0 -95t-2.5 -80q-3 -65 -21 -105.5t-57.5 -59t-107.5 -18.5zM232 88q31 0 44 13.5t13 40.5
q5 158 0 317q0 27 -13 40t-44 13q-29 0 -43 -13t-15 -40q-5 -159 0 -317q2 -54 58 -54zM139 641l-101 95v2h58l100 -94v-3h-57zM157 736v2h57l100 -94v-3h-56z" />
    <glyph glyph-name="uni020E" unicode="&#x20e;" horiz-adv-x="474" 
d="M237 -9q-101 0 -145.5 42.5t-46.5 140.5q-2 110 -2 226.5t2 226.5q2 98 46.5 140t145.5 42q100 0 143.5 -42t46.5 -140q3 -111 3 -227t-3 -226q-3 -98 -46.5 -140.5t-143.5 -42.5zM237 96q59 0 61 54q3 76 4 163.5t0 174.5t-4 162q-2 54 -61 54q-61 0 -63 -54
q-2 -75 -3 -162t0 -174.5t3 -163.5q2 -54 63 -54zM101 839q3 42 41 69.5t95 27.5q56 0 94.5 -27.5t41.5 -69.5h-75q0 18 -17 29t-44 11q-28 0 -45 -11t-17 -29h-74z" />
    <glyph glyph-name="uni020F" unicode="&#x20f;" horiz-adv-x="464" 
d="M232 -9q-66 0 -106 18t-58.5 58.5t-22.5 106.5q0 23 -1 55.5t-1 69t0.5 70t1.5 58.5q4 65 22.5 105t58 58.5t106.5 18.5q68 0 107.5 -18.5t57.5 -58.5t21 -105q2 -31 2.5 -78t0 -95t-2.5 -80q-3 -65 -21 -105.5t-57.5 -59t-107.5 -18.5zM232 88q31 0 44 13.5t13 40.5
q5 158 0 317q0 27 -13 40t-44 13q-29 0 -43 -13t-15 -40q-5 -159 0 -317q2 -54 58 -54zM93 660h78q0 39 14.5 55t47.5 16t47 -16t14 -55h78q-4 74 -36.5 105.5t-102.5 31.5q-71 0 -103.5 -31.5t-36.5 -105.5z" />
    <glyph glyph-name="uni0210" unicode="&#x210;" horiz-adv-x="446" 
d="M43 0v800h175q101 0 146 -41.5t49 -137.5q1 -48 1 -83t-1 -81q-3 -61 -21.5 -99t-57.5 -58l91 -300h-137l-76 279h-40v-279h-129zM172 393h46q62 0 65 58q5 88 0 177q-3 58 -65 58h-46v-293zM133 839l-106 71v2h57l106 -70v-3h-57zM146 910v2h57l105 -70v-3h-56z" />
    <glyph glyph-name="uni0211" unicode="&#x211;" horiz-adv-x="335" 
d="M43 0v600h129v-70h23q6 41 26.5 57t53.5 16q12 0 23 -0.5t17 -1.5v-99h-38q-54 0 -76.5 -17t-28.5 -48v-437h-129zM84 641l-101 95v2h58l100 -94v-3h-57zM102 736v2h57l100 -94v-3h-56z" />
    <glyph glyph-name="uni0212" unicode="&#x212;" horiz-adv-x="446" 
d="M43 0v800h175q101 0 146 -41.5t49 -137.5q1 -48 1 -83t-1 -81q-3 -61 -21.5 -99t-57.5 -58l91 -300h-137l-76 279h-40v-279h-129zM172 393h46q62 0 65 58q5 88 0 177q-3 58 -65 58h-46v-293zM83 839q3 42 41 69.5t95 27.5q56 0 94.5 -27.5t41.5 -69.5h-75q0 18 -17 29
t-44 11q-28 0 -45 -11t-17 -29h-74z" />
    <glyph glyph-name="uni0213" unicode="&#x213;" horiz-adv-x="335" 
d="M43 0v600h129v-70h23q6 41 26.5 57t53.5 16q12 0 23 -0.5t17 -1.5v-99h-38q-54 0 -76.5 -17t-28.5 -48v-437h-129zM37 660h78q0 39 14.5 55t47.5 16t47 -16t14 -55h78q-4 74 -36.5 105.5t-102.5 31.5q-71 0 -103.5 -31.5t-36.5 -105.5z" />
    <glyph glyph-name="uni0214" unicode="&#x214;" 
d="M236 -9q-102 0 -146 42.5t-45 140.5q-4 313 0 626h129q-2 -104 -2 -214.5t0.5 -221t1.5 -214.5q0 -54 62 -54q61 0 61 54q1 104 1.5 214.5t0.5 221t-2 214.5h129q4 -313 0 -626q-1 -98 -45 -140.5t-145 -42.5zM150 839l-106 71v2h57l106 -70v-3h-57zM163 910v2h57
l105 -70v-3h-56z" />
    <glyph glyph-name="uni0215" unicode="&#x215;" 
d="M173 -9q-59 0 -93 36t-34 120v453h129v-464q0 -51 47 -51q22 0 44.5 13t31.5 35v467h129v-600h-129v62h-18q-21 -38 -46.5 -54.5t-60.5 -16.5zM142 641l-101 95v2h58l100 -94v-3h-57zM160 736v2h57l100 -94v-3h-56z" />
    <glyph glyph-name="uni0216" unicode="&#x216;" 
d="M236 -9q-102 0 -146 42.5t-45 140.5q-4 313 0 626h129q-2 -104 -2 -214.5t0.5 -221t1.5 -214.5q0 -54 62 -54q61 0 61 54q1 104 1.5 214.5t0.5 221t-2 214.5h129q4 -313 0 -626q-1 -98 -45 -140.5t-145 -42.5zM99 839q3 42 41 69.5t95 27.5q56 0 94.5 -27.5t41.5 -69.5
h-75q0 18 -17 29t-44 11q-28 0 -45 -11t-17 -29h-74z" />
    <glyph glyph-name="uni0217" unicode="&#x217;" 
d="M173 -9q-59 0 -93 36t-34 120v453h129v-464q0 -51 47 -51q22 0 44.5 13t31.5 35v467h129v-600h-129v62h-18q-21 -38 -46.5 -54.5t-60.5 -16.5zM96 660h78q0 39 14.5 55t47.5 16t47 -16t14 -55h78q-4 74 -36.5 105.5t-102.5 31.5q-71 0 -103.5 -31.5t-36.5 -105.5z" />
    <glyph glyph-name="uni0218" unicode="&#x218;" 
d="M237 -9q-100 0 -142.5 42.5t-46.5 140.5q-1 30 -0.5 62t3.5 61h121q-2 -38 -2 -76t2 -70q5 -55 64 -55q31 0 45 14t17 41q2 30 2 56t-2 57q-2 25 -12.5 44.5t-36.5 25.5l-74 19q-73 19 -101 63t-30 118q-1 24 -0.5 47t0.5 46q4 98 47 140t145 42q97 0 140.5 -42.5
t47.5 -140.5q0 -23 -0.5 -56.5t-1.5 -63.5h-124q1 36 1.5 72t-0.5 72q-2 54 -63 54q-31 0 -45.5 -14t-17.5 -40q-5 -57 0 -116q2 -26 13.5 -44t37.5 -24l66 -16q77 -19 106 -65t31 -121q1 -24 0.5 -45.5t-0.5 -44.5q-4 -98 -47 -140.5t-143 -42.5zM182 -130v81h100v-81
l-30 -57h-49l25 57h-46z" />
    <glyph glyph-name="uni0219" unicode="&#x219;" horiz-adv-x="435" 
d="M214 -9q-89 0 -127 38t-42 126q-1 17 -0.5 39.5t1.5 31.5h113q-1 -27 -1 -49t1 -36q1 -29 15 -41t40 -12q31 0 45.5 12t14.5 41v21.5v20.5q0 21 -7.5 34t-27.5 18l-65 19q-63 19 -97.5 53.5t-34.5 100.5v17v18q0 89 40 127.5t138 38.5q89 0 126.5 -37.5t41.5 -122.5
q0 -18 -0.5 -41t-0.5 -32h-118q1 11 1 28v34t-1 25q-1 27 -12 38t-37 11q-29 0 -40 -11t-12 -38q-1 -13 -1 -23v-21q0 -24 7 -39.5t31 -21.5l58 -15q64 -16 97 -51t33 -102v-19.5v-19.5q-1 -85 -42 -122.5t-137 -37.5zM158 -167v102h123v-90l-44 -85h-63l31 73h-47z" />
    <glyph glyph-name="uni021A" unicode="&#x21a;" horiz-adv-x="416" 
d="M144 0v686h-122v114h372v-114h-121v-686h-129zM155 -130v81h100v-81l-30 -57h-49l25 57h-46z" />
    <glyph glyph-name="uni021B" unicode="&#x21b;" horiz-adv-x="364" 
d="M286 -9q-103 0 -147 38t-44 126v347h-53v98h54v170h131l-2 -170h99v-98h-100v-362q0 -29 12 -41t51 -12q12 0 22.5 0.5t24.5 1.5v-93q-11 -3 -23 -4t-25 -1zM163 -167v102h123v-90l-44 -85h-63l31 73h-47z" />
    <glyph glyph-name="uni022A" unicode="&#x22a;" horiz-adv-x="474" 
d="M237 -9q-101 0 -145.5 42.5t-46.5 140.5q-2 110 -2 226.5t2 226.5q2 98 46.5 140t145.5 42q100 0 143.5 -42t46.5 -140q3 -111 3 -227t-3 -226q-3 -98 -46.5 -140.5t-143.5 -42.5zM237 96q59 0 61 54q3 76 4 163.5t0 174.5t-4 162q-2 54 -61 54q-61 0 -63 -54
q-2 -75 -3 -162t0 -174.5t3 -163.5q2 -54 63 -54zM260 848v81h99v-81h-99zM115 848v81h100v-81h-100zM78 969v55h320v-55h-320z" />
    <glyph glyph-name="uni022B" unicode="&#x22b;" horiz-adv-x="464" 
d="M232 -9q-66 0 -106 18t-58.5 58.5t-22.5 106.5q0 23 -1 55.5t-1 69t0.5 70t1.5 58.5q4 65 22.5 105t58 58.5t106.5 18.5q68 0 107.5 -18.5t57.5 -58.5t21 -105q2 -31 2.5 -78t0 -95t-2.5 -80q-3 -65 -21 -105.5t-57.5 -59t-107.5 -18.5zM232 88q31 0 44 13.5t13 40.5
q5 158 0 317q0 27 -13 40t-44 13q-29 0 -43 -13t-15 -40q-5 -159 0 -317q2 -54 58 -54zM255 661v100h99v-100h-99zM110 661v100h100v-100h-100zM55 812v64h354v-64h-354z" />
    <glyph glyph-name="uni022C" unicode="&#x22c;" horiz-adv-x="474" 
d="M237 -9q-101 0 -145.5 42.5t-46.5 140.5q-2 110 -2 226.5t2 226.5q2 98 46.5 140t145.5 42q100 0 143.5 -42t46.5 -140q3 -111 3 -227t-3 -226q-3 -98 -46.5 -140.5t-143.5 -42.5zM237 96q59 0 61 54q3 76 4 163.5t0 174.5t-4 162q-2 54 -61 54q-61 0 -63 -54
q-2 -75 -3 -162t0 -174.5t3 -163.5q2 -54 63 -54zM101 838q3 44 25.5 63.5t60.5 18.5q28 -1 44 -9t28.5 -16t30.5 -8q17 0 27 9t10 24h46q-4 -88 -84 -87q-27 0 -44 8t-31 16.5t-31 8.5q-33 2 -36 -28h-46zM77 956v55h320v-55h-320z" />
    <glyph glyph-name="uni022D" unicode="&#x22d;" horiz-adv-x="464" 
d="M232 -9q-66 0 -106 18t-58.5 58.5t-22.5 106.5q0 23 -1 55.5t-1 69t0.5 70t1.5 58.5q4 65 22.5 105t58 58.5t106.5 18.5q68 0 107.5 -18.5t57.5 -58.5t21 -105q2 -31 2.5 -78t0 -95t-2.5 -80q-3 -65 -21 -105.5t-57.5 -59t-107.5 -18.5zM232 88q31 0 44 13.5t13 40.5
q5 158 0 317q0 27 -13 40t-44 13q-29 0 -43 -13t-15 -40q-5 -159 0 -317q2 -54 58 -54zM84 659q4 58 29 82t63 24q31 -1 49 -12t32 -22t33 -12q39 0 40 34h50q-3 -53 -27.5 -77t-64.5 -23q-28 0 -47 11t-34.5 22.5t-33.5 12.5q-35 1 -39 -40h-50zM55 818v64h354v-64h-354z
" />
    <glyph glyph-name="uni0230" unicode="&#x230;" horiz-adv-x="474" 
d="M237 -9q-101 0 -145.5 42.5t-46.5 140.5q-2 110 -2 226.5t2 226.5q2 98 46.5 140t145.5 42q100 0 143.5 -42t46.5 -140q3 -111 3 -227t-3 -226q-3 -98 -46.5 -140.5t-143.5 -42.5zM237 96q59 0 61 54q3 76 4 163.5t0 174.5t-4 162q-2 54 -61 54q-61 0 -63 -54
q-2 -75 -3 -162t0 -174.5t3 -163.5q2 -54 63 -54zM187 847v82h101v-82h-101zM78 969v55h320v-55h-320z" />
    <glyph glyph-name="uni0231" unicode="&#x231;" horiz-adv-x="464" 
d="M232 -9q-66 0 -106 18t-58.5 58.5t-22.5 106.5q0 23 -1 55.5t-1 69t0.5 70t1.5 58.5q4 65 22.5 105t58 58.5t106.5 18.5q68 0 107.5 -18.5t57.5 -58.5t21 -105q2 -31 2.5 -78t0 -95t-2.5 -80q-3 -65 -21 -105.5t-57.5 -59t-107.5 -18.5zM232 88q31 0 44 13.5t13 40.5
q5 158 0 317q0 27 -13 40t-44 13q-29 0 -43 -13t-15 -40q-5 -159 0 -317q2 -54 58 -54zM183 661v100h100v-100h-100zM55 815v64h354v-64h-354z" />
    <glyph glyph-name="uni0232" unicode="&#x232;" horiz-adv-x="452" 
d="M161 0v196l-10 42l-129 562h132l41 -202l18 -233h26l18 233l42 202h131l-129 -561l-10 -43v-196h-130zM62 840v55h320v-55h-320z" />
    <glyph glyph-name="uni0233" unicode="&#x233;" horiz-adv-x="430" 
d="M127 0l-106 600h132l34 -276l20 -228h25l17 228l28 276h131l-98 -645q-9 -58 -30.5 -94t-62 -53t-109.5 -17q-16 0 -34.5 2t-35.5 5v96q13 -1 34 -2t36 -1q39 0 54 12t19 42l7 55h-61zM37 661v64h354v-64h-354z" />
    <glyph glyph-name="uni0237" unicode="&#x237;" horiz-adv-x="218" 
d="M-82 -204v96q13 -1 34 -1.5t36 -0.5q56 0 56 53v657h129v-647q0 -88 -45.5 -126t-139.5 -38q-16 0 -34.5 2t-35.5 5z" />
    <glyph glyph-name="uni0259" unicode="&#x259;" horiz-adv-x="440" 
d="M161 374h-126q-1 9 -1 31.5v39.5q4 88 45 126t132 38q94 0 136.5 -38t47.5 -126q1 -22 1.5 -60.5t0.5 -82t-0.5 -82.5t-1.5 -64q-6 -89 -48.5 -127t-134.5 -38q-91 0 -132.5 37.5t-45.5 122.5q0 13 -0.5 41t0 63t1.5 67h233q0 35 -1 69t-1 68q-1 29 -13.5 41t-41.5 12
q-26 0 -37.5 -12t-12.5 -41q-2 -29 0 -85zM212 88q29 0 41 11.5t13 37.5q0 25 0.5 48t1.5 47h-108q0 -33 0.5 -59.5t0.5 -35.5q1 -26 13 -37.5t38 -11.5z" />
    <glyph glyph-name="uni02B9" unicode="&#x2b9;" horiz-adv-x="194" 
d="M44 669v131h107v-131l-23 -133h-62z" />
    <glyph glyph-name="uni02BA" unicode="&#x2ba;" horiz-adv-x="373" 
d="M66 536l-22 133v131h107v-131l-23 -133h-62zM223 669v131h107v-131l-23 -133h-62z" />
    <glyph glyph-name="uni02BB" unicode="&#x2bb;" horiz-adv-x="209" 
d="M43 661v90l45 85h63l-32 -73h47v-102h-123z" />
    <glyph glyph-name="uni02BC" unicode="&#x2bc;" horiz-adv-x="194" 
d="M44 669v131h107v-131l-23 -133h-62z" />
    <glyph glyph-name="uni02BE" unicode="&#x2be;" horiz-adv-x="214" 
d="M43 554v68q25 0 42 17.5t17 42.5q0 24 -17 41.5t-42 17.5v68q36 0 64.5 -17t46 -46t17.5 -64q0 -36 -17.5 -64.5t-46 -46t-64.5 -17.5z" />
    <glyph glyph-name="uni02BF" unicode="&#x2bf;" horiz-adv-x="214" 
d="M43 682q0 35 17.5 64t46.5 46t64 17v-68q-25 0 -42 -17.5t-17 -41.5q0 -25 17 -42.5t42 -17.5v-68q-35 0 -64 17.5t-46.5 46t-17.5 64.5z" />
    <glyph glyph-name="circumflex" unicode="&#x2c6;" horiz-adv-x="317" 
d="M43 641l78 133h75l78 -133h-84l-31 61l-32 -61h-84z" />
    <glyph glyph-name="caron" unicode="&#x2c7;" horiz-adv-x="309" 
d="M43 791h76l35 -69l36 69h76l-78 -133h-67z" />
    <glyph glyph-name="uni02C8" unicode="&#x2c8;" horiz-adv-x="195" 
d="M43 428v372h108v-372h-108z" />
    <glyph glyph-name="uni02C9" unicode="&#x2c9;" horiz-adv-x="440" 
d="M43 661v64h354v-64h-354z" />
    <glyph glyph-name="uni02CA" unicode="&#x2ca;" horiz-adv-x="294" 
d="M251 800h-107l-101 -264h63z" />
    <glyph glyph-name="uni02CB" unicode="&#x2cb;" horiz-adv-x="294" 
d="M43 800h107l101 -264h-63z" />
    <glyph glyph-name="uni02CC" unicode="&#x2cc;" horiz-adv-x="195" 
d="M43 -200v388h108v-388h-108z" />
    <glyph glyph-name="breve" unicode="&#x2d8;" horiz-adv-x="366" 
d="M43 789h78q0 -39 14.5 -55t47.5 -16t47 16t14 55h78q-4 -74 -36.5 -105.5t-102.5 -31.5q-71 0 -103.5 31.5t-36.5 105.5z" />
    <glyph glyph-name="dotaccent" unicode="&#x2d9;" horiz-adv-x="186" 
d="M43 661v100h100v-100h-100z" />
    <glyph glyph-name="ring" unicode="&#x2da;" horiz-adv-x="342" 
d="M171 554q-35 0 -64 17.5t-46.5 46t-17.5 64.5q0 35 17.5 64t46.5 46t64 17t64 -17t46 -46t17 -64q0 -36 -17 -64.5t-46 -46t-64 -17.5zM112 682q0 -25 17 -42.5t42 -17.5q24 0 41.5 17.5t17.5 42.5q0 24 -17.5 41.5t-41.5 17.5q-25 0 -42 -17.5t-17 -41.5z" />
    <glyph glyph-name="ogonek" unicode="&#x2db;" horiz-adv-x="221" 
d="M43 -66q1 23 13.5 35.5t34.5 16.5v25h51l9 -11q-28 -11 -41.5 -26.5t-13.5 -31.5q0 -10 7 -17t24 -7q9 0 20.5 1.5t19.5 3.5l10 -43q-11 -4 -26 -6t-28 -2q-40 0 -60 17t-20 45z" />
    <glyph glyph-name="tilde" unicode="&#x2dc;" horiz-adv-x="382" 
d="M43 659q4 58 29 82t63 24q31 -1 49 -12t32 -22t33 -12q39 0 40 34h50q-3 -53 -27.5 -77t-64.5 -23q-28 0 -47 11t-34.5 22.5t-33.5 12.5q-35 1 -39 -40h-50z" />
    <glyph glyph-name="hungarumlaut" unicode="&#x2dd;" horiz-adv-x="395" 
d="M222 641h-57v3l129 147h57v-2zM43 641v3l129 147h57v-2l-129 -148h-57z" />
    <glyph glyph-name="gravecomb" unicode="&#x300;" horiz-adv-x="0" 
d="M43 791h84l86 -133h-84z" />
    <glyph glyph-name="acutecomb" unicode="&#x301;" horiz-adv-x="0" 
d="M35 641l82 133h84l-86 -133h-80z" />
    <glyph glyph-name="uni0302" unicode="&#x302;" horiz-adv-x="0" 
d="M43 641l78 133h75l78 -133h-84l-31 61l-32 -61h-84z" />
    <glyph glyph-name="tildecomb" unicode="&#x303;" horiz-adv-x="0" 
d="M43 659q4 58 29 82t63 24q31 -1 49 -12t32 -22t33 -12q39 0 40 34h50q-3 -53 -27.5 -77t-64.5 -23q-28 0 -47 11t-34.5 22.5t-33.5 12.5q-35 1 -39 -40h-50z" />
    <glyph glyph-name="uni0304" unicode="&#x304;" horiz-adv-x="0" 
d="M43 661v64h354v-64h-354z" />
    <glyph glyph-name="uni0306" unicode="&#x306;" horiz-adv-x="0" 
d="M43 789h78q0 -39 14.5 -55t47.5 -16t47 16t14 55h78q-4 -74 -36.5 -105.5t-102.5 -31.5q-71 0 -103.5 31.5t-36.5 105.5z" />
    <glyph glyph-name="uni0307" unicode="&#x307;" horiz-adv-x="0" 
d="M43 661v100h100v-100h-100z" />
    <glyph glyph-name="uni0308" unicode="&#x308;" horiz-adv-x="0" 
d="M188 661v100h99v-100h-99zM43 661v100h100v-100h-100z" />
    <glyph glyph-name="hookabovecomb" unicode="&#x309;" horiz-adv-x="0" 
d="M43 765q24 7 58 7q74 0 74 -65q0 -31 -15 -48t-52 -16v-32h-46v67l6 6h33q24 0 24 23q0 19 -24 19q-32 0 -47 -3z" />
    <glyph glyph-name="uni030A" unicode="&#x30a;" horiz-adv-x="0" 
d="M171 554q-35 0 -64 17.5t-46.5 46t-17.5 64.5q0 35 17.5 64t46.5 46t64 17t64 -17t46 -46t17 -64q0 -36 -17 -64.5t-46 -46t-64 -17.5zM112 682q0 -25 17 -42.5t42 -17.5q24 0 41.5 17.5t17.5 42.5q0 24 -17.5 41.5t-41.5 17.5q-25 0 -42 -17.5t-17 -41.5z" />
    <glyph glyph-name="uni030B" unicode="&#x30b;" horiz-adv-x="0" 
d="M222 641h-57v3l129 147h57v-2zM43 641v3l129 147h57v-2l-129 -148h-57z" />
    <glyph glyph-name="uni030C" unicode="&#x30c;" horiz-adv-x="0" 
d="M43 791h76l35 -69l36 69h76l-78 -133h-67z" />
    <glyph glyph-name="uni030F" unicode="&#x30f;" horiz-adv-x="0" 
d="M147 641l-101 95v2h58l100 -94v-3h-57zM165 736v2h57l100 -94v-3h-56z" />
    <glyph glyph-name="uni0311" unicode="&#x311;" horiz-adv-x="0" 
d="M43 660h78q0 39 14.5 55t47.5 16t47 -16t14 -55h78q-4 74 -36.5 105.5t-102.5 31.5q-71 0 -103.5 -31.5t-36.5 -105.5z" />
    <glyph glyph-name="uni0312" unicode="&#x312;" horiz-adv-x="0" 
d="M43 661v90l45 85h63l-32 -73h47v-102h-123z" />
    <glyph glyph-name="uni031B" unicode="&#x31b;" horiz-adv-x="0" 
d="M81 536h-20t-18 2v59q10 0 19 -0.5t19 -0.5q34 2 50.5 20t18.5 56q0 9 0.5 27.5t0 37t-0.5 28.5h66q0 -9 0.5 -28t0 -37.5t-0.5 -27.5q-4 -73 -35.5 -104.5t-99.5 -31.5z" />
    <glyph glyph-name="dotbelowcomb" unicode="&#x323;" horiz-adv-x="0" 
d="M43 -168v100h101v-100h-101z" />
    <glyph glyph-name="uni0324" unicode="&#x324;" horiz-adv-x="0" 
d="M188 -160v100h99v-100h-99zM43 -160v100h100v-100h-100z" />
    <glyph glyph-name="uni0326" unicode="&#x326;" horiz-adv-x="0" 
d="M43 -167v102h123v-90l-44 -85h-63l31 73h-47z" />
    <glyph glyph-name="uni0327" unicode="&#x327;" horiz-adv-x="0" 
d="M106 -160q-34 0 -58 7l11 41q15 -2 47 -2q24 0 24 18q0 23 -24 23h-57l-6 6v68h47v-32h16q74 0 74 -65q0 -64 -74 -64z" />
    <glyph glyph-name="uni0328" unicode="&#x328;" horiz-adv-x="0" 
d="M43 -66q1 23 13.5 35.5t34.5 16.5v25h51l9 -11q-28 -11 -41.5 -26.5t-13.5 -31.5q0 -10 7 -17t24 -7q9 0 20.5 1.5t19.5 3.5l10 -43q-11 -4 -26 -6t-28 -2q-40 0 -60 17t-20 45z" />
    <glyph glyph-name="uni032E" unicode="&#x32e;" horiz-adv-x="0" 
d="M43 -52h78q0 -39 14.5 -55t47.5 -16t47 16t14 55h78q-4 -74 -36.5 -105.5t-102.5 -31.5q-71 0 -103.5 31.5t-36.5 105.5z" />
    <glyph glyph-name="uni0331" unicode="&#x331;" horiz-adv-x="0" 
d="M43 -104v64h354v-64h-354z" />
    <glyph glyph-name="uni0335" unicode="&#x335;" horiz-adv-x="0" 
d="M43 330v64h253v-64h-253z" />
    <glyph glyph-name="pi" unicode="&#x3c0;" horiz-adv-x="660" 
d="M151 0v484h-91v114h529v-114h-100q-1 -78 -1 -169.5t3 -169.5q0 -29 11.5 -41t51.5 -12q12 0 22.5 0.5t23.5 1.5v-93q-10 -3 -22 -4t-25 -1q-69 0 -109.5 16.5t-59.5 52.5t-22 95q-2 29 -2.5 81.5t-0.5 113.5t1 115v14h-80v-484h-129z" />
    <glyph glyph-name="uni1E08" unicode="&#x1e08;" horiz-adv-x="454" 
d="M235 -9q-102 0 -145 42.5t-45 140.5q-2 65 -2 145.5v161t2 146.5q1 85 45.5 133.5t144.5 48.5q98 0 142 -42.5t47 -140.5v-60t-1 -61h-129q1 31 1 72.5v72.5q-2 53 -60 53q-60 0 -61 -53q-3 -77 -3.5 -163.5t0 -172.5t3.5 -163q1 -55 61 -55q62 0 64 55v73v73h129
q0 -28 0.5 -61t-0.5 -62q-3 -98 -48 -140.5t-145 -42.5zM276 -152q-34 0 -58 7l11 41q15 -2 47 -2q24 0 24 18q0 23 -24 23h-57l-6 6v68h47v-32h16q74 0 74 -65q0 -64 -74 -64zM205 847v3l104 81h76v-3l-112 -81h-68z" />
    <glyph glyph-name="uni1E09" unicode="&#x1e09;" horiz-adv-x="439" 
d="M45 155q-1 22 -1.5 60.5t-0.5 82t0.5 82.5t1.5 64q6 89 48 127t134 38t133.5 -37.5t45.5 -122.5v-41t-1 -32h-126q1 11 1 28v34t-1 25q-1 27 -13 38t-39 11q-28 0 -40 -11t-13 -38q-4 -162 0 -322q1 -29 13.5 -41t41.5 -12q26 0 37.5 12t12.5 41q1 14 1 36t-1 49h126
q1 -9 1 -31.5v-39.5q-4 -88 -45.5 -126t-131.5 -38q-94 0 -136.5 38t-47.5 126zM265 -152q-34 0 -58 7l11 41q15 -2 47 -2q24 0 24 18q0 23 -24 23h-57l-6 6v68h47v-32h16q74 0 74 -65q0 -64 -74 -64zM189 658l82 133h84l-86 -133h-80z" />
    <glyph glyph-name="uni1E0C" unicode="&#x1e0c;" horiz-adv-x="467" 
d="M43 0v800h184q102 0 147.5 -43.5t47.5 -143.5q1 -76 1.5 -144.5t0 -136.5t-1.5 -144q-2 -101 -47.5 -144.5t-147.5 -43.5h-184zM172 114h55q64 0 66 59q5 227 0 455q-2 58 -66 58h-55v-572zM166 -130v81h100v-81h-100z" />
    <glyph glyph-name="uni1E0D" unicode="&#x1e0d;" horiz-adv-x="460" 
d="M287 800h129v-800h-129v62h-19q-19 -34 -42 -52.5t-67 -18.5q-58 0 -89 36t-35 120q-1 29 -1.5 68.5t-0.5 83t0.5 84t1.5 70.5q4 84 36 120t90 36q44 0 66 -18t42 -53h18v262zM211 85q23 0 45 12.5t31 35.5v334q-9 23 -31 35.5t-44 12.5q-25 0 -36 -12.5t-12 -38.5
q-2 -50 -3 -109.5t0 -117t3 -101.5q1 -26 12 -38.5t35 -12.5zM175 -168v100h101v-100h-101z" />
    <glyph glyph-name="uni1E0E" unicode="&#x1e0e;" horiz-adv-x="467" 
d="M43 0v800h184q102 0 147.5 -43.5t47.5 -143.5q1 -76 1.5 -144.5t0 -136.5t-1.5 -144q-2 -101 -47.5 -144.5t-147.5 -43.5h-184zM172 114h55q64 0 66 59q5 227 0 455q-2 58 -66 58h-55v-572zM64 -105v55h320v-55h-320z" />
    <glyph glyph-name="uni1E0F" unicode="&#x1e0f;" horiz-adv-x="460" 
d="M287 800h129v-800h-129v62h-19q-19 -34 -42 -52.5t-67 -18.5q-58 0 -89 36t-35 120q-1 29 -1.5 68.5t-0.5 83t0.5 84t1.5 70.5q4 84 36 120t90 36q44 0 66 -18t42 -53h18v262zM211 85q23 0 45 12.5t31 35.5v334q-9 23 -31 35.5t-44 12.5q-25 0 -36 -12.5t-12 -38.5
q-2 -50 -3 -109.5t0 -117t3 -101.5q1 -26 12 -38.5t35 -12.5zM40 -104v64h354v-64h-354z" />
    <glyph glyph-name="uni1E14" unicode="&#x1e14;" horiz-adv-x="382" 
d="M43 0v800h316v-114h-187v-223h177v-114h-177v-235h187v-114h-316zM42 840v55h320v-55h-320zM62 1023v3h76l104 -81v-3h-68z" />
    <glyph glyph-name="uni1E15" unicode="&#x1e15;" horiz-adv-x="440" 
d="M279 226h126q1 -9 1 -31.5v-39.5q-4 -88 -45 -126t-132 -38q-94 0 -136.5 38t-47.5 126q-1 22 -1.5 60.5t-0.5 82t0.5 82.5t1.5 64q6 89 48.5 127t134.5 38q91 0 132.5 -37.5t45.5 -122.5q0 -13 0.5 -41t0 -63t-1.5 -67h-233q0 -35 1 -69t1 -68q1 -29 13.5 -41t41.5 -12
q26 0 37.5 12t12.5 41q2 29 0 85zM228 512q-29 0 -41 -11.5t-13 -37.5q0 -25 -0.5 -48t-1.5 -47h108q0 33 -0.5 59.5t-0.5 35.5q-1 26 -13 37.5t-38 11.5zM48 661v64h354v-64h-354zM99 916h84l86 -133h-84z" />
    <glyph glyph-name="uni1E16" unicode="&#x1e16;" horiz-adv-x="382" 
d="M43 0v800h316v-114h-187v-223h177v-114h-177v-235h187v-114h-316zM42 840v55h320v-55h-320zM176 942v3l104 81h76v-3l-112 -81h-68z" />
    <glyph glyph-name="uni1E17" unicode="&#x1e17;" horiz-adv-x="440" 
d="M279 226h126q1 -9 1 -31.5v-39.5q-4 -88 -45 -126t-132 -38q-94 0 -136.5 38t-47.5 126q-1 22 -1.5 60.5t-0.5 82t0.5 82.5t1.5 64q6 89 48.5 127t134.5 38q91 0 132.5 -37.5t45.5 -122.5q0 -13 0.5 -41t0 -63t-1.5 -67h-233q0 -35 1 -69t1 -68q1 -29 13.5 -41t41.5 -12
q26 0 37.5 12t12.5 41q2 29 0 85zM228 512q-29 0 -41 -11.5t-13 -37.5q0 -25 -0.5 -48t-1.5 -47h108q0 33 -0.5 59.5t-0.5 35.5q-1 26 -13 37.5t-38 11.5zM48 661v64h354v-64h-354zM188 783l82 133h84l-86 -133h-80z" />
    <glyph glyph-name="uni1E1C" unicode="&#x1e1c;" horiz-adv-x="382" 
d="M43 0v800h316v-114h-187v-223h177v-114h-177v-235h187v-114h-316zM249 -152q-34 0 -58 7l11 41q15 -2 47 -2q24 0 24 18q0 23 -24 23h-57l-6 6v68h47v-32h16q74 0 74 -65q0 -64 -74 -64zM67 932h74q0 -18 17 -29.5t45 -11.5q27 0 44 11.5t17 29.5h75q-3 -42 -41.5 -69.5
t-94.5 -27.5q-57 0 -95 27.5t-41 69.5z" />
    <glyph glyph-name="uni1E1D" unicode="&#x1e1d;" horiz-adv-x="440" 
d="M279 226h126q1 -9 1 -31.5v-39.5q-4 -88 -45 -126t-132 -38q-94 0 -136.5 38t-47.5 126q-1 22 -1.5 60.5t-0.5 82t0.5 82.5t1.5 64q6 89 48.5 127t134.5 38q91 0 132.5 -37.5t45.5 -122.5q0 -13 0.5 -41t0 -63t-1.5 -67h-233q0 -35 1 -69t1 -68q1 -29 13.5 -41t41.5 -12
q26 0 37.5 12t12.5 41q2 29 0 85zM228 512q-29 0 -41 -11.5t-13 -37.5q0 -25 -0.5 -48t-1.5 -47h108q0 33 -0.5 59.5t-0.5 35.5q-1 26 -13 37.5t-38 11.5zM270 -152q-34 0 -58 7l11 41q15 -2 47 -2q24 0 24 18q0 23 -24 23h-57l-6 6v68h47v-32h16q74 0 74 -65q0 -64 -74 -64
zM86 789h78q0 -39 14.5 -55t47.5 -16t47 16t14 55h78q-4 -74 -36.5 -105.5t-102.5 -31.5q-71 0 -103.5 31.5t-36.5 105.5z" />
    <glyph glyph-name="uni1E20" unicode="&#x1e20;" horiz-adv-x="453" 
d="M237 -9q-102 0 -145 42.5t-46 140.5q-2 65 -2.5 144.5t0 158.5t2.5 142q4 103 47.5 146.5t143.5 43.5q95 0 138.5 -42.5t49.5 -140.5q2 -27 2 -60t-2 -60h-129q2 31 2 72t-2 72q-3 54 -59 54q-59 0 -62 -54q-3 -77 -4.5 -163.5t0 -172.5t4.5 -163q3 -55 62 -55
q62 0 66 55q1 23 1 57t-1 57h-58v112h183q2 -43 2 -97t-2 -106q-5 -98 -49 -140.5t-142 -42.5zM73 840v55h320v-55h-320z" />
    <glyph glyph-name="uni1E21" unicode="&#x1e21;" horiz-adv-x="476" 
d="M236 -192q-84 0 -132.5 25t-56.5 63q-3 18 -1 35q3 23 19 38.5t50 21.5v19q-59 9 -67 56q-2 14 0 29q4 21 21 37.5t48 19.5v18q-73 35 -80 148q-1 38 -1 65t1 61q7 89 50 127t137 38q121 0 161 -66h17q7 56 73 57v-98h-14q-50 0 -50 -56q1 -53 0.5 -79.5t-1.5 -48.5
q-5 -89 -48 -127.5t-138 -38.5h-10q-38 -1 -50.5 -8.5t-12.5 -21.5v-4q0 -16 22 -22.5t73 -6.5q95 -2 142 -31t57 -88q1 -8 1 -19t-1 -24q-7 -45 -35.5 -71t-73.5 -37t-100 -11zM224 249q59 0 62 54q3 71 0 156q-3 53 -62 53q-60 0 -62 -53q-3 -85 0 -156q3 -54 62 -54z
M241 -103q85 0 97 40q5 14 -1 30q-6 20 -30 27.5t-66 8.5q-41 0 -60.5 -9.5t-24.5 -29.5q-5 -15 0 -29q5 -20 24.5 -29t60.5 -9zM47 661v64h354v-64h-354z" />
    <glyph glyph-name="uni1E24" unicode="&#x1e24;" horiz-adv-x="455" 
d="M43 0v800h129v-337h111v337h129v-800h-129v349h-111v-349h-129zM178 -130v81h100v-81h-100z" />
    <glyph glyph-name="uni1E25" unicode="&#x1e25;" horiz-adv-x="461" 
d="M43 0v800h129v-262h23q20 35 42 53t66 18q58 0 90.5 -36t32.5 -120v-453h-129v464q0 51 -49 51q-22 0 -44 -12.5t-32 -35.5v-467h-129zM183 -168v100h101v-100h-101z" />
    <glyph glyph-name="uni1E2A" unicode="&#x1e2a;" horiz-adv-x="455" 
d="M43 0v800h129v-337h111v337h129v-800h-129v349h-111v-349h-129zM92 -50h74q0 -18 17 -29t45 -11q27 0 44 11t17 29h75q-3 -42 -41.5 -69.5t-94.5 -27.5q-57 0 -95 27.5t-41 69.5z" />
    <glyph glyph-name="uni1E2B" unicode="&#x1e2b;" horiz-adv-x="461" 
d="M43 0v800h129v-262h23q20 35 42 53t66 18q58 0 90.5 -36t32.5 -120v-453h-129v464q0 51 -49 51q-22 0 -44 -12.5t-32 -35.5v-467h-129zM94 -52h78q0 -39 14.5 -55t47.5 -16t47 16t14 55h78q-4 -74 -36.5 -105.5t-102.5 -31.5q-71 0 -103.5 31.5t-36.5 105.5z" />
    <glyph glyph-name="uni1E2E" unicode="&#x1e2e;" horiz-adv-x="215" 
d="M43 0v800h129v-800h-129zM130 848v81h99v-81h-99zM-15 848v81h100v-81h-100zM82 976v3l104 81h76v-3l-112 -81h-68z" />
    <glyph glyph-name="uni1E2F" unicode="&#x1e2f;" horiz-adv-x="215" 
d="M43 0v600h129v-600h-129zM130 661v100h99v-100h-99zM-15 661v100h100v-100h-100zM70 809l82 133h84l-86 -133h-80z" />
    <glyph glyph-name="uni1E36" unicode="&#x1e36;" horiz-adv-x="382" 
d="M43 0v800h129v-686h188v-114h-317zM143 -130v81h100v-81h-100z" />
    <glyph glyph-name="uni1E37" unicode="&#x1e37;" horiz-adv-x="215" 
d="M43 0v800h129v-800h-129zM57 -168v100h101v-100h-101z" />
    <glyph glyph-name="uni1E3A" unicode="&#x1e3a;" horiz-adv-x="382" 
d="M43 0v800h129v-686h188v-114h-317zM42 -105v55h320v-55h-320z" />
    <glyph glyph-name="uni1E3B" unicode="&#x1e3b;" horiz-adv-x="215" 
d="M43 0v800h129v-800h-129zM-78 -104v64h354v-64h-354z" />
    <glyph glyph-name="uni1E42" unicode="&#x1e42;" horiz-adv-x="694" 
d="M43 0v800h213l60 -309l19 -376h24l19 376l61 309h211v-800h-129v244l25 442h-26l-45 -452l-55 -233h-146l-54 233l-46 452h-25l23 -443v-243h-129zM297 -130v81h100v-81h-100z" />
    <glyph glyph-name="uni1E43" unicode="&#x1e43;" horiz-adv-x="719" 
d="M43 0v600h129v-62h23q19 35 41.5 53t66.5 18q42 0 70.5 -18.5t41.5 -60.5h21q19 34 45 56.5t71 22.5q58 0 89 -36t32 -120l2 -453h-129l-2 464q-1 51 -47 51q-21 0 -41.5 -14.5t-30.5 -35.5l1 -465h-129l-1 464q-1 51 -48 51q-22 0 -44 -12.5t-32 -35.5v-467h-129z
M310 -168v100h101v-100h-101z" />
    <glyph glyph-name="uni1E44" unicode="&#x1e44;" horiz-adv-x="511" 
d="M43 0v800h193l56 -255l59 -431h25l-23 359l-10 327h124v-800h-201l-57 268l-47 419h-27l22 -381l11 -306h-125zM206 847v82h101v-82h-101z" />
    <glyph glyph-name="uni1E45" unicode="&#x1e45;" 
d="M43 0v600h129v-62h23q20 34 42 52.5t66 18.5q58 0 90.5 -36t32.5 -120v-453h-129v464q0 51 -49 51q-21 0 -44 -13t-32 -35v-467h-129zM186 661v100h100v-100h-100z" />
    <glyph glyph-name="uni1E46" unicode="&#x1e46;" horiz-adv-x="511" 
d="M43 0v800h193l56 -255l59 -431h25l-23 359l-10 327h124v-800h-201l-57 268l-47 419h-27l22 -381l11 -306h-125zM205 -130v81h100v-81h-100z" />
    <glyph glyph-name="uni1E47" unicode="&#x1e47;" 
d="M43 0v600h129v-62h23q20 34 42 52.5t66 18.5q58 0 90.5 -36t32.5 -120v-453h-129v464q0 51 -49 51q-21 0 -44 -13t-32 -35v-467h-129zM185 -168v100h101v-100h-101z" />
    <glyph glyph-name="uni1E48" unicode="&#x1e48;" horiz-adv-x="511" 
d="M43 0v800h193l56 -255l59 -431h25l-23 359l-10 327h124v-800h-201l-57 268l-47 419h-27l22 -381l11 -306h-125zM104 -105v55h320v-55h-320z" />
    <glyph glyph-name="uni1E49" unicode="&#x1e49;" 
d="M43 0v600h129v-62h23q20 34 42 52.5t66 18.5q58 0 90.5 -36t32.5 -120v-453h-129v464q0 51 -49 51q-21 0 -44 -13t-32 -35v-467h-129zM50 -104v64h354v-64h-354z" />
    <glyph glyph-name="uni1E4C" unicode="&#x1e4c;" horiz-adv-x="474" 
d="M237 -9q-101 0 -145.5 42.5t-46.5 140.5q-2 110 -2 226.5t2 226.5q2 98 46.5 140t145.5 42q100 0 143.5 -42t46.5 -140q3 -111 3 -227t-3 -226q-3 -98 -46.5 -140.5t-143.5 -42.5zM237 96q59 0 61 54q3 76 4 163.5t0 174.5t-4 162q-2 54 -61 54q-61 0 -63 -54
q-2 -75 -3 -162t0 -174.5t3 -163.5q2 -54 63 -54zM101 838q3 44 25.5 63.5t60.5 18.5q28 -1 44 -9t28.5 -16t30.5 -8q17 0 27 9t10 24h46q-4 -88 -84 -87q-27 0 -44 8t-31 16.5t-31 8.5q-33 2 -36 -28h-46zM211 963v3l104 81h76v-3l-112 -81h-68z" />
    <glyph glyph-name="uni1E4D" unicode="&#x1e4d;" horiz-adv-x="464" 
d="M232 -9q-66 0 -106 18t-58.5 58.5t-22.5 106.5q0 23 -1 55.5t-1 69t0.5 70t1.5 58.5q4 65 22.5 105t58 58.5t106.5 18.5q68 0 107.5 -18.5t57.5 -58.5t21 -105q2 -31 2.5 -78t0 -95t-2.5 -80q-3 -65 -21 -105.5t-57.5 -59t-107.5 -18.5zM232 88q31 0 44 13.5t13 40.5
q5 158 0 317q0 27 -13 40t-44 13q-29 0 -43 -13t-15 -40q-5 -159 0 -317q2 -54 58 -54zM84 659q4 58 29 82t63 24q31 -1 49 -12t32 -22t33 -12q39 0 40 34h50q-3 -53 -27.5 -77t-64.5 -23q-28 0 -47 11t-34.5 22.5t-33.5 12.5q-35 1 -39 -40h-50zM194 814l82 133h84
l-86 -133h-80z" />
    <glyph glyph-name="uni1E4E" unicode="&#x1e4e;" horiz-adv-x="474" 
d="M237 -9q-101 0 -145.5 42.5t-46.5 140.5q-2 110 -2 226.5t2 226.5q2 98 46.5 140t145.5 42q100 0 143.5 -42t46.5 -140q3 -111 3 -227t-3 -226q-3 -98 -46.5 -140.5t-143.5 -42.5zM237 96q59 0 61 54q3 76 4 163.5t0 174.5t-4 162q-2 54 -61 54q-61 0 -63 -54
q-2 -75 -3 -162t0 -174.5t3 -163.5q2 -54 63 -54zM101 838q3 44 25.5 63.5t60.5 18.5q28 -1 44 -9t28.5 -16t30.5 -8q17 0 27 9t10 24h46q-4 -88 -84 -87q-27 0 -44 8t-31 16.5t-31 8.5q-33 2 -36 -28h-46zM259 964v81h99v-81h-99zM114 964v81h100v-81h-100z" />
    <glyph glyph-name="uni1E4F" unicode="&#x1e4f;" horiz-adv-x="464" 
d="M232 -9q-66 0 -106 18t-58.5 58.5t-22.5 106.5q0 23 -1 55.5t-1 69t0.5 70t1.5 58.5q4 65 22.5 105t58 58.5t106.5 18.5q68 0 107.5 -18.5t57.5 -58.5t21 -105q2 -31 2.5 -78t0 -95t-2.5 -80q-3 -65 -21 -105.5t-57.5 -59t-107.5 -18.5zM232 88q31 0 44 13.5t13 40.5
q5 158 0 317q0 27 -13 40t-44 13q-29 0 -43 -13t-15 -40q-5 -159 0 -317q2 -54 58 -54zM84 659q4 58 29 82t63 24q31 -1 49 -12t32 -22t33 -12q39 0 40 34h50q-3 -53 -27.5 -77t-64.5 -23q-28 0 -47 11t-34.5 22.5t-33.5 12.5q-35 1 -39 -40h-50zM254 818v100h99v-100h-99z
M109 818v100h100v-100h-100z" />
    <glyph glyph-name="uni1E50" unicode="&#x1e50;" horiz-adv-x="474" 
d="M237 -9q-101 0 -145.5 42.5t-46.5 140.5q-2 110 -2 226.5t2 226.5q2 98 46.5 140t145.5 42q100 0 143.5 -42t46.5 -140q3 -111 3 -227t-3 -226q-3 -98 -46.5 -140.5t-143.5 -42.5zM237 96q59 0 61 54q3 76 4 163.5t0 174.5t-4 162q-2 54 -61 54q-61 0 -63 -54
q-2 -75 -3 -162t0 -174.5t3 -163.5q2 -54 63 -54zM78 840v55h320v-55h-320zM97 1023v3h76l104 -81v-3h-68z" />
    <glyph glyph-name="uni1E51" unicode="&#x1e51;" horiz-adv-x="464" 
d="M232 -9q-66 0 -106 18t-58.5 58.5t-22.5 106.5q0 23 -1 55.5t-1 69t0.5 70t1.5 58.5q4 65 22.5 105t58 58.5t106.5 18.5q68 0 107.5 -18.5t57.5 -58.5t21 -105q2 -31 2.5 -78t0 -95t-2.5 -80q-3 -65 -21 -105.5t-57.5 -59t-107.5 -18.5zM232 88q31 0 44 13.5t13 40.5
q5 158 0 317q0 27 -13 40t-44 13q-29 0 -43 -13t-15 -40q-5 -159 0 -317q2 -54 58 -54zM55 661v64h354v-64h-354zM106 916h84l86 -133h-84z" />
    <glyph glyph-name="uni1E52" unicode="&#x1e52;" horiz-adv-x="474" 
d="M237 -9q-101 0 -145.5 42.5t-46.5 140.5q-2 110 -2 226.5t2 226.5q2 98 46.5 140t145.5 42q100 0 143.5 -42t46.5 -140q3 -111 3 -227t-3 -226q-3 -98 -46.5 -140.5t-143.5 -42.5zM237 96q59 0 61 54q3 76 4 163.5t0 174.5t-4 162q-2 54 -61 54q-61 0 -63 -54
q-2 -75 -3 -162t0 -174.5t3 -163.5q2 -54 63 -54zM78 840v55h320v-55h-320zM211 942v3l104 81h76v-3l-112 -81h-68z" />
    <glyph glyph-name="uni1E53" unicode="&#x1e53;" horiz-adv-x="464" 
d="M232 -9q-66 0 -106 18t-58.5 58.5t-22.5 106.5q0 23 -1 55.5t-1 69t0.5 70t1.5 58.5q4 65 22.5 105t58 58.5t106.5 18.5q68 0 107.5 -18.5t57.5 -58.5t21 -105q2 -31 2.5 -78t0 -95t-2.5 -80q-3 -65 -21 -105.5t-57.5 -59t-107.5 -18.5zM232 88q31 0 44 13.5t13 40.5
q5 158 0 317q0 27 -13 40t-44 13q-29 0 -43 -13t-15 -40q-5 -159 0 -317q2 -54 58 -54zM55 661v64h354v-64h-354zM195 783l82 133h84l-86 -133h-80z" />
    <glyph glyph-name="uni1E5A" unicode="&#x1e5a;" horiz-adv-x="446" 
d="M43 0v800h175q101 0 146 -41.5t49 -137.5q1 -48 1 -83t-1 -81q-3 -61 -21.5 -99t-57.5 -58l91 -300h-137l-76 279h-40v-279h-129zM172 393h46q62 0 65 58q5 88 0 177q-3 58 -65 58h-46v-293zM183 -130v81h100v-81h-100z" />
    <glyph glyph-name="uni1E5B" unicode="&#x1e5b;" horiz-adv-x="335" 
d="M43 0v600h129v-70h23q6 41 26.5 57t53.5 16q12 0 23 -0.5t17 -1.5v-99h-38q-54 0 -76.5 -17t-28.5 -48v-437h-129zM127 -168v100h101v-100h-101z" />
    <glyph glyph-name="uni1E5E" unicode="&#x1e5e;" horiz-adv-x="446" 
d="M43 0v800h175q101 0 146 -41.5t49 -137.5q1 -48 1 -83t-1 -81q-3 -61 -21.5 -99t-57.5 -58l91 -300h-137l-76 279h-40v-279h-129zM172 393h46q62 0 65 58q5 88 0 177q-3 58 -65 58h-46v-293zM81 -105v55h320v-55h-320z" />
    <glyph glyph-name="uni1E5F" unicode="&#x1e5f;" horiz-adv-x="335" 
d="M43 0v600h129v-70h23q6 41 26.5 57t53.5 16q12 0 23 -0.5t17 -1.5v-99h-38q-54 0 -76.5 -17t-28.5 -48v-437h-129zM-8 -104v64h354v-64h-354z" />
    <glyph glyph-name="uni1E60" unicode="&#x1e60;" 
d="M237 -9q-100 0 -142.5 42.5t-46.5 140.5q-1 30 -0.5 62t3.5 61h121q-2 -38 -2 -76t2 -70q5 -55 64 -55q31 0 45 14t17 41q2 30 2 56t-2 57q-2 25 -12.5 44.5t-36.5 25.5l-74 19q-73 19 -101 63t-30 118q-1 24 -0.5 47t0.5 46q4 98 47 140t145 42q97 0 140.5 -42.5
t47.5 -140.5q0 -23 -0.5 -56.5t-1.5 -63.5h-124q1 36 1.5 72t-0.5 72q-2 54 -63 54q-31 0 -45.5 -14t-17.5 -40q-5 -57 0 -116q2 -26 13.5 -44t37.5 -24l66 -16q77 -19 106 -65t31 -121q1 -24 0.5 -45.5t-0.5 -44.5q-4 -98 -47 -140.5t-143 -42.5zM185 847v82h101v-82h-101z
" />
    <glyph glyph-name="uni1E61" unicode="&#x1e61;" horiz-adv-x="435" 
d="M214 -9q-89 0 -127 38t-42 126q-1 17 -0.5 39.5t1.5 31.5h113q-1 -27 -1 -49t1 -36q1 -29 15 -41t40 -12q31 0 45.5 12t14.5 41v21.5v20.5q0 21 -7.5 34t-27.5 18l-65 19q-63 19 -97.5 53.5t-34.5 100.5v17v18q0 89 40 127.5t138 38.5q89 0 126.5 -37.5t41.5 -122.5
q0 -18 -0.5 -41t-0.5 -32h-118q1 11 1 28v34t-1 25q-1 27 -12 38t-37 11q-29 0 -40 -11t-12 -38q-1 -13 -1 -23v-21q0 -24 7 -39.5t31 -21.5l58 -15q64 -16 97 -51t33 -102v-19.5v-19.5q-1 -85 -42 -122.5t-137 -37.5zM166 661v100h100v-100h-100z" />
    <glyph glyph-name="uni1E62" unicode="&#x1e62;" 
d="M237 -9q-100 0 -142.5 42.5t-46.5 140.5q-1 30 -0.5 62t3.5 61h121q-2 -38 -2 -76t2 -70q5 -55 64 -55q31 0 45 14t17 41q2 30 2 56t-2 57q-2 25 -12.5 44.5t-36.5 25.5l-74 19q-73 19 -101 63t-30 118q-1 24 -0.5 47t0.5 46q4 98 47 140t145 42q97 0 140.5 -42.5
t47.5 -140.5q0 -23 -0.5 -56.5t-1.5 -63.5h-124q1 36 1.5 72t-0.5 72q-2 54 -63 54q-31 0 -45.5 -14t-17.5 -40q-5 -57 0 -116q2 -26 13.5 -44t37.5 -24l66 -16q77 -19 106 -65t31 -121q1 -24 0.5 -45.5t-0.5 -44.5q-4 -98 -47 -140.5t-143 -42.5zM185 -130v81h100v-81h-100
z" />
    <glyph glyph-name="uni1E63" unicode="&#x1e63;" horiz-adv-x="435" 
d="M214 -9q-89 0 -127 38t-42 126q-1 17 -0.5 39.5t1.5 31.5h113q-1 -27 -1 -49t1 -36q1 -29 15 -41t40 -12q31 0 45.5 12t14.5 41v21.5v20.5q0 21 -7.5 34t-27.5 18l-65 19q-63 19 -97.5 53.5t-34.5 100.5v17v18q0 89 40 127.5t138 38.5q89 0 126.5 -37.5t41.5 -122.5
q0 -18 -0.5 -41t-0.5 -32h-118q1 11 1 28v34t-1 25q-1 27 -12 38t-37 11q-29 0 -40 -11t-12 -38q-1 -13 -1 -23v-21q0 -24 7 -39.5t31 -21.5l58 -15q64 -16 97 -51t33 -102v-19.5v-19.5q-1 -85 -42 -122.5t-137 -37.5zM165 -168v100h101v-100h-101z" />
    <glyph glyph-name="uni1E64" unicode="&#x1e64;" 
d="M237 -9q-100 0 -142.5 42.5t-46.5 140.5q-1 30 -0.5 62t3.5 61h121q-2 -38 -2 -76t2 -70q5 -55 64 -55q31 0 45 14t17 41q2 30 2 56t-2 57q-2 25 -12.5 44.5t-36.5 25.5l-74 19q-73 19 -101 63t-30 118q-1 24 -0.5 47t0.5 46q4 98 47 140t145 42q97 0 140.5 -42.5
t47.5 -140.5q0 -23 -0.5 -56.5t-1.5 -63.5h-124q1 36 1.5 72t-0.5 72q-2 54 -63 54q-31 0 -45.5 -14t-17.5 -40q-5 -57 0 -116q2 -26 13.5 -44t37.5 -24l66 -16q77 -19 106 -65t31 -121q1 -24 0.5 -45.5t-0.5 -44.5q-4 -98 -47 -140.5t-143 -42.5zM209 847v3l104 81h76v-3
l-112 -81h-68zM210 967v82h101v-82h-101z" />
    <glyph glyph-name="uni1E65" unicode="&#x1e65;" horiz-adv-x="435" 
d="M214 -9q-89 0 -127 38t-42 126q-1 17 -0.5 39.5t1.5 31.5h113q-1 -27 -1 -49t1 -36q1 -29 15 -41t40 -12q31 0 45.5 12t14.5 41v21.5v20.5q0 21 -7.5 34t-27.5 18l-65 19q-63 19 -97.5 53.5t-34.5 100.5v17v18q0 89 40 127.5t138 38.5q89 0 126.5 -37.5t41.5 -122.5
q0 -18 -0.5 -41t-0.5 -32h-118q1 11 1 28v34t-1 25q-1 27 -12 38t-37 11q-29 0 -40 -11t-12 -38q-1 -13 -1 -23v-21q0 -24 7 -39.5t31 -21.5l58 -15q64 -16 97 -51t33 -102v-19.5v-19.5q-1 -85 -42 -122.5t-137 -37.5zM178 658l82 133h84l-86 -133h-80zM229 875v100h100
v-100h-100z" />
    <glyph glyph-name="uni1E66" unicode="&#x1e66;" 
d="M237 -9q-100 0 -142.5 42.5t-46.5 140.5q-1 30 -0.5 62t3.5 61h121q-2 -38 -2 -76t2 -70q5 -55 64 -55q31 0 45 14t17 41q2 30 2 56t-2 57q-2 25 -12.5 44.5t-36.5 25.5l-74 19q-73 19 -101 63t-30 118q-1 24 -0.5 47t0.5 46q4 98 47 140t145 42q97 0 140.5 -42.5
t47.5 -140.5q0 -23 -0.5 -56.5t-1.5 -63.5h-124q1 36 1.5 72t-0.5 72q-2 54 -63 54q-31 0 -45.5 -14t-17.5 -40q-5 -57 0 -116q2 -26 13.5 -44t37.5 -24l66 -16q77 -19 106 -65t31 -121q1 -24 0.5 -45.5t-0.5 -44.5q-4 -98 -47 -140.5t-143 -42.5zM90 932h85l56 -54l56 54
h85l-103 -90h-76zM186 986v82h101v-82h-101z" />
    <glyph glyph-name="uni1E67" unicode="&#x1e67;" horiz-adv-x="435" 
d="M214 -9q-89 0 -127 38t-42 126q-1 17 -0.5 39.5t1.5 31.5h113q-1 -27 -1 -49t1 -36q1 -29 15 -41t40 -12q31 0 45.5 12t14.5 41v21.5v20.5q0 21 -7.5 34t-27.5 18l-65 19q-63 19 -97.5 53.5t-34.5 100.5v17v18q0 89 40 127.5t138 38.5q89 0 126.5 -37.5t41.5 -122.5
q0 -18 -0.5 -41t-0.5 -32h-118q1 11 1 28v34t-1 25q-1 27 -12 38t-37 11q-29 0 -40 -11t-12 -38q-1 -13 -1 -23v-21q0 -24 7 -39.5t31 -21.5l58 -15q64 -16 97 -51t33 -102v-19.5v-19.5q-1 -85 -42 -122.5t-137 -37.5zM103 791h76l35 -69l36 69h76l-78 -133h-67zM166 857
v100h100v-100h-100z" />
    <glyph glyph-name="uni1E68" unicode="&#x1e68;" 
d="M237 -9q-100 0 -142.5 42.5t-46.5 140.5q-1 30 -0.5 62t3.5 61h121q-2 -38 -2 -76t2 -70q5 -55 64 -55q31 0 45 14t17 41q2 30 2 56t-2 57q-2 25 -12.5 44.5t-36.5 25.5l-74 19q-73 19 -101 63t-30 118q-1 24 -0.5 47t0.5 46q4 98 47 140t145 42q97 0 140.5 -42.5
t47.5 -140.5q0 -23 -0.5 -56.5t-1.5 -63.5h-124q1 36 1.5 72t-0.5 72q-2 54 -63 54q-31 0 -45.5 -14t-17.5 -40q-5 -57 0 -116q2 -26 13.5 -44t37.5 -24l66 -16q77 -19 106 -65t31 -121q1 -24 0.5 -45.5t-0.5 -44.5q-4 -98 -47 -140.5t-143 -42.5zM185 -130v81h100v-81h-100
zM185 847v82h101v-82h-101z" />
    <glyph glyph-name="uni1E69" unicode="&#x1e69;" horiz-adv-x="435" 
d="M214 -9q-89 0 -127 38t-42 126q-1 17 -0.5 39.5t1.5 31.5h113q-1 -27 -1 -49t1 -36q1 -29 15 -41t40 -12q31 0 45.5 12t14.5 41v21.5v20.5q0 21 -7.5 34t-27.5 18l-65 19q-63 19 -97.5 53.5t-34.5 100.5v17v18q0 89 40 127.5t138 38.5q89 0 126.5 -37.5t41.5 -122.5
q0 -18 -0.5 -41t-0.5 -32h-118q1 11 1 28v34t-1 25q-1 27 -12 38t-37 11q-29 0 -40 -11t-12 -38q-1 -13 -1 -23v-21q0 -24 7 -39.5t31 -21.5l58 -15q64 -16 97 -51t33 -102v-19.5v-19.5q-1 -85 -42 -122.5t-137 -37.5zM165 -168v100h101v-100h-101zM166 661v100h100v-100
h-100z" />
    <glyph glyph-name="uni1E6C" unicode="&#x1e6c;" horiz-adv-x="416" 
d="M144 0v686h-122v114h372v-114h-121v-686h-129zM158 -130v81h100v-81h-100z" />
    <glyph glyph-name="uni1E6D" unicode="&#x1e6d;" horiz-adv-x="364" 
d="M286 -9q-103 0 -147 38t-44 126v347h-53v98h54v170h131l-2 -170h99v-98h-100v-362q0 -29 12 -41t51 -12q12 0 22.5 0.5t24.5 1.5v-93q-11 -3 -23 -4t-25 -1zM171 -168v100h101v-100h-101z" />
    <glyph glyph-name="uni1E6E" unicode="&#x1e6e;" horiz-adv-x="416" 
d="M144 0v686h-122v114h372v-114h-121v-686h-129zM56 -105v55h320v-55h-320z" />
    <glyph glyph-name="uni1E6F" unicode="&#x1e6f;" horiz-adv-x="364" 
d="M286 -9q-103 0 -147 38t-44 126v347h-53v98h54v170h131l-2 -170h99v-98h-100v-362q0 -29 12 -41t51 -12q12 0 22.5 0.5t24.5 1.5v-93q-11 -3 -23 -4t-25 -1zM35 -104v64h354v-64h-354z" />
    <glyph glyph-name="uni1E78" unicode="&#x1e78;" 
d="M236 -9q-102 0 -146 42.5t-45 140.5q-4 313 0 626h129q-2 -104 -2 -214.5t0.5 -221t1.5 -214.5q0 -54 62 -54q61 0 61 54q1 104 1.5 214.5t0.5 221t-2 214.5h129q4 -313 0 -626q-1 -98 -45 -140.5t-145 -42.5zM100 838q3 44 25.5 63.5t60.5 18.5q28 -1 44 -9t28.5 -16
t30.5 -8q17 0 27 9t10 24h46q-4 -88 -84 -87q-27 0 -44 8t-31 16.5t-31 8.5q-33 2 -36 -28h-46zM209 963v3l104 81h76v-3l-112 -81h-68z" />
    <glyph glyph-name="uni1E79" unicode="&#x1e79;" 
d="M173 -9q-59 0 -93 36t-34 120v453h129v-464q0 -51 47 -51q22 0 44.5 13t31.5 35v467h129v-600h-129v62h-18q-21 -38 -46.5 -54.5t-60.5 -16.5zM87 659q4 58 29 82t63 24q31 -1 49 -12t32 -22t33 -12q39 0 40 34h50q-3 -53 -27.5 -77t-64.5 -23q-28 0 -47 11t-34.5 22.5
t-33.5 12.5q-35 1 -39 -40h-50zM197 814l82 133h84l-86 -133h-80z" />
    <glyph glyph-name="uni1E7A" unicode="&#x1e7a;" 
d="M236 -9q-102 0 -146 42.5t-45 140.5q-4 313 0 626h129q-2 -104 -2 -214.5t0.5 -221t1.5 -214.5q0 -54 62 -54q61 0 61 54q1 104 1.5 214.5t0.5 221t-2 214.5h129q4 -313 0 -626q-1 -98 -45 -140.5t-145 -42.5zM76 840v55h320v-55h-320zM259 943v81h99v-81h-99zM114 943
v81h100v-81h-100z" />
    <glyph glyph-name="uni1E7B" unicode="&#x1e7b;" 
d="M173 -9q-59 0 -93 36t-34 120v453h129v-464q0 -51 47 -51q22 0 44.5 13t31.5 35v467h129v-600h-129v62h-18q-21 -38 -46.5 -54.5t-60.5 -16.5zM58 661v64h354v-64h-354zM258 786v100h99v-100h-99zM113 786v100h100v-100h-100z" />
    <glyph glyph-name="Wgrave" unicode="&#x1e80;" horiz-adv-x="738" 
d="M94 0l-71 800h130l24 -350l17 -336h24l6 336l60 345h170l61 -345l5 -336h25l17 336l24 350h129l-70 -800h-214l-34 233l-16 452h-24l-16 -452l-34 -233h-213zM229 928v3h76l104 -81v-3h-68z" />
    <glyph glyph-name="wgrave" unicode="&#x1e81;" horiz-adv-x="715" 
d="M103 0l-80 600h131l29 -301l10 -204h25l10 204l30 300h199l29 -300l10 -204h25l10 204l30 301h131l-81 -600h-209l-21 233l-11 271h-26l-11 -271l-21 -233h-209zM231 791h84l86 -133h-84z" />
    <glyph glyph-name="Wacute" unicode="&#x1e82;" horiz-adv-x="738" 
d="M94 0l-71 800h130l24 -350l17 -336h24l6 336l60 345h170l61 -345l5 -336h25l17 336l24 350h129l-70 -800h-214l-34 233l-16 452h-24l-16 -452l-34 -233h-213zM343 847v3l104 81h76v-3l-112 -81h-68z" />
    <glyph glyph-name="wacute" unicode="&#x1e83;" horiz-adv-x="715" 
d="M103 0l-80 600h131l29 -301l10 -204h25l10 204l30 300h199l29 -300l10 -204h25l10 204l30 301h131l-81 -600h-209l-21 233l-11 271h-26l-11 -271l-21 -233h-209zM320 658l82 133h84l-86 -133h-80z" />
    <glyph glyph-name="Wdieresis" unicode="&#x1e84;" horiz-adv-x="738" 
d="M94 0l-71 800h130l24 -350l17 -336h24l6 336l60 345h170l61 -345l5 -336h25l17 336l24 350h129l-70 -800h-214l-34 233l-16 452h-24l-16 -452l-34 -233h-213zM392 848v81h99v-81h-99zM247 848v81h100v-81h-100z" />
    <glyph glyph-name="wdieresis" unicode="&#x1e85;" horiz-adv-x="715" 
d="M103 0l-80 600h131l29 -301l10 -204h25l10 204l30 300h199l29 -300l10 -204h25l10 204l30 301h131l-81 -600h-209l-21 233l-11 271h-26l-11 -271l-21 -233h-209zM381 661v100h99v-100h-99zM236 661v100h100v-100h-100z" />
    <glyph glyph-name="uni1E8E" unicode="&#x1e8e;" horiz-adv-x="452" 
d="M161 0v196l-10 42l-129 562h132l41 -202l18 -233h26l18 233l42 202h131l-129 -561l-10 -43v-196h-130zM171 847v82h101v-82h-101z" />
    <glyph glyph-name="uni1E8F" unicode="&#x1e8f;" horiz-adv-x="430" 
d="M127 0l-106 600h132l34 -276l20 -228h25l17 228l28 276h131l-98 -645q-9 -58 -30.5 -94t-62 -53t-109.5 -17q-16 0 -34.5 2t-35.5 5v96q13 -1 34 -2t36 -1q39 0 54 12t19 42l7 55h-61zM165 661v100h100v-100h-100z" />
    <glyph glyph-name="uni1E92" unicode="&#x1e92;" horiz-adv-x="397" 
d="M22 0v107l215 579h-204v114h342v-110l-224 -576h208v-114h-337zM146 -130v81h100v-81h-100z" />
    <glyph glyph-name="uni1E93" unicode="&#x1e93;" horiz-adv-x="376" 
d="M22 0v82l195 423l-191 -1v96h328v-85l-198 -420h196v-95h-330zM138 -168v100h101v-100h-101z" />
    <glyph glyph-name="uni1E97" unicode="&#x1e97;" horiz-adv-x="364" 
d="M286 -9q-103 0 -147 38t-44 126v347h-53v98h54v170h131l-2 -170h99v-98h-100v-362q0 -29 12 -41t51 -12q12 0 22.5 0.5t24.5 1.5v-93q-11 -3 -23 -4t-25 -1zM194 829v100h99v-100h-99zM49 829v100h100v-100h-100z" />
    <glyph glyph-name="uni1E9E" unicode="&#x1e9e;" horiz-adv-x="498" 
d="M43 0v618q0 97 45.5 139.5t145.5 42.5h207v-97l-101 -251q62 -20 86.5 -63t27.5 -112q1 -23 0.5 -45.5t-1.5 -46.5q-4 -99 -47.5 -142t-144.5 -43h-51v106h51q31 0 45.5 14t17.5 42q5 57 0 115q-2 26 -13.5 46.5t-37.5 20.5h-58l-1 101l93 250l-73 -1q-62 0 -62 -53v-641
h-129z" />
    <glyph glyph-name="uni1EA0" unicode="&#x1ea0;" horiz-adv-x="459" 
d="M22 0l104 800h208l105 -800h-133l-18 183h-116l-18 -183h-132zM184 297h92l-17 177l-15 212h-28l-14 -212zM180 -130v81h100v-81h-100z" />
    <glyph glyph-name="uni1EA1" unicode="&#x1ea1;" horiz-adv-x="439" 
d="M151 -8q-62 0 -91.5 31.5t-35.5 105.5q-1 9 -1 22t1 23q5 60 36 95.5t106 65.5q25 11 49.5 19t51.5 15v90q-1 26 -11 39.5t-40 13.5q-26 0 -36.5 -11t-12.5 -38v-25v-34.5v-27.5h-125q-1 8 -1.5 31.5t0.5 41.5q3 84 42 122t136 38q68 0 105.5 -18.5t53 -58.5t17.5 -104
l-1 -428h-129v62h-17q-16 -36 -37.5 -53t-59.5 -17zM204 85q21 0 36.5 12t25.5 33v153q-18 -4 -35 -10.5t-33 -15.5q-27 -14 -36 -35t-11 -48q-1 -19 1 -35q4 -54 52 -54zM160 -168v100h101v-100h-101z" />
    <glyph glyph-name="uni1EA2" unicode="&#x1ea2;" horiz-adv-x="459" 
d="M22 0l104 800h208l105 -800h-133l-18 183h-116l-18 -183h-132zM184 297h92l-17 177l-15 212h-28l-14 -212zM178 962q24 7 58 7q74 0 74 -65q0 -21 -7.5 -37t-29 -23.5t-65.5 -3.5v41h28q24 0 24 23q0 19 -24 19q-32 0 -47 -2z" />
    <glyph glyph-name="uni1EA3" unicode="&#x1ea3;" horiz-adv-x="439" 
d="M151 -8q-62 0 -91.5 31.5t-35.5 105.5q-1 9 -1 22t1 23q5 60 36 95.5t106 65.5q25 11 49.5 19t51.5 15v90q-1 26 -11 39.5t-40 13.5q-26 0 -36.5 -11t-12.5 -38v-25v-34.5v-27.5h-125q-1 8 -1.5 31.5t0.5 41.5q3 84 42 122t136 38q68 0 105.5 -18.5t53 -58.5t17.5 -104
l-1 -428h-129v62h-17q-16 -36 -37.5 -53t-59.5 -17zM204 85q21 0 36.5 12t25.5 33v153q-18 -4 -35 -10.5t-33 -15.5q-27 -14 -36 -35t-11 -48q-1 -19 1 -35q4 -54 52 -54zM179 795q24 7 58 7q74 0 74 -65q0 -31 -15 -48t-52 -16v-32h-46v67l6 6h33q24 0 24 23q0 19 -24 19
q-32 0 -47 -3z" />
    <glyph glyph-name="uni1EA4" unicode="&#x1ea4;" horiz-adv-x="459" 
d="M22 0l104 800h208l105 -800h-133l-18 183h-116l-18 -183h-132zM184 297h92l-17 177l-15 212h-28l-14 -212zM85 839l103 91h76l103 -91h-85l-56 54l-56 -54h-85zM205 976v3l104 81h76v-3l-112 -81h-68z" />
    <glyph glyph-name="uni1EA5" unicode="&#x1ea5;" horiz-adv-x="439" 
d="M151 -8q-62 0 -91.5 31.5t-35.5 105.5q-1 9 -1 22t1 23q5 60 36 95.5t106 65.5q25 11 49.5 19t51.5 15v90q-1 26 -11 39.5t-40 13.5q-26 0 -36.5 -11t-12.5 -38v-25v-34.5v-27.5h-125q-1 8 -1.5 31.5t0.5 41.5q3 84 42 122t136 38q68 0 105.5 -18.5t53 -58.5t17.5 -104
l-1 -428h-129v62h-17q-16 -36 -37.5 -53t-59.5 -17zM204 85q21 0 36.5 12t25.5 33v153q-18 -4 -35 -10.5t-33 -15.5q-27 -14 -36 -35t-11 -48q-1 -19 1 -35q4 -54 52 -54zM99 641l78 133h75l78 -133h-84l-31 61l-32 -61h-84zM193 802v3l104 81h76v-3l-112 -81h-68z" />
    <glyph glyph-name="uni1EA6" unicode="&#x1ea6;" horiz-adv-x="459" 
d="M22 0l104 800h208l105 -800h-133l-18 183h-116l-18 -183h-132zM184 297h92l-17 177l-15 212h-28l-14 -212zM85 839l103 91h76l103 -91h-85l-56 54l-56 -54h-85zM68 1053v3h76l104 -81v-3h-68z" />
    <glyph glyph-name="uni1EA7" unicode="&#x1ea7;" horiz-adv-x="439" 
d="M151 -8q-62 0 -91.5 31.5t-35.5 105.5q-1 9 -1 22t1 23q5 60 36 95.5t106 65.5q25 11 49.5 19t51.5 15v90q-1 26 -11 39.5t-40 13.5q-26 0 -36.5 -11t-12.5 -38v-25v-34.5v-27.5h-125q-1 8 -1.5 31.5t0.5 41.5q3 84 42 122t136 38q68 0 105.5 -18.5t53 -58.5t17.5 -104
l-1 -428h-129v62h-17q-16 -36 -37.5 -53t-59.5 -17zM204 85q21 0 36.5 12t25.5 33v153q-18 -4 -35 -10.5t-33 -15.5q-27 -14 -36 -35t-11 -48q-1 -19 1 -35q4 -54 52 -54zM99 641l78 133h75l78 -133h-84l-31 61l-32 -61h-84zM61 883v3h76l104 -81v-3h-68z" />
    <glyph glyph-name="uni1EA8" unicode="&#x1ea8;" horiz-adv-x="459" 
d="M22 0l104 800h208l105 -800h-133l-18 183h-116l-18 -183h-132zM184 297h92l-17 177l-15 212h-28l-14 -212zM85 839l103 91h76l103 -91h-85l-56 54l-56 -54h-85zM281 1047q24 7 58 7q74 0 74 -65q0 -21 -7.5 -37t-29 -23.5t-65.5 -3.5v41h28q24 0 24 23q0 19 -24 19
q-32 0 -47 -2z" />
    <glyph glyph-name="uni1EA9" unicode="&#x1ea9;" horiz-adv-x="439" 
d="M151 -8q-62 0 -91.5 31.5t-35.5 105.5q-1 9 -1 22t1 23q5 60 36 95.5t106 65.5q25 11 49.5 19t51.5 15v90q-1 26 -11 39.5t-40 13.5q-26 0 -36.5 -11t-12.5 -38v-25v-34.5v-27.5h-125q-1 8 -1.5 31.5t0.5 41.5q3 84 42 122t136 38q68 0 105.5 -18.5t53 -58.5t17.5 -104
l-1 -428h-129v62h-17q-16 -36 -37.5 -53t-59.5 -17zM204 85q21 0 36.5 12t25.5 33v153q-18 -4 -35 -10.5t-33 -15.5q-27 -14 -36 -35t-11 -48q-1 -19 1 -35q4 -54 52 -54zM359 773v-18h-47v54l6 6h34q23 0 23 23q0 19 -23 19q-32 0 -48 -3l-10 41q23 8 58 8q73 0 73 -65
q0 -32 -15 -48.5t-51 -16.5zM99 641l78 133h75l78 -133h-84l-31 61l-32 -61h-84z" />
    <glyph glyph-name="uni1EAA" unicode="&#x1eaa;" horiz-adv-x="459" 
d="M22 0l104 800h208l105 -800h-133l-18 183h-116l-18 -183h-132zM184 297h92l-17 177l-15 212h-28l-14 -212zM85 839l103 91h76l103 -91h-85l-56 54l-56 -54h-85zM92 967q3 44 25.5 63.5t60.5 18.5q28 -1 44 -9t28.5 -16t30.5 -8q17 0 27 9t10 24h46q-4 -88 -84 -87
q-27 0 -44 8t-31 16.5t-31 8.5q-33 2 -36 -28h-46z" />
    <glyph glyph-name="uni1EAB" unicode="&#x1eab;" horiz-adv-x="439" 
d="M151 -8q-62 0 -91.5 31.5t-35.5 105.5q-1 9 -1 22t1 23q5 60 36 95.5t106 65.5q25 11 49.5 19t51.5 15v90q-1 26 -11 39.5t-40 13.5q-26 0 -36.5 -11t-12.5 -38v-25v-34.5v-27.5h-125q-1 8 -1.5 31.5t0.5 41.5q3 84 42 122t136 38q68 0 105.5 -18.5t53 -58.5t17.5 -104
l-1 -428h-129v62h-17q-16 -36 -37.5 -53t-59.5 -17zM204 85q21 0 36.5 12t25.5 33v153q-18 -4 -35 -10.5t-33 -15.5q-27 -14 -36 -35t-11 -48q-1 -19 1 -35q4 -54 52 -54zM98 641l78 133h75l78 -133h-84l-31 61l-32 -61h-84zM82 810q3 44 25.5 63.5t60.5 18.5q28 -1 44 -9
t28.5 -16t30.5 -8q17 0 27 9t10 24h46q-4 -88 -84 -87q-27 0 -44 8t-31 16.5t-31 8.5q-33 2 -36 -28h-46z" />
    <glyph glyph-name="uni1EAC" unicode="&#x1eac;" horiz-adv-x="459" 
d="M22 0l104 800h208l105 -800h-133l-18 183h-116l-18 -183h-132zM184 297h92l-17 177l-15 212h-28l-14 -212zM180 -130v81h100v-81h-100zM85 839l103 91h76l103 -91h-85l-56 54l-56 -54h-85z" />
    <glyph glyph-name="uni1EAD" unicode="&#x1ead;" horiz-adv-x="439" 
d="M151 -8q-62 0 -91.5 31.5t-35.5 105.5q-1 9 -1 22t1 23q5 60 36 95.5t106 65.5q25 11 49.5 19t51.5 15v90q-1 26 -11 39.5t-40 13.5q-26 0 -36.5 -11t-12.5 -38v-25v-34.5v-27.5h-125q-1 8 -1.5 31.5t0.5 41.5q3 84 42 122t136 38q68 0 105.5 -18.5t53 -58.5t17.5 -104
l-1 -428h-129v62h-17q-16 -36 -37.5 -53t-59.5 -17zM204 85q21 0 36.5 12t25.5 33v153q-18 -4 -35 -10.5t-33 -15.5q-27 -14 -36 -35t-11 -48q-1 -19 1 -35q4 -54 52 -54zM160 -168v100h101v-100h-101zM99 641l78 133h75l78 -133h-84l-31 61l-32 -61h-84z" />
    <glyph glyph-name="uni1EAE" unicode="&#x1eae;" horiz-adv-x="459" 
d="M22 0l104 800h208l105 -800h-133l-18 183h-116l-18 -183h-132zM184 297h92l-17 177l-15 212h-28l-14 -212zM95 932h74q0 -18 17 -29.5t45 -11.5q27 0 44 11.5t17 29.5h75q-3 -42 -41.5 -69.5t-94.5 -27.5q-57 0 -95 27.5t-41 69.5zM205 983v3l104 81h76v-3l-112 -81h-68z
" />
    <glyph glyph-name="uni1EAF" unicode="&#x1eaf;" horiz-adv-x="439" 
d="M151 -8q-62 0 -91.5 31.5t-35.5 105.5q-1 9 -1 22t1 23q5 60 36 95.5t106 65.5q25 11 49.5 19t51.5 15v90q-1 26 -11 39.5t-40 13.5q-26 0 -36.5 -11t-12.5 -38v-25v-34.5v-27.5h-125q-1 8 -1.5 31.5t0.5 41.5q3 84 42 122t136 38q68 0 105.5 -18.5t53 -58.5t17.5 -104
l-1 -428h-129v62h-17q-16 -36 -37.5 -53t-59.5 -17zM204 85q21 0 36.5 12t25.5 33v153q-18 -4 -35 -10.5t-33 -15.5q-27 -14 -36 -35t-11 -48q-1 -19 1 -35q4 -54 52 -54zM79 789h78q0 -39 14.5 -55t47.5 -16t47 16t14 55h78q-4 -74 -36.5 -105.5t-102.5 -31.5
q-71 0 -103.5 31.5t-36.5 105.5zM171 817v3l104 81h76v-3l-112 -81h-68z" />
    <glyph glyph-name="uni1EB0" unicode="&#x1eb0;" horiz-adv-x="459" 
d="M22 0l104 800h208l105 -800h-133l-18 183h-116l-18 -183h-132zM184 297h92l-17 177l-15 212h-28l-14 -212zM95 932h74q0 -18 17 -29.5t45 -11.5q27 0 44 11.5t17 29.5h75q-3 -42 -41.5 -69.5t-94.5 -27.5q-57 0 -95 27.5t-41 69.5zM90 1064v3h76l104 -81v-3h-68z" />
    <glyph glyph-name="uni1EB1" unicode="&#x1eb1;" horiz-adv-x="439" 
d="M151 -8q-62 0 -91.5 31.5t-35.5 105.5q-1 9 -1 22t1 23q5 60 36 95.5t106 65.5q25 11 49.5 19t51.5 15v90q-1 26 -11 39.5t-40 13.5q-26 0 -36.5 -11t-12.5 -38v-25v-34.5v-27.5h-125q-1 8 -1.5 31.5t0.5 41.5q3 84 42 122t136 38q68 0 105.5 -18.5t53 -58.5t17.5 -104
l-1 -428h-129v62h-17q-16 -36 -37.5 -53t-59.5 -17zM204 85q21 0 36.5 12t25.5 33v153q-18 -4 -35 -10.5t-33 -15.5q-27 -14 -36 -35t-11 -48q-1 -19 1 -35q4 -54 52 -54zM79 789h78q0 -39 14.5 -55t47.5 -16t47 16t14 55h78q-4 -74 -36.5 -105.5t-102.5 -31.5
q-71 0 -103.5 31.5t-36.5 105.5zM78 893v3h76l104 -81v-3h-68z" />
    <glyph glyph-name="uni1EB2" unicode="&#x1eb2;" horiz-adv-x="459" 
d="M22 0l104 800h208l105 -800h-133l-18 183h-116l-18 -183h-132zM184 297h92l-17 177l-15 212h-28l-14 -212zM95 932h74q0 -18 17 -29.5t45 -11.5q27 0 44 11.5t17 29.5h75q-3 -42 -41.5 -69.5t-94.5 -27.5q-57 0 -95 27.5t-41 69.5zM182 1082q24 7 58 7q74 0 74 -65
q0 -21 -7.5 -37t-29 -23.5t-65.5 -3.5v41h28q24 0 24 23q0 19 -24 19q-32 0 -47 -2z" />
    <glyph glyph-name="uni1EB3" unicode="&#x1eb3;" horiz-adv-x="439" 
d="M151 -8q-62 0 -91.5 31.5t-35.5 105.5q-1 9 -1 22t1 23q5 60 36 95.5t106 65.5q25 11 49.5 19t51.5 15v90q-1 26 -11 39.5t-40 13.5q-26 0 -36.5 -11t-12.5 -38v-25v-34.5v-27.5h-125q-1 8 -1.5 31.5t0.5 41.5q3 84 42 122t136 38q68 0 105.5 -18.5t53 -58.5t17.5 -104
l-1 -428h-129v62h-17q-16 -36 -37.5 -53t-59.5 -17zM204 85q21 0 36.5 12t25.5 33v153q-18 -4 -35 -10.5t-33 -15.5q-27 -14 -36 -35t-11 -48q-1 -19 1 -35q4 -54 52 -54zM79 789h78q0 -39 14.5 -55t47.5 -16t47 16t14 55h78q-4 -74 -36.5 -105.5t-102.5 -31.5
q-71 0 -103.5 31.5t-36.5 105.5zM175 943q24 7 58 7q74 0 74 -65q0 -21 -7.5 -37t-29 -23.5t-65.5 -3.5v41h28q24 0 24 23q0 19 -24 19q-32 0 -47 -2z" />
    <glyph glyph-name="uni1EB4" unicode="&#x1eb4;" horiz-adv-x="459" 
d="M22 0l104 800h208l105 -800h-133l-18 183h-116l-18 -183h-132zM184 297h92l-17 177l-15 212h-28l-14 -212zM94 932h74q0 -18 17 -29.5t45 -11.5q27 0 44 11.5t17 29.5h75q-3 -42 -41.5 -69.5t-94.5 -27.5q-57 0 -95 27.5t-41 69.5zM94 974q3 44 25.5 63.5t60.5 18.5
q28 -1 44 -9t28.5 -16t30.5 -8q17 0 27 9t10 24h46q-4 -88 -84 -87q-27 0 -44 8t-31 16.5t-31 8.5q-33 2 -36 -28h-46z" />
    <glyph glyph-name="uni1EB5" unicode="&#x1eb5;" horiz-adv-x="439" 
d="M151 -8q-62 0 -91.5 31.5t-35.5 105.5q-1 9 -1 22t1 23q5 60 36 95.5t106 65.5q25 11 49.5 19t51.5 15v90q-1 26 -11 39.5t-40 13.5q-26 0 -36.5 -11t-12.5 -38v-25v-34.5v-27.5h-125q-1 8 -1.5 31.5t0.5 41.5q3 84 42 122t136 38q68 0 105.5 -18.5t53 -58.5t17.5 -104
l-1 -428h-129v62h-17q-16 -36 -37.5 -53t-59.5 -17zM204 85q21 0 36.5 12t25.5 33v153q-18 -4 -35 -10.5t-33 -15.5q-27 -14 -36 -35t-11 -48q-1 -19 1 -35q4 -54 52 -54zM78 789h78q0 -39 14.5 -55t47.5 -16t47 16t14 55h78q-4 -74 -36.5 -105.5t-102.5 -31.5
q-71 0 -103.5 31.5t-36.5 105.5zM87 843q3 44 25.5 63.5t60.5 18.5q28 -1 44 -9t28.5 -16t30.5 -8q17 0 27 9t10 24h46q-4 -88 -84 -87q-27 0 -44 8t-31 16.5t-31 8.5q-33 2 -36 -28h-46z" />
    <glyph glyph-name="uni1EB6" unicode="&#x1eb6;" horiz-adv-x="459" 
d="M22 0l104 800h208l105 -800h-133l-18 183h-116l-18 -183h-132zM184 297h92l-17 177l-15 212h-28l-14 -212zM180 -130v81h100v-81h-100zM95 932h74q0 -18 17 -29.5t45 -11.5q27 0 44 11.5t17 29.5h75q-3 -42 -41.5 -69.5t-94.5 -27.5q-57 0 -95 27.5t-41 69.5z" />
    <glyph glyph-name="uni1EB7" unicode="&#x1eb7;" horiz-adv-x="439" 
d="M151 -8q-62 0 -91.5 31.5t-35.5 105.5q-1 9 -1 22t1 23q5 60 36 95.5t106 65.5q25 11 49.5 19t51.5 15v90q-1 26 -11 39.5t-40 13.5q-26 0 -36.5 -11t-12.5 -38v-25v-34.5v-27.5h-125q-1 8 -1.5 31.5t0.5 41.5q3 84 42 122t136 38q68 0 105.5 -18.5t53 -58.5t17.5 -104
l-1 -428h-129v62h-17q-16 -36 -37.5 -53t-59.5 -17zM204 85q21 0 36.5 12t25.5 33v153q-18 -4 -35 -10.5t-33 -15.5q-27 -14 -36 -35t-11 -48q-1 -19 1 -35q4 -54 52 -54zM160 -168v100h101v-100h-101zM79 789h78q0 -39 14.5 -55t47.5 -16t47 16t14 55h78
q-4 -74 -36.5 -105.5t-102.5 -31.5q-71 0 -103.5 31.5t-36.5 105.5z" />
    <glyph glyph-name="uni1EB8" unicode="&#x1eb8;" horiz-adv-x="382" 
d="M43 0v800h316v-114h-187v-223h177v-114h-177v-235h187v-114h-316zM154 -130v81h100v-81h-100z" />
    <glyph glyph-name="uni1EB9" unicode="&#x1eb9;" horiz-adv-x="440" 
d="M279 226h126q1 -9 1 -31.5v-39.5q-4 -88 -45 -126t-132 -38q-94 0 -136.5 38t-47.5 126q-1 22 -1.5 60.5t-0.5 82t0.5 82.5t1.5 64q6 89 48.5 127t134.5 38q91 0 132.5 -37.5t45.5 -122.5q0 -13 0.5 -41t0 -63t-1.5 -67h-233q0 -35 1 -69t1 -68q1 -29 13.5 -41t41.5 -12
q26 0 37.5 12t12.5 41q2 29 0 85zM228 512q-29 0 -41 -11.5t-13 -37.5q0 -25 -0.5 -48t-1.5 -47h108q0 33 -0.5 59.5t-0.5 35.5q-1 26 -13 37.5t-38 11.5zM175 -168v100h101v-100h-101z" />
    <glyph glyph-name="uni1EBA" unicode="&#x1eba;" horiz-adv-x="382" 
d="M43 0v800h316v-114h-187v-223h177v-114h-177v-235h187v-114h-316zM149 962q24 7 58 7q74 0 74 -65q0 -21 -7.5 -37t-29 -23.5t-65.5 -3.5v41h28q24 0 24 23q0 19 -24 19q-32 0 -47 -2z" />
    <glyph glyph-name="uni1EBB" unicode="&#x1ebb;" horiz-adv-x="440" 
d="M279 226h126q1 -9 1 -31.5v-39.5q-4 -88 -45 -126t-132 -38q-94 0 -136.5 38t-47.5 126q-1 22 -1.5 60.5t-0.5 82t0.5 82.5t1.5 64q6 89 48.5 127t134.5 38q91 0 132.5 -37.5t45.5 -122.5q0 -13 0.5 -41t0 -63t-1.5 -67h-233q0 -35 1 -69t1 -68q1 -29 13.5 -41t41.5 -12
q26 0 37.5 12t12.5 41q2 29 0 85zM228 512q-29 0 -41 -11.5t-13 -37.5q0 -25 -0.5 -48t-1.5 -47h108q0 33 -0.5 59.5t-0.5 35.5q-1 26 -13 37.5t-38 11.5zM186 795q24 7 58 7q74 0 74 -65q0 -31 -15 -48t-52 -16v-32h-46v67l6 6h33q24 0 24 23q0 19 -24 19q-32 0 -47 -3z
" />
    <glyph glyph-name="uni1EBC" unicode="&#x1ebc;" horiz-adv-x="382" 
d="M43 0v800h316v-114h-187v-223h177v-114h-177v-235h187v-114h-316zM66 838q3 44 25.5 63.5t60.5 18.5q28 -1 44 -9t28.5 -16t30.5 -8q17 0 27 9t10 24h46q-4 -88 -84 -87q-27 0 -44 8t-31 16.5t-31 8.5q-33 2 -36 -28h-46z" />
    <glyph glyph-name="uni1EBD" unicode="&#x1ebd;" horiz-adv-x="440" 
d="M279 226h126q1 -9 1 -31.5v-39.5q-4 -88 -45 -126t-132 -38q-94 0 -136.5 38t-47.5 126q-1 22 -1.5 60.5t-0.5 82t0.5 82.5t1.5 64q6 89 48.5 127t134.5 38q91 0 132.5 -37.5t45.5 -122.5q0 -13 0.5 -41t0 -63t-1.5 -67h-233q0 -35 1 -69t1 -68q1 -29 13.5 -41t41.5 -12
q26 0 37.5 12t12.5 41q2 29 0 85zM228 512q-29 0 -41 -11.5t-13 -37.5q0 -25 -0.5 -48t-1.5 -47h108q0 33 -0.5 59.5t-0.5 35.5q-1 26 -13 37.5t-38 11.5zM78 659q4 58 29 82t63 24q31 -1 49 -12t32 -22t33 -12q39 0 40 34h50q-3 -53 -27.5 -77t-64.5 -23q-28 0 -47 11
t-34.5 22.5t-33.5 12.5q-35 1 -39 -40h-50z" />
    <glyph glyph-name="uni1EBE" unicode="&#x1ebe;" horiz-adv-x="382" 
d="M43 0v800h316v-114h-187v-223h177v-114h-177v-235h187v-114h-316zM57 839l103 91h76l103 -91h-85l-56 54l-56 -54h-85zM177 976v3l104 81h76v-3l-112 -81h-68z" />
    <glyph glyph-name="uni1EBF" unicode="&#x1ebf;" horiz-adv-x="440" 
d="M279 226h126q1 -9 1 -31.5v-39.5q-4 -88 -45 -126t-132 -38q-94 0 -136.5 38t-47.5 126q-1 22 -1.5 60.5t-0.5 82t0.5 82.5t1.5 64q6 89 48.5 127t134.5 38q91 0 132.5 -37.5t45.5 -122.5q0 -13 0.5 -41t0 -63t-1.5 -67h-233q0 -35 1 -69t1 -68q1 -29 13.5 -41t41.5 -12
q26 0 37.5 12t12.5 41q2 29 0 85zM228 512q-29 0 -41 -11.5t-13 -37.5q0 -25 -0.5 -48t-1.5 -47h108q0 33 -0.5 59.5t-0.5 35.5q-1 26 -13 37.5t-38 11.5zM106 641l78 133h75l78 -133h-84l-31 61l-32 -61h-84zM200 802v3l104 81h76v-3l-112 -81h-68z" />
    <glyph glyph-name="uni1EC0" unicode="&#x1ec0;" horiz-adv-x="382" 
d="M43 0v800h316v-114h-187v-223h177v-114h-177v-235h187v-114h-316zM57 839l103 91h76l103 -91h-85l-56 54l-56 -54h-85zM40 1053v3h76l104 -81v-3h-68z" />
    <glyph glyph-name="uni1EC1" unicode="&#x1ec1;" horiz-adv-x="440" 
d="M279 226h126q1 -9 1 -31.5v-39.5q-4 -88 -45 -126t-132 -38q-94 0 -136.5 38t-47.5 126q-1 22 -1.5 60.5t-0.5 82t0.5 82.5t1.5 64q6 89 48.5 127t134.5 38q91 0 132.5 -37.5t45.5 -122.5q0 -13 0.5 -41t0 -63t-1.5 -67h-233q0 -35 1 -69t1 -68q1 -29 13.5 -41t41.5 -12
q26 0 37.5 12t12.5 41q2 29 0 85zM228 512q-29 0 -41 -11.5t-13 -37.5q0 -25 -0.5 -48t-1.5 -47h108q0 33 -0.5 59.5t-0.5 35.5q-1 26 -13 37.5t-38 11.5zM106 641l78 133h75l78 -133h-84l-31 61l-32 -61h-84zM68 883v3h76l104 -81v-3h-68z" />
    <glyph glyph-name="uni1EC2" unicode="&#x1ec2;" horiz-adv-x="382" 
d="M43 0v800h316v-114h-187v-223h177v-114h-177v-235h187v-114h-316zM57 839l103 91h76l103 -91h-85l-56 54l-56 -54h-85zM253 1047q24 7 58 7q74 0 74 -65q0 -21 -7.5 -37t-29 -23.5t-65.5 -3.5v41h28q24 0 24 23q0 19 -24 19q-32 0 -47 -2z" />
    <glyph glyph-name="uni1EC3" unicode="&#x1ec3;" horiz-adv-x="440" 
d="M279 226h126q1 -9 1 -31.5v-39.5q-4 -88 -45 -126t-132 -38q-94 0 -136.5 38t-47.5 126q-1 22 -1.5 60.5t-0.5 82t0.5 82.5t1.5 64q6 89 48.5 127t134.5 38q91 0 132.5 -37.5t45.5 -122.5q0 -13 0.5 -41t0 -63t-1.5 -67h-233q0 -35 1 -69t1 -68q1 -29 13.5 -41t41.5 -12
q26 0 37.5 12t12.5 41q2 29 0 85zM228 512q-29 0 -41 -11.5t-13 -37.5q0 -25 -0.5 -48t-1.5 -47h108q0 33 -0.5 59.5t-0.5 35.5q-1 26 -13 37.5t-38 11.5zM366 773v-18h-47v54l6 6h34q23 0 23 23q0 19 -23 19q-32 0 -48 -3l-10 41q23 8 58 8q73 0 73 -65q0 -32 -15 -48.5
t-51 -16.5zM106 641l78 133h75l78 -133h-84l-31 61l-32 -61h-84z" />
    <glyph glyph-name="uni1EC4" unicode="&#x1ec4;" horiz-adv-x="382" 
d="M43 0v800h316v-114h-187v-223h177v-114h-177v-235h187v-114h-316zM56 839l103 91h76l103 -91h-85l-56 54l-56 -54h-85zM63 967q3 44 25.5 63.5t60.5 18.5q28 -1 44 -9t28.5 -16t30.5 -8q17 0 27 9t10 24h46q-4 -88 -84 -87q-27 0 -44 8t-31 16.5t-31 8.5q-33 2 -36 -28
h-46z" />
    <glyph glyph-name="uni1EC5" unicode="&#x1ec5;" horiz-adv-x="440" 
d="M279 226h126q1 -9 1 -31.5v-39.5q-4 -88 -45 -126t-132 -38q-94 0 -136.5 38t-47.5 126q-1 22 -1.5 60.5t-0.5 82t0.5 82.5t1.5 64q6 89 48.5 127t134.5 38q91 0 132.5 -37.5t45.5 -122.5q0 -13 0.5 -41t0 -63t-1.5 -67h-233q0 -35 1 -69t1 -68q1 -29 13.5 -41t41.5 -12
q26 0 37.5 12t12.5 41q2 29 0 85zM228 512q-29 0 -41 -11.5t-13 -37.5q0 -25 -0.5 -48t-1.5 -47h108q0 33 -0.5 59.5t-0.5 35.5q-1 26 -13 37.5t-38 11.5zM106 641l78 133h75l78 -133h-84l-31 61l-32 -61h-84zM90 810q3 44 25.5 63.5t60.5 18.5q28 -1 44 -9t28.5 -16
t30.5 -8q17 0 27 9t10 24h46q-4 -88 -84 -87q-27 0 -44 8t-31 16.5t-31 8.5q-33 2 -36 -28h-46z" />
    <glyph glyph-name="uni1EC6" unicode="&#x1ec6;" horiz-adv-x="382" 
d="M43 0v800h316v-114h-187v-223h177v-114h-177v-235h187v-114h-316zM154 -130v81h100v-81h-100zM57 839l103 91h76l103 -91h-85l-56 54l-56 -54h-85z" />
    <glyph glyph-name="uni1EC7" unicode="&#x1ec7;" horiz-adv-x="440" 
d="M279 226h126q1 -9 1 -31.5v-39.5q-4 -88 -45 -126t-132 -38q-94 0 -136.5 38t-47.5 126q-1 22 -1.5 60.5t-0.5 82t0.5 82.5t1.5 64q6 89 48.5 127t134.5 38q91 0 132.5 -37.5t45.5 -122.5q0 -13 0.5 -41t0 -63t-1.5 -67h-233q0 -35 1 -69t1 -68q1 -29 13.5 -41t41.5 -12
q26 0 37.5 12t12.5 41q2 29 0 85zM228 512q-29 0 -41 -11.5t-13 -37.5q0 -25 -0.5 -48t-1.5 -47h108q0 33 -0.5 59.5t-0.5 35.5q-1 26 -13 37.5t-38 11.5zM175 -168v100h101v-100h-101zM106 641l78 133h75l78 -133h-84l-31 61l-32 -61h-84z" />
    <glyph glyph-name="uni1EC8" unicode="&#x1ec8;" horiz-adv-x="215" 
d="M43 0v800h129v-800h-129zM55 962q24 7 58 7q74 0 74 -65q0 -21 -7.5 -37t-29 -23.5t-65.5 -3.5v41h28q24 0 24 23q0 19 -24 19q-32 0 -47 -2z" />
    <glyph glyph-name="uni1EC9" unicode="&#x1ec9;" horiz-adv-x="215" 
d="M43 0v600h129v-600h-129zM68 795q24 7 58 7q74 0 74 -65q0 -31 -15 -48t-52 -16v-32h-46v67l6 6h33q24 0 24 23q0 19 -24 19q-32 0 -47 -3z" />
    <glyph glyph-name="uni1ECA" unicode="&#x1eca;" horiz-adv-x="215" 
d="M43 0v800h129v-800h-129zM57 -130v81h100v-81h-100z" />
    <glyph glyph-name="uni1ECB" unicode="&#x1ecb;" horiz-adv-x="219" 
d="M40 695v105h139v-105h-139zM45 0v600h129v-600h-129zM59 -168v100h101v-100h-101z" />
    <glyph glyph-name="uni1ECC" unicode="&#x1ecc;" horiz-adv-x="474" 
d="M237 -9q-101 0 -145.5 42.5t-46.5 140.5q-2 110 -2 226.5t2 226.5q2 98 46.5 140t145.5 42q100 0 143.5 -42t46.5 -140q3 -111 3 -227t-3 -226q-3 -98 -46.5 -140.5t-143.5 -42.5zM237 96q59 0 61 54q3 76 4 163.5t0 174.5t-4 162q-2 54 -61 54q-61 0 -63 -54
q-2 -75 -3 -162t0 -174.5t3 -163.5q2 -54 63 -54zM187 -130v81h100v-81h-100z" />
    <glyph glyph-name="uni1ECD" unicode="&#x1ecd;" horiz-adv-x="464" 
d="M232 -9q-66 0 -106 18t-58.5 58.5t-22.5 106.5q0 23 -1 55.5t-1 69t0.5 70t1.5 58.5q4 65 22.5 105t58 58.5t106.5 18.5q68 0 107.5 -18.5t57.5 -58.5t21 -105q2 -31 2.5 -78t0 -95t-2.5 -80q-3 -65 -21 -105.5t-57.5 -59t-107.5 -18.5zM232 88q31 0 44 13.5t13 40.5
q5 158 0 317q0 27 -13 40t-44 13q-29 0 -43 -13t-15 -40q-5 -159 0 -317q2 -54 58 -54zM182 -168v100h101v-100h-101z" />
    <glyph glyph-name="uni1ECE" unicode="&#x1ece;" horiz-adv-x="474" 
d="M237 -9q-101 0 -145.5 42.5t-46.5 140.5q-2 110 -2 226.5t2 226.5q2 98 46.5 140t145.5 42q100 0 143.5 -42t46.5 -140q3 -111 3 -227t-3 -226q-3 -98 -46.5 -140.5t-143.5 -42.5zM237 96q59 0 61 54q3 76 4 163.5t0 174.5t-4 162q-2 54 -61 54q-61 0 -63 -54
q-2 -75 -3 -162t0 -174.5t3 -163.5q2 -54 63 -54zM185 962q24 7 58 7q74 0 74 -65q0 -21 -7.5 -37t-29 -23.5t-65.5 -3.5v41h28q24 0 24 23q0 19 -24 19q-32 0 -47 -2z" />
    <glyph glyph-name="uni1ECF" unicode="&#x1ecf;" horiz-adv-x="464" 
d="M232 -9q-66 0 -106 18t-58.5 58.5t-22.5 106.5q0 23 -1 55.5t-1 69t0.5 70t1.5 58.5q4 65 22.5 105t58 58.5t106.5 18.5q68 0 107.5 -18.5t57.5 -58.5t21 -105q2 -31 2.5 -78t0 -95t-2.5 -80q-3 -65 -21 -105.5t-57.5 -59t-107.5 -18.5zM232 88q31 0 44 13.5t13 40.5
q5 158 0 317q0 27 -13 40t-44 13q-29 0 -43 -13t-15 -40q-5 -159 0 -317q2 -54 58 -54zM193 795q24 7 58 7q74 0 74 -65q0 -31 -15 -48t-52 -16v-32h-46v67l6 6h33q24 0 24 23q0 19 -24 19q-32 0 -47 -3z" />
    <glyph glyph-name="uni1ED0" unicode="&#x1ed0;" horiz-adv-x="474" 
d="M237 -9q-101 0 -145.5 42.5t-46.5 140.5q-2 110 -2 226.5t2 226.5q2 98 46.5 140t145.5 42q100 0 143.5 -42t46.5 -140q3 -111 3 -227t-3 -226q-3 -98 -46.5 -140.5t-143.5 -42.5zM237 96q59 0 61 54q3 76 4 163.5t0 174.5t-4 162q-2 54 -61 54q-61 0 -63 -54
q-2 -75 -3 -162t0 -174.5t3 -163.5q2 -54 63 -54zM92 839l103 91h76l103 -91h-85l-56 54l-56 -54h-85zM212 976v3l104 81h76v-3l-112 -81h-68z" />
    <glyph glyph-name="uni1ED1" unicode="&#x1ed1;" horiz-adv-x="464" 
d="M232 -9q-66 0 -106 18t-58.5 58.5t-22.5 106.5q0 23 -1 55.5t-1 69t0.5 70t1.5 58.5q4 65 22.5 105t58 58.5t106.5 18.5q68 0 107.5 -18.5t57.5 -58.5t21 -105q2 -31 2.5 -78t0 -95t-2.5 -80q-3 -65 -21 -105.5t-57.5 -59t-107.5 -18.5zM232 88q31 0 44 13.5t13 40.5
q5 158 0 317q0 27 -13 40t-44 13q-29 0 -43 -13t-15 -40q-5 -159 0 -317q2 -54 58 -54zM113 641l78 133h75l78 -133h-84l-31 61l-32 -61h-84zM207 802v3l104 81h76v-3l-112 -81h-68z" />
    <glyph glyph-name="uni1ED2" unicode="&#x1ed2;" horiz-adv-x="474" 
d="M237 -9q-101 0 -145.5 42.5t-46.5 140.5q-2 110 -2 226.5t2 226.5q2 98 46.5 140t145.5 42q100 0 143.5 -42t46.5 -140q3 -111 3 -227t-3 -226q-3 -98 -46.5 -140.5t-143.5 -42.5zM237 96q59 0 61 54q3 76 4 163.5t0 174.5t-4 162q-2 54 -61 54q-61 0 -63 -54
q-2 -75 -3 -162t0 -174.5t3 -163.5q2 -54 63 -54zM92 839l103 91h76l103 -91h-85l-56 54l-56 -54h-85zM75 1053v3h76l104 -81v-3h-68z" />
    <glyph glyph-name="uni1ED3" unicode="&#x1ed3;" horiz-adv-x="464" 
d="M232 -9q-66 0 -106 18t-58.5 58.5t-22.5 106.5q0 23 -1 55.5t-1 69t0.5 70t1.5 58.5q4 65 22.5 105t58 58.5t106.5 18.5q68 0 107.5 -18.5t57.5 -58.5t21 -105q2 -31 2.5 -78t0 -95t-2.5 -80q-3 -65 -21 -105.5t-57.5 -59t-107.5 -18.5zM232 88q31 0 44 13.5t13 40.5
q5 158 0 317q0 27 -13 40t-44 13q-29 0 -43 -13t-15 -40q-5 -159 0 -317q2 -54 58 -54zM113 641l78 133h75l78 -133h-84l-31 61l-32 -61h-84zM75 883v3h76l104 -81v-3h-68z" />
    <glyph glyph-name="uni1ED4" unicode="&#x1ed4;" horiz-adv-x="474" 
d="M237 -9q-101 0 -145.5 42.5t-46.5 140.5q-2 110 -2 226.5t2 226.5q2 98 46.5 140t145.5 42q100 0 143.5 -42t46.5 -140q3 -111 3 -227t-3 -226q-3 -98 -46.5 -140.5t-143.5 -42.5zM237 96q59 0 61 54q3 76 4 163.5t0 174.5t-4 162q-2 54 -61 54q-61 0 -63 -54
q-2 -75 -3 -162t0 -174.5t3 -163.5q2 -54 63 -54zM92 839l103 91h76l103 -91h-85l-56 54l-56 -54h-85zM288 1047q24 7 58 7q74 0 74 -65q0 -21 -7.5 -37t-29 -23.5t-65.5 -3.5v41h28q24 0 24 23q0 19 -24 19q-32 0 -47 -2z" />
    <glyph glyph-name="uni1ED5" unicode="&#x1ed5;" horiz-adv-x="464" 
d="M232 -9q-66 0 -106 18t-58.5 58.5t-22.5 106.5q0 23 -1 55.5t-1 69t0.5 70t1.5 58.5q4 65 22.5 105t58 58.5t106.5 18.5q68 0 107.5 -18.5t57.5 -58.5t21 -105q2 -31 2.5 -78t0 -95t-2.5 -80q-3 -65 -21 -105.5t-57.5 -59t-107.5 -18.5zM232 88q31 0 44 13.5t13 40.5
q5 158 0 317q0 27 -13 40t-44 13q-29 0 -43 -13t-15 -40q-5 -159 0 -317q2 -54 58 -54zM373 773v-18h-47v54l6 6h34q23 0 23 23q0 19 -23 19q-32 0 -48 -3l-10 41q23 8 58 8q73 0 73 -65q0 -32 -15 -48.5t-51 -16.5zM113 641l78 133h75l78 -133h-84l-31 61l-32 -61h-84z" />
    <glyph glyph-name="uni1ED6" unicode="&#x1ed6;" horiz-adv-x="474" 
d="M237 -9q-101 0 -145.5 42.5t-46.5 140.5q-2 110 -2 226.5t2 226.5q2 98 46.5 140t145.5 42q100 0 143.5 -42t46.5 -140q3 -111 3 -227t-3 -226q-3 -98 -46.5 -140.5t-143.5 -42.5zM237 96q59 0 61 54q3 76 4 163.5t0 174.5t-4 162q-2 54 -61 54q-61 0 -63 -54
q-2 -75 -3 -162t0 -174.5t3 -163.5q2 -54 63 -54zM92 839l103 91h76l103 -91h-85l-56 54l-56 -54h-85zM99 967q3 44 25.5 63.5t60.5 18.5q28 -1 44 -9t28.5 -16t30.5 -8q17 0 27 9t10 24h46q-4 -88 -84 -87q-27 0 -44 8t-31 16.5t-31 8.5q-33 2 -36 -28h-46z" />
    <glyph glyph-name="uni1ED7" unicode="&#x1ed7;" horiz-adv-x="464" 
d="M232 -9q-66 0 -106 18t-58.5 58.5t-22.5 106.5q0 23 -1 55.5t-1 69t0.5 70t1.5 58.5q4 65 22.5 105t58 58.5t106.5 18.5q68 0 107.5 -18.5t57.5 -58.5t21 -105q2 -31 2.5 -78t0 -95t-2.5 -80q-3 -65 -21 -105.5t-57.5 -59t-107.5 -18.5zM232 88q31 0 44 13.5t13 40.5
q5 158 0 317q0 27 -13 40t-44 13q-29 0 -43 -13t-15 -40q-5 -159 0 -317q2 -54 58 -54zM112 641l78 133h75l78 -133h-84l-31 61l-32 -61h-84zM96 810q3 44 25.5 63.5t60.5 18.5q28 -1 44 -9t28.5 -16t30.5 -8q17 0 27 9t10 24h46q-4 -88 -84 -87q-27 0 -44 8t-31 16.5
t-31 8.5q-33 2 -36 -28h-46z" />
    <glyph glyph-name="uni1ED8" unicode="&#x1ed8;" horiz-adv-x="474" 
d="M237 -9q-101 0 -145.5 42.5t-46.5 140.5q-2 110 -2 226.5t2 226.5q2 98 46.5 140t145.5 42q100 0 143.5 -42t46.5 -140q3 -111 3 -227t-3 -226q-3 -98 -46.5 -140.5t-143.5 -42.5zM237 96q59 0 61 54q3 76 4 163.5t0 174.5t-4 162q-2 54 -61 54q-61 0 -63 -54
q-2 -75 -3 -162t0 -174.5t3 -163.5q2 -54 63 -54zM187 -130v81h100v-81h-100zM92 839l103 91h76l103 -91h-85l-56 54l-56 -54h-85z" />
    <glyph glyph-name="uni1ED9" unicode="&#x1ed9;" horiz-adv-x="464" 
d="M232 -9q-66 0 -106 18t-58.5 58.5t-22.5 106.5q0 23 -1 55.5t-1 69t0.5 70t1.5 58.5q4 65 22.5 105t58 58.5t106.5 18.5q68 0 107.5 -18.5t57.5 -58.5t21 -105q2 -31 2.5 -78t0 -95t-2.5 -80q-3 -65 -21 -105.5t-57.5 -59t-107.5 -18.5zM232 88q31 0 44 13.5t13 40.5
q5 158 0 317q0 27 -13 40t-44 13q-29 0 -43 -13t-15 -40q-5 -159 0 -317q2 -54 58 -54zM182 -168v100h101v-100h-101zM113 641l78 133h75l78 -133h-84l-31 61l-32 -61h-84z" />
    <glyph glyph-name="uni1EDA" unicode="&#x1eda;" horiz-adv-x="538" 
d="M237 -9q-101 0 -145.5 42.5t-46.5 140.5q-2 110 -2 226.5t2 226.5q2 98 46.5 140t145.5 42q100 0 143.5 -42t46.5 -140q3 -111 3 -227t-3 -226q-3 -98 -46.5 -140.5t-143.5 -42.5zM237 96q59 0 61 54q3 76 4 163.5t0 174.5t-4 162q-2 54 -61 54q-61 0 -63 -54
q-2 -75 -3 -162t0 -174.5t3 -163.5q2 -54 63 -54zM411 571h-20t-18 2v59q10 0 19 -0.5t19 -0.5q34 2 50.5 20t18.5 56q0 9 0.5 27.5t0 37t-0.5 28.5h66q0 -9 0.5 -28t0 -37.5t-0.5 -27.5q-4 -73 -35.5 -104.5t-99.5 -31.5zM211 847v3l104 81h76v-3l-112 -81h-68z" />
    <glyph glyph-name="uni1EDB" unicode="&#x1edb;" horiz-adv-x="528" 
d="M232 -9q-66 0 -106 18t-58.5 58.5t-22.5 106.5q0 23 -1 55.5t-1 69t0.5 70t1.5 58.5q4 65 22.5 105t58 58.5t106.5 18.5q68 0 107.5 -18.5t57.5 -58.5t21 -105q2 -31 2.5 -78t0 -95t-2.5 -80q-3 -65 -21 -105.5t-57.5 -59t-107.5 -18.5zM232 88q31 0 44 13.5t13 40.5
q5 158 0 317q0 27 -13 40t-44 13q-29 0 -43 -13t-15 -40q-5 -159 0 -317q2 -54 58 -54zM401 371h-20t-18 2v59q10 0 19 -0.5t19 -0.5q34 2 50.5 20t18.5 56q0 9 0.5 27.5t0 37t-0.5 28.5h66q0 -9 0.5 -28t0 -37.5t-0.5 -27.5q-4 -73 -35.5 -104.5t-99.5 -31.5zM195 658
l82 133h84l-86 -133h-80z" />
    <glyph glyph-name="uni1EDC" unicode="&#x1edc;" horiz-adv-x="538" 
d="M237 -9q-101 0 -145.5 42.5t-46.5 140.5q-2 110 -2 226.5t2 226.5q2 98 46.5 140t145.5 42q100 0 143.5 -42t46.5 -140q3 -111 3 -227t-3 -226q-3 -98 -46.5 -140.5t-143.5 -42.5zM237 96q59 0 61 54q3 76 4 163.5t0 174.5t-4 162q-2 54 -61 54q-61 0 -63 -54
q-2 -75 -3 -162t0 -174.5t3 -163.5q2 -54 63 -54zM411 571h-20t-18 2v59q10 0 19 -0.5t19 -0.5q34 2 50.5 20t18.5 56q0 9 0.5 27.5t0 37t-0.5 28.5h66q0 -9 0.5 -28t0 -37.5t-0.5 -27.5q-4 -73 -35.5 -104.5t-99.5 -31.5zM97 928v3h76l104 -81v-3h-68z" />
    <glyph glyph-name="uni1EDD" unicode="&#x1edd;" horiz-adv-x="528" 
d="M232 -9q-66 0 -106 18t-58.5 58.5t-22.5 106.5q0 23 -1 55.5t-1 69t0.5 70t1.5 58.5q4 65 22.5 105t58 58.5t106.5 18.5q68 0 107.5 -18.5t57.5 -58.5t21 -105q2 -31 2.5 -78t0 -95t-2.5 -80q-3 -65 -21 -105.5t-57.5 -59t-107.5 -18.5zM232 88q31 0 44 13.5t13 40.5
q5 158 0 317q0 27 -13 40t-44 13q-29 0 -43 -13t-15 -40q-5 -159 0 -317q2 -54 58 -54zM401 371h-20t-18 2v59q10 0 19 -0.5t19 -0.5q34 2 50.5 20t18.5 56q0 9 0.5 27.5t0 37t-0.5 28.5h66q0 -9 0.5 -28t0 -37.5t-0.5 -27.5q-4 -73 -35.5 -104.5t-99.5 -31.5zM106 791h84
l86 -133h-84z" />
    <glyph glyph-name="uni1EDE" unicode="&#x1ede;" horiz-adv-x="538" 
d="M237 -9q-101 0 -145.5 42.5t-46.5 140.5q-2 110 -2 226.5t2 226.5q2 98 46.5 140t145.5 42q100 0 143.5 -42t46.5 -140q3 -111 3 -227t-3 -226q-3 -98 -46.5 -140.5t-143.5 -42.5zM237 96q59 0 61 54q3 76 4 163.5t0 174.5t-4 162q-2 54 -61 54q-61 0 -63 -54
q-2 -75 -3 -162t0 -174.5t3 -163.5q2 -54 63 -54zM411 571h-20t-18 2v59q10 0 19 -0.5t19 -0.5q34 2 50.5 20t18.5 56q0 9 0.5 27.5t0 37t-0.5 28.5h66q0 -9 0.5 -28t0 -37.5t-0.5 -27.5q-4 -73 -35.5 -104.5t-99.5 -31.5zM185 962q24 7 58 7q74 0 74 -65q0 -21 -7.5 -37
t-29 -23.5t-65.5 -3.5v41h28q24 0 24 23q0 19 -24 19q-32 0 -47 -2z" />
    <glyph glyph-name="uni1EDF" unicode="&#x1edf;" horiz-adv-x="528" 
d="M232 -9q-66 0 -106 18t-58.5 58.5t-22.5 106.5q0 23 -1 55.5t-1 69t0.5 70t1.5 58.5q4 65 22.5 105t58 58.5t106.5 18.5q68 0 107.5 -18.5t57.5 -58.5t21 -105q2 -31 2.5 -78t0 -95t-2.5 -80q-3 -65 -21 -105.5t-57.5 -59t-107.5 -18.5zM232 88q31 0 44 13.5t13 40.5
q5 158 0 317q0 27 -13 40t-44 13q-29 0 -43 -13t-15 -40q-5 -159 0 -317q2 -54 58 -54zM401 371h-20t-18 2v59q10 0 19 -0.5t19 -0.5q34 2 50.5 20t18.5 56q0 9 0.5 27.5t0 37t-0.5 28.5h66q0 -9 0.5 -28t0 -37.5t-0.5 -27.5q-4 -73 -35.5 -104.5t-99.5 -31.5zM193 795
q24 7 58 7q74 0 74 -65q0 -31 -15 -48t-52 -16v-32h-46v67l6 6h33q24 0 24 23q0 19 -24 19q-32 0 -47 -3z" />
    <glyph glyph-name="uni1EE0" unicode="&#x1ee0;" horiz-adv-x="538" 
d="M237 -9q-101 0 -145.5 42.5t-46.5 140.5q-2 110 -2 226.5t2 226.5q2 98 46.5 140t145.5 42q100 0 143.5 -42t46.5 -140q3 -111 3 -227t-3 -226q-3 -98 -46.5 -140.5t-143.5 -42.5zM237 96q59 0 61 54q3 76 4 163.5t0 174.5t-4 162q-2 54 -61 54q-61 0 -63 -54
q-2 -75 -3 -162t0 -174.5t3 -163.5q2 -54 63 -54zM411 571h-20t-18 2v59q10 0 19 -0.5t19 -0.5q34 2 50.5 20t18.5 56q0 9 0.5 27.5t0 37t-0.5 28.5h66q0 -9 0.5 -28t0 -37.5t-0.5 -27.5q-4 -73 -35.5 -104.5t-99.5 -31.5zM101 838q3 44 25.5 63.5t60.5 18.5q28 -1 44 -9
t28.5 -16t30.5 -8q17 0 27 9t10 24h46q-4 -88 -84 -87q-27 0 -44 8t-31 16.5t-31 8.5q-33 2 -36 -28h-46z" />
    <glyph glyph-name="uni1EE1" unicode="&#x1ee1;" horiz-adv-x="528" 
d="M232 -9q-66 0 -106 18t-58.5 58.5t-22.5 106.5q0 23 -1 55.5t-1 69t0.5 70t1.5 58.5q4 65 22.5 105t58 58.5t106.5 18.5q68 0 107.5 -18.5t57.5 -58.5t21 -105q2 -31 2.5 -78t0 -95t-2.5 -80q-3 -65 -21 -105.5t-57.5 -59t-107.5 -18.5zM232 88q31 0 44 13.5t13 40.5
q5 158 0 317q0 27 -13 40t-44 13q-29 0 -43 -13t-15 -40q-5 -159 0 -317q2 -54 58 -54zM401 371h-20t-18 2v59q10 0 19 -0.5t19 -0.5q34 2 50.5 20t18.5 56q0 9 0.5 27.5t0 37t-0.5 28.5h66q0 -9 0.5 -28t0 -37.5t-0.5 -27.5q-4 -73 -35.5 -104.5t-99.5 -31.5zM84 659
q4 58 29 82t63 24q31 -1 49 -12t32 -22t33 -12q39 0 40 34h50q-3 -53 -27.5 -77t-64.5 -23q-28 0 -47 11t-34.5 22.5t-33.5 12.5q-35 1 -39 -40h-50z" />
    <glyph glyph-name="uni1EE2" unicode="&#x1ee2;" horiz-adv-x="538" 
d="M237 -9q-101 0 -145.5 42.5t-46.5 140.5q-2 110 -2 226.5t2 226.5q2 98 46.5 140t145.5 42q100 0 143.5 -42t46.5 -140q3 -111 3 -227t-3 -226q-3 -98 -46.5 -140.5t-143.5 -42.5zM237 96q59 0 61 54q3 76 4 163.5t0 174.5t-4 162q-2 54 -61 54q-61 0 -63 -54
q-2 -75 -3 -162t0 -174.5t3 -163.5q2 -54 63 -54zM411 571h-20t-18 2v59q10 0 19 -0.5t19 -0.5q34 2 50.5 20t18.5 56q0 9 0.5 27.5t0 37t-0.5 28.5h66q0 -9 0.5 -28t0 -37.5t-0.5 -27.5q-4 -73 -35.5 -104.5t-99.5 -31.5zM187 -130v81h100v-81h-100z" />
    <glyph glyph-name="uni1EE3" unicode="&#x1ee3;" horiz-adv-x="528" 
d="M232 -9q-66 0 -106 18t-58.5 58.5t-22.5 106.5q0 23 -1 55.5t-1 69t0.5 70t1.5 58.5q4 65 22.5 105t58 58.5t106.5 18.5q68 0 107.5 -18.5t57.5 -58.5t21 -105q2 -31 2.5 -78t0 -95t-2.5 -80q-3 -65 -21 -105.5t-57.5 -59t-107.5 -18.5zM232 88q31 0 44 13.5t13 40.5
q5 158 0 317q0 27 -13 40t-44 13q-29 0 -43 -13t-15 -40q-5 -159 0 -317q2 -54 58 -54zM401 371h-20t-18 2v59q10 0 19 -0.5t19 -0.5q34 2 50.5 20t18.5 56q0 9 0.5 27.5t0 37t-0.5 28.5h66q0 -9 0.5 -28t0 -37.5t-0.5 -27.5q-4 -73 -35.5 -104.5t-99.5 -31.5zM182 -168v100
h101v-100h-101z" />
    <glyph glyph-name="uni1EE4" unicode="&#x1ee4;" 
d="M236 -9q-102 0 -146 42.5t-45 140.5q-4 313 0 626h129q-2 -104 -2 -214.5t0.5 -221t1.5 -214.5q0 -54 62 -54q61 0 61 54q1 104 1.5 214.5t0.5 221t-2 214.5h129q4 -313 0 -626q-1 -98 -45 -140.5t-145 -42.5zM186 -130v81h100v-81h-100z" />
    <glyph glyph-name="uni1EE5" unicode="&#x1ee5;" 
d="M173 -9q-59 0 -93 36t-34 120v453h129v-464q0 -51 47 -51q22 0 44.5 13t31.5 35v467h129v-600h-129v62h-18q-21 -38 -46.5 -54.5t-60.5 -16.5zM185 -168v100h101v-100h-101z" />
    <glyph glyph-name="uni1EE6" unicode="&#x1ee6;" 
d="M236 -9q-102 0 -146 42.5t-45 140.5q-4 313 0 626h129q-2 -104 -2 -214.5t0.5 -221t1.5 -214.5q0 -54 62 -54q61 0 61 54q1 104 1.5 214.5t0.5 221t-2 214.5h129q4 -313 0 -626q-1 -98 -45 -140.5t-145 -42.5zM183 962q24 7 58 7q74 0 74 -65q0 -21 -7.5 -37t-29 -23.5
t-65.5 -3.5v41h28q24 0 24 23q0 19 -24 19q-32 0 -47 -2z" />
    <glyph glyph-name="uni1EE7" unicode="&#x1ee7;" 
d="M173 -9q-59 0 -93 36t-34 120v453h129v-464q0 -51 47 -51q22 0 44.5 13t31.5 35v467h129v-600h-129v62h-18q-21 -38 -46.5 -54.5t-60.5 -16.5zM196 795q24 7 58 7q74 0 74 -65q0 -31 -15 -48t-52 -16v-32h-46v67l6 6h33q24 0 24 23q0 19 -24 19q-32 0 -47 -3z" />
    <glyph glyph-name="uni1EE8" unicode="&#x1ee8;" horiz-adv-x="543" 
d="M236 -9q-102 0 -146 42.5t-45 140.5q-4 313 0 626h129q-2 -104 -2 -214.5t0.5 -221t1.5 -214.5q0 -54 62 -54q61 0 61 54q1 104 1.5 214.5t0.5 221t-2 214.5h129q4 -313 0 -626q-1 -98 -45 -140.5t-145 -42.5zM407 571h-20t-18 2v59q10 0 19 -0.5t19 -0.5q34 2 50.5 20
t18.5 56q0 9 0.5 27.5t0 37t-0.5 28.5h66q0 -9 0.5 -28t0 -37.5t-0.5 -27.5q-4 -73 -35.5 -104.5t-99.5 -31.5zM210 847v3l104 81h76v-3l-112 -81h-68z" />
    <glyph glyph-name="uni1EE9" unicode="&#x1ee9;" horiz-adv-x="541" 
d="M173 -9q-59 0 -93 36t-34 120v453h129v-464q0 -51 47 -51q22 0 44.5 13t31.5 35v467h129v-600h-129v62h-18q-21 -38 -46.5 -54.5t-60.5 -16.5zM408 371h-20t-18 2v59q10 0 19 -0.5t19 -0.5q34 2 50.5 20t18.5 56q0 9 0.5 27.5t0 37t-0.5 28.5h66q0 -9 0.5 -28t0 -37.5
t-0.5 -27.5q-4 -73 -35.5 -104.5t-99.5 -31.5zM198 658l82 133h84l-86 -133h-80z" />
    <glyph glyph-name="uni1EEA" unicode="&#x1eea;" horiz-adv-x="543" 
d="M236 -9q-102 0 -146 42.5t-45 140.5q-4 313 0 626h129q-2 -104 -2 -214.5t0.5 -221t1.5 -214.5q0 -54 62 -54q61 0 61 54q1 104 1.5 214.5t0.5 221t-2 214.5h129q4 -313 0 -626q-1 -98 -45 -140.5t-145 -42.5zM407 571h-20t-18 2v59q10 0 19 -0.5t19 -0.5q34 2 50.5 20
t18.5 56q0 9 0.5 27.5t0 37t-0.5 28.5h66q0 -9 0.5 -28t0 -37.5t-0.5 -27.5q-4 -73 -35.5 -104.5t-99.5 -31.5zM95 928v3h76l104 -81v-3h-68z" />
    <glyph glyph-name="uni1EEB" unicode="&#x1eeb;" horiz-adv-x="541" 
d="M173 -9q-59 0 -93 36t-34 120v453h129v-464q0 -51 47 -51q22 0 44.5 13t31.5 35v467h129v-600h-129v62h-18q-21 -38 -46.5 -54.5t-60.5 -16.5zM408 371h-20t-18 2v59q10 0 19 -0.5t19 -0.5q34 2 50.5 20t18.5 56q0 9 0.5 27.5t0 37t-0.5 28.5h66q0 -9 0.5 -28t0 -37.5
t-0.5 -27.5q-4 -73 -35.5 -104.5t-99.5 -31.5zM109 791h84l86 -133h-84z" />
    <glyph glyph-name="uni1EEC" unicode="&#x1eec;" horiz-adv-x="543" 
d="M236 -9q-102 0 -146 42.5t-45 140.5q-4 313 0 626h129q-2 -104 -2 -214.5t0.5 -221t1.5 -214.5q0 -54 62 -54q61 0 61 54q1 104 1.5 214.5t0.5 221t-2 214.5h129q4 -313 0 -626q-1 -98 -45 -140.5t-145 -42.5zM407 571h-20t-18 2v59q10 0 19 -0.5t19 -0.5q34 2 50.5 20
t18.5 56q0 9 0.5 27.5t0 37t-0.5 28.5h66q0 -9 0.5 -28t0 -37.5t-0.5 -27.5q-4 -73 -35.5 -104.5t-99.5 -31.5zM183 962q24 7 58 7q74 0 74 -65q0 -21 -7.5 -37t-29 -23.5t-65.5 -3.5v41h28q24 0 24 23q0 19 -24 19q-32 0 -47 -2z" />
    <glyph glyph-name="uni1EED" unicode="&#x1eed;" horiz-adv-x="541" 
d="M173 -9q-59 0 -93 36t-34 120v453h129v-464q0 -51 47 -51q22 0 44.5 13t31.5 35v467h129v-600h-129v62h-18q-21 -38 -46.5 -54.5t-60.5 -16.5zM408 371h-20t-18 2v59q10 0 19 -0.5t19 -0.5q34 2 50.5 20t18.5 56q0 9 0.5 27.5t0 37t-0.5 28.5h66q0 -9 0.5 -28t0 -37.5
t-0.5 -27.5q-4 -73 -35.5 -104.5t-99.5 -31.5zM195 795q24 7 58 7q74 0 74 -65q0 -31 -15 -48t-52 -16v-32h-46v67l6 6h33q24 0 24 23q0 19 -24 19q-32 0 -47 -3z" />
    <glyph glyph-name="uni1EEE" unicode="&#x1eee;" horiz-adv-x="543" 
d="M236 -9q-102 0 -146 42.5t-45 140.5q-4 313 0 626h129q-2 -104 -2 -214.5t0.5 -221t1.5 -214.5q0 -54 62 -54q61 0 61 54q1 104 1.5 214.5t0.5 221t-2 214.5h129q4 -313 0 -626q-1 -98 -45 -140.5t-145 -42.5zM407 571h-20t-18 2v59q10 0 19 -0.5t19 -0.5q34 2 50.5 20
t18.5 56q0 9 0.5 27.5t0 37t-0.5 28.5h66q0 -9 0.5 -28t0 -37.5t-0.5 -27.5q-4 -73 -35.5 -104.5t-99.5 -31.5zM100 838q3 44 25.5 63.5t60.5 18.5q28 -1 44 -9t28.5 -16t30.5 -8q17 0 27 9t10 24h46q-4 -88 -84 -87q-27 0 -44 8t-31 16.5t-31 8.5q-33 2 -36 -28h-46z" />
    <glyph glyph-name="uni1EEF" unicode="&#x1eef;" horiz-adv-x="541" 
d="M173 -9q-59 0 -93 36t-34 120v453h129v-464q0 -51 47 -51q22 0 44.5 13t31.5 35v467h129v-600h-129v62h-18q-21 -38 -46.5 -54.5t-60.5 -16.5zM408 371h-20t-18 2v59q10 0 19 -0.5t19 -0.5q34 2 50.5 20t18.5 56q0 9 0.5 27.5t0 37t-0.5 28.5h66q0 -9 0.5 -28t0 -37.5
t-0.5 -27.5q-4 -73 -35.5 -104.5t-99.5 -31.5zM87 659q4 58 29 82t63 24q31 -1 49 -12t32 -22t33 -12q39 0 40 34h50q-3 -53 -27.5 -77t-64.5 -23q-28 0 -47 11t-34.5 22.5t-33.5 12.5q-35 1 -39 -40h-50z" />
    <glyph glyph-name="uni1EF0" unicode="&#x1ef0;" horiz-adv-x="543" 
d="M236 -9q-102 0 -146 42.5t-45 140.5q-4 313 0 626h129q-2 -104 -2 -214.5t0.5 -221t1.5 -214.5q0 -54 62 -54q61 0 61 54q1 104 1.5 214.5t0.5 221t-2 214.5h129q4 -313 0 -626q-1 -98 -45 -140.5t-145 -42.5zM407 571h-20t-18 2v59q10 0 19 -0.5t19 -0.5q34 2 50.5 20
t18.5 56q0 9 0.5 27.5t0 37t-0.5 28.5h66q0 -9 0.5 -28t0 -37.5t-0.5 -27.5q-4 -73 -35.5 -104.5t-99.5 -31.5zM186 -130v81h100v-81h-100z" />
    <glyph glyph-name="uni1EF1" unicode="&#x1ef1;" horiz-adv-x="541" 
d="M173 -9q-59 0 -93 36t-34 120v453h129v-464q0 -51 47 -51q22 0 44.5 13t31.5 35v467h129v-600h-129v62h-18q-21 -38 -46.5 -54.5t-60.5 -16.5zM408 371h-20t-18 2v59q10 0 19 -0.5t19 -0.5q34 2 50.5 20t18.5 56q0 9 0.5 27.5t0 37t-0.5 28.5h66q0 -9 0.5 -28t0 -37.5
t-0.5 -27.5q-4 -73 -35.5 -104.5t-99.5 -31.5zM185 -168v100h101v-100h-101z" />
    <glyph glyph-name="Ygrave" unicode="&#x1ef2;" horiz-adv-x="452" 
d="M161 0v196l-10 42l-129 562h132l41 -202l18 -233h26l18 233l42 202h131l-129 -561l-10 -43v-196h-130zM81 928v3h76l104 -81v-3h-68z" />
    <glyph glyph-name="ygrave" unicode="&#x1ef3;" horiz-adv-x="430" 
d="M127 0l-106 600h132l34 -276l20 -228h25l17 228l28 276h131l-98 -645q-9 -58 -30.5 -94t-62 -53t-109.5 -17q-16 0 -34.5 2t-35.5 5v96q13 -1 34 -2t36 -1q39 0 54 12t19 42l7 55h-61zM88 791h84l86 -133h-84z" />
    <glyph glyph-name="uni1EF4" unicode="&#x1ef4;" horiz-adv-x="452" 
d="M161 0v196l-10 42l-129 562h132l41 -202l18 -233h26l18 233l42 202h131l-129 -561l-10 -43v-196h-130zM176 -130v81h100v-81h-100z" />
    </font>
</defs>
</svg>
