<?xml version="1.0" standalone="no"?>
<!DOCTYPE svg PUBLIC "-//W3C//DTD SVG 1.1//EN" "http://www.w3.org/Graphics/SVG/1.1/DTD/svg11.dtd" >
<svg xmlns="http://www.w3.org/2000/svg" xmlns:xlink="http://www.w3.org/1999/xlink" version="1.1">
<metadata>
Created by FontForge 20201107 at Wed Sep 11 16:34:46 2019
 By 
Copyright 2019 The Big Shoulders Project Authors (https://github.com/xotypeco/big_shoulders)
</metadata>
<defs>
<font id="BigShouldersDisplay-Black" horiz-adv-x="0" >
  <font-face 
    font-family="Big Shoulders Display Black"
    font-weight="900"
    font-stretch="normal"
    units-per-em="1000"
    panose-1="0 0 0 0 0 0 0 0 0 0"
    ascent="800"
    descent="-200"
    x-height="600"
    cap-height="800"
    bbox="-317 -339 958 1114"
    underline-thickness="20"
    underline-position="-50"
    unicode-range="U+000D-FB02"
  />
<missing-glyph horiz-adv-x="620" 
 />
    <glyph glyph-name="fi" unicode="fi" horiz-adv-x="605" 
d="M98 0v487h-68v113h68v33q0 95 50.5 136.5t153.5 41.5q17 0 36 -2t37 -5v-109h-73q-54 0 -54 -50v-45h102v-113h-102v-487h-150zM415 687v113h150v-113h-150zM415 0v600h150v-600h-150z" />
    <glyph glyph-name="fl" unicode="fl" horiz-adv-x="615" 
d="M98 0v487h-68v113h68v33q0 95 50.5 136.5t153.5 41.5q17 0 36 -2t37 -5v-109h-73q-54 0 -54 -50v-45h102v-113h-102v-487h-150zM425 0v800h150v-800h-150z" />
    <glyph glyph-name="f_f" unicode="ff" horiz-adv-x="700" 
d="M98 0v487h-68v113h68v33q0 95 50.5 136.5t153.5 41.5q17 0 36 -2t37 -5v-109h-73q-54 0 -54 -50v-45h165v32q0 95 50.5 136.5t153.5 41.5q17 0 36 -2t37 -5v-109h-73q-54 0 -54 -50v-44h102v-113h-102v-488h-150v488h-165v-487h-150z" />
    <glyph glyph-name="f_f_i" unicode="ffi" horiz-adv-x="920" 
d="M98 0v487h-68v113h68v33q0 95 50.5 136.5t153.5 41.5q17 0 36 -2t37 -5v-109h-73q-54 0 -54 -50v-45h165v32q0 95 50.5 136.5t153.5 41.5q17 0 36 -2t37 -5v-109h-73q-54 0 -54 -50v-44h102v-113h-102v-488h-150v488h-165v-487h-150zM730 687v113h150v-113h-150zM730 0
v600h150v-600h-150z" />
    <glyph glyph-name="f_f_l" unicode="ffl" horiz-adv-x="930" 
d="M98 0v487h-68v113h68v33q0 95 50.5 136.5t153.5 41.5q17 0 36 -2t37 -5v-109h-73q-54 0 -54 -50v-45h165v32q0 95 50.5 136.5t153.5 41.5q17 0 36 -2t37 -5v-109h-73q-54 0 -54 -50v-44h102v-113h-102v-488h-150v488h-165v-487h-150zM740 0v800h150v-800h-150z" />
    <glyph glyph-name=".notdef" horiz-adv-x="620" 
 />
    <glyph glyph-name=".null" 
 />
    <glyph glyph-name="nonmarkingreturn" horiz-adv-x="333" 
 />
    <glyph glyph-name="NULL" 
 />
    <glyph glyph-name="NULL" 
 />
    <glyph glyph-name="CR" unicode="&#xd;" horiz-adv-x="220" 
 />
    <glyph glyph-name="space" unicode=" " horiz-adv-x="220" 
 />
    <glyph glyph-name="exclam" unicode="!" horiz-adv-x="250" 
d="M70 220l-20 394v186h150v-186l-20 -394h-110zM40 0v139h170v-139h-170z" />
    <glyph glyph-name="quotedbl" unicode="&#x22;" horiz-adv-x="403" 
d="M66 516l-26 142v142h123v-142l-26 -142h-71zM240 658v142h123v-142l-26 -142h-71z" />
    <glyph glyph-name="numbersign" unicode="#" horiz-adv-x="736" 
d="M92 0l43 214h-105l29 122h100l29 142h-104l28 122h100l40 200h150l-40 -200h95l40 200h150l-40 -200h99l-27 -122h-96l-29 -142h98l-29 -122h-93l-43 -214h-150l43 214h-95l-43 -214h-150zM309 336h95l29 142h-95z" />
    <glyph glyph-name="dollar" unicode="$" horiz-adv-x="504" 
d="M187 920h130v-115q72 -12 105.5 -59t37.5 -136q1 -22 0.5 -53t-2.5 -57h-144q2 35 2.5 69.5t-1.5 68.5q-1 24 -17.5 37t-44.5 13q-30 0 -44.5 -13t-17.5 -37q-6 -51 0 -103q2 -20 14 -36.5t37 -22.5l71 -17q84 -20 116 -69t35 -126q1 -17 0.5 -36.5t-1.5 -36.5
q-4 -91 -37.5 -138t-108.5 -59v-104h-130v105q-73 12 -105.5 59t-36.5 137q-1 24 -0.5 54.5t4.5 54.5h141q-2 -37 -2.5 -72.5t2.5 -64.5q5 -51 63 -51q29 0 43 13t17 38q6 51 0 101q-2 21 -13 38t-35 23l-82 21q-78 20 -109 67t-33 122q-1 40 0 75q4 90 37 136.5t109 58.5
v115z" />
    <glyph glyph-name="percent" unicode="%" horiz-adv-x="682" 
d="M173 433q-61 0 -94 32.5t-38 93.5q-1 12 -1.5 35.5t0 47.5t1.5 39q4 59 37 91.5t95 32.5t95.5 -32.5t37.5 -91.5q1 -15 1.5 -39t0 -47.5t-1.5 -35.5q-5 -60 -38 -93t-95 -33zM47 0l491 800h104l-492 -800h-103zM173 519q23 0 25 22q3 32 3 77t-3 81q-1 8 -7.5 14t-17.5 6
t-17.5 -6t-7.5 -14q-3 -36 -3 -81t3 -77q1 -8 7.5 -15t17.5 -7zM501 -6q-61 0 -94 32.5t-38 93.5q-1 12 -1.5 35t0 47.5t1.5 39.5q4 59 37 91.5t95 32.5t95.5 -32.5t37.5 -91.5q1 -15 1.5 -39.5t0 -47.5t-1.5 -35q-5 -60 -38 -93t-95 -33zM501 80q23 0 25 22q3 32 3 77
t-3 81q-1 8 -7.5 14t-17.5 6t-17.5 -6t-7.5 -14q-3 -36 -3 -81t3 -77q1 -8 7.5 -15t17.5 -7z" />
    <glyph glyph-name="ampersand" unicode="&#x26;" horiz-adv-x="619" 
d="M261 -10q-113 0 -164 46.5t-56 153.5q0 13 -0.5 19t-0.5 12t0.5 19t0.5 40q1 64 28 102t63 66q-40 79 -50 152q-13 93 32 151.5t151 58.5q100 0 144 -52.5t33 -148.5q-6 -55 -38 -105t-94 -96q14 -21 28.5 -41.5t30.5 -40.5q-1 17 -3 36.5t-5 43.5h120q5 -46 7.5 -107
t-2.5 -112q28 -31 52 -56t41 -42l-96 -93q-13 14 -27 28.5t-28 28.5q-26 -33 -67 -48t-100 -15zM246 518q36 26 49.5 49.5t17.5 41.5q9 46 -1 74.5t-47 28.5q-31 0 -42.5 -26.5t-8.5 -60.5q2 -24 10.5 -51t21.5 -56zM265 108q56 0 72 46q-35 41 -69 84t-64 86
q-7 -10 -12 -22t-6 -28q-1 -18 -1.5 -29t0 -23.5t1.5 -35.5q5 -78 79 -78z" />
    <glyph glyph-name="quotesingle" unicode="'" horiz-adv-x="203" 
d="M40 658v142h123v-142l-26 -142h-71z" />
    <glyph glyph-name="parenleft" unicode="(" horiz-adv-x="292" 
d="M30 305q0 90 13.5 183.5t41.5 175t71 136.5h106q-38 -112 -58.5 -242t-20.5 -258t20.5 -257.5t58.5 -242.5h-106q-37 55 -65.5 133.5t-44.5 173.5t-16 198z" />
    <glyph glyph-name="parenright" unicode=")" horiz-adv-x="292" 
d="M262 305q0 90 -13.5 183.5t-41.5 175t-71 136.5h-106q38 -112 58.5 -242t20.5 -258t-20.5 -257.5t-58.5 -242.5h106q37 55 65.5 133.5t44.5 173.5t16 198z" />
    <glyph glyph-name="asterisk" unicode="*" horiz-adv-x="297" 
d="M40 668l61 28l-61 28l30 52l54 -39l-6 67h61l-7 -66l55 38l30 -52l-61 -28l61 -28l-30 -52l-55 39l7 -67h-61l6 66l-54 -38z" />
    <glyph glyph-name="plus" unicode="+" horiz-adv-x="536" 
d="M212 129v172h-172v112h172v172h112v-172h172v-112h-172v-172h-112z" />
    <glyph glyph-name="comma" unicode="," horiz-adv-x="251" 
d="M40 0v142h171v-129l-82 -155h-76l62 142h-75z" />
    <glyph glyph-name="hyphen" unicode="-" horiz-adv-x="446" 
d="M30 288v132h386v-132h-386z" />
    <glyph glyph-name="period" unicode="." horiz-adv-x="250" 
d="M40 0v139h170v-139h-170z" />
    <glyph glyph-name="slash" unicode="/" horiz-adv-x="410" 
d="M30 -200l200 1000h150l-200 -1000h-150z" />
    <glyph glyph-name="zero" unicode="0" horiz-adv-x="507" 
d="M253 -10q-100 0 -154.5 52t-56.5 149q-2 101 -2 209.5t2 209.5q2 97 56.5 148.5t154.5 51.5q98 0 152.5 -51.5t57.5 -148.5q4 -102 4 -210t-4 -209q-3 -97 -57.5 -149t-152.5 -52zM253 112q57 0 60 51q5 115 5 237.5t-5 237.5q-2 50 -60 50q-59 0 -61 -50
q-4 -115 -4 -237.5t4 -237.5q2 -51 61 -51z" />
    <glyph glyph-name="one" unicode="1" horiz-adv-x="274" 
d="M84 0v668h-51l-3 53l86 79h118v-800h-150z" />
    <glyph glyph-name="two" unicode="2" horiz-adv-x="501" 
d="M42 0q-1 39 -1.5 64t-0.5 48t1 53q2 77 38.5 135t112.5 100l67 37q32 17 41 44.5t10 47.5q3 55 0 109q-3 50 -62 50q-55 0 -57 -50q-3 -69 0 -138h-148q-1 26 -2 57t0 53q5 107 53 153.5t154 46.5q76 0 121 -20t66.5 -64t24.5 -116q2 -37 0 -81q-2 -75 -37.5 -128.5
t-104.5 -91.5l-78 -43q-19 -10 -29.5 -29t-14.5 -38.5t-4 -33.5v-33h255v-132h-405z" />
    <glyph glyph-name="three" unicode="3" horiz-adv-x="504" 
d="M251 -10q-115 0 -166 46.5t-54 154.5q-1 24 -1 37t1 37h150v-94q0 -59 66 -59q64 0 66 59q1 23 1 52.5t-1 48.5q-1 31 -14 52.5t-57 20.5l-97 -1l-4 126l143 198h-241v132h412l-2 -128l-149 -198q80 -8 117.5 -56t41.5 -145q1 -40 0 -82q-4 -108 -53 -154.5t-159 -46.5z
" />
    <glyph glyph-name="four" unicode="4" horiz-adv-x="541" 
d="M275 0v201h-245v125l190 474h196v-468h85v-131h-85v-201h-141zM173 332h102l20 184l17 152h-28l-47 -152z" />
    <glyph glyph-name="five" unicode="5" horiz-adv-x="515" 
d="M260 -10q-115 0 -166 46.5t-54 154.5q-1 24 -0.5 39.5t1.5 34.5h150q-2 -19 -2 -49t1 -45q3 -28 19 -43.5t47 -15.5q61 0 66 59q4 44 4.5 87.5t-3.5 80.5q-5 51 -61 51q-31 0 -49 -13.5t-19 -37.5h-142v461h407v-132h-257v-212h22q14 24 42 41t68 17q67 0 101 -46.5
t38 -125.5q2 -39 2 -79t-3 -72q-7 -72 -29 -116t-66 -64.5t-117 -20.5z" />
    <glyph glyph-name="six" unicode="6" horiz-adv-x="506" 
d="M251 -10q-112 0 -160.5 46.5t-49.5 154.5q0 69 -0.5 136t-0.5 125v99.5t1 58.5q5 102 59.5 151t149.5 49q99 0 152.5 -51t57.5 -149v-26t-1 -29h-149q2 20 2 35t-2 48q-1 23 -14.5 36.5t-43.5 13.5q-59 0 -61 -50q-3 -78 -3 -192h26q13 25 41.5 41.5t68.5 16.5
q80 0 110 -40t31 -132q1 -40 1 -75.5t-2 -65.5q-5 -108 -54 -154.5t-159 -46.5zM252 112q60 0 62 51q2 47 2 89.5t-1 76.5q-1 25 -17 38t-44 13q-64 0 -66 -50q1 -40 1.5 -81.5t1.5 -85.5q2 -51 61 -51z" />
    <glyph glyph-name="seven" unicode="7" horiz-adv-x="485" 
d="M79 0l227 668h-286v132h435v-136l-220 -664h-156z" />
    <glyph glyph-name="eight" unicode="8" horiz-adv-x="505" 
d="M252 -10q-109 0 -158 46.5t-54 154.5q-1 17 0 34t2 33q5 55 26 87t62 50v22q-28 11 -49 34.5t-29 59.5q-2 12 -4 31t-2.5 37.5t-0.5 29.5q5 108 53 154.5t154 46.5q107 0 154.5 -46.5t52.5 -154.5q1 -11 0 -29.5t-2.5 -37.5t-4.5 -31q-7 -36 -28.5 -59.5t-49.5 -34.5v-23
q37 -18 59 -50t29 -86q2 -16 2.5 -33t-0.5 -34q-4 -108 -53.5 -154.5t-158.5 -46.5zM252 476q62 0 62 59v94q0 59 -62 59t-62 -59v-94q0 -59 62 -59zM252 112q62 0 62 59v103q0 59 -62 59t-62 -59v-103q0 -59 62 -59z" />
    <glyph glyph-name="nine" unicode="9" horiz-adv-x="506" 
d="M260 -10q-109 0 -157 46.5t-48 153.5v26t1 29h149q-1 -19 -1 -38t1 -45q2 -22 12.5 -36t40.5 -14q29 0 42 13t14 37q2 36 3 85t2 107h-22q-11 -25 -36 -41.5t-65 -16.5q-39 0 -75 18.5t-58.5 58.5t-22.5 104v88t1 44q5 108 54 154.5t159 46.5q112 0 160 -46.5t50 -154.5
q2 -80 2.5 -149.5t0 -135t-2.5 -134.5q-2 -107 -51 -153.5t-153 -46.5zM257 420q56 0 62 44q-1 42 -2 85.5t-3 87.5q-2 51 -61 51q-29 0 -45.5 -13t-16.5 -38q0 -3 -0.5 -25.5t-0.5 -51.5v-54v-35q1 -25 20 -38t47 -13z" />
    <glyph glyph-name="colon" unicode=":" horiz-adv-x="250" 
d="M40 300v139h170v-139h-170zM40 0v139h170v-139h-170z" />
    <glyph glyph-name="semicolon" unicode=";" horiz-adv-x="271" 
d="M40 0v142h171v-129l-82 -155h-76l62 142h-75zM40 300v139h170v-139h-170z" />
    <glyph glyph-name="less" unicode="&#x3c;" horiz-adv-x="553" 
d="M513 201v122l-217 21l-146 2v28l146 2l217 22v122l-473 -72v-177z" />
    <glyph glyph-name="equal" unicode="=" horiz-adv-x="516" 
d="M40 398v112h436v-112h-436zM40 206v112h436v-112h-436z" />
    <glyph glyph-name="greater" unicode="&#x3e;" horiz-adv-x="553" 
d="M40 201v122l217 21l146 2v28l-146 2l-217 22v122l473 -72v-177z" />
    <glyph glyph-name="question" unicode="?" horiz-adv-x="500" 
d="M189 221l-3 44q-3 45 3 76t25 55t55 47l17 11q16 11 20 34t4 48v103q0 50 -62 50q-57 0 -60 -50q-2 -38 -2 -72t1 -66h-145q-1 21 -1.5 49t0.5 61q5 107 52.5 153.5t153.5 46.5q114 0 163.5 -46.5t49.5 -153.5v-75q0 -56 -10.5 -90t-26 -52.5t-32 -27.5t-28.5 -16
l-24 -13q-21 -11 -25.5 -31t-6.5 -41l-4 -44h-114zM162 0v139h170v-139h-170z" />
    <glyph glyph-name="at" unicode="@" horiz-adv-x="724" 
d="M361 -161q-112 0 -182 23.5t-102.5 75.5t-34.5 135q-1 75 -1.5 144t0 141.5t1.5 156.5q2 88 34.5 141.5t102.5 78.5t182 25q111 0 180.5 -25t103 -79t36.5 -142q3 -84 3 -156.5t-3 -146.5q-2 -55 -41 -82.5t-104 -27.5q-64 0 -95 14t-42 36h-24q-13 -23 -27.5 -37
t-46.5 -14q-41 0 -62 27.5t-26 92.5q-2 27 -2.5 59.5t0.5 63t2 49.5q4 65 26.5 92.5t63.5 27.5q29 0 43.5 -13t28.5 -39h15v45h115v-291q0 -38 31 -38q26 0 29 39q3 33 4 84t0.5 109.5t-3.5 112.5q-4 74 -49.5 107.5t-155.5 33.5q-109 0 -154.5 -32.5t-47.5 -108.5
q-4 -113 -4 -230t4 -225q2 -70 48 -99.5t154 -29.5q107 0 153 29t46 99v7h114v-7q0 -82 -31.5 -132t-100 -72t-181.5 -22zM351 182q8 0 21.5 7.5t17.5 17.5v197q-5 11 -19 18t-20 7q-12 0 -17 -7.5t-6 -18.5q-2 -35 -2.5 -64.5t0.5 -59.5t3 -70q1 -27 22 -27z" />
    <glyph glyph-name="A" unicode="A" horiz-adv-x="498" 
d="M20 0l111 800h236l111 -800h-154l-17 167h-116l-17 -167h-154zM205 299h88l-18 177l-12 192h-28l-12 -192z" />
    <glyph glyph-name="B" unicode="B" horiz-adv-x="461" 
d="M40 0v800h185q112 0 163.5 -45.5t51.5 -149.5v-27t-1 -26q-4 -55 -25 -87t-65 -47v-24q46 -15 67.5 -48t23.5 -89q1 -30 0 -62q-4 -104 -53.5 -149.5t-161.5 -45.5h-185zM190 473h35q32 0 48.5 21.5t16.5 61.5v57q0 55 -65 55h-35v-195zM190 132h35q65 0 65 65v53
q0 50 -15 70.5t-50 20.5h-35v-209z" />
    <glyph glyph-name="C" unicode="C" horiz-adv-x="485" 
d="M252 -10q-113 0 -161 46.5t-50 154.5q-1 42 -1 96.5v113v113.5t1 97q2 92 51.5 145.5t159.5 53.5q108 0 156.5 -46.5t51.5 -153.5q1 -25 0.5 -55t-1.5 -55h-150q1 19 1 44t0.5 50.5t-0.5 43.5q-2 50 -58 50q-59 0 -61 -50q-2 -70 -3 -154t0 -167.5t3 -153.5q2 -51 61 -51
q60 0 62 51q1 18 1 43.5v50.5t-1 43h150q1 -24 1 -54.5t-1 -54.5q-3 -108 -52.5 -154.5t-159.5 -46.5z" />
    <glyph glyph-name="D" unicode="D" horiz-adv-x="500" 
d="M40 0v800h203q113 0 163 -47.5t52 -157.5q2 -69 2.5 -131.5t0 -125t-2.5 -132.5q-2 -110 -52 -158t-163 -48h-203zM190 132h53q63 0 65 56q6 213 0 425q-2 55 -65 55h-53v-536z" />
    <glyph glyph-name="E" unicode="E" horiz-adv-x="406" 
d="M40 0v800h346v-132h-196v-195h186v-132h-186v-209h196v-132h-346z" />
    <glyph glyph-name="F" unicode="F" horiz-adv-x="406" 
d="M40 0v800h346v-132h-196v-195h186v-132h-186v-341h-150z" />
    <glyph glyph-name="G" unicode="G" horiz-adv-x="487" 
d="M254 -10q-75 0 -120.5 20.5t-66.5 64.5t-24 116q-1 42 -2 95.5t-1 111t1 110.5t2 93q3 76 24.5 122t67 66.5t119.5 20.5q105 0 153 -46.5t55 -153.5q2 -23 2 -55t-2 -55h-150q2 28 2 69t-2 69q-3 50 -58 50q-58 0 -61 -50q-4 -70 -5.5 -154t0 -167.5t5.5 -153.5
q3 -51 61 -51q29 0 46 13t19 38q1 12 1.5 30.5t0 37.5t-1.5 30h-55v130h201q2 -46 1.5 -100t-2.5 -100q-5 -108 -54 -154.5t-156 -46.5z" />
    <glyph glyph-name="H" unicode="H" horiz-adv-x="485" 
d="M40 0v800h150v-327h105v327h150v-800h-150v341h-105v-341h-150z" />
    <glyph glyph-name="I" unicode="I" horiz-adv-x="230" 
d="M40 0v800h150v-800h-150z" />
    <glyph glyph-name="J" unicode="J" horiz-adv-x="475" 
d="M230 -10q-73 0 -116 20.5t-62 64.5t-21 116q-1 24 -1 54.5t1 54.5h141q0 -18 -0.5 -43t0 -50.5t0.5 -43.5q2 -51 58 -51q29 0 42 13t13 38v637h150v-609q0 -108 -46 -154.5t-159 -46.5z" />
    <glyph glyph-name="K" unicode="K" horiz-adv-x="508" 
d="M40 0v800h160l-2 -194l-27 -179h27l48 179l72 194h164l-133 -329l139 -471h-152l-87 305l-56 -121v-184h-153z" />
    <glyph glyph-name="L" unicode="L" horiz-adv-x="407" 
d="M40 0v800h150v-668h197v-132h-347z" />
    <glyph glyph-name="M" unicode="M" horiz-adv-x="745" 
d="M40 0v800h241l66 -303l13 -365h26l12 365l67 303h240v-800h-150v246l29 422h-27l-42 -432l-62 -236h-161l-61 236l-43 432h-26l28 -422v-246h-150z" />
    <glyph glyph-name="N" unicode="N" horiz-adv-x="543" 
d="M40 0v800h217l60 -255l55 -413h26l-28 325l-12 343h145v-800h-228l-60 262l-41 407h-28l26 -362l13 -307h-145z" />
    <glyph glyph-name="O" unicode="O" horiz-adv-x="507" 
d="M253 -10q-110 0 -159.5 46.5t-51.5 154.5q-2 98 -2 209.5t2 209.5q2 107 51.5 153.5t159.5 46.5t158 -46.5t52 -153.5q4 -100 4 -210.5t-4 -208.5q-4 -108 -52 -154.5t-158 -46.5zM253 112q58 0 60 51t3.5 112t1.5 125.5t-1.5 125.5t-3.5 112q-2 50 -60 50q-59 0 -61 -50
q-2 -51 -3 -112t-1 -125.5t1 -125.5t3 -112t61 -51z" />
    <glyph glyph-name="P" unicode="P" horiz-adv-x="469" 
d="M40 0v800h193q112 0 161.5 -45.5t53.5 -149.5q2 -42 2 -78t-2 -78q-4 -104 -53.5 -149.5t-161.5 -45.5h-43v-254h-150zM190 386h43q62 0 65 55q2 37 2 86t-2 86q-3 55 -65 55h-43v-282z" />
    <glyph glyph-name="Q" unicode="Q" horiz-adv-x="507" 
d="M452 -124q-86 -7 -134.5 20t-65.5 94q-109 0 -158.5 46.5t-51.5 154.5q-2 98 -2 209.5t2 209.5q2 107 51.5 153.5t159.5 46.5t158 -46.5t52 -153.5q4 -100 4 -210.5t-4 -208.5q-4 -126 -72 -171q12 -30 61 -24v-120zM253 112q58 0 60 51t3.5 112t1.5 125.5t-1.5 125.5
t-3.5 112q-2 50 -60 50q-59 0 -61 -50q-2 -51 -3 -112t-1 -125.5t1 -125.5t3 -112t61 -51z" />
    <glyph glyph-name="R" unicode="R" horiz-adv-x="479" 
d="M40 0v800h193q112 0 161.5 -45.5t53.5 -149.5q1 -28 1.5 -49t0 -42t-1.5 -49q-2 -65 -22 -106.5t-61 -63.5l94 -295h-159l-76 270h-34v-270h-150zM190 402h43q62 0 65 55q5 78 0 156q-3 55 -65 55h-43v-266z" />
    <glyph glyph-name="S" unicode="S" horiz-adv-x="504" 
d="M253 -10q-110 0 -156.5 46.5t-51.5 154.5q-1 24 -0.5 54.5t4.5 54.5h141q-2 -37 -2.5 -72.5t2.5 -64.5q5 -51 63 -51q29 0 43 13t17 38q6 51 0 101q-2 21 -13 38t-35 23l-82 21q-78 20 -109 67t-33 122q-1 40 0 75q3 72 24.5 116t67 64t120.5 20q107 0 155 -46.5
t52 -153.5q1 -22 0.5 -53t-2.5 -57h-144q2 35 2.5 69.5t-1.5 68.5q-1 24 -17.5 37t-44.5 13q-30 0 -44.5 -13t-17.5 -37q-6 -51 0 -103q2 -20 14 -36.5t37 -22.5l71 -17q84 -20 116 -69t35 -126q1 -17 0.5 -36.5t-1.5 -36.5q-4 -108 -51.5 -154.5t-158.5 -46.5z" />
    <glyph glyph-name="T" unicode="T" horiz-adv-x="447" 
d="M149 0v668h-129v132h407v-132h-128v-668h-150z" />
    <glyph glyph-name="U" unicode="U" horiz-adv-x="505" 
d="M253 -10q-112 0 -160.5 46.5t-50.5 154.5q-5 305 0 609h150q-2 -100 -2.5 -209.5t0.5 -218t2 -209.5q0 -51 61 -51q60 0 60 51q1 101 2 209.5t0.5 218t-2.5 209.5h150q5 -304 0 -609q-1 -108 -49.5 -154.5t-160.5 -46.5z" />
    <glyph glyph-name="V" unicode="V" horiz-adv-x="514" 
d="M136 0l-116 800h155l59 -401l9 -267h28l9 267l59 401h155l-116 -800h-242z" />
    <glyph glyph-name="W" unicode="W" horiz-adv-x="806" 
d="M96 0l-76 800h151l26 -366l15 -302h27l-2 302l70 361h192l70 -361l-2 -302h27l15 302l26 366h151l-76 -800h-245l-37 223l-12 445h-26l-12 -445l-37 -223h-245z" />
    <glyph glyph-name="X" unicode="X" horiz-adv-x="488" 
d="M20 0l125 416l-122 384h147l52 -187l13 -137h20l13 137l50 187h147l-116 -389l119 -411h-147l-53 197l-13 147h-20l-13 -147l-55 -197h-147z" />
    <glyph glyph-name="Y" unicode="Y" horiz-adv-x="490" 
d="M170 0v191l-11 45l-139 564h153l43 -194l15 -235h28l15 235l43 194h153l-139 -563l-11 -46v-191h-150z" />
    <glyph glyph-name="Z" unicode="Z" horiz-adv-x="423" 
d="M20 0v125l223 543h-211v132h371v-128l-233 -540h218v-132h-368z" />
    <glyph glyph-name="bracketleft" unicode="[" horiz-adv-x="356" 
d="M40 -200v1000h286v-70h-136v-860h136v-70h-286z" />
    <glyph glyph-name="backslash" unicode="\" horiz-adv-x="410" 
d="M380 -200l-200 1000h-150l200 -1000h150z" />
    <glyph glyph-name="bracketright" unicode="]" horiz-adv-x="356" 
d="M326 -200v1000h-286v-70h136v-860h-136v-70h286z" />
    <glyph glyph-name="asciicircum" unicode="^" horiz-adv-x="432" 
d="M40 430l128 259h96l128 -259h-96l-80 162l-80 -162h-96z" />
    <glyph glyph-name="underscore" unicode="_" horiz-adv-x="656" 
d="M30 -60v20h596v-20h-596z" />
    <glyph glyph-name="grave" unicode="`" horiz-adv-x="268" 
d="M40 800h96l92 -139h-96z" />
    <glyph glyph-name="a" unicode="a" horiz-adv-x="471" 
d="M157 -8q-67 0 -98 32.5t-38 111.5q-2 22 0 44q5 62 39.5 97t115.5 64q27 10 52 16.5t53 13.5v77q-1 24 -10.5 37t-38.5 13q-25 0 -34 -10.5t-11 -34.5q0 -7 -0.5 -23.5t0 -34t0.5 -26.5h-146q-1 5 -1.5 28t0.5 39q3 61 22 99t61 56.5t113 18.5q75 0 116 -20.5t58.5 -64
t19.5 -113.5l-1 -412h-150v65h-19q-18 -38 -40.5 -55.5t-62.5 -17.5zM220 99q20 0 35 11t25 29v136q-38 -8 -65 -20q-26 -12 -35 -31.5t-11 -43.5q-1 -18 0 -32q5 -49 51 -49z" />
    <glyph glyph-name="b" unicode="b" horiz-adv-x="493" 
d="M461 441q1 -24 1.5 -61.5t0.5 -79.5t-0.5 -79.5t-1.5 -61.5q-4 -91 -41.5 -130t-99.5 -39q-47 0 -70 19.5t-44 55.5h-16v-65h-150v800h150v-265h26q21 36 44 55.5t70 19.5q62 0 94.5 -39t36.5 -130zM311 146q3 39 3.5 94.5t0 113t-3.5 100.5q-1 24 -12 35.5t-34 11.5
q-20 0 -43 -11.5t-32 -31.5v-316q9 -19 32 -31t43 -12q23 0 34 11.5t12 35.5z" />
    <glyph glyph-name="c" unicode="c" horiz-adv-x="468" 
d="M42 168q-1 17 -1.5 52.5t-0.5 77t0.5 77.5t1.5 55q7 97 53.5 138.5t146.5 41.5q101 0 146.5 -40.5t49.5 -133.5q1 -16 0.5 -39t-1.5 -28h-146q1 9 1 26.5v34t-1 23.5q-1 24 -12.5 34.5t-36.5 10.5q-26 0 -37.5 -10.5t-12.5 -34.5q-2 -71 -2 -151t2 -150q1 -27 13 -38.5
t39 -11.5q24 0 35 11.5t12 38.5q2 25 0 81h146q1 -5 1.5 -26.5t-0.5 -38.5q-4 -95 -49.5 -136.5t-144.5 -41.5q-103 0 -150 41.5t-52 136.5z" />
    <glyph glyph-name="d" unicode="d" horiz-adv-x="493" 
d="M303 800h150v-800h-150v65h-21q-21 -36 -45 -55.5t-71 -19.5q-62 0 -95.5 39t-38.5 130q-1 24 -1.5 61.5t-0.5 79.5t0.5 79.5t1.5 61.5q5 91 39.5 130t96.5 39q47 0 70 -19.5t44 -55.5h21v265zM228 99q20 0 43 12t32 31v316q-9 20 -32 31.5t-43 11.5q-23 0 -33.5 -11.5
t-12.5 -35.5q-2 -43 -3 -100.5t0 -113t3 -94.5q2 -24 12.5 -35.5t33.5 -11.5z" />
    <glyph glyph-name="e" unicode="e" horiz-adv-x="469" 
d="M291 233h146q1 -5 1.5 -26.5t-0.5 -38.5q-4 -95 -49.5 -136.5t-144.5 -41.5q-103 0 -150 41.5t-52 136.5q-1 17 -1.5 52.5t-0.5 77t0.5 77.5t1.5 55q7 97 53.5 138.5t146.5 41.5q101 0 146.5 -40.5t49.5 -133.5q1 -11 1 -38.5v-61t-2 -61.5h-247q0 -32 0.5 -63t1.5 -60
q1 -27 13 -38.5t39 -11.5q24 0 35 11.5t12 38.5q2 25 0 81zM242 498q-26 0 -37.5 -10.5t-12.5 -34.5q-1 -18 -1 -36.5t-1 -38.5h102q0 27 -0.5 49t-0.5 26q-1 24 -12.5 34.5t-36.5 10.5z" />
    <glyph glyph-name="f" unicode="f" horiz-adv-x="385" 
d="M98 0v487h-68v113h68v33q0 95 50.5 136.5t153.5 41.5q17 0 36 -2t37 -5v-109h-73q-54 0 -54 -50v-45h102v-113h-102v-487h-150z" />
    <glyph glyph-name="g" unicode="g" horiz-adv-x="508" 
d="M251 -202q-91 0 -143 27t-61 63q-5 19 -2 38q4 23 19.5 38t52.5 21v21q-64 7 -73 58q-3 17 0 33q4 21 22.5 38t52.5 21v20q-81 37 -88 161q-3 54 0 93q8 97 55.5 138.5t150.5 41.5q130 0 175 -69h19q5 31 22.5 44.5t54.5 14.5v-113h-15q-27 0 -38.5 -11.5t-11.5 -38.5
q1 -44 0.5 -65t-1.5 -35q-6 -97 -53.5 -139t-151.5 -42h-9q-40 -1 -53 -7t-13 -20v-3q1 -15 23.5 -20.5t77.5 -6.5q104 -1 154 -33t62 -93q2 -8 2 -21t-2 -27q-8 -48 -39.5 -75.5t-80 -39.5t-108.5 -12zM237 268q57 0 60 51q3 58 0 129q-3 50 -60 50q-59 0 -61 -50
q-3 -71 0 -129q3 -51 61 -51zM257 -100q83 0 99 37q7 15 -1 33q-7 16 -32 23.5t-66 7.5q-40 0 -60 -9.5t-26 -25.5t0 -32q6 -17 26 -25.5t60 -8.5z" />
    <glyph glyph-name="h" unicode="h" horiz-adv-x="494" 
d="M40 0v800h150v-265h26q21 36 44 55.5t70 19.5q62 0 97.5 -39t35.5 -130v-441h-150v454q0 47 -48 47q-20 0 -43 -11.5t-32 -31.5v-458h-150z" />
    <glyph glyph-name="i" unicode="i" horiz-adv-x="230" 
d="M40 687v113h150v-113h-150zM40 0v600h150v-600h-150z" />
    <glyph glyph-name="j" unicode="j" horiz-adv-x="233" 
d="M40 687v113h150v-113h-150zM-87 -206v111q14 -1 36.5 -1.5t36.5 -0.5q26 0 40.5 13t14.5 37v647h150v-635q0 -95 -50.5 -136.5t-154.5 -41.5q-17 0 -36 2t-37 5z" />
    <glyph glyph-name="k" unicode="k" horiz-adv-x="486" 
d="M40 0v800h140v-152l-18 -276h22l45 127l52 101h155l-122 -224l142 -376h-153l-84 227l-36 -55v-172h-143z" />
    <glyph glyph-name="l" unicode="l" horiz-adv-x="230" 
d="M40 0v800h150v-800h-150z" />
    <glyph glyph-name="m" unicode="m" horiz-adv-x="770" 
d="M40 0v600h150v-65h26q21 36 44 55.5t70 19.5q45 0 75.5 -20t44.5 -65h24q21 36 48.5 60.5t74.5 24.5q62 0 96 -39t35 -130l2 -441h-150l-2 454q-1 47 -46 47q-19 0 -39.5 -14t-31.5 -32l2 -455h-150l-2 454q0 47 -46 47q-20 0 -43 -11.5t-32 -31.5v-458h-150z" />
    <glyph glyph-name="n" unicode="n" horiz-adv-x="504" 
d="M40 0v600h150v-65h26q21 36 44 55.5t70 19.5q62 0 97.5 -39t35.5 -130v-441h-150v454q0 47 -48 47q-20 0 -43 -11.5t-32 -31.5v-458h-150z" />
    <glyph glyph-name="o" unicode="o" horiz-adv-x="495" 
d="M248 -10q-73 0 -117 20t-64.5 64t-24.5 117q-1 17 -1.5 46t-0.5 62t0.5 62.5t1.5 48.5q4 72 24.5 116t64 64t117.5 20q75 0 118 -20.5t63 -64.5t24 -115q1 -17 1.5 -46t0.5 -62t-0.5 -62.5t-1.5 -48.5q-4 -71 -24 -115.5t-63 -65t-118 -20.5zM248 102q29 0 41.5 13
t13.5 38q2 69 2 147.5t-2 147.5q-1 24 -13.5 37t-41.5 13q-54 0 -56 -50q-2 -69 -2 -148t2 -147q2 -51 56 -51z" />
    <glyph glyph-name="p" unicode="p" horiz-adv-x="503" 
d="M40 -200v800h150v-65h21q21 36 44 55.5t70 19.5q62 0 97 -39t39 -130q1 -24 1.5 -61.5t0.5 -79.5t-0.5 -79.5t-1.5 -61.5q-4 -91 -43 -130t-101 -39q-33 0 -58 17.5t-48 57.5h-21v-265h-150zM255 99q23 0 39 11.5t17 35.5q3 39 3.5 94.5t0 113t-3.5 100.5q-1 24 -12 35.5
t-34 11.5q-20 0 -43 -11.5t-32 -31.5v-316q11 -23 26 -33t39 -10z" />
    <glyph glyph-name="q" unicode="q" horiz-adv-x="503" 
d="M313 -200v265h-19q-23 -40 -47.5 -57.5t-58.5 -17.5q-62 0 -101.5 39t-44.5 130q-1 24 -1.5 61.5t-0.5 79.5t0.5 79.5t1.5 61.5q5 91 39.5 130t96.5 39q47 0 70 -19.5t44 -55.5h21v65h150v-800h-150zM248 99q24 0 39.5 10t25.5 33v316q-9 20 -32 31.5t-43 11.5
q-23 0 -33.5 -11.5t-12.5 -35.5q-2 -43 -3 -100.5t0 -113t3 -94.5q2 -24 17.5 -35.5t38.5 -11.5z" />
    <glyph glyph-name="r" unicode="r" horiz-adv-x="360" 
d="M40 0v600h150v-75h26q5 44 26 61.5t55 17.5q13 0 25 -0.5t18 -2.5v-114h-41q-58 0 -81 -17.5t-28 -47.5v-422h-150z" />
    <glyph glyph-name="s" unicode="s" horiz-adv-x="466" 
d="M229 -10q-97 0 -138.5 41.5t-46.5 136.5q-1 17 -0.5 38.5t1.5 26.5h131q-2 -56 0 -81q2 -27 15.5 -38.5t37.5 -11.5q31 0 45 11.5t14 38.5v32q0 15 -7.5 26t-24.5 15l-71 20q-67 20 -106 55t-39 101v28q0 97 44 139t152 42q98 0 139 -40.5t45 -133.5q1 -16 0.5 -39
t-1.5 -28h-136q1 9 1 26.5v34t-1 23.5q-1 24 -11.5 34.5t-35.5 10.5q-27 0 -38 -10.5t-12 -34.5q-1 -11 -1 -19.5v-19.5q0 -19 7 -32t30 -18l62 -15q70 -16 106 -52t36 -105v-28q0 -93 -45.5 -133.5t-151.5 -40.5z" />
    <glyph glyph-name="t" unicode="t" horiz-adv-x="390" 
d="M312 -10q-115 0 -165 41.5t-50 136.5v319h-57v113h58v170h153l-2 -170h101v-113h-103v-336q0 -27 12.5 -38.5t52.5 -11.5q11 0 22.5 0.5t25.5 0.5v-107q-10 -3 -22 -4t-26 -1z" />
    <glyph glyph-name="u" unicode="u" horiz-adv-x="504" 
d="M180 -10q-62 0 -99.5 39t-37.5 130v441h150v-454q0 -47 46 -47q20 0 43 12t32 31v458h150v-600h-150v65h-20q-23 -40 -49.5 -57.5t-64.5 -17.5z" />
    <glyph glyph-name="v" unicode="v" horiz-adv-x="485" 
d="M124 0l-94 600h152l39 -301l7 -189h28l7 189l40 301h152l-95 -600h-236z" />
    <glyph glyph-name="w" unicode="w" horiz-adv-x="775" 
d="M104 0l-84 600h152l29 -301l7 -189h28l7 189l30 301h229l29 -301l7 -189h28l7 189l30 301h152l-85 -600h-241l-21 234l-7 256h-28l-7 -256l-21 -234h-241z" />
    <glyph glyph-name="x" unicode="x" horiz-adv-x="467" 
d="M30 0l103 318l-101 282h145l37 -124l6 -98h28l6 98l36 124h145l-100 -285l102 -315h-145l-38 149l-6 121h-28l-6 -121l-39 -149h-145z" />
    <glyph glyph-name="y" unicode="y" horiz-adv-x="465" 
d="M134 0l-114 600h152l36 -271l17 -219h28l13 219l27 271h152l-101 -633q-10 -63 -33.5 -102t-69 -57.5t-122.5 -18.5q-17 0 -36 2t-37 5v111q14 -1 36.5 -1.5t36.5 -0.5q40 0 55.5 11.5t19.5 38.5l6 45h-66z" />
    <glyph glyph-name="z" unicode="z" horiz-adv-x="402" 
d="M20 0v95l203 395h-199v110h358v-98l-206 -392h205v-110h-361z" />
    <glyph glyph-name="braceleft" unicode="{" horiz-adv-x="390" 
d="M360 -202q-63 0 -116 17t-85 58t-32 111q0 14 1 41.5t1.5 59t1.5 57.5t1 38q0 41 -13.5 49t-39.5 8h-49v122h49q26 0 39.5 8.5t13.5 48.5q0 12 -0.5 38.5t-1.5 58.5t-1.5 59.5t-0.5 41.5q0 71 32 111.5t84.5 57.5t115.5 17v-72q-20 0 -40 -16t-32.5 -42t-12.5 -56
q0 -14 1 -41t1.5 -57t0.5 -53q0 -60 -24 -102t-74 -52v-20q50 -10 74 -52t24 -102q0 -22 -0.5 -52.5t-1.5 -57.5t-1 -41q0 -29 12.5 -55.5t32.5 -42.5t40 -16v-72z" />
    <glyph glyph-name="bar" unicode="|" horiz-adv-x="230" 
d="M40 -200v1000h150v-1000h-150z" />
    <glyph glyph-name="braceright" unicode="}" horiz-adv-x="390" 
d="M30 -202q63 0 116 17t85 58t32 111q0 14 -1 41.5t-1.5 59t-1.5 57.5t-1 38q0 41 13.5 49t39.5 8h49v122h-49q-26 0 -39.5 8.5t-13.5 48.5q0 12 0.5 38.5t1.5 58.5t1.5 59.5t0.5 41.5q0 71 -32 111.5t-84.5 57.5t-115.5 17v-72q20 0 40 -16t32.5 -42t12.5 -56
q0 -14 -1 -41t-1.5 -57t-0.5 -53q0 -60 24 -102t74 -52v-20q-50 -10 -74 -52t-24 -102q0 -22 0.5 -52.5t1.5 -57.5t1 -41q0 -29 -12.5 -55.5t-32.5 -42.5t-40 -16v-72z" />
    <glyph glyph-name="asciitilde" unicode="~" horiz-adv-x="535" 
d="M40 286q5 89 42.5 127.5t96.5 38.5q36 0 60.5 -10t42.5 -23.5t35 -23.5t39 -10q56 0 59 48h80q-4 -85 -42 -121t-100 -36q-33 0 -57 10.5t-44 24t-38 24t-39 10.5q-25 0 -39 -15.5t-16 -43.5h-80z" />
    <glyph glyph-name="uni00A0" unicode="&#xa0;" horiz-adv-x="220" 
 />
    <glyph glyph-name="exclamdown" unicode="&#xa1;" horiz-adv-x="250" 
d="M70 380l-20 -394v-186h150v186l-20 394h-110zM40 600v-139h170v139h-170z" />
    <glyph glyph-name="cent" unicode="&#xa2;" horiz-adv-x="458" 
d="M174 0v96q-65 12 -96 53.5t-36 118.5q-1 17 -1.5 52.5t-0.5 77t0.5 77.5t1.5 55q5 79 36.5 120.5t95.5 53.5v96h130v-95q68 -10 99 -51t35 -118q1 -16 0.5 -39t-1.5 -28h-146q1 9 1 26.5v34t-1 23.5q-1 24 -12.5 34.5t-36.5 10.5q-26 0 -37.5 -10.5t-12.5 -34.5
q-2 -71 -2 -151t2 -150q1 -27 13 -38.5t39 -11.5q24 0 35 11.5t12 38.5q2 25 0 81h146q1 -5 1.5 -26.5t-0.5 -38.5q-4 -79 -35.5 -121t-98.5 -53v-94h-130z" />
    <glyph glyph-name="sterling" unicode="&#xa3;" horiz-adv-x="527" 
d="M69 0v129q18 9 30.5 56t12.5 129q0 18 -1.5 34t-3.5 30h-67v72h49q-10 36 -19.5 73.5t-9.5 87.5q2 92 51.5 145.5t159.5 53.5q108 0 156.5 -46.5t51.5 -153.5q1 -25 0.5 -55t-1.5 -55h-150q1 19 1 44t0.5 50.5t-0.5 43.5q-2 50 -58 50q-59 0 -61 -50q0 -43 12.5 -87.5
t22.5 -100.5h88v-72h-79q1 -10 1.5 -21.5t0.5 -22.5q0 -56 -13.5 -103.5t-37.5 -76.5v-22h282v-132h-418z" />
    <glyph glyph-name="currency" unicode="&#xa4;" horiz-adv-x="628" 
d="M104 23l-60 52l80 90q-10 22 -16 51t-8 65q-1 17 -1.5 46t-0.5 62t0.5 62.5t1.5 48.5q2 36 8 65t17 52l-85 92l57 52l81 -87q45 26 128 26q92 0 137 -32l88 91l57 -54l-97 -99q9 -21 13.5 -47.5t6.5 -58.5q1 -17 1.5 -46t0.5 -62t-0.5 -62.5t-1.5 -48.5q-2 -33 -7 -60
t-14 -49l87 -96l-59 -53l-78 86q-46 -29 -134 -29q-84 0 -128 26zM306 192q29 0 41.5 13t13.5 38q2 69 2 147.5t-2 147.5q-1 24 -13.5 37t-41.5 13q-54 0 -56 -50q-2 -69 -2 -148t2 -147q2 -51 56 -51z" />
    <glyph glyph-name="yen" unicode="&#xa5;" horiz-adv-x="490" 
d="M320 255v-28h104v-72h-104v-40h104v-72h-104v-43h-150v43h-103v72h103v40h-103v72h103v28h-16l-134 545h153l43 -194l15 -235h28l15 235l43 194h153l-135 -545h-15z" />
    <glyph glyph-name="brokenbar" unicode="&#xa6;" horiz-adv-x="230" 
d="M40 800h150v-372h-150v372zM40 -200v388h150v-388h-150z" />
    <glyph glyph-name="section" unicode="&#xa7;" horiz-adv-x="468" 
d="M230 -210q-64 0 -104 14t-59 49.5t-22 98.5v29t0.5 33.5t0.5 18.5h131q-2 -56 0 -81q2 -27 15.5 -38.5t37.5 -11.5q31 0 45 11.5t14 38.5v65q0 15 -5.5 25t-26.5 16l-71 20q-67 19 -105 54.5t-40 101.5q-1 25 -1 42.5t1 44.5q2 51 23 82t52 44v19q-28 9 -50 30t-25 62
q-1 21 -1 45t1 40q6 65 24.5 98.5t59 46t112.5 12.5q98 0 139 -40.5t45 -133.5q1 -16 1 -36.5t-2 -40.5h-136q1 14 1 33.5v36.5t-1 24q-1 24 -11.5 29.5t-35.5 5.5q-27 0 -37 -5.5t-13 -29.5q-1 -11 -1.5 -39t0.5 -46q1 -19 7.5 -31.5t29.5 -18.5l62 -15q70 -16 104 -62
t38 -115q2 -29 2 -44t-2 -38q-3 -41 -23.5 -68t-47.5 -39v-16q30 -11 50.5 -36.5t21.5 -62.5q1 -15 0.5 -31.5t-1.5 -28.5q-4 -61 -23.5 -96.5t-61 -50.5t-112.5 -15zM238 188q29 0 40.5 13t14.5 38q2 17 2 41.5t-2 40.5q-3 24 -14.5 37t-40.5 13q-28 0 -40.5 -13t-15.5 -37
q-2 -16 -2 -41t2 -41q4 -25 16 -38t40 -13z" />
    <glyph glyph-name="dieresis" unicode="&#xa8;" horiz-adv-x="348" 
d="M199 661v109h109v-109h-109zM40 661v109h109v-109h-109z" />
    <glyph glyph-name="copyright" unicode="&#xa9;" horiz-adv-x="665" 
d="M333 -5q-141 0 -217 79t-76 226t76 226t217 79t216.5 -79t75.5 -226t-75.5 -226t-216.5 -79zM333 65q102 0 157 61t55 174t-55 174t-157 61q-103 0 -158 -61t-55 -174t55 -174t158 -61zM211 229q-1 14 -1.5 41t0 55t1.5 43q4 60 32.5 85.5t89.5 25.5q62 0 89 -25t31 -82
q1 -10 0.5 -18.5t-1.5 -11.5h-89q1 8 0.5 21t-0.5 19q0 28 -30 28q-29 0 -30 -28q-2 -43 -1 -82t1 -82q0 -30 31 -30q15 0 21.5 7t7.5 23q1 8 1 16t-1 24h89q1 -4 1.5 -11.5t-0.5 -17.5q-4 -59 -30.5 -84.5t-88.5 -25.5t-90 25.5t-33 84.5z" />
    <glyph glyph-name="ordfeminine" unicode="&#xaa;" horiz-adv-x="403" 
d="M148 377q-52 0 -75.5 23.5t-31.5 81.5q-2 13 0 30q5 45 32 69.5t91 43.5q22 7 41 11t43 8q-1 11 -1 23t-1 24q-1 14 -7 23.5t-32 9.5q-20 0 -27.5 -7t-9.5 -23v-16.5v-26v-13.5h-113q-1 2 -1.5 17.5t0.5 26.5q5 67 37 97.5t117 30.5q59 0 91.5 -15t46 -47.5t14.5 -84.5
q1 -31 1 -78t-0.5 -99.5t-0.5 -102.5h-117v23.5t1 23.5h-16q-13 -26 -30.5 -39.5t-51.5 -13.5zM197 460q33 0 50 27q1 21 1 41.5t1 42.5q-16 -2 -31 -5.5t-25 -6.5q-21 -6 -28 -18.5t-9 -28.5q-1 -6 -0.5 -12t0.5 -8q0 -17 12 -24.5t29 -7.5z" />
    <glyph glyph-name="guillemotleft" unicode="&#xab;" horiz-adv-x="369" 
d="M169 75l-159 172v136l159 172v-136l-96 -104l96 -104v-136zM329 75l-159 172v136l159 172v-136l-96 -104l96 -104v-136z" />
    <glyph glyph-name="logicalnot" unicode="&#xac;" horiz-adv-x="516" 
d="M364 204v194h-324v112h436v-306h-112z" />
    <glyph glyph-name="uni00AD" unicode="&#xad;" horiz-adv-x="446" 
d="M30 288v132h386v-132h-386z" />
    <glyph glyph-name="registered" unicode="&#xae;" horiz-adv-x="473" 
d="M237 481q-94 0 -145.5 53.5t-51.5 151.5q0 99 51.5 152t145.5 53q95 0 145.5 -53t50.5 -152q0 -98 -50.5 -151.5t-145.5 -53.5zM237 526q151 0 151 160t-151 160q-152 0 -152 -160t152 -160zM178 588v212h63q35 0 51 -14t17 -46v-9q-1 -35 -35 -43v-7q33 -7 34 -43
q1 -11 1.5 -23.5t-0.5 -26.5h-50q0 13 -0.5 28.5t-1.5 28.5q0 20 -16 20h-13v-77h-50zM228 709h14q17 0 17 17v17q0 13 -18 13h-13v-47z" />
    <glyph glyph-name="macron" unicode="&#xaf;" horiz-adv-x="466" 
d="M40 661v72h386v-72h-386z" />
    <glyph glyph-name="degree" unicode="&#xb0;" horiz-adv-x="299" 
d="M150 591q-30 0 -55 15t-40 40t-15 54q0 30 15 55t40 40t55 15t54.5 -15t39.5 -40t15 -55q0 -29 -15 -54t-39.5 -40t-54.5 -15zM99 700q0 -21 14.5 -35.5t36.5 -14.5q21 0 35.5 14.5t14.5 35.5q0 22 -14.5 36.5t-35.5 14.5q-22 0 -36.5 -14.5t-14.5 -36.5z" />
    <glyph glyph-name="plusminus" unicode="&#xb1;" horiz-adv-x="536" 
d="M212 219v82h-172v112h172v112h112v-112h172v-112h-172v-82h-112zM40 87v90h456v-90h-456z" />
    <glyph glyph-name="uni00B2" unicode="&#xb2;" horiz-adv-x="343" 
d="M41 439q-1 41 -1 56.5t1 25.5q5 64 91 103l41 18q14 6 17.5 13t4.5 19q1 14 0 27q-2 18 -24 18q-20 0 -22 -17q-1 -15 -1 -29t1 -20h-106q-1 6 -1.5 16t0.5 19q2 56 35.5 86.5t92.5 30.5q65 0 99 -30.5t34 -86.5v-14q0 -39 -22.5 -65t-63.5 -43l-51 -21q-4 -1 -9 -4
t-5 -6v-2h139v-94h-250z" />
    <glyph glyph-name="uni00B3" unicode="&#xb3;" horiz-adv-x="343" 
d="M169 434q-67 0 -103 28.5t-36 80.5v5t1 6h107q-1 -2 -1 -5v-5q0 -24 29 -24t29 21v15q0 25 -28 25h-64l-3 78l61 47h-120v94h252l-1 -92l-73 -46q84 -16 84 -104v-16q0 -52 -34.5 -80t-99.5 -28z" />
    <glyph glyph-name="acute" unicode="&#xb4;" horiz-adv-x="263" 
d="M30 641l87 139h96l-92 -139h-91z" />
    <glyph glyph-name="uni00B5" unicode="&#xb5;" horiz-adv-x="518" 
d="M42 -200l-2 800h150l1 -454q0 -47 47 -47q20 0 43 12t32 31v458h150v-476q0 -40 4 -72t11 -52h-150q-4 12 -7.5 28.5t-5.5 36.5h-22q-19 -34 -42 -54.5t-52 -20.5h-7v-190h-150z" />
    <glyph glyph-name="paragraph" unicode="&#xb6;" horiz-adv-x="572" 
d="M278 -100v427h-31q-73 0 -116.5 20t-64 64.5t-25.5 116.5q-1 13 -1 35t1 38q4 72 24 115.5t64 63.5t118 20h285v-80h-41v-820h-90v820h-33v-820h-90z" />
    <glyph glyph-name="periodcentered" unicode="&#xb7;" horiz-adv-x="250" 
d="M40 341v132h170v-132h-170z" />
    <glyph glyph-name="cedilla" unicode="&#xb8;" horiz-adv-x="228" 
d="M108 -176q-38 0 -62 8l12 46q17 -3 50 -3q24 0 24 20q0 25 -24 25h-61l-7 7v73h52v-34h16q38 0 59 -18t21 -53q0 -34 -21 -52.5t-59 -18.5z" />
    <glyph glyph-name="uni00B9" unicode="&#xb9;" horiz-adv-x="250" 
d="M62 442v273h-51l-1 36l76 51h84v-360h-108z" />
    <glyph glyph-name="ordmasculine" unicode="&#xba;" horiz-adv-x="406" 
d="M203 376q-84 0 -120.5 34t-40.5 116q0 12 -1 37t-0.5 52.5t1.5 45.5q7 83 42 116t117 33q89 0 124.5 -35.5t39.5 -113.5q1 -18 1.5 -45.5t0 -52.5t-1.5 -37q-4 -52 -19.5 -85t-49 -49t-93.5 -16zM204 462q24 0 33.5 9t10.5 25q3 56 2.5 101t-2.5 94q-1 15 -10.5 24
t-33.5 9t-34 -9t-11 -24q-3 -49 -3 -94t3 -101q1 -16 11 -25t34 -9z" />
    <glyph glyph-name="guillemotright" unicode="&#xbb;" horiz-adv-x="369" 
d="M200 75l159 172v136l-159 172v-136l96 -104l-96 -104v-136zM40 75l159 172v136l-159 172v-136l96 -104l-96 -104v-136z" />
    <glyph glyph-name="onequarter" unicode="&#xbc;" horiz-adv-x="632" 
d="M62 441v273h-51l-1 36l76 51h84v-360h-108zM-37 0l531 800h104l-532 -800h-103zM456 0v70h-144v90l111 200h134v-197h45v-93h-45v-70h-101zM417 163h39l15 67l12 36h-17l-19 -36z" />
    <glyph glyph-name="onehalf" unicode="&#xbd;" horiz-adv-x="645" 
d="M62 441v273h-51l-1 36l76 51h84v-360h-108zM-37 0l531 800h104l-532 -800h-103zM343 0q-1 41 -1 56.5t1 25.5q5 64 91 103l41 18q14 6 17.5 13t4.5 19q1 14 0 27q-2 18 -24 18q-20 0 -22 -17q-1 -15 -1 -29t1 -20h-106q-1 6 -1.5 16t0.5 19q2 56 35.5 86.5t92.5 30.5
q65 0 99 -30.5t34 -86.5v-14q0 -39 -22.5 -65t-63.5 -43l-51 -21q-4 -1 -9 -4t-5 -6v-2h139v-94h-250z" />
    <glyph glyph-name="threequarters" unicode="&#xbe;" horiz-adv-x="735" 
d="M169 434q-67 0 -103 28.5t-36 80.5v5t1 6h107q-1 -2 -1 -5v-5q0 -24 29 -24t29 21v15q0 25 -28 25h-64l-3 78l61 47h-120v94h252l-1 -92l-73 -46q84 -16 84 -104v-16q0 -52 -34.5 -80t-99.5 -28zM66 0l531 800h104l-532 -800h-103zM559 0v70h-144v90l111 200h134v-197h45
v-93h-45v-70h-101zM520 163h39l15 67l12 36h-17l-19 -36z" />
    <glyph glyph-name="questiondown" unicode="&#xbf;" horiz-adv-x="500" 
d="M311 379l3 -44q3 -45 -3 -76t-25 -55t-55 -47l-17 -11q-16 -11 -20 -34t-4 -48v-103q0 -50 62 -50q57 0 60 50q2 38 2 72t-1 66h145q1 -21 1.5 -49t-0.5 -61q-5 -107 -52.5 -153.5t-153.5 -46.5q-114 0 -163.5 46.5t-49.5 153.5v75q0 56 10.5 90t26 52.5t32 27.5t28.5 16
l24 13q21 11 25.5 31t6.5 41l4 44h114zM338 600v-139h-170v139h170z" />
    <glyph glyph-name="Agrave" unicode="&#xc0;" horiz-adv-x="498" 
d="M20 0l111 800h236l111 -800h-154l-17 167h-116l-17 -167h-154zM205 299h88l-18 177l-12 192h-28l-12 -192zM99 938v3h85l111 -87v-3h-76z" />
    <glyph glyph-name="Aacute" unicode="&#xc1;" horiz-adv-x="498" 
d="M20 0l111 800h236l111 -800h-154l-17 167h-116l-17 -167h-154zM205 299h88l-18 177l-12 192h-28l-12 -192zM219 851v3l111 87h85v-3l-120 -87h-76z" />
    <glyph glyph-name="Acircumflex" unicode="&#xc2;" horiz-adv-x="498" 
d="M20 0l111 800h236l111 -800h-154l-17 167h-116l-17 -167h-154zM205 299h88l-18 177l-12 192h-28l-12 -192zM89 841l112 99h86l112 -99h-96l-59 57l-59 -57h-96z" />
    <glyph glyph-name="Atilde" unicode="&#xc3;" horiz-adv-x="498" 
d="M20 0l111 800h236l111 -800h-154l-17 167h-116l-17 -167h-154zM205 299h88l-18 177l-12 192h-28l-12 -192zM104 839q3 47 26 68t63 21q30 0 48 -8.5t32 -17t32 -8.5q17 0 27 9.5t11 24.5h51q-6 -95 -90 -95q-28 0 -47 9t-34 17.5t-34 8.5q-31 0 -34 -29h-51z" />
    <glyph glyph-name="Adieresis" unicode="&#xc4;" horiz-adv-x="498" 
d="M20 0l111 800h236l111 -800h-154l-17 167h-116l-17 -167h-154zM205 299h88l-18 177l-12 192h-28l-12 -192zM274 851v89h109v-89h-109zM115 851v89h109v-89h-109z" />
    <glyph glyph-name="Aring" unicode="&#xc5;" horiz-adv-x="498" 
d="M20 0l111 800h236l111 -800h-154l-17 167h-116l-17 -167h-154zM205 299h88l-18 177l-12 192h-28l-12 -192zM249 747q-40 0 -69 29t-29 69q0 41 29 69.5t69 28.5q41 0 69.5 -28.5t28.5 -69.5q0 -40 -28.5 -69t-69.5 -29zM206 845q0 -18 12.5 -30.5t30.5 -12.5t30.5 12.5
t12.5 30.5t-12.5 30.5t-30.5 12.5t-30.5 -12.5t-12.5 -30.5z" />
    <glyph glyph-name="AE" unicode="&#xc6;" horiz-adv-x="692" 
d="M672 668h-196v-195h186v-132h-186v-209h196v-132h-346v167h-106l-36 -167h-164l166 800h486v-132zM248 299h78v369h-26l-22 -232z" />
    <glyph glyph-name="Ccedilla" unicode="&#xc7;" horiz-adv-x="485" 
d="M252 -10q-113 0 -161 46.5t-50 154.5q-1 42 -1 96.5v113v113.5t1 97q2 92 51.5 145.5t159.5 53.5q108 0 156.5 -46.5t51.5 -153.5q1 -25 0.5 -55t-1.5 -55h-150q1 19 1 44t0.5 50.5t-0.5 43.5q-2 50 -58 50q-59 0 -61 -50q-2 -70 -3 -154t0 -167.5t3 -153.5q2 -51 61 -51
q60 0 62 51q1 18 1 43.5v50.5t-1 43h150q1 -24 1 -54.5t-1 -54.5q-3 -108 -52.5 -154.5t-159.5 -46.5zM296 -166q-38 0 -62 8l12 46q17 -3 50 -3q24 0 24 20q0 25 -24 25h-61l-7 7v73h52v-34h16q38 0 59 -18t21 -53q0 -34 -21 -52.5t-59 -18.5z" />
    <glyph glyph-name="Egrave" unicode="&#xc8;" horiz-adv-x="406" 
d="M40 0v800h346v-132h-196v-195h186v-132h-186v-209h196v-132h-346zM65 938v3h85l111 -87v-3h-76z" />
    <glyph glyph-name="Eacute" unicode="&#xc9;" horiz-adv-x="406" 
d="M40 0v800h346v-132h-196v-195h186v-132h-186v-209h196v-132h-346zM185 851v3l111 87h85v-3l-120 -87h-76z" />
    <glyph glyph-name="Ecircumflex" unicode="&#xca;" horiz-adv-x="406" 
d="M40 0v800h346v-132h-196v-195h186v-132h-186v-209h196v-132h-346zM55 841l112 99h86l112 -99h-96l-59 57l-59 -57h-96z" />
    <glyph glyph-name="Edieresis" unicode="&#xcb;" horiz-adv-x="406" 
d="M40 0v800h346v-132h-196v-195h186v-132h-186v-209h196v-132h-346zM240 851v89h109v-89h-109zM81 851v89h109v-89h-109z" />
    <glyph glyph-name="Igrave" unicode="&#xcc;" horiz-adv-x="230" 
d="M40 0v800h150v-800h-150zM-35 938v3h85l111 -87v-3h-76z" />
    <glyph glyph-name="Iacute" unicode="&#xcd;" horiz-adv-x="230" 
d="M40 0v800h150v-800h-150zM85 851v3l111 87h85v-3l-120 -87h-76z" />
    <glyph glyph-name="Icircumflex" unicode="&#xce;" horiz-adv-x="230" 
d="M40 0v800h150v-800h-150zM-45 841l112 99h86l112 -99h-96l-59 57l-59 -57h-96z" />
    <glyph glyph-name="Idieresis" unicode="&#xcf;" horiz-adv-x="230" 
d="M40 0v800h150v-800h-150zM140 851v89h109v-89h-109zM-19 851v89h109v-89h-109z" />
    <glyph glyph-name="Eth" unicode="&#xd0;" horiz-adv-x="549" 
d="M89 0v401h-39v72h39v327h203q113 0 163 -47.5t52 -157.5q2 -69 2.5 -131.5t0 -125t-2.5 -132.5q-2 -110 -52 -158t-163 -48h-203zM239 132h53q63 0 65 56q6 213 0 425q-2 55 -65 55h-53v-195h69v-72h-69v-269z" />
    <glyph glyph-name="Ntilde" unicode="&#xd1;" horiz-adv-x="543" 
d="M40 0v800h217l60 -255l55 -413h26l-28 325l-12 343h145v-800h-228l-60 262l-41 407h-28l26 -362l13 -307h-145zM127 839q3 47 26 68t63 21q30 0 48 -8.5t32 -17t32 -8.5q17 0 27 9.5t11 24.5h51q-6 -95 -90 -95q-28 0 -47 9t-34 17.5t-34 8.5q-31 0 -34 -29h-51z" />
    <glyph glyph-name="Ograve" unicode="&#xd2;" horiz-adv-x="507" 
d="M253 -10q-110 0 -159.5 46.5t-51.5 154.5q-2 98 -2 209.5t2 209.5q2 107 51.5 153.5t159.5 46.5t158 -46.5t52 -153.5q4 -100 4 -210.5t-4 -208.5q-4 -108 -52 -154.5t-158 -46.5zM253 112q58 0 60 51t3.5 112t1.5 125.5t-1.5 125.5t-3.5 112q-2 50 -60 50q-59 0 -61 -50
q-2 -51 -3 -112t-1 -125.5t1 -125.5t3 -112t61 -51zM104 938v3h85l111 -87v-3h-76z" />
    <glyph glyph-name="Oacute" unicode="&#xd3;" horiz-adv-x="507" 
d="M253 -10q-110 0 -159.5 46.5t-51.5 154.5q-2 98 -2 209.5t2 209.5q2 107 51.5 153.5t159.5 46.5t158 -46.5t52 -153.5q4 -100 4 -210.5t-4 -208.5q-4 -108 -52 -154.5t-158 -46.5zM253 112q58 0 60 51t3.5 112t1.5 125.5t-1.5 125.5t-3.5 112q-2 50 -60 50q-59 0 -61 -50
q-2 -51 -3 -112t-1 -125.5t1 -125.5t3 -112t61 -51zM224 851v3l111 87h85v-3l-120 -87h-76z" />
    <glyph glyph-name="Ocircumflex" unicode="&#xd4;" horiz-adv-x="507" 
d="M253 -10q-110 0 -159.5 46.5t-51.5 154.5q-2 98 -2 209.5t2 209.5q2 107 51.5 153.5t159.5 46.5t158 -46.5t52 -153.5q4 -100 4 -210.5t-4 -208.5q-4 -108 -52 -154.5t-158 -46.5zM253 112q58 0 60 51t3.5 112t1.5 125.5t-1.5 125.5t-3.5 112q-2 50 -60 50q-59 0 -61 -50
q-2 -51 -3 -112t-1 -125.5t1 -125.5t3 -112t61 -51zM94 841l112 99h86l112 -99h-96l-59 57l-59 -57h-96z" />
    <glyph glyph-name="Otilde" unicode="&#xd5;" horiz-adv-x="507" 
d="M253 -10q-110 0 -159.5 46.5t-51.5 154.5q-2 98 -2 209.5t2 209.5q2 107 51.5 153.5t159.5 46.5t158 -46.5t52 -153.5q4 -100 4 -210.5t-4 -208.5q-4 -108 -52 -154.5t-158 -46.5zM253 112q58 0 60 51t3.5 112t1.5 125.5t-1.5 125.5t-3.5 112q-2 50 -60 50q-59 0 -61 -50
q-2 -51 -3 -112t-1 -125.5t1 -125.5t3 -112t61 -51zM109 839q3 47 26 68t63 21q30 0 48 -8.5t32 -17t32 -8.5q17 0 27 9.5t11 24.5h51q-6 -95 -90 -95q-28 0 -47 9t-34 17.5t-34 8.5q-31 0 -34 -29h-51z" />
    <glyph glyph-name="Odieresis" unicode="&#xd6;" horiz-adv-x="507" 
d="M253 -10q-110 0 -159.5 46.5t-51.5 154.5q-2 98 -2 209.5t2 209.5q2 107 51.5 153.5t159.5 46.5t158 -46.5t52 -153.5q4 -100 4 -210.5t-4 -208.5q-4 -108 -52 -154.5t-158 -46.5zM253 112q58 0 60 51t3.5 112t1.5 125.5t-1.5 125.5t-3.5 112q-2 50 -60 50q-59 0 -61 -50
q-2 -51 -3 -112t-1 -125.5t1 -125.5t3 -112t61 -51zM279 851v89h109v-89h-109zM120 851v89h109v-89h-109z" />
    <glyph glyph-name="multiply" unicode="&#xd7;" horiz-adv-x="482" 
d="M40 235l122 122l-122 122l79 79l122 -122l122 122l79 -79l-122 -122l122 -122l-79 -79l-122 122l-122 -122z" />
    <glyph glyph-name="Oslash" unicode="&#xd8;" horiz-adv-x="507" 
d="M253 -10q-110 0 -159.5 46.5t-51.5 154.5q-2 98 -2 209.5t2 209.5q2 107 51.5 153.5t159.5 46.5t158 -46.5t52 -153.5q4 -100 4 -210.5t-4 -208.5q-4 -108 -52 -154.5t-158 -46.5zM192 638q-3 -61 -4 -137t0 -152l121 310q-13 29 -56 29q-59 0 -61 -50zM253 112
q58 0 60 51q2 52 3.5 113.5t0.5 124.5l-108 -276q16 -13 44 -13z" />
    <glyph glyph-name="Ugrave" unicode="&#xd9;" horiz-adv-x="505" 
d="M253 -10q-112 0 -160.5 46.5t-50.5 154.5q-5 305 0 609h150q-2 -100 -2.5 -209.5t0.5 -218t2 -209.5q0 -51 61 -51q60 0 60 51q1 101 2 209.5t0.5 218t-2.5 209.5h150q5 -304 0 -609q-1 -108 -49.5 -154.5t-160.5 -46.5zM103 938v3h85l111 -87v-3h-76z" />
    <glyph glyph-name="Uacute" unicode="&#xda;" horiz-adv-x="505" 
d="M253 -10q-112 0 -160.5 46.5t-50.5 154.5q-5 305 0 609h150q-2 -100 -2.5 -209.5t0.5 -218t2 -209.5q0 -51 61 -51q60 0 60 51q1 101 2 209.5t0.5 218t-2.5 209.5h150q5 -304 0 -609q-1 -108 -49.5 -154.5t-160.5 -46.5zM223 851v3l111 87h85v-3l-120 -87h-76z" />
    <glyph glyph-name="Ucircumflex" unicode="&#xdb;" horiz-adv-x="505" 
d="M253 -10q-112 0 -160.5 46.5t-50.5 154.5q-5 305 0 609h150q-2 -100 -2.5 -209.5t0.5 -218t2 -209.5q0 -51 61 -51q60 0 60 51q1 101 2 209.5t0.5 218t-2.5 209.5h150q5 -304 0 -609q-1 -108 -49.5 -154.5t-160.5 -46.5zM93 841l112 99h86l112 -99h-96l-59 57l-59 -57
h-96z" />
    <glyph glyph-name="Udieresis" unicode="&#xdc;" horiz-adv-x="505" 
d="M253 -10q-112 0 -160.5 46.5t-50.5 154.5q-5 305 0 609h150q-2 -100 -2.5 -209.5t0.5 -218t2 -209.5q0 -51 61 -51q60 0 60 51q1 101 2 209.5t0.5 218t-2.5 209.5h150q5 -304 0 -609q-1 -108 -49.5 -154.5t-160.5 -46.5zM278 851v89h109v-89h-109zM119 851v89h109v-89
h-109z" />
    <glyph glyph-name="Yacute" unicode="&#xdd;" horiz-adv-x="490" 
d="M170 0v191l-11 45l-139 564h153l43 -194l15 -235h28l15 235l43 194h153l-139 -563l-11 -46v-191h-150zM210 851v3l111 87h85v-3l-120 -87h-76z" />
    <glyph glyph-name="Thorn" unicode="&#xde;" horiz-adv-x="469" 
d="M40 0v800h150v-120h43q112 0 161.5 -45.5t53.5 -149.5q2 -42 2 -78t-2 -78q-4 -104 -53.5 -149.5t-161.5 -45.5h-43v-134h-150zM190 266h43q62 0 65 55q2 37 2 86t-2 86q-3 55 -65 55h-43v-282z" />
    <glyph glyph-name="germandbls" unicode="&#xdf;" horiz-adv-x="496" 
d="M465 257q1 -30 0 -62q-4 -104 -53.5 -149.5t-161.5 -45.5h-17v132h17q65 0 65 65v53q0 50 -15 70.5t-50 20.5h-11v132h6q32 0 48.5 21.5t16.5 61.5v32t-1 35q-1 26 -15 40.5t-46 14.5q-28 0 -42 -15.5t-15 -39.5l-1 -623h-150v600q0 107 51 153.5t161 46.5
q112 0 160 -45.5t48 -149.5v-53q0 -55 -23.5 -86.5t-67.5 -46.5v-24q48 -14 71 -47t25 -91z" />
    <glyph glyph-name="agrave" unicode="&#xe0;" horiz-adv-x="471" 
d="M157 -8q-67 0 -98 32.5t-38 111.5q-2 22 0 44q5 62 39.5 97t115.5 64q27 10 52 16.5t53 13.5v77q-1 24 -10.5 37t-38.5 13q-25 0 -34 -10.5t-11 -34.5q0 -7 -0.5 -23.5t0 -34t0.5 -26.5h-146q-1 5 -1.5 28t0.5 39q3 61 22 99t61 56.5t113 18.5q75 0 116 -20.5t58.5 -64
t19.5 -113.5l-1 -412h-150v65h-19q-18 -38 -40.5 -55.5t-62.5 -17.5zM220 99q20 0 35 11t25 29v136q-38 -8 -65 -20q-26 -12 -35 -31.5t-11 -43.5q-1 -18 0 -32q5 -49 51 -49zM97 800h96l92 -139h-96z" />
    <glyph glyph-name="aacute" unicode="&#xe1;" horiz-adv-x="471" 
d="M157 -8q-67 0 -98 32.5t-38 111.5q-2 22 0 44q5 62 39.5 97t115.5 64q27 10 52 16.5t53 13.5v77q-1 24 -10.5 37t-38.5 13q-25 0 -34 -10.5t-11 -34.5q0 -7 -0.5 -23.5t0 -34t0.5 -26.5h-146q-1 5 -1.5 28t0.5 39q3 61 22 99t61 56.5t113 18.5q75 0 116 -20.5t58.5 -64
t19.5 -113.5l-1 -412h-150v65h-19q-18 -38 -40.5 -55.5t-62.5 -17.5zM220 99q20 0 35 11t25 29v136q-38 -8 -65 -20q-26 -12 -35 -31.5t-11 -43.5q-1 -18 0 -32q5 -49 51 -49zM191 661l87 139h96l-92 -139h-91z" />
    <glyph glyph-name="acircumflex" unicode="&#xe2;" horiz-adv-x="471" 
d="M157 -8q-67 0 -98 32.5t-38 111.5q-2 22 0 44q5 62 39.5 97t115.5 64q27 10 52 16.5t53 13.5v77q-1 24 -10.5 37t-38.5 13q-25 0 -34 -10.5t-11 -34.5q0 -7 -0.5 -23.5t0 -34t0.5 -26.5h-146q-1 5 -1.5 28t0.5 39q3 61 22 99t61 56.5t113 18.5q75 0 116 -20.5t58.5 -64
t19.5 -113.5l-1 -412h-150v65h-19q-18 -38 -40.5 -55.5t-62.5 -17.5zM220 99q20 0 35 11t25 29v136q-38 -8 -65 -20q-26 -12 -35 -31.5t-11 -43.5q-1 -18 0 -32q5 -49 51 -49zM105 641l82 139h86l82 -139h-96l-29 56l-29 -56h-96z" />
    <glyph glyph-name="atilde" unicode="&#xe3;" horiz-adv-x="471" 
d="M157 -8q-67 0 -98 32.5t-38 111.5q-2 22 0 44q5 62 39.5 97t115.5 64q27 10 52 16.5t53 13.5v77q-1 24 -10.5 37t-38.5 13q-25 0 -34 -10.5t-11 -34.5q0 -7 -0.5 -23.5t0 -34t0.5 -26.5h-146q-1 5 -1.5 28t0.5 39q3 61 22 99t61 56.5t113 18.5q75 0 116 -20.5t58.5 -64
t19.5 -113.5l-1 -412h-150v65h-19q-18 -38 -40.5 -55.5t-62.5 -17.5zM220 99q20 0 35 11t25 29v136q-38 -8 -65 -20q-26 -12 -35 -31.5t-11 -43.5q-1 -18 0 -32q5 -49 51 -49zM76 660q4 62 30 89t67 27q34 0 53.5 -11.5t35 -23.5t35.5 -12q39 0 41 34h56q-3 -59 -29.5 -84.5
t-69.5 -25.5q-30 0 -51 12t-37.5 24t-36.5 12q-35 0 -38 -41h-56z" />
    <glyph glyph-name="adieresis" unicode="&#xe4;" horiz-adv-x="471" 
d="M157 -8q-67 0 -98 32.5t-38 111.5q-2 22 0 44q5 62 39.5 97t115.5 64q27 10 52 16.5t53 13.5v77q-1 24 -10.5 37t-38.5 13q-25 0 -34 -10.5t-11 -34.5q0 -7 -0.5 -23.5t0 -34t0.5 -26.5h-146q-1 5 -1.5 28t0.5 39q3 61 22 99t61 56.5t113 18.5q75 0 116 -20.5t58.5 -64
t19.5 -113.5l-1 -412h-150v65h-19q-18 -38 -40.5 -55.5t-62.5 -17.5zM220 99q20 0 35 11t25 29v136q-38 -8 -65 -20q-26 -12 -35 -31.5t-11 -43.5q-1 -18 0 -32q5 -49 51 -49zM260 661v109h109v-109h-109zM101 661v109h109v-109h-109z" />
    <glyph glyph-name="aring" unicode="&#xe5;" horiz-adv-x="471" 
d="M157 -8q-67 0 -98 32.5t-38 111.5q-2 22 0 44q5 62 39.5 97t115.5 64q27 10 52 16.5t53 13.5v77q-1 24 -10.5 37t-38.5 13q-25 0 -34 -10.5t-11 -34.5q0 -7 -0.5 -23.5t0 -34t0.5 -26.5h-146q-1 5 -1.5 28t0.5 39q3 61 22 99t61 56.5t113 18.5q75 0 116 -20.5t58.5 -64
t19.5 -113.5l-1 -412h-150v65h-19q-18 -38 -40.5 -55.5t-62.5 -17.5zM220 99q20 0 35 11t25 29v136q-38 -8 -65 -20q-26 -12 -35 -31.5t-11 -43.5q-1 -18 0 -32q5 -49 51 -49zM235 533q-38 0 -70 18.5t-50.5 50.5t-18.5 70q0 39 18.5 70.5t50.5 50t70 18.5q39 0 70.5 -18.5
t50 -50t18.5 -70.5q0 -38 -18.5 -70t-50 -50.5t-70.5 -18.5zM174 672q0 -25 18 -43t43 -18q26 0 43.5 18t17.5 43q0 26 -17.5 43.5t-43.5 17.5q-25 0 -43 -17.5t-18 -43.5z" />
    <glyph glyph-name="ae" unicode="&#xe6;" horiz-adv-x="708" 
d="M157 -8q-59 0 -95 32.5t-41 111.5q-2 22 0 44q5 62 41 97.5t114 63.5q27 10 52 16.5t52 13.5v77q0 24 -9.5 37t-38.5 13q-25 0 -34 -10.5t-11 -34.5q0 -7 -0.5 -23.5t0 -34t0.5 -26.5h-146q-1 5 -1.5 28t0.5 39q3 61 22 99t61 56.5t113 18.5q81 0 122 -24q23 13 54 18.5
t69 5.5q101 0 146.5 -40.5t49.5 -133.5q1 -11 1 -38.5v-61t-2 -61.5h-248v-123q0 -27 14 -38.5t41 -11.5q24 0 35 11.5t12 38.5q2 25 0 81h146q1 -5 1.5 -26.5t-0.5 -38.5q-4 -95 -49.5 -136.5t-144.5 -41.5q-136 0 -179 75h-11q-19 -39 -55.5 -56t-80.5 -17zM428 378h103
q0 20 -0.5 41.5t-0.5 33.5q0 45 -49 45q-53 0 -53 -45v-75zM220 99q13 0 26.5 6.5t23.5 28t11 67.5q0 16 -0.5 35t-0.5 39q-16 -4 -33.5 -8.5t-31.5 -11.5q-26 -12 -35 -30.5t-11 -44.5q-1 -17 0 -32q5 -49 51 -49z" />
    <glyph glyph-name="ccedilla" unicode="&#xe7;" horiz-adv-x="468" 
d="M42 168q-1 17 -1.5 52.5t-0.5 77t0.5 77.5t1.5 55q7 97 53.5 138.5t146.5 41.5q101 0 146.5 -40.5t49.5 -133.5q1 -16 0.5 -39t-1.5 -28h-146q1 9 1 26.5v34t-1 23.5q-1 24 -12.5 34.5t-36.5 10.5q-26 0 -37.5 -10.5t-12.5 -34.5q-2 -71 -2 -151t2 -150q1 -27 13 -38.5
t39 -11.5q24 0 35 11.5t12 38.5q2 25 0 81h146q1 -5 1.5 -26.5t-0.5 -38.5q-4 -95 -49.5 -136.5t-144.5 -41.5q-103 0 -150 41.5t-52 136.5zM282 -166q-38 0 -62 8l12 46q17 -3 50 -3q24 0 24 20q0 25 -24 25h-61l-7 7v73h52v-34h16q38 0 59 -18t21 -53q0 -34 -21 -52.5
t-59 -18.5z" />
    <glyph glyph-name="egrave" unicode="&#xe8;" horiz-adv-x="469" 
d="M291 233h146q1 -5 1.5 -26.5t-0.5 -38.5q-4 -95 -49.5 -136.5t-144.5 -41.5q-103 0 -150 41.5t-52 136.5q-1 17 -1.5 52.5t-0.5 77t0.5 77.5t1.5 55q7 97 53.5 138.5t146.5 41.5q101 0 146.5 -40.5t49.5 -133.5q1 -11 1 -38.5v-61t-2 -61.5h-247q0 -32 0.5 -63t1.5 -60
q1 -27 13 -38.5t39 -11.5q24 0 35 11.5t12 38.5q2 25 0 81zM242 498q-26 0 -37.5 -10.5t-12.5 -34.5q-1 -18 -1 -36.5t-1 -38.5h102q0 27 -0.5 49t-0.5 26q-1 24 -12.5 34.5t-36.5 10.5zM102 800h96l92 -139h-96z" />
    <glyph glyph-name="eacute" unicode="&#xe9;" horiz-adv-x="469" 
d="M291 233h146q1 -5 1.5 -26.5t-0.5 -38.5q-4 -95 -49.5 -136.5t-144.5 -41.5q-103 0 -150 41.5t-52 136.5q-1 17 -1.5 52.5t-0.5 77t0.5 77.5t1.5 55q7 97 53.5 138.5t146.5 41.5q101 0 146.5 -40.5t49.5 -133.5q1 -11 1 -38.5v-61t-2 -61.5h-247q0 -32 0.5 -63t1.5 -60
q1 -27 13 -38.5t39 -11.5q24 0 35 11.5t12 38.5q2 25 0 81zM242 498q-26 0 -37.5 -10.5t-12.5 -34.5q-1 -18 -1 -36.5t-1 -38.5h102q0 27 -0.5 49t-0.5 26q-1 24 -12.5 34.5t-36.5 10.5zM196 661l87 139h96l-92 -139h-91z" />
    <glyph glyph-name="ecircumflex" unicode="&#xea;" horiz-adv-x="469" 
d="M291 233h146q1 -5 1.5 -26.5t-0.5 -38.5q-4 -95 -49.5 -136.5t-144.5 -41.5q-103 0 -150 41.5t-52 136.5q-1 17 -1.5 52.5t-0.5 77t0.5 77.5t1.5 55q7 97 53.5 138.5t146.5 41.5q101 0 146.5 -40.5t49.5 -133.5q1 -11 1 -38.5v-61t-2 -61.5h-247q0 -32 0.5 -63t1.5 -60
q1 -27 13 -38.5t39 -11.5q24 0 35 11.5t12 38.5q2 25 0 81zM242 498q-26 0 -37.5 -10.5t-12.5 -34.5q-1 -18 -1 -36.5t-1 -38.5h102q0 27 -0.5 49t-0.5 26q-1 24 -12.5 34.5t-36.5 10.5zM110 641l82 139h86l82 -139h-96l-29 56l-29 -56h-96z" />
    <glyph glyph-name="edieresis" unicode="&#xeb;" horiz-adv-x="469" 
d="M291 233h146q1 -5 1.5 -26.5t-0.5 -38.5q-4 -95 -49.5 -136.5t-144.5 -41.5q-103 0 -150 41.5t-52 136.5q-1 17 -1.5 52.5t-0.5 77t0.5 77.5t1.5 55q7 97 53.5 138.5t146.5 41.5q101 0 146.5 -40.5t49.5 -133.5q1 -11 1 -38.5v-61t-2 -61.5h-247q0 -32 0.5 -63t1.5 -60
q1 -27 13 -38.5t39 -11.5q24 0 35 11.5t12 38.5q2 25 0 81zM242 498q-26 0 -37.5 -10.5t-12.5 -34.5q-1 -18 -1 -36.5t-1 -38.5h102q0 27 -0.5 49t-0.5 26q-1 24 -12.5 34.5t-36.5 10.5zM265 661v109h109v-109h-109zM106 661v109h109v-109h-109z" />
    <glyph glyph-name="igrave" unicode="&#xec;" horiz-adv-x="230" 
d="M40 0v600h150v-600h-150zM-23 800h96l92 -139h-96z" />
    <glyph glyph-name="iacute" unicode="&#xed;" horiz-adv-x="230" 
d="M40 0v600h150v-600h-150zM71 661l87 139h96l-92 -139h-91z" />
    <glyph glyph-name="icircumflex" unicode="&#xee;" horiz-adv-x="230" 
d="M40 0v600h150v-600h-150zM-15 641l82 139h86l82 -139h-96l-29 56l-29 -56h-96z" />
    <glyph glyph-name="idieresis" unicode="&#xef;" horiz-adv-x="230" 
d="M40 0v600h150v-600h-150zM140 661v109h109v-109h-109zM-19 661v109h109v-109h-109z" />
    <glyph glyph-name="eth" unicode="&#xf0;" horiz-adv-x="496" 
d="M255 -10q-110 0 -159 46.5t-54 154.5q-1 20 -1.5 50t0 62t0.5 59q2 77 42.5 123t98.5 46q40 0 66 -15t39 -40h13q-18 63 -59 114l-55 -27l-24 48l41 21q-31 29 -72 51l81 127q74 -44 125 -100l67 33l24 -48l-57 -28q46 -66 68 -145.5t26 -173.5q1 -20 1.5 -49.5t0 -58.5
t-1.5 -49q-3 -72 -24.5 -116t-66 -64.5t-119.5 -20.5zM254 112q58 0 61 51q2 44 2 100.5t-2 101.5t-63 45q-28 0 -44 -13t-17 -38q0 -22 -0.5 -56t0 -71t1.5 -69q2 -51 62 -51z" />
    <glyph glyph-name="ntilde" unicode="&#xf1;" horiz-adv-x="504" 
d="M40 0v600h150v-65h26q21 36 44 55.5t70 19.5q62 0 97.5 -39t35.5 -130v-441h-150v454q0 47 -48 47q-20 0 -43 -11.5t-32 -31.5v-458h-150zM93 660q4 62 30 89t67 27q34 0 53.5 -11.5t35 -23.5t35.5 -12q39 0 41 34h56q-3 -59 -29.5 -84.5t-69.5 -25.5q-30 0 -51 12
t-37.5 24t-36.5 12q-35 0 -38 -41h-56z" />
    <glyph glyph-name="ograve" unicode="&#xf2;" horiz-adv-x="495" 
d="M248 -10q-73 0 -117 20t-64.5 64t-24.5 117q-1 17 -1.5 46t-0.5 62t0.5 62.5t1.5 48.5q4 72 24.5 116t64 64t117.5 20q75 0 118 -20.5t63 -64.5t24 -115q1 -17 1.5 -46t0.5 -62t-0.5 -62.5t-1.5 -48.5q-4 -71 -24 -115.5t-63 -65t-118 -20.5zM248 102q29 0 41.5 13
t13.5 38q2 69 2 147.5t-2 147.5q-1 24 -13.5 37t-41.5 13q-54 0 -56 -50q-2 -69 -2 -148t2 -147q2 -51 56 -51zM110 800h96l92 -139h-96z" />
    <glyph glyph-name="oacute" unicode="&#xf3;" horiz-adv-x="495" 
d="M248 -10q-73 0 -117 20t-64.5 64t-24.5 117q-1 17 -1.5 46t-0.5 62t0.5 62.5t1.5 48.5q4 72 24.5 116t64 64t117.5 20q75 0 118 -20.5t63 -64.5t24 -115q1 -17 1.5 -46t0.5 -62t-0.5 -62.5t-1.5 -48.5q-4 -71 -24 -115.5t-63 -65t-118 -20.5zM248 102q29 0 41.5 13
t13.5 38q2 69 2 147.5t-2 147.5q-1 24 -13.5 37t-41.5 13q-54 0 -56 -50q-2 -69 -2 -148t2 -147q2 -51 56 -51zM204 661l87 139h96l-92 -139h-91z" />
    <glyph glyph-name="ocircumflex" unicode="&#xf4;" horiz-adv-x="495" 
d="M248 -10q-73 0 -117 20t-64.5 64t-24.5 117q-1 17 -1.5 46t-0.5 62t0.5 62.5t1.5 48.5q4 72 24.5 116t64 64t117.5 20q75 0 118 -20.5t63 -64.5t24 -115q1 -17 1.5 -46t0.5 -62t-0.5 -62.5t-1.5 -48.5q-4 -71 -24 -115.5t-63 -65t-118 -20.5zM248 102q29 0 41.5 13
t13.5 38q2 69 2 147.5t-2 147.5q-1 24 -13.5 37t-41.5 13q-54 0 -56 -50q-2 -69 -2 -148t2 -147q2 -51 56 -51zM118 641l82 139h86l82 -139h-96l-29 56l-29 -56h-96z" />
    <glyph glyph-name="otilde" unicode="&#xf5;" horiz-adv-x="495" 
d="M248 -10q-73 0 -117 20t-64.5 64t-24.5 117q-1 17 -1.5 46t-0.5 62t0.5 62.5t1.5 48.5q4 72 24.5 116t64 64t117.5 20q75 0 118 -20.5t63 -64.5t24 -115q1 -17 1.5 -46t0.5 -62t-0.5 -62.5t-1.5 -48.5q-4 -71 -24 -115.5t-63 -65t-118 -20.5zM248 102q29 0 41.5 13
t13.5 38q2 69 2 147.5t-2 147.5q-1 24 -13.5 37t-41.5 13q-54 0 -56 -50q-2 -69 -2 -148t2 -147q2 -51 56 -51zM89 660q4 62 30 89t67 27q34 0 53.5 -11.5t35 -23.5t35.5 -12q39 0 41 34h56q-3 -59 -29.5 -84.5t-69.5 -25.5q-30 0 -51 12t-37.5 24t-36.5 12q-35 0 -38 -41
h-56z" />
    <glyph glyph-name="odieresis" unicode="&#xf6;" horiz-adv-x="495" 
d="M248 -10q-73 0 -117 20t-64.5 64t-24.5 117q-1 17 -1.5 46t-0.5 62t0.5 62.5t1.5 48.5q4 72 24.5 116t64 64t117.5 20q75 0 118 -20.5t63 -64.5t24 -115q1 -17 1.5 -46t0.5 -62t-0.5 -62.5t-1.5 -48.5q-4 -71 -24 -115.5t-63 -65t-118 -20.5zM248 102q29 0 41.5 13
t13.5 38q2 69 2 147.5t-2 147.5q-1 24 -13.5 37t-41.5 13q-54 0 -56 -50q-2 -69 -2 -148t2 -147q2 -51 56 -51zM273 661v109h109v-109h-109zM114 661v109h109v-109h-109z" />
    <glyph glyph-name="divide" unicode="&#xf7;" horiz-adv-x="536" 
d="M214 473v109h109v-109h-109zM40 301v112h456v-112h-456zM214 132v109h109v-109h-109z" />
    <glyph glyph-name="oslash" unicode="&#xf8;" horiz-adv-x="495" 
d="M248 -10q-73 0 -117 20t-64.5 64t-24.5 117q-1 17 -1.5 46t-0.5 62t0.5 62.5t1.5 48.5q4 72 24.5 116t64 64t117.5 20q75 0 118 -20.5t63 -64.5t24 -115q1 -17 1.5 -46t0.5 -62t-0.5 -62.5t-1.5 -48.5q-4 -71 -24 -115.5t-63 -65t-118 -20.5zM192 448q-2 -50 -2.5 -105.5
t0.5 -109.5l99 253q-13 12 -41 12q-54 0 -56 -50zM248 102q29 0 41.5 13t13.5 38q3 83 2 176l-87 -222q12 -5 30 -5z" />
    <glyph glyph-name="ugrave" unicode="&#xf9;" horiz-adv-x="504" 
d="M180 -10q-62 0 -99.5 39t-37.5 130v441h150v-454q0 -47 46 -47q20 0 43 12t32 31v458h150v-600h-150v65h-20q-23 -40 -49.5 -57.5t-64.5 -17.5zM114 800h96l92 -139h-96z" />
    <glyph glyph-name="uacute" unicode="&#xfa;" horiz-adv-x="504" 
d="M180 -10q-62 0 -99.5 39t-37.5 130v441h150v-454q0 -47 46 -47q20 0 43 12t32 31v458h150v-600h-150v65h-20q-23 -40 -49.5 -57.5t-64.5 -17.5zM208 661l87 139h96l-92 -139h-91z" />
    <glyph glyph-name="ucircumflex" unicode="&#xfb;" horiz-adv-x="504" 
d="M180 -10q-62 0 -99.5 39t-37.5 130v441h150v-454q0 -47 46 -47q20 0 43 12t32 31v458h150v-600h-150v65h-20q-23 -40 -49.5 -57.5t-64.5 -17.5zM122 641l82 139h86l82 -139h-96l-29 56l-29 -56h-96z" />
    <glyph glyph-name="udieresis" unicode="&#xfc;" horiz-adv-x="504" 
d="M180 -10q-62 0 -99.5 39t-37.5 130v441h150v-454q0 -47 46 -47q20 0 43 12t32 31v458h150v-600h-150v65h-20q-23 -40 -49.5 -57.5t-64.5 -17.5zM277 661v109h109v-109h-109zM118 661v109h109v-109h-109z" />
    <glyph glyph-name="yacute" unicode="&#xfd;" horiz-adv-x="465" 
d="M134 0l-114 600h152l36 -271l17 -219h28l13 219l27 271h152l-101 -633q-10 -63 -33.5 -102t-69 -57.5t-122.5 -18.5q-17 0 -36 2t-37 5v111q14 -1 36.5 -1.5t36.5 -0.5q40 0 55.5 11.5t19.5 38.5l6 45h-66zM187 661l87 139h96l-92 -139h-91z" />
    <glyph glyph-name="thorn" unicode="&#xfe;" horiz-adv-x="503" 
d="M40 -200v1000h150v-265h21q21 36 44 55.5t70 19.5q62 0 97 -39t39 -130q1 -24 1.5 -61.5t0.5 -79.5t-0.5 -79.5t-1.5 -61.5q-4 -91 -43 -130t-101 -39q-33 0 -58 17.5t-48 57.5h-21v-265h-150zM255 99q23 0 39 11.5t17 35.5q3 39 3.5 94.5t0 113t-3.5 100.5
q-1 24 -12 35.5t-34 11.5q-20 0 -43 -11.5t-32 -31.5v-316q11 -23 26 -33t39 -10z" />
    <glyph glyph-name="ydieresis" unicode="&#xff;" horiz-adv-x="465" 
d="M134 0l-114 600h152l36 -271l17 -219h28l13 219l27 271h152l-101 -633q-10 -63 -33.5 -102t-69 -57.5t-122.5 -18.5q-17 0 -36 2t-37 5v111q14 -1 36.5 -1.5t36.5 -0.5q40 0 55.5 11.5t19.5 38.5l6 45h-66zM256 661v109h109v-109h-109zM97 661v109h109v-109h-109z" />
    <glyph glyph-name="Amacron" unicode="&#x100;" horiz-adv-x="498" 
d="M20 0l111 800h236l111 -800h-154l-17 167h-116l-17 -167h-154zM205 299h88l-18 177l-12 192h-28l-12 -192zM76 841v62h346v-62h-346z" />
    <glyph glyph-name="amacron" unicode="&#x101;" horiz-adv-x="471" 
d="M157 -8q-67 0 -98 32.5t-38 111.5q-2 22 0 44q5 62 39.5 97t115.5 64q27 10 52 16.5t53 13.5v77q-1 24 -10.5 37t-38.5 13q-25 0 -34 -10.5t-11 -34.5q0 -7 -0.5 -23.5t0 -34t0.5 -26.5h-146q-1 5 -1.5 28t0.5 39q3 61 22 99t61 56.5t113 18.5q75 0 116 -20.5t58.5 -64
t19.5 -113.5l-1 -412h-150v65h-19q-18 -38 -40.5 -55.5t-62.5 -17.5zM220 99q20 0 35 11t25 29v136q-38 -8 -65 -20q-26 -12 -35 -31.5t-11 -43.5q-1 -18 0 -32q5 -49 51 -49zM42 661v72h386v-72h-386z" />
    <glyph glyph-name="Abreve" unicode="&#x102;" horiz-adv-x="498" 
d="M20 0l111 800h236l111 -800h-154l-17 167h-116l-17 -167h-154zM205 299h88l-18 177l-12 192h-28l-12 -192zM103 941h84q0 -17 18 -29t44 -12t44 12t18 29h85q-3 -45 -45 -75t-102 -30t-101.5 30t-44.5 75z" />
    <glyph glyph-name="abreve" unicode="&#x103;" horiz-adv-x="471" 
d="M157 -8q-67 0 -98 32.5t-38 111.5q-2 22 0 44q5 62 39.5 97t115.5 64q27 10 52 16.5t53 13.5v77q-1 24 -10.5 37t-38.5 13q-25 0 -34 -10.5t-11 -34.5q0 -7 -0.5 -23.5t0 -34t0.5 -26.5h-146q-1 5 -1.5 28t0.5 39q3 61 22 99t61 56.5t113 18.5q75 0 116 -20.5t58.5 -64
t19.5 -113.5l-1 -412h-150v65h-19q-18 -38 -40.5 -55.5t-62.5 -17.5zM220 99q20 0 35 11t25 29v136q-38 -8 -65 -20q-26 -12 -35 -31.5t-11 -43.5q-1 -18 0 -32q5 -49 51 -49zM84 800h89q0 -39 14.5 -56t47.5 -17t47.5 17t14.5 56h89q-5 -79 -40 -113.5t-111 -34.5
t-111 34.5t-40 113.5z" />
    <glyph glyph-name="Aogonek" unicode="&#x104;" horiz-adv-x="498" 
d="M20 0l111 800h236l111 -800h-154l-17 167h-116l-17 -167h-154zM205 299h88l-18 177l-12 192h-28l-12 -192zM272 -73q0 47 51 58v25h58l10 -10q-30 -11 -45 -28.5t-15 -35.5q0 -11 7.5 -18.5t25.5 -7.5q10 0 21.5 2t19.5 3l12 -48q-24 -8 -58 -8q-43 0 -65 18.5t-22 49.5z
" />
    <glyph glyph-name="aogonek" unicode="&#x105;" horiz-adv-x="471" 
d="M157 -8q-67 0 -98 32.5t-38 111.5q-2 22 0 44q5 62 39.5 97t115.5 64q27 10 52 16.5t53 13.5v77q-1 24 -10.5 37t-38.5 13q-25 0 -34 -10.5t-11 -34.5q0 -7 -0.5 -23.5t0 -34t0.5 -26.5h-146q-1 5 -1.5 28t0.5 39q3 61 22 99t61 56.5t113 18.5q75 0 116 -20.5t58.5 -64
t19.5 -113.5l-1 -412h-150v65h-19q-18 -38 -40.5 -55.5t-62.5 -17.5zM220 99q20 0 35 11t25 29v136q-38 -8 -65 -20q-26 -12 -35 -31.5t-11 -43.5q-1 -18 0 -32q5 -49 51 -49zM228 -73q0 47 51 58v25h58l10 -10q-30 -11 -45 -28.5t-15 -35.5q0 -11 7.5 -18.5t25.5 -7.5
q10 0 21.5 2t19.5 3l12 -48q-24 -8 -58 -8q-43 0 -65 18.5t-22 49.5z" />
    <glyph glyph-name="Cacute" unicode="&#x106;" horiz-adv-x="485" 
d="M252 -10q-113 0 -161 46.5t-50 154.5q-1 42 -1 96.5v113v113.5t1 97q2 92 51.5 145.5t159.5 53.5q108 0 156.5 -46.5t51.5 -153.5q1 -25 0.5 -55t-1.5 -55h-150q1 19 1 44t0.5 50.5t-0.5 43.5q-2 50 -58 50q-59 0 -61 -50q-2 -70 -3 -154t0 -167.5t3 -153.5q2 -51 61 -51
q60 0 62 51q1 18 1 43.5v50.5t-1 43h150q1 -24 1 -54.5t-1 -54.5q-3 -108 -52.5 -154.5t-159.5 -46.5zM218 851v3l111 87h85v-3l-120 -87h-76z" />
    <glyph glyph-name="cacute" unicode="&#x107;" horiz-adv-x="468" 
d="M42 168q-1 17 -1.5 52.5t-0.5 77t0.5 77.5t1.5 55q7 97 53.5 138.5t146.5 41.5q101 0 146.5 -40.5t49.5 -133.5q1 -16 0.5 -39t-1.5 -28h-146q1 9 1 26.5v34t-1 23.5q-1 24 -12.5 34.5t-36.5 10.5q-26 0 -37.5 -10.5t-12.5 -34.5q-2 -71 -2 -151t2 -150q1 -27 13 -38.5
t39 -11.5q24 0 35 11.5t12 38.5q2 25 0 81h146q1 -5 1.5 -26.5t-0.5 -38.5q-4 -95 -49.5 -136.5t-144.5 -41.5q-103 0 -150 41.5t-52 136.5zM198 661l87 139h96l-92 -139h-91z" />
    <glyph glyph-name="Ccircumflex" unicode="&#x108;" horiz-adv-x="485" 
d="M252 -10q-113 0 -161 46.5t-50 154.5q-1 42 -1 96.5v113v113.5t1 97q2 92 51.5 145.5t159.5 53.5q108 0 156.5 -46.5t51.5 -153.5q1 -25 0.5 -55t-1.5 -55h-150q1 19 1 44t0.5 50.5t-0.5 43.5q-2 50 -58 50q-59 0 -61 -50q-2 -70 -3 -154t0 -167.5t3 -153.5q2 -51 61 -51
q60 0 62 51q1 18 1 43.5v50.5t-1 43h150q1 -24 1 -54.5t-1 -54.5q-3 -108 -52.5 -154.5t-159.5 -46.5zM88 841l112 99h86l112 -99h-96l-59 57l-59 -57h-96z" />
    <glyph glyph-name="ccircumflex" unicode="&#x109;" horiz-adv-x="468" 
d="M42 168q-1 17 -1.5 52.5t-0.5 77t0.5 77.5t1.5 55q7 97 53.5 138.5t146.5 41.5q101 0 146.5 -40.5t49.5 -133.5q1 -16 0.5 -39t-1.5 -28h-146q1 9 1 26.5v34t-1 23.5q-1 24 -12.5 34.5t-36.5 10.5q-26 0 -37.5 -10.5t-12.5 -34.5q-2 -71 -2 -151t2 -150q1 -27 13 -38.5
t39 -11.5q24 0 35 11.5t12 38.5q2 25 0 81h146q1 -5 1.5 -26.5t-0.5 -38.5q-4 -95 -49.5 -136.5t-144.5 -41.5q-103 0 -150 41.5t-52 136.5zM112 641l82 139h86l82 -139h-96l-29 56l-29 -56h-96z" />
    <glyph glyph-name="Cdotaccent" unicode="&#x10a;" horiz-adv-x="485" 
d="M252 -10q-113 0 -161 46.5t-50 154.5q-1 42 -1 96.5v113v113.5t1 97q2 92 51.5 145.5t159.5 53.5q108 0 156.5 -46.5t51.5 -153.5q1 -25 0.5 -55t-1.5 -55h-150q1 19 1 44t0.5 50.5t-0.5 43.5q-2 50 -58 50q-59 0 -61 -50q-2 -70 -3 -154t0 -167.5t3 -153.5q2 -51 61 -51
q60 0 62 51q1 18 1 43.5v50.5t-1 43h150q1 -24 1 -54.5t-1 -54.5q-3 -108 -52.5 -154.5t-159.5 -46.5zM194 861v109h109v-109h-109z" />
    <glyph glyph-name="cdotaccent" unicode="&#x10b;" horiz-adv-x="468" 
d="M42 168q-1 17 -1.5 52.5t-0.5 77t0.5 77.5t1.5 55q7 97 53.5 138.5t146.5 41.5q101 0 146.5 -40.5t49.5 -133.5q1 -16 0.5 -39t-1.5 -28h-146q1 9 1 26.5v34t-1 23.5q-1 24 -12.5 34.5t-36.5 10.5q-26 0 -37.5 -10.5t-12.5 -34.5q-2 -71 -2 -151t2 -150q1 -27 13 -38.5
t39 -11.5q24 0 35 11.5t12 38.5q2 25 0 81h146q1 -5 1.5 -26.5t-0.5 -38.5q-4 -95 -49.5 -136.5t-144.5 -41.5q-103 0 -150 41.5t-52 136.5zM188 661v109h109v-109h-109z" />
    <glyph glyph-name="Ccaron" unicode="&#x10c;" horiz-adv-x="485" 
d="M252 -10q-113 0 -161 46.5t-50 154.5q-1 42 -1 96.5v113v113.5t1 97q2 92 51.5 145.5t159.5 53.5q108 0 156.5 -46.5t51.5 -153.5q1 -25 0.5 -55t-1.5 -55h-150q1 19 1 44t0.5 50.5t-0.5 43.5q-2 50 -58 50q-59 0 -61 -50q-2 -70 -3 -154t0 -167.5t3 -153.5q2 -51 61 -51
q60 0 62 51q1 18 1 43.5v50.5t-1 43h150q1 -24 1 -54.5t-1 -54.5q-3 -108 -52.5 -154.5t-159.5 -46.5zM88 942h96l59 -57l59 57h96l-112 -99h-86z" />
    <glyph glyph-name="ccaron" unicode="&#x10d;" horiz-adv-x="468" 
d="M42 168q-1 17 -1.5 52.5t-0.5 77t0.5 77.5t1.5 55q7 97 53.5 138.5t146.5 41.5q101 0 146.5 -40.5t49.5 -133.5q1 -16 0.5 -39t-1.5 -28h-146q1 9 1 26.5v34t-1 23.5q-1 24 -12.5 34.5t-36.5 10.5q-26 0 -37.5 -10.5t-12.5 -34.5q-2 -71 -2 -151t2 -150q1 -27 13 -38.5
t39 -11.5q24 0 35 11.5t12 38.5q2 25 0 81h146q1 -5 1.5 -26.5t-0.5 -38.5q-4 -95 -49.5 -136.5t-144.5 -41.5q-103 0 -150 41.5t-52 136.5zM121 800h86l34 -66l34 66h86l-82 -139h-76z" />
    <glyph glyph-name="Dcaron" unicode="&#x10e;" horiz-adv-x="500" 
d="M40 0v800h203q113 0 163 -47.5t52 -157.5q2 -69 2.5 -131.5t0 -125t-2.5 -132.5q-2 -110 -52 -158t-163 -48h-203zM190 132h53q63 0 65 56q6 213 0 425q-2 55 -65 55h-53v-536zM90 942h96l59 -57l59 57h96l-112 -99h-86z" />
    <glyph glyph-name="dcaron" unicode="&#x10f;" horiz-adv-x="493" 
d="M303 800h150v-800h-150v65h-21q-21 -36 -45 -55.5t-71 -19.5q-62 0 -95.5 39t-38.5 130q-1 24 -1.5 61.5t-0.5 79.5t0.5 79.5t1.5 61.5q5 91 39.5 130t96.5 39q47 0 70 -19.5t44 -55.5h21v265zM228 99q20 0 43 12t32 31v316q-9 20 -32 31.5t-43 11.5q-23 0 -33.5 -11.5
t-12.5 -35.5q-2 -43 -3 -100.5t0 -113t3 -94.5q2 -24 12.5 -35.5t33.5 -11.5zM42 800h86l34 -66l34 66h86l-82 -139h-76z" />
    <glyph glyph-name="Dcroat" unicode="&#x110;" horiz-adv-x="549" 
d="M89 0v401h-39v72h39v327h203q113 0 163 -47.5t52 -157.5q2 -69 2.5 -131.5t0 -125t-2.5 -132.5q-2 -110 -52 -158t-163 -48h-203zM239 132h53q63 0 65 56q6 213 0 425q-2 55 -65 55h-53v-195h69v-72h-69v-269z" />
    <glyph glyph-name="dcroat" unicode="&#x111;" horiz-adv-x="507" 
d="M224 739h79v61h150v-61h49v-72h-49v-667h-150v65h-21q-21 -36 -45 -55.5t-71 -19.5q-62 0 -95.5 39t-38.5 130q-1 24 -1.5 61.5t-0.5 79.5t0.5 79.5t1.5 61.5q5 91 39.5 130t96.5 39q47 0 70 -19.5t44 -55.5h21v132h-79v72zM228 99q20 0 43 12t32 31v316q-9 20 -32 31.5
t-43 11.5q-23 0 -33.5 -11.5t-12.5 -35.5q-2 -43 -3 -100.5t0 -113t3 -94.5q2 -24 12.5 -35.5t33.5 -11.5z" />
    <glyph glyph-name="Emacron" unicode="&#x112;" horiz-adv-x="406" 
d="M40 0v800h346v-132h-196v-195h186v-132h-186v-209h196v-132h-346zM42 841v62h346v-62h-346z" />
    <glyph glyph-name="emacron" unicode="&#x113;" horiz-adv-x="469" 
d="M291 233h146q1 -5 1.5 -26.5t-0.5 -38.5q-4 -95 -49.5 -136.5t-144.5 -41.5q-103 0 -150 41.5t-52 136.5q-1 17 -1.5 52.5t-0.5 77t0.5 77.5t1.5 55q7 97 53.5 138.5t146.5 41.5q101 0 146.5 -40.5t49.5 -133.5q1 -11 1 -38.5v-61t-2 -61.5h-247q0 -32 0.5 -63t1.5 -60
q1 -27 13 -38.5t39 -11.5q24 0 35 11.5t12 38.5q2 25 0 81zM242 498q-26 0 -37.5 -10.5t-12.5 -34.5q-1 -18 -1 -36.5t-1 -38.5h102q0 27 -0.5 49t-0.5 26q-1 24 -12.5 34.5t-36.5 10.5zM47 661v72h386v-72h-386z" />
    <glyph glyph-name="Ebreve" unicode="&#x114;" horiz-adv-x="406" 
d="M40 0v800h346v-132h-196v-195h186v-132h-186v-209h196v-132h-346zM69 941h84q0 -17 18 -29t44 -12t44 12t18 29h85q-3 -45 -45 -75t-102 -30t-101.5 30t-44.5 75z" />
    <glyph glyph-name="ebreve" unicode="&#x115;" horiz-adv-x="469" 
d="M291 233h146q1 -5 1.5 -26.5t-0.5 -38.5q-4 -95 -49.5 -136.5t-144.5 -41.5q-103 0 -150 41.5t-52 136.5q-1 17 -1.5 52.5t-0.5 77t0.5 77.5t1.5 55q7 97 53.5 138.5t146.5 41.5q101 0 146.5 -40.5t49.5 -133.5q1 -11 1 -38.5v-61t-2 -61.5h-247q0 -32 0.5 -63t1.5 -60
q1 -27 13 -38.5t39 -11.5q24 0 35 11.5t12 38.5q2 25 0 81zM242 498q-26 0 -37.5 -10.5t-12.5 -34.5q-1 -18 -1 -36.5t-1 -38.5h102q0 27 -0.5 49t-0.5 26q-1 24 -12.5 34.5t-36.5 10.5zM89 800h89q0 -39 14.5 -56t47.5 -17t47.5 17t14.5 56h89q-5 -79 -40 -113.5
t-111 -34.5t-111 34.5t-40 113.5z" />
    <glyph glyph-name="Edotaccent" unicode="&#x116;" horiz-adv-x="406" 
d="M40 0v800h346v-132h-196v-195h186v-132h-186v-209h196v-132h-346zM160 850v89h110v-89h-110z" />
    <glyph glyph-name="edotaccent" unicode="&#x117;" horiz-adv-x="469" 
d="M291 233h146q1 -5 1.5 -26.5t-0.5 -38.5q-4 -95 -49.5 -136.5t-144.5 -41.5q-103 0 -150 41.5t-52 136.5q-1 17 -1.5 52.5t-0.5 77t0.5 77.5t1.5 55q7 97 53.5 138.5t146.5 41.5q101 0 146.5 -40.5t49.5 -133.5q1 -11 1 -38.5v-61t-2 -61.5h-247q0 -32 0.5 -63t1.5 -60
q1 -27 13 -38.5t39 -11.5q24 0 35 11.5t12 38.5q2 25 0 81zM242 498q-26 0 -37.5 -10.5t-12.5 -34.5q-1 -18 -1 -36.5t-1 -38.5h102q0 27 -0.5 49t-0.5 26q-1 24 -12.5 34.5t-36.5 10.5zM186 661v109h109v-109h-109z" />
    <glyph glyph-name="Eogonek" unicode="&#x118;" horiz-adv-x="406" 
d="M40 0v800h346v-132h-196v-195h186v-132h-186v-209h196v-132h-346zM267 -73q0 47 51 58v25h58l10 -10q-30 -11 -45 -28.5t-15 -35.5q0 -11 7.5 -18.5t25.5 -7.5q10 0 21.5 2t19.5 3l12 -48q-24 -8 -58 -8q-43 0 -65 18.5t-22 49.5z" />
    <glyph glyph-name="eogonek" unicode="&#x119;" horiz-adv-x="469" 
d="M291 233h146q1 -5 1.5 -26.5t-0.5 -38.5q-4 -95 -49.5 -136.5t-144.5 -41.5q-103 0 -150 41.5t-52 136.5q-1 17 -1.5 52.5t-0.5 77t0.5 77.5t1.5 55q7 97 53.5 138.5t146.5 41.5q101 0 146.5 -40.5t49.5 -133.5q1 -11 1 -38.5v-61t-2 -61.5h-247q0 -32 0.5 -63t1.5 -60
q1 -27 13 -38.5t39 -11.5q24 0 35 11.5t12 38.5q2 25 0 81zM242 498q-26 0 -37.5 -10.5t-12.5 -34.5q-1 -18 -1 -36.5t-1 -38.5h102q0 27 -0.5 49t-0.5 26q-1 24 -12.5 34.5t-36.5 10.5zM270 -73q0 47 51 58l20 -17q-12 -15 -12 -32q0 -11 7.5 -18.5t25.5 -7.5q10 0 21.5 2
t19.5 3l12 -48q-24 -8 -58 -8q-43 0 -65 18.5t-22 49.5z" />
    <glyph glyph-name="Ecaron" unicode="&#x11a;" horiz-adv-x="406" 
d="M40 0v800h346v-132h-196v-195h186v-132h-186v-209h196v-132h-346zM55 942h96l59 -57l59 57h96l-112 -99h-86z" />
    <glyph glyph-name="ecaron" unicode="&#x11b;" horiz-adv-x="469" 
d="M291 233h146q1 -5 1.5 -26.5t-0.5 -38.5q-4 -95 -49.5 -136.5t-144.5 -41.5q-103 0 -150 41.5t-52 136.5q-1 17 -1.5 52.5t-0.5 77t0.5 77.5t1.5 55q7 97 53.5 138.5t146.5 41.5q101 0 146.5 -40.5t49.5 -133.5q1 -11 1 -38.5v-61t-2 -61.5h-247q0 -32 0.5 -63t1.5 -60
q1 -27 13 -38.5t39 -11.5q24 0 35 11.5t12 38.5q2 25 0 81zM242 498q-26 0 -37.5 -10.5t-12.5 -34.5q-1 -18 -1 -36.5t-1 -38.5h102q0 27 -0.5 49t-0.5 26q-1 24 -12.5 34.5t-36.5 10.5zM119 800h86l34 -66l34 66h86l-82 -139h-76z" />
    <glyph glyph-name="Gcircumflex" unicode="&#x11c;" horiz-adv-x="487" 
d="M254 -10q-75 0 -120.5 20.5t-66.5 64.5t-24 116q-1 42 -2 95.5t-1 111t1 110.5t2 93q3 76 24.5 122t67 66.5t119.5 20.5q105 0 153 -46.5t55 -153.5q2 -23 2 -55t-2 -55h-150q2 28 2 69t-2 69q-3 50 -58 50q-58 0 -61 -50q-4 -70 -5.5 -154t0 -167.5t5.5 -153.5
q3 -51 61 -51q29 0 46 13t19 38q1 12 1.5 30.5t0 37.5t-1.5 30h-55v130h201q2 -46 1.5 -100t-2.5 -100q-5 -108 -54 -154.5t-156 -46.5zM90 841l112 99h86l112 -99h-96l-59 57l-59 -57h-96z" />
    <glyph glyph-name="gcircumflex" unicode="&#x11d;" horiz-adv-x="508" 
d="M251 -202q-91 0 -143 27t-61 63q-5 19 -2 38q4 23 19.5 38t52.5 21v21q-64 7 -73 58q-3 17 0 33q4 21 22.5 38t52.5 21v20q-81 37 -88 161q-3 54 0 93q8 97 55.5 138.5t150.5 41.5q130 0 175 -69h19q5 31 22.5 44.5t54.5 14.5v-113h-15q-27 0 -38.5 -11.5t-11.5 -38.5
q1 -44 0.5 -65t-1.5 -35q-6 -97 -53.5 -139t-151.5 -42h-9q-40 -1 -53 -7t-13 -20v-3q1 -15 23.5 -20.5t77.5 -6.5q104 -1 154 -33t62 -93q2 -8 2 -21t-2 -27q-8 -48 -39.5 -75.5t-80 -39.5t-108.5 -12zM237 268q57 0 60 51q3 58 0 129q-3 50 -60 50q-59 0 -61 -50
q-3 -71 0 -129q3 -51 61 -51zM257 -100q83 0 99 37q7 15 -1 33q-7 16 -32 23.5t-66 7.5q-40 0 -60 -9.5t-26 -25.5t0 -32q6 -17 26 -25.5t60 -8.5zM107 641l82 139h86l82 -139h-96l-29 56l-29 -56h-96z" />
    <glyph glyph-name="Gbreve" unicode="&#x11e;" horiz-adv-x="487" 
d="M254 -10q-75 0 -120.5 20.5t-66.5 64.5t-24 116q-1 42 -2 95.5t-1 111t1 110.5t2 93q3 76 24.5 122t67 66.5t119.5 20.5q105 0 153 -46.5t55 -153.5q2 -23 2 -55t-2 -55h-150q2 28 2 69t-2 69q-3 50 -58 50q-58 0 -61 -50q-4 -70 -5.5 -154t0 -167.5t5.5 -153.5
q3 -51 61 -51q29 0 46 13t19 38q1 12 1.5 30.5t0 37.5t-1.5 30h-55v130h201q2 -46 1.5 -100t-2.5 -100q-5 -108 -54 -154.5t-156 -46.5zM104 941h84q0 -17 18 -29t44 -12t44 12t18 29h85q-3 -45 -45 -75t-102 -30t-101.5 30t-44.5 75z" />
    <glyph glyph-name="gbreve" unicode="&#x11f;" horiz-adv-x="508" 
d="M251 -202q-91 0 -143 27t-61 63q-5 19 -2 38q4 23 19.5 38t52.5 21v21q-64 7 -73 58q-3 17 0 33q4 21 22.5 38t52.5 21v20q-81 37 -88 161q-3 54 0 93q8 97 55.5 138.5t150.5 41.5q130 0 175 -69h19q5 31 22.5 44.5t54.5 14.5v-113h-15q-27 0 -38.5 -11.5t-11.5 -38.5
q1 -44 0.5 -65t-1.5 -35q-6 -97 -53.5 -139t-151.5 -42h-9q-40 -1 -53 -7t-13 -20v-3q1 -15 23.5 -20.5t77.5 -6.5q104 -1 154 -33t62 -93q2 -8 2 -21t-2 -27q-8 -48 -39.5 -75.5t-80 -39.5t-108.5 -12zM237 268q57 0 60 51q3 58 0 129q-3 50 -60 50q-59 0 -61 -50
q-3 -71 0 -129q3 -51 61 -51zM257 -100q83 0 99 37q7 15 -1 33q-7 16 -32 23.5t-66 7.5q-40 0 -60 -9.5t-26 -25.5t0 -32q6 -17 26 -25.5t60 -8.5zM86 800h89q0 -39 14.5 -56t47.5 -17t47.5 17t14.5 56h89q-5 -79 -40 -113.5t-111 -34.5t-111 34.5t-40 113.5z" />
    <glyph glyph-name="Gdotaccent" unicode="&#x120;" horiz-adv-x="487" 
d="M254 -10q-75 0 -120.5 20.5t-66.5 64.5t-24 116q-1 42 -2 95.5t-1 111t1 110.5t2 93q3 76 24.5 122t67 66.5t119.5 20.5q105 0 153 -46.5t55 -153.5q2 -23 2 -55t-2 -55h-150q2 28 2 69t-2 69q-3 50 -58 50q-58 0 -61 -50q-4 -70 -5.5 -154t0 -167.5t5.5 -153.5
q3 -51 61 -51q29 0 46 13t19 38q1 12 1.5 30.5t0 37.5t-1.5 30h-55v130h201q2 -46 1.5 -100t-2.5 -100q-5 -108 -54 -154.5t-156 -46.5zM195 850v89h110v-89h-110z" />
    <glyph glyph-name="gdotaccent" unicode="&#x121;" horiz-adv-x="508" 
d="M251 -202q-91 0 -143 27t-61 63q-5 19 -2 38q4 23 19.5 38t52.5 21v21q-64 7 -73 58q-3 17 0 33q4 21 22.5 38t52.5 21v20q-81 37 -88 161q-3 54 0 93q8 97 55.5 138.5t150.5 41.5q130 0 175 -69h19q5 31 22.5 44.5t54.5 14.5v-113h-15q-27 0 -38.5 -11.5t-11.5 -38.5
q1 -44 0.5 -65t-1.5 -35q-6 -97 -53.5 -139t-151.5 -42h-9q-40 -1 -53 -7t-13 -20v-3q1 -15 23.5 -20.5t77.5 -6.5q104 -1 154 -33t62 -93q2 -8 2 -21t-2 -27q-8 -48 -39.5 -75.5t-80 -39.5t-108.5 -12zM237 268q57 0 60 51q3 58 0 129q-3 50 -60 50q-59 0 -61 -50
q-3 -71 0 -129q3 -51 61 -51zM257 -100q83 0 99 37q7 15 -1 33q-7 16 -32 23.5t-66 7.5q-40 0 -60 -9.5t-26 -25.5t0 -32q6 -17 26 -25.5t60 -8.5zM183 661v109h109v-109h-109z" />
    <glyph glyph-name="uni0122" unicode="&#x122;" horiz-adv-x="487" 
d="M254 -10q-75 0 -120.5 20.5t-66.5 64.5t-24 116q-1 42 -2 95.5t-1 111t1 110.5t2 93q3 76 24.5 122t67 66.5t119.5 20.5q105 0 153 -46.5t55 -153.5q2 -23 2 -55t-2 -55h-150q2 28 2 69t-2 69q-3 50 -58 50q-58 0 -61 -50q-4 -70 -5.5 -154t0 -167.5t5.5 -153.5
q3 -51 61 -51q29 0 46 13t19 38q1 12 1.5 30.5t0 37.5t-1.5 30h-55v130h201q2 -46 1.5 -100t-2.5 -100q-5 -108 -54 -154.5t-156 -46.5zM191 -139v89h109v-89l-32 -61h-55l27 61h-49z" />
    <glyph glyph-name="uni0123" unicode="&#x123;" horiz-adv-x="508" 
d="M251 -202q-91 0 -143 27t-61 63q-5 19 -2 38q4 23 19.5 38t52.5 21v21q-64 7 -73 58q-3 17 0 33q4 21 22.5 38t52.5 21v20q-81 37 -88 161q-3 54 0 93q8 97 55.5 138.5t150.5 41.5q130 0 175 -69h19q5 31 22.5 44.5t54.5 14.5v-113h-15q-27 0 -38.5 -11.5t-11.5 -38.5
q1 -44 0.5 -65t-1.5 -35q-6 -97 -53.5 -139t-151.5 -42h-9q-40 -1 -53 -7t-13 -20v-3q1 -15 23.5 -20.5t77.5 -6.5q104 -1 154 -33t62 -93q2 -8 2 -21t-2 -27q-8 -48 -39.5 -75.5t-80 -39.5t-108.5 -12zM237 268q57 0 60 51q3 58 0 129q-3 50 -60 50q-59 0 -61 -50
q-3 -71 0 -129q3 -51 61 -51zM257 -100q83 0 99 37q7 15 -1 33q-7 16 -32 23.5t-66 7.5q-40 0 -60 -9.5t-26 -25.5t0 -32q6 -17 26 -25.5t60 -8.5zM173 660v99l49 90h71l-34 -77h51v-112h-137z" />
    <glyph glyph-name="Hcircumflex" unicode="&#x124;" horiz-adv-x="485" 
d="M40 0v800h150v-327h105v327h150v-800h-150v341h-105v-341h-150zM83 841l112 99h86l112 -99h-96l-59 57l-59 -57h-96z" />
    <glyph glyph-name="hcircumflex" unicode="&#x125;" horiz-adv-x="494" 
d="M40 0v800h150v-265h26q21 36 44 55.5t70 19.5q62 0 97.5 -39t35.5 -130v-441h-150v454q0 47 -48 47q-20 0 -43 -11.5t-32 -31.5v-458h-150zM197 661l82 139h86l82 -139h-96l-29 56l-29 -56h-96z" />
    <glyph glyph-name="Hbar" unicode="&#x126;" horiz-adv-x="581" 
d="M88 0v568h-58v72h58v160h150v-160h105v160h150v-160h58v-72h-58v-568h-150v341h-105v-341h-150zM238 473h105v95h-105v-95z" />
    <glyph glyph-name="hbar" unicode="&#x127;" horiz-adv-x="502" 
d="M48 0v647h-48v72h48v81h150v-81h80v-72h-80v-112h26q21 36 44 55.5t70 19.5q62 0 97.5 -39t35.5 -130v-441h-150v454q0 47 -48 47q-20 0 -43 -11.5t-32 -31.5v-458h-150z" />
    <glyph glyph-name="Itilde" unicode="&#x128;" horiz-adv-x="230" 
d="M40 0v800h150v-800h-150zM-30 839q3 47 26 68t63 21q30 0 48 -8.5t32 -17t32 -8.5q17 0 27 9.5t11 24.5h51q-6 -95 -90 -95q-28 0 -47 9t-34 17.5t-34 8.5q-31 0 -34 -29h-51z" />
    <glyph glyph-name="itilde" unicode="&#x129;" horiz-adv-x="230" 
d="M40 0v600h150v-600h-150zM-44 660q4 62 30 89t67 27q34 0 53.5 -11.5t35 -23.5t35.5 -12q39 0 41 34h56q-3 -59 -29.5 -84.5t-69.5 -25.5q-30 0 -51 12t-37.5 24t-36.5 12q-35 0 -38 -41h-56z" />
    <glyph glyph-name="Imacron" unicode="&#x12a;" horiz-adv-x="230" 
d="M40 0v800h150v-800h-150zM-58 841v62h346v-62h-346z" />
    <glyph glyph-name="imacron" unicode="&#x12b;" horiz-adv-x="230" 
d="M40 0v600h150v-600h-150zM-78 661v72h386v-72h-386z" />
    <glyph glyph-name="Ibreve" unicode="&#x12c;" horiz-adv-x="230" 
d="M40 0v800h150v-800h-150zM-31 941h84q0 -17 18 -29t44 -12t44 12t18 29h85q-3 -45 -45 -75t-102 -30t-101.5 30t-44.5 75z" />
    <glyph glyph-name="ibreve" unicode="&#x12d;" horiz-adv-x="230" 
d="M40 0v600h150v-600h-150zM-36 800h89q0 -39 14.5 -56t47.5 -17t47.5 17t14.5 56h89q-5 -79 -40 -113.5t-111 -34.5t-111 34.5t-40 113.5z" />
    <glyph glyph-name="Iogonek" unicode="&#x12e;" horiz-adv-x="230" 
d="M40 0v800h150v-800h-150zM71 -73q0 47 51 58v25h58l10 -10q-30 -11 -45 -28.5t-15 -35.5q0 -11 7.5 -18.5t25.5 -7.5q10 0 21.5 2t19.5 3l12 -48q-24 -8 -58 -8q-43 0 -65 18.5t-22 49.5z" />
    <glyph glyph-name="iogonek" unicode="&#x12f;" horiz-adv-x="230" 
d="M40 0v600h150v-600h-150zM61 661v109h109v-109h-109zM71 -73q0 47 51 58v25h58l10 -10q-30 -11 -45 -28.5t-15 -35.5q0 -11 7.5 -18.5t25.5 -7.5q10 0 21.5 2t19.5 3l12 -48q-24 -8 -58 -8q-43 0 -65 18.5t-22 49.5z" />
    <glyph glyph-name="Idotaccent" unicode="&#x130;" horiz-adv-x="230" 
d="M40 0v800h150v-800h-150zM60 850v89h110v-89h-110z" />
    <glyph glyph-name="dotlessi" unicode="&#x131;" horiz-adv-x="230" 
d="M40 0v600h150v-600h-150z" />
    <glyph glyph-name="Jcircumflex" unicode="&#x134;" horiz-adv-x="475" 
d="M230 -10q-73 0 -116 20.5t-62 64.5t-21 116q-1 24 -1 54.5t1 54.5h141q0 -18 -0.5 -43t0 -50.5t0.5 -43.5q2 -51 58 -51q29 0 42 13t13 38v637h150v-609q0 -108 -46 -154.5t-159 -46.5zM98 841l112 99h86l112 -99h-96l-59 57l-59 -57h-96z" />
    <glyph glyph-name="jcircumflex" unicode="&#x135;" horiz-adv-x="233" 
d="M-87 -206v111q14 -1 36.5 -1.5t36.5 -0.5q26 0 40.5 13t14.5 37v647h150v-635q0 -95 -50.5 -136.5t-154.5 -41.5q-17 0 -36 2t-37 5zM-13 641l82 139h86l82 -139h-96l-29 56l-29 -56h-96z" />
    <glyph glyph-name="uni0136" unicode="&#x136;" horiz-adv-x="508" 
d="M40 0v800h160l-2 -194l-27 -179h27l48 179l72 194h164l-133 -329l139 -471h-152l-87 305l-56 -121v-184h-153zM206 -139v89h109v-89l-32 -61h-55l27 61h-49z" />
    <glyph glyph-name="uni0137" unicode="&#x137;" horiz-adv-x="486" 
d="M40 0v800h140v-152l-18 -276h22l45 127l52 101h155l-122 -224l142 -376h-153l-84 227l-36 -55v-172h-143zM176 -182v112h137v-99l-49 -90h-71l34 77h-51z" />
    <glyph glyph-name="kgreenlandic" unicode="&#x138;" horiz-adv-x="486" 
d="M40 0v600h140v-52l-18 -196h22l46 127l64 121h155l-135 -244l142 -356h-153l-82 205l-38 -61v-144h-143z" />
    <glyph glyph-name="Lacute" unicode="&#x139;" horiz-adv-x="407" 
d="M40 0v800h150v-668h197v-132h-347zM189 851v3l111 87h85v-3l-120 -87h-76z" />
    <glyph glyph-name="lacute" unicode="&#x13a;" horiz-adv-x="230" 
d="M40 0v800h150v-800h-150zM71 861l87 139h96l-92 -139h-91z" />
    <glyph glyph-name="uni013B" unicode="&#x13b;" horiz-adv-x="407" 
d="M40 0v800h150v-668h197v-132h-347zM145 -139v89h109v-89l-32 -61h-55l27 61h-49z" />
    <glyph glyph-name="uni013C" unicode="&#x13c;" horiz-adv-x="230" 
d="M40 0v800h150v-800h-150zM51 -182v112h137v-99l-49 -90h-71l34 77h-51z" />
    <glyph glyph-name="Lcaron" unicode="&#x13d;" horiz-adv-x="407" 
d="M40 0v800h150v-668h197v-132h-347zM59 942h96l59 -57l59 57h96l-112 -99h-86z" />
    <glyph glyph-name="lcaron" unicode="&#x13e;" horiz-adv-x="230" 
d="M40 0v800h150v-800h-150zM-6 1000h86l34 -66l34 66h86l-82 -139h-76z" />
    <glyph glyph-name="Ldot" unicode="&#x13f;" horiz-adv-x="407" 
d="M40 0v800h150v-668h197v-132h-347zM230 341v132h150v-132h-150z" />
    <glyph glyph-name="ldot" unicode="&#x140;" horiz-adv-x="419" 
d="M40 0v800h150v-800h-150zM229 341v132h170v-132h-170z" />
    <glyph glyph-name="Lslash" unicode="&#x141;" horiz-adv-x="435" 
d="M68 0v370l-48 -14v72l48 14v358h150v-313l80 24v-72l-80 -24v-283h197v-132h-347z" />
    <glyph glyph-name="lslash" unicode="&#x142;" horiz-adv-x="288" 
d="M69 0v375l-64 -19v72l64 19v353h150v-308l64 19v-72l-64 -19v-420h-150z" />
    <glyph glyph-name="Nacute" unicode="&#x143;" horiz-adv-x="543" 
d="M40 0v800h217l60 -255l55 -413h26l-28 325l-12 343h145v-800h-228l-60 262l-41 407h-28l26 -362l13 -307h-145zM242 851v3l111 87h85v-3l-120 -87h-76z" />
    <glyph glyph-name="nacute" unicode="&#x144;" horiz-adv-x="504" 
d="M40 0v600h150v-65h26q21 36 44 55.5t70 19.5q62 0 97.5 -39t35.5 -130v-441h-150v454q0 47 -48 47q-20 0 -43 -11.5t-32 -31.5v-458h-150zM208 661l87 139h96l-92 -139h-91z" />
    <glyph glyph-name="uni0145" unicode="&#x145;" horiz-adv-x="543" 
d="M40 0v800h217l60 -255l55 -413h26l-28 325l-12 343h145v-800h-228l-60 262l-41 407h-28l26 -362l13 -307h-145zM213 -139v89h109v-89l-32 -61h-55l27 61h-49z" />
    <glyph glyph-name="uni0146" unicode="&#x146;" horiz-adv-x="504" 
d="M40 0v600h150v-65h26q21 36 44 55.5t70 19.5q62 0 97.5 -39t35.5 -130v-441h-150v454q0 47 -48 47q-20 0 -43 -11.5t-32 -31.5v-458h-150zM188 -182v112h137v-99l-49 -90h-71l34 77h-51z" />
    <glyph glyph-name="Ncaron" unicode="&#x147;" horiz-adv-x="543" 
d="M40 0v800h217l60 -255l55 -413h26l-28 325l-12 343h145v-800h-228l-60 262l-41 407h-28l26 -362l13 -307h-145zM112 942h96l59 -57l59 57h96l-112 -99h-86z" />
    <glyph glyph-name="ncaron" unicode="&#x148;" horiz-adv-x="504" 
d="M40 0v600h150v-65h26q21 36 44 55.5t70 19.5q62 0 97.5 -39t35.5 -130v-441h-150v454q0 47 -48 47q-20 0 -43 -11.5t-32 -31.5v-458h-150zM131 800h86l34 -66l34 66h86l-82 -139h-76z" />
    <glyph glyph-name="Eng" unicode="&#x14a;" horiz-adv-x="543" 
d="M278 -211q-17 0 -36 2t-37 5v109q14 -1 36.5 -1.5t36.5 -0.5q40 0 67 11.5t27 38.5v47h-97l-60 262l-41 407h-28l26 -362l13 -307h-145v800h217l60 -255l55 -413h26l-28 325l-12 343h145v-833q0 -95 -55 -136.5t-170 -41.5z" />
    <glyph glyph-name="eng" unicode="&#x14b;" horiz-adv-x="503" 
d="M237 -211q-17 0 -36 2t-37 5v109q14 -1 36.5 -1.5t36.5 -0.5q40 0 57 11.5t18 38.5l-1 501q-1 47 -46 47q-20 0 -43 -11.5t-32 -31.5v-458h-150v600h150v-65h26q21 36 44 55.5t70 19.5q62 0 96 -39t35 -130l1 -474q-1 -95 -55.5 -136.5t-169.5 -41.5z" />
    <glyph glyph-name="Omacron" unicode="&#x14c;" horiz-adv-x="507" 
d="M253 -10q-110 0 -159.5 46.5t-51.5 154.5q-2 98 -2 209.5t2 209.5q2 107 51.5 153.5t159.5 46.5t158 -46.5t52 -153.5q4 -100 4 -210.5t-4 -208.5q-4 -108 -52 -154.5t-158 -46.5zM253 112q58 0 60 51t3.5 112t1.5 125.5t-1.5 125.5t-3.5 112q-2 50 -60 50q-59 0 -61 -50
q-2 -51 -3 -112t-1 -125.5t1 -125.5t3 -112t61 -51zM81 841v62h346v-62h-346z" />
    <glyph glyph-name="omacron" unicode="&#x14d;" horiz-adv-x="495" 
d="M248 -10q-73 0 -117 20t-64.5 64t-24.5 117q-1 17 -1.5 46t-0.5 62t0.5 62.5t1.5 48.5q4 72 24.5 116t64 64t117.5 20q75 0 118 -20.5t63 -64.5t24 -115q1 -17 1.5 -46t0.5 -62t-0.5 -62.5t-1.5 -48.5q-4 -71 -24 -115.5t-63 -65t-118 -20.5zM248 102q29 0 41.5 13
t13.5 38q2 69 2 147.5t-2 147.5q-1 24 -13.5 37t-41.5 13q-54 0 -56 -50q-2 -69 -2 -148t2 -147q2 -51 56 -51zM55 661v72h386v-72h-386z" />
    <glyph glyph-name="Obreve" unicode="&#x14e;" horiz-adv-x="507" 
d="M253 -10q-110 0 -159.5 46.5t-51.5 154.5q-2 98 -2 209.5t2 209.5q2 107 51.5 153.5t159.5 46.5t158 -46.5t52 -153.5q4 -100 4 -210.5t-4 -208.5q-4 -108 -52 -154.5t-158 -46.5zM253 112q58 0 60 51t3.5 112t1.5 125.5t-1.5 125.5t-3.5 112q-2 50 -60 50q-59 0 -61 -50
q-2 -51 -3 -112t-1 -125.5t1 -125.5t3 -112t61 -51zM108 941h84q0 -17 18 -29t44 -12t44 12t18 29h85q-3 -45 -45 -75t-102 -30t-101.5 30t-44.5 75z" />
    <glyph glyph-name="obreve" unicode="&#x14f;" horiz-adv-x="495" 
d="M248 -10q-73 0 -117 20t-64.5 64t-24.5 117q-1 17 -1.5 46t-0.5 62t0.5 62.5t1.5 48.5q4 72 24.5 116t64 64t117.5 20q75 0 118 -20.5t63 -64.5t24 -115q1 -17 1.5 -46t0.5 -62t-0.5 -62.5t-1.5 -48.5q-4 -71 -24 -115.5t-63 -65t-118 -20.5zM248 102q29 0 41.5 13
t13.5 38q2 69 2 147.5t-2 147.5q-1 24 -13.5 37t-41.5 13q-54 0 -56 -50q-2 -69 -2 -148t2 -147q2 -51 56 -51zM97 800h89q0 -39 14.5 -56t47.5 -17t47.5 17t14.5 56h89q-5 -79 -40 -113.5t-111 -34.5t-111 34.5t-40 113.5z" />
    <glyph glyph-name="Ohungarumlaut" unicode="&#x150;" horiz-adv-x="507" 
d="M253 -10q-110 0 -159.5 46.5t-51.5 154.5q-2 98 -2 209.5t2 209.5q2 107 51.5 153.5t159.5 46.5t158 -46.5t52 -153.5q4 -100 4 -210.5t-4 -208.5q-4 -108 -52 -154.5t-158 -46.5zM253 112q58 0 60 51t3.5 112t1.5 125.5t-1.5 125.5t-3.5 112q-2 50 -60 50q-59 0 -61 -50
q-2 -51 -3 -112t-1 -125.5t1 -125.5t3 -112t61 -51zM363 841h-63v3l112 74h64v-2zM170 841v3l112 74h64v-2l-113 -75h-63z" />
    <glyph glyph-name="ohungarumlaut" unicode="&#x151;" horiz-adv-x="495" 
d="M248 -10q-73 0 -117 20t-64.5 64t-24.5 117q-1 17 -1.5 46t-0.5 62t0.5 62.5t1.5 48.5q4 72 24.5 116t64 64t117.5 20q75 0 118 -20.5t63 -64.5t24 -115q1 -17 1.5 -46t0.5 -62t-0.5 -62.5t-1.5 -48.5q-4 -71 -24 -115.5t-63 -65t-118 -20.5zM248 102q29 0 41.5 13
t13.5 38q2 69 2 147.5t-2 147.5q-1 24 -13.5 37t-41.5 13q-54 0 -56 -50q-2 -69 -2 -148t2 -147q2 -51 56 -51zM340 641h-63v3l142 156h64v-2zM147 641v3l142 156h64v-2l-143 -157h-63z" />
    <glyph glyph-name="OE" unicode="&#x152;" horiz-adv-x="684" 
d="M253 -10q-110 0 -159.5 46.5t-51.5 154.5q-2 98 -2 209.5t2 209.5q2 107 51.5 153.5t159.5 46.5t158 -46.5t52 -153.5q4 -100 4 -210.5t-4 -208.5q-4 -108 -52 -154.5t-158 -46.5zM253 112q58 0 60 51t3.5 112t1.5 125.5t-1.5 125.5t-3.5 112q-2 50 -60 50q-59 0 -61 -50
q-2 -51 -3 -112t-1 -125.5t1 -125.5t3 -112t61 -51zM318 0v800h346v-132h-196v-195h186v-132h-186v-209h196v-132h-346z" />
    <glyph glyph-name="oe" unicode="&#x153;" horiz-adv-x="735" 
d="M248 -10q-73 0 -117 20t-64.5 64t-24.5 117q-1 17 -1.5 46t-0.5 62t0.5 62.5t1.5 48.5q4 72 24.5 116t64 64t117.5 20q75 0 118 -20.5t63 -64.5t24 -115q1 -17 1.5 -46t0.5 -62t-0.5 -62.5t-1.5 -48.5q-4 -71 -24 -115.5t-63 -65t-118 -20.5zM248 102q29 0 41.5 13
t13.5 38q2 69 2 147.5t-2 147.5q-1 24 -13.5 37t-41.5 13q-54 0 -56 -50q-2 -69 -2 -148t2 -147q2 -51 56 -51zM557 233h146q1 -5 1.5 -26.5t-0.5 -38.5q-4 -95 -49.5 -136.5t-144.5 -41.5q-103 0 -150 41.5t-52 136.5q-1 17 -1.5 52.5t-0.5 77t0.5 77.5t1.5 55
q7 97 53.5 138.5t146.5 41.5q101 0 146.5 -40.5t49.5 -133.5q1 -11 1 -38.5v-61t-2 -61.5h-247q0 -32 0.5 -63t1.5 -60q1 -27 13 -38.5t39 -11.5q24 0 35 11.5t12 38.5q2 25 0 81zM508 498q-26 0 -37.5 -10.5t-12.5 -34.5q-1 -18 -1 -36.5t-1 -38.5h102q0 27 -0.5 49
t-0.5 26q-1 24 -12.5 34.5t-36.5 10.5z" />
    <glyph glyph-name="Racute" unicode="&#x154;" horiz-adv-x="479" 
d="M40 0v800h193q112 0 161.5 -45.5t53.5 -149.5q1 -28 1.5 -49t0 -42t-1.5 -49q-2 -65 -22 -106.5t-61 -63.5l94 -295h-159l-76 270h-34v-270h-150zM190 402h43q62 0 65 55q5 78 0 156q-3 55 -65 55h-43v-266zM206 851v3l111 87h85v-3l-120 -87h-76z" />
    <glyph glyph-name="racute" unicode="&#x155;" horiz-adv-x="360" 
d="M40 0v600h150v-75h26q5 44 26 61.5t55 17.5q13 0 25 -0.5t18 -2.5v-114h-41q-58 0 -81 -17.5t-28 -47.5v-422h-150zM146 661l87 139h96l-92 -139h-91z" />
    <glyph glyph-name="uni0156" unicode="&#x156;" horiz-adv-x="479" 
d="M40 0v800h193q112 0 161.5 -45.5t53.5 -149.5q1 -28 1.5 -49t0 -42t-1.5 -49q-2 -65 -22 -106.5t-61 -63.5l94 -295h-159l-76 270h-34v-270h-150zM190 402h43q62 0 65 55q5 78 0 156q-3 55 -65 55h-43v-266zM191 -139v89h109v-89l-32 -61h-55l27 61h-49z" />
    <glyph glyph-name="uni0157" unicode="&#x157;" horiz-adv-x="360" 
d="M40 0v600h150v-75h26q5 44 26 61.5t55 17.5q13 0 25 -0.5t18 -2.5v-114h-41q-58 0 -81 -17.5t-28 -47.5v-422h-150zM126 -182v112h137v-99l-49 -90h-71l34 77h-51z" />
    <glyph glyph-name="Rcaron" unicode="&#x158;" horiz-adv-x="479" 
d="M40 0v800h193q112 0 161.5 -45.5t53.5 -149.5q1 -28 1.5 -49t0 -42t-1.5 -49q-2 -65 -22 -106.5t-61 -63.5l94 -295h-159l-76 270h-34v-270h-150zM190 402h43q62 0 65 55q5 78 0 156q-3 55 -65 55h-43v-266zM76 942h96l59 -57l59 57h96l-112 -99h-86z" />
    <glyph glyph-name="rcaron" unicode="&#x159;" horiz-adv-x="360" 
d="M40 0v600h150v-75h26q5 44 26 61.5t55 17.5q13 0 25 -0.5t18 -2.5v-114h-41q-58 0 -81 -17.5t-28 -47.5v-422h-150zM69 800h86l34 -66l34 66h86l-82 -139h-76z" />
    <glyph glyph-name="Sacute" unicode="&#x15a;" horiz-adv-x="504" 
d="M253 -10q-110 0 -156.5 46.5t-51.5 154.5q-1 24 -0.5 54.5t4.5 54.5h141q-2 -37 -2.5 -72.5t2.5 -64.5q5 -51 63 -51q29 0 43 13t17 38q6 51 0 101q-2 21 -13 38t-35 23l-82 21q-78 20 -109 67t-33 122q-1 40 0 75q3 72 24.5 116t67 64t120.5 20q107 0 155 -46.5
t52 -153.5q1 -22 0.5 -53t-2.5 -57h-144q2 35 2.5 69.5t-1.5 68.5q-1 24 -17.5 37t-44.5 13q-30 0 -44.5 -13t-17.5 -37q-6 -51 0 -103q2 -20 14 -36.5t37 -22.5l71 -17q84 -20 116 -69t35 -126q1 -17 0.5 -36.5t-1.5 -36.5q-4 -108 -51.5 -154.5t-158.5 -46.5zM222 851v3
l111 87h85v-3l-120 -87h-76z" />
    <glyph glyph-name="sacute" unicode="&#x15b;" horiz-adv-x="466" 
d="M229 -10q-97 0 -138.5 41.5t-46.5 136.5q-1 17 -0.5 38.5t1.5 26.5h131q-2 -56 0 -81q2 -27 15.5 -38.5t37.5 -11.5q31 0 45 11.5t14 38.5v32q0 15 -7.5 26t-24.5 15l-71 20q-67 20 -106 55t-39 101v28q0 97 44 139t152 42q98 0 139 -40.5t45 -133.5q1 -16 0.5 -39
t-1.5 -28h-136q1 9 1 26.5v34t-1 23.5q-1 24 -11.5 34.5t-35.5 10.5q-27 0 -38 -10.5t-12 -34.5q-1 -11 -1 -19.5v-19.5q0 -19 7 -32t30 -18l62 -15q70 -16 106 -52t36 -105v-28q0 -93 -45.5 -133.5t-151.5 -40.5zM187 661l87 139h96l-92 -139h-91z" />
    <glyph glyph-name="Scircumflex" unicode="&#x15c;" horiz-adv-x="504" 
d="M253 -10q-110 0 -156.5 46.5t-51.5 154.5q-1 24 -0.5 54.5t4.5 54.5h141q-2 -37 -2.5 -72.5t2.5 -64.5q5 -51 63 -51q29 0 43 13t17 38q6 51 0 101q-2 21 -13 38t-35 23l-82 21q-78 20 -109 67t-33 122q-1 40 0 75q3 72 24.5 116t67 64t120.5 20q107 0 155 -46.5
t52 -153.5q1 -22 0.5 -53t-2.5 -57h-144q2 35 2.5 69.5t-1.5 68.5q-1 24 -17.5 37t-44.5 13q-30 0 -44.5 -13t-17.5 -37q-6 -51 0 -103q2 -20 14 -36.5t37 -22.5l71 -17q84 -20 116 -69t35 -126q1 -17 0.5 -36.5t-1.5 -36.5q-4 -108 -51.5 -154.5t-158.5 -46.5zM92 841
l112 99h86l112 -99h-96l-59 57l-59 -57h-96z" />
    <glyph glyph-name="scircumflex" unicode="&#x15d;" horiz-adv-x="466" 
d="M229 -10q-97 0 -138.5 41.5t-46.5 136.5q-1 17 -0.5 38.5t1.5 26.5h131q-2 -56 0 -81q2 -27 15.5 -38.5t37.5 -11.5q31 0 45 11.5t14 38.5v32q0 15 -7.5 26t-24.5 15l-71 20q-67 20 -106 55t-39 101v28q0 97 44 139t152 42q98 0 139 -40.5t45 -133.5q1 -16 0.5 -39
t-1.5 -28h-136q1 9 1 26.5v34t-1 23.5q-1 24 -11.5 34.5t-35.5 10.5q-27 0 -38 -10.5t-12 -34.5q-1 -11 -1 -19.5v-19.5q0 -19 7 -32t30 -18l62 -15q70 -16 106 -52t36 -105v-28q0 -93 -45.5 -133.5t-151.5 -40.5zM101 641l82 139h86l82 -139h-96l-29 56l-29 -56h-96z" />
    <glyph glyph-name="Scedilla" unicode="&#x15e;" horiz-adv-x="504" 
d="M253 -10q-110 0 -156.5 46.5t-51.5 154.5q-1 24 -0.5 54.5t4.5 54.5h141q-2 -37 -2.5 -72.5t2.5 -64.5q5 -51 63 -51q29 0 43 13t17 38q6 51 0 101q-2 21 -13 38t-35 23l-82 21q-78 20 -109 67t-33 122q-1 40 0 75q3 72 24.5 116t67 64t120.5 20q107 0 155 -46.5
t52 -153.5q1 -22 0.5 -53t-2.5 -57h-144q2 35 2.5 69.5t-1.5 68.5q-1 24 -17.5 37t-44.5 13q-30 0 -44.5 -13t-17.5 -37q-6 -51 0 -103q2 -20 14 -36.5t37 -22.5l71 -17q84 -20 116 -69t35 -126q1 -17 0.5 -36.5t-1.5 -36.5q-4 -108 -51.5 -154.5t-158.5 -46.5zM300 -166
q-38 0 -62 8l12 46q17 -3 50 -3q24 0 24 20q0 25 -24 25h-61l-7 7v73h52v-34h16q38 0 59 -18t21 -53q0 -34 -21 -52.5t-59 -18.5z" />
    <glyph glyph-name="scedilla" unicode="&#x15f;" horiz-adv-x="466" 
d="M229 -10q-97 0 -138.5 41.5t-46.5 136.5q-1 17 -0.5 38.5t1.5 26.5h131q-2 -56 0 -81q2 -27 15.5 -38.5t37.5 -11.5q31 0 45 11.5t14 38.5v32q0 15 -7.5 26t-24.5 15l-71 20q-67 20 -106 55t-39 101v28q0 97 44 139t152 42q98 0 139 -40.5t45 -133.5q1 -16 0.5 -39
t-1.5 -28h-136q1 9 1 26.5v34t-1 23.5q-1 24 -11.5 34.5t-35.5 10.5q-27 0 -38 -10.5t-12 -34.5q-1 -11 -1 -19.5v-19.5q0 -19 7 -32t30 -18l62 -15q70 -16 106 -52t36 -105v-28q0 -93 -45.5 -133.5t-151.5 -40.5zM279 -166q-38 0 -62 8l12 46q17 -3 50 -3q24 0 24 20
q0 25 -24 25h-61l-7 7v73h52v-34h16q38 0 59 -18t21 -53q0 -34 -21 -52.5t-59 -18.5z" />
    <glyph glyph-name="Scaron" unicode="&#x160;" horiz-adv-x="504" 
d="M253 -10q-110 0 -156.5 46.5t-51.5 154.5q-1 24 -0.5 54.5t4.5 54.5h141q-2 -37 -2.5 -72.5t2.5 -64.5q5 -51 63 -51q29 0 43 13t17 38q6 51 0 101q-2 21 -13 38t-35 23l-82 21q-78 20 -109 67t-33 122q-1 40 0 75q3 72 24.5 116t67 64t120.5 20q107 0 155 -46.5
t52 -153.5q1 -22 0.5 -53t-2.5 -57h-144q2 35 2.5 69.5t-1.5 68.5q-1 24 -17.5 37t-44.5 13q-30 0 -44.5 -13t-17.5 -37q-6 -51 0 -103q2 -20 14 -36.5t37 -22.5l71 -17q84 -20 116 -69t35 -126q1 -17 0.5 -36.5t-1.5 -36.5q-4 -108 -51.5 -154.5t-158.5 -46.5zM92 942h96
l59 -57l59 57h96l-112 -99h-86z" />
    <glyph glyph-name="scaron" unicode="&#x161;" horiz-adv-x="466" 
d="M229 -10q-97 0 -138.5 41.5t-46.5 136.5q-1 17 -0.5 38.5t1.5 26.5h131q-2 -56 0 -81q2 -27 15.5 -38.5t37.5 -11.5q31 0 45 11.5t14 38.5v32q0 15 -7.5 26t-24.5 15l-71 20q-67 20 -106 55t-39 101v28q0 97 44 139t152 42q98 0 139 -40.5t45 -133.5q1 -16 0.5 -39
t-1.5 -28h-136q1 9 1 26.5v34t-1 23.5q-1 24 -11.5 34.5t-35.5 10.5q-27 0 -38 -10.5t-12 -34.5q-1 -11 -1 -19.5v-19.5q0 -19 7 -32t30 -18l62 -15q70 -16 106 -52t36 -105v-28q0 -93 -45.5 -133.5t-151.5 -40.5zM110 800h86l34 -66l34 66h86l-82 -139h-76z" />
    <glyph glyph-name="uni0162" unicode="&#x162;" horiz-adv-x="447" 
d="M149 0v668h-129v132h407v-132h-128v-668h-150zM272 -166q-38 0 -62 8l12 46q17 -3 50 -3q24 0 24 20q0 25 -24 25h-61l-7 7v73h52v-34h16q38 0 59 -18t21 -53q0 -34 -21 -52.5t-59 -18.5z" />
    <glyph glyph-name="uni0163" unicode="&#x163;" horiz-adv-x="390" 
d="M312 -10q-115 0 -165 41.5t-50 136.5v319h-57v113h58v170h153l-2 -170h101v-113h-103v-336q0 -27 12.5 -38.5t52.5 -11.5q11 0 22.5 0.5t25.5 0.5v-107q-10 -3 -22 -4t-26 -1zM283 -166q-38 0 -62 8l12 46q17 -3 50 -3q24 0 24 20q0 25 -24 25h-61l-7 7v73h52v-34h16
q38 0 59 -18t21 -53q0 -34 -21 -52.5t-59 -18.5z" />
    <glyph glyph-name="Tcaron" unicode="&#x164;" horiz-adv-x="447" 
d="M149 0v668h-129v132h407v-132h-128v-668h-150zM64 942h96l59 -57l59 57h96l-112 -99h-86z" />
    <glyph glyph-name="tcaron" unicode="&#x165;" horiz-adv-x="390" 
d="M312 -10q-115 0 -165 41.5t-50 136.5v319h-57v113h58v170h153l-2 -170h101v-113h-103v-336q0 -27 12.5 -38.5t52.5 -11.5q11 0 22.5 0.5t25.5 0.5v-107q-10 -3 -22 -4t-26 -1zM61 968h86l34 -66l34 66h86l-82 -139h-76z" />
    <glyph glyph-name="Tbar" unicode="&#x166;" horiz-adv-x="447" 
d="M149 0v305h-55v72h55v291h-129v132h407v-132h-128v-291h75v-72h-75v-305h-150z" />
    <glyph glyph-name="tbar" unicode="&#x167;" horiz-adv-x="390" 
d="M45 305v72h52v110h-57v113h58v170h153l-2 -170h101v-113h-103v-110h108v-72h-108v-154q0 -27 12.5 -38.5t52.5 -11.5q11 0 22.5 0.5t25.5 0.5v-107q-10 -3 -22 -4t-26 -1q-115 0 -165 41.5t-50 136.5v137h-52z" />
    <glyph glyph-name="Utilde" unicode="&#x168;" horiz-adv-x="505" 
d="M253 -10q-112 0 -160.5 46.5t-50.5 154.5q-5 305 0 609h150q-2 -100 -2.5 -209.5t0.5 -218t2 -209.5q0 -51 61 -51q60 0 60 51q1 101 2 209.5t0.5 218t-2.5 209.5h150q5 -304 0 -609q-1 -108 -49.5 -154.5t-160.5 -46.5zM108 839q3 47 26 68t63 21q30 0 48 -8.5t32 -17
t32 -8.5q17 0 27 9.5t11 24.5h51q-6 -95 -90 -95q-28 0 -47 9t-34 17.5t-34 8.5q-31 0 -34 -29h-51z" />
    <glyph glyph-name="utilde" unicode="&#x169;" horiz-adv-x="504" 
d="M180 -10q-62 0 -99.5 39t-37.5 130v441h150v-454q0 -47 46 -47q20 0 43 12t32 31v458h150v-600h-150v65h-20q-23 -40 -49.5 -57.5t-64.5 -17.5zM93 660q4 62 30 89t67 27q34 0 53.5 -11.5t35 -23.5t35.5 -12q39 0 41 34h56q-3 -59 -29.5 -84.5t-69.5 -25.5q-30 0 -51 12
t-37.5 24t-36.5 12q-35 0 -38 -41h-56z" />
    <glyph glyph-name="Umacron" unicode="&#x16a;" horiz-adv-x="505" 
d="M253 -10q-112 0 -160.5 46.5t-50.5 154.5q-5 305 0 609h150q-2 -100 -2.5 -209.5t0.5 -218t2 -209.5q0 -51 61 -51q60 0 60 51q1 101 2 209.5t0.5 218t-2.5 209.5h150q5 -304 0 -609q-1 -108 -49.5 -154.5t-160.5 -46.5zM80 841v62h346v-62h-346z" />
    <glyph glyph-name="umacron" unicode="&#x16b;" horiz-adv-x="504" 
d="M180 -10q-62 0 -99.5 39t-37.5 130v441h150v-454q0 -47 46 -47q20 0 43 12t32 31v458h150v-600h-150v65h-20q-23 -40 -49.5 -57.5t-64.5 -17.5zM59 661v72h386v-72h-386z" />
    <glyph glyph-name="Ubreve" unicode="&#x16c;" horiz-adv-x="505" 
d="M253 -10q-112 0 -160.5 46.5t-50.5 154.5q-5 305 0 609h150q-2 -100 -2.5 -209.5t0.5 -218t2 -209.5q0 -51 61 -51q60 0 60 51q1 101 2 209.5t0.5 218t-2.5 209.5h150q5 -304 0 -609q-1 -108 -49.5 -154.5t-160.5 -46.5zM107 941h84q0 -17 18 -29t44 -12t44 12t18 29h85
q-3 -45 -45 -75t-102 -30t-101.5 30t-44.5 75z" />
    <glyph glyph-name="ubreve" unicode="&#x16d;" horiz-adv-x="504" 
d="M180 -10q-62 0 -99.5 39t-37.5 130v441h150v-454q0 -47 46 -47q20 0 43 12t32 31v458h150v-600h-150v65h-20q-23 -40 -49.5 -57.5t-64.5 -17.5zM101 800h89q0 -39 14.5 -56t47.5 -17t47.5 17t14.5 56h89q-5 -79 -40 -113.5t-111 -34.5t-111 34.5t-40 113.5z" />
    <glyph glyph-name="Uring" unicode="&#x16e;" horiz-adv-x="505" 
d="M253 -10q-112 0 -160.5 46.5t-50.5 154.5q-5 305 0 609h150q-2 -100 -2.5 -209.5t0.5 -218t2 -209.5q0 -51 61 -51q60 0 60 51q1 101 2 209.5t0.5 218t-2.5 209.5h150q5 -304 0 -609q-1 -108 -49.5 -154.5t-160.5 -46.5zM253 747q-40 0 -69 29t-29 69q0 41 29 69.5
t69 28.5q41 0 69.5 -28.5t28.5 -69.5q0 -40 -28.5 -69t-69.5 -29zM210 845q0 -18 12.5 -30.5t30.5 -12.5t30.5 12.5t12.5 30.5t-12.5 30.5t-30.5 12.5t-30.5 -12.5t-12.5 -30.5z" />
    <glyph glyph-name="uring" unicode="&#x16f;" horiz-adv-x="504" 
d="M180 -10q-62 0 -99.5 39t-37.5 130v441h150v-454q0 -47 46 -47q20 0 43 12t32 31v458h150v-600h-150v65h-20q-23 -40 -49.5 -57.5t-64.5 -17.5zM253 522q-38 0 -70 18.5t-50.5 50.5t-18.5 70q0 39 18.5 70.5t50.5 50t70 18.5q39 0 70.5 -18.5t50 -50t18.5 -70.5
q0 -38 -18.5 -70t-50 -50.5t-70.5 -18.5zM192 661q0 -25 18 -43t43 -18q26 0 43.5 18t17.5 43q0 26 -17.5 43.5t-43.5 17.5q-25 0 -43 -17.5t-18 -43.5z" />
    <glyph glyph-name="Uhungarumlaut" unicode="&#x170;" horiz-adv-x="505" 
d="M253 -10q-112 0 -160.5 46.5t-50.5 154.5q-5 305 0 609h150q-2 -100 -2.5 -209.5t0.5 -218t2 -209.5q0 -51 61 -51q60 0 60 51q1 101 2 209.5t0.5 218t-2.5 209.5h150q5 -304 0 -609q-1 -108 -49.5 -154.5t-160.5 -46.5zM362 841h-63v3l112 74h64v-2zM169 841v3l112 74
h64v-2l-113 -75h-63z" />
    <glyph glyph-name="uhungarumlaut" unicode="&#x171;" horiz-adv-x="504" 
d="M180 -10q-62 0 -99.5 39t-37.5 130v441h150v-454q0 -47 46 -47q20 0 43 12t32 31v458h150v-600h-150v65h-20q-23 -40 -49.5 -57.5t-64.5 -17.5zM344 641h-63v3l142 156h64v-2zM151 641v3l142 156h64v-2l-143 -157h-63z" />
    <glyph glyph-name="Uogonek" unicode="&#x172;" horiz-adv-x="505" 
d="M253 -10q-112 0 -160.5 46.5t-50.5 154.5q-5 305 0 609h150q-2 -100 -2.5 -209.5t0.5 -218t2 -209.5q0 -51 61 -51q60 0 60 51q1 101 2 209.5t0.5 218t-2.5 209.5h150q5 -304 0 -609q-1 -108 -49.5 -154.5t-160.5 -46.5zM257 -82q0 47 51 58l20 -17q-12 -15 -12 -32
q0 -11 7.5 -18.5t25.5 -7.5q10 0 21.5 2t19.5 3l12 -48q-24 -8 -58 -8q-43 0 -65 18.5t-22 49.5z" />
    <glyph glyph-name="uogonek" unicode="&#x173;" horiz-adv-x="504" 
d="M180 -10q-62 0 -99.5 39t-37.5 130v441h150v-454q0 -47 46 -47q20 0 43 12t32 31v458h150v-600h-150v65h-20q-23 -40 -49.5 -57.5t-64.5 -17.5zM263 -73q0 47 51 58v25h58l10 -10q-30 -11 -45 -28.5t-15 -35.5q0 -11 7.5 -18.5t25.5 -7.5q10 0 21.5 2t19.5 3l12 -48
q-24 -8 -58 -8q-43 0 -65 18.5t-22 49.5z" />
    <glyph glyph-name="Wcircumflex" unicode="&#x174;" horiz-adv-x="806" 
d="M96 0l-76 800h151l26 -366l15 -302h27l-2 302l70 361h192l70 -361l-2 -302h27l15 302l26 366h151l-76 -800h-245l-37 223l-12 445h-26l-12 -445l-37 -223h-245zM243 841l112 99h86l112 -99h-96l-59 57l-59 -57h-96z" />
    <glyph glyph-name="wcircumflex" unicode="&#x175;" horiz-adv-x="775" 
d="M104 0l-84 600h152l29 -301l7 -189h28l7 189l30 301h229l29 -301l7 -189h28l7 189l30 301h152l-85 -600h-241l-21 234l-7 256h-28l-7 -256l-21 -234h-241zM258 641l82 139h86l82 -139h-96l-29 56l-29 -56h-96z" />
    <glyph glyph-name="Ycircumflex" unicode="&#x176;" horiz-adv-x="490" 
d="M170 0v191l-11 45l-139 564h153l43 -194l15 -235h28l15 235l43 194h153l-139 -563l-11 -46v-191h-150zM80 841l112 99h86l112 -99h-96l-59 57l-59 -57h-96z" />
    <glyph glyph-name="ycircumflex" unicode="&#x177;" horiz-adv-x="465" 
d="M134 0l-114 600h152l36 -271l17 -219h28l13 219l27 271h152l-101 -633q-10 -63 -33.5 -102t-69 -57.5t-122.5 -18.5q-17 0 -36 2t-37 5v111q14 -1 36.5 -1.5t36.5 -0.5q40 0 55.5 11.5t19.5 38.5l6 45h-66zM101 641l82 139h86l82 -139h-96l-29 56l-29 -56h-96z" />
    <glyph glyph-name="Ydieresis" unicode="&#x178;" horiz-adv-x="490" 
d="M170 0v191l-11 45l-139 564h153l43 -194l15 -235h28l15 235l43 194h153l-139 -563l-11 -46v-191h-150zM265 851v89h109v-89h-109zM106 851v89h109v-89h-109z" />
    <glyph glyph-name="Zacute" unicode="&#x179;" horiz-adv-x="423" 
d="M20 0v125l223 543h-211v132h371v-128l-233 -540h218v-132h-368zM179 851v3l111 87h85v-3l-120 -87h-76z" />
    <glyph glyph-name="zacute" unicode="&#x17a;" horiz-adv-x="402" 
d="M20 0v95l203 395h-199v110h358v-98l-206 -392h205v-110h-361zM157 661l87 139h96l-92 -139h-91z" />
    <glyph glyph-name="Zdotaccent" unicode="&#x17b;" horiz-adv-x="423" 
d="M20 0v125l223 543h-211v132h371v-128l-233 -540h218v-132h-368zM154 850v89h110v-89h-110z" />
    <glyph glyph-name="zdotaccent" unicode="&#x17c;" horiz-adv-x="402" 
d="M20 0v95l203 395h-199v110h358v-98l-206 -392h205v-110h-361zM147 661v109h109v-109h-109z" />
    <glyph glyph-name="Zcaron" unicode="&#x17d;" horiz-adv-x="423" 
d="M20 0v125l223 543h-211v132h371v-128l-233 -540h218v-132h-368zM49 942h96l59 -57l59 57h96l-112 -99h-86z" />
    <glyph glyph-name="zcaron" unicode="&#x17e;" horiz-adv-x="402" 
d="M20 0v95l203 395h-199v110h358v-98l-206 -392h205v-110h-361zM80 800h86l34 -66l34 66h86l-82 -139h-76z" />
    <glyph glyph-name="uni018F" unicode="&#x18f;" horiz-adv-x="505" 
d="M253 -10q-108 0 -157 46.5t-51 153.5q-1 62 -1 119.5t1 134.5h273q-1 52 -1.5 101t-2.5 92q-2 51 -61 51q-60 0 -62 -51q0 -18 -0.5 -43t0 -50.5t0.5 -43.5h-150q-1 24 -1 54.5t1 54.5q3 108 52.5 154.5t159.5 46.5q113 0 161 -46.5t50 -154.5q1 -42 1.5 -96.5t0.5 -113
t-0.5 -113.5t-1.5 -97q-1 -91 -51 -145t-160 -54zM253 112q59 0 61 50q2 41 2.5 86t1.5 93h-126q0 -93 3 -179q2 -50 58 -50z" />
    <glyph glyph-name="florin" unicode="&#x192;" horiz-adv-x="690" 
d="M116 -10q-21 0 -40 2.5t-36 5.5l19 110q13 -1 35 -1.5t32 -0.5q29 0 51.5 17t29.5 41l57 214h-120v72h139l51 191q26 95 83.5 132.5t156.5 37.5q22 0 40.5 -2.5t35.5 -5.5l-18 -108h-67q-30 0 -52.5 -17t-29.5 -41l-50 -187h142v-72h-162l-58 -218q-25 -95 -82 -132.5
t-157 -37.5z" />
    <glyph glyph-name="Ohorn" unicode="&#x1a0;" horiz-adv-x="587" 
d="M253 -10q-110 0 -159.5 46.5t-51.5 154.5q-2 98 -2 209.5t2 209.5q2 107 51.5 153.5t159.5 46.5t158 -46.5t52 -153.5q4 -100 4 -210.5t-4 -208.5q-4 -108 -52 -154.5t-158 -46.5zM253 112q58 0 60 51t3.5 112t1.5 125.5t-1.5 125.5t-3.5 112q-2 50 -60 50q-59 0 -61 -50
q-2 -51 -3 -112t-1 -125.5t1 -125.5t3 -112t61 -51zM443 552q-11 0 -23 0.5t-21 1.5v67q11 -1 22 -1.5t22 0.5q72 4 76 80q1 10 1 30v40.5t-1 29.5h75q1 -9 1 -29.5v-40.5t-1 -30q-4 -79 -39.5 -113.5t-111.5 -34.5z" />
    <glyph glyph-name="ohorn" unicode="&#x1a1;" horiz-adv-x="575" 
d="M248 -10q-73 0 -117 20t-64.5 64t-24.5 117q-1 17 -1.5 46t-0.5 62t0.5 62.5t1.5 48.5q4 72 24.5 116t64 64t117.5 20q75 0 118 -20.5t63 -64.5t24 -115q1 -17 1.5 -46t0.5 -62t-0.5 -62.5t-1.5 -48.5q-4 -71 -24 -115.5t-63 -65t-118 -20.5zM248 102q29 0 41.5 13
t13.5 38q2 69 2 147.5t-2 147.5q-1 24 -13.5 37t-41.5 13q-54 0 -56 -50q-2 -69 -2 -148t2 -147q2 -51 56 -51zM431 352q-11 0 -23 0.5t-21 1.5v67q11 -1 22 -1.5t22 0.5q72 4 76 80q1 10 1 30v40.5t-1 29.5h75q1 -9 1 -29.5v-40.5t-1 -30q-4 -79 -39.5 -113.5t-111.5 -34.5
z" />
    <glyph glyph-name="Uhorn" unicode="&#x1af;" horiz-adv-x="595" 
d="M253 -10q-112 0 -160.5 46.5t-50.5 154.5q-5 305 0 609h150q-2 -100 -2.5 -209.5t0.5 -218t2 -209.5q0 -51 61 -51q60 0 60 51q1 101 2 209.5t0.5 218t-2.5 209.5h150q5 -304 0 -609q-1 -108 -49.5 -154.5t-160.5 -46.5zM440 552q-11 0 -23 0.5t-21 1.5v67q11 -1 22 -1.5
t22 0.5q72 4 76 80q1 10 1 30v40.5t-1 29.5h75q1 -9 1 -29.5v-40.5t-1 -30q-4 -79 -39.5 -113.5t-111.5 -34.5z" />
    <glyph glyph-name="uhorn" unicode="&#x1b0;" horiz-adv-x="592" 
d="M180 -10q-62 0 -99.5 39t-37.5 130v441h150v-454q0 -47 46 -47q20 0 43 12t32 31v458h150v-600h-150v65h-20q-23 -40 -49.5 -57.5t-64.5 -17.5zM440 352q-11 0 -23 0.5t-21 1.5v67q11 -1 22 -1.5t22 0.5q72 4 76 80q1 10 1 30v40.5t-1 29.5h75q1 -9 1 -29.5v-40.5t-1 -30
q-4 -79 -39.5 -113.5t-111.5 -34.5z" />
    <glyph glyph-name="uni01C4" unicode="&#x1c4;" horiz-adv-x="903" 
d="M40 0v800h203q113 0 163 -47.5t52 -157.5q2 -69 2.5 -131.5t0 -125t-2.5 -132.5q-2 -110 -52 -158t-163 -48h-203zM190 132h53q63 0 65 56q6 213 0 425q-2 55 -65 55h-53v-536zM500 0v125l223 543h-211v132h371v-128l-233 -540h218v-132h-368zM529 942h96l59 -57l59 57
h96l-112 -99h-86z" />
    <glyph glyph-name="uni01C5" unicode="&#x1c5;" horiz-adv-x="902" 
d="M40 0v800h203q113 0 163 -47.5t52 -157.5q2 -69 2.5 -131.5t0 -125t-2.5 -132.5q-2 -110 -52 -158t-163 -48h-203zM190 132h53q63 0 65 56q6 213 0 425q-2 55 -65 55h-53v-536zM520 0v95l203 395h-199v110h358v-98l-206 -392h205v-110h-361zM580 800h86l34 -66l34 66h86
l-82 -139h-76z" />
    <glyph glyph-name="uni01C6" unicode="&#x1c6;" horiz-adv-x="895" 
d="M303 800h150v-800h-150v65h-21q-21 -36 -45 -55.5t-71 -19.5q-62 0 -95.5 39t-38.5 130q-1 24 -1.5 61.5t-0.5 79.5t0.5 79.5t1.5 61.5q5 91 39.5 130t96.5 39q47 0 70 -19.5t44 -55.5h21v265zM228 99q20 0 43 12t32 31v316q-9 20 -32 31.5t-43 11.5q-23 0 -33.5 -11.5
t-12.5 -35.5q-2 -43 -3 -100.5t0 -113t3 -94.5q2 -24 12.5 -35.5t33.5 -11.5zM513 0v95l203 395h-199v110h358v-98l-206 -392h205v-110h-361zM573 800h86l34 -66l34 66h86l-82 -139h-76z" />
    <glyph glyph-name="uni01C7" unicode="&#x1c7;" horiz-adv-x="882" 
d="M40 0v800h150v-668h197v-132h-347zM637 -10q-73 0 -116 20.5t-62 64.5t-21 116q-1 24 -1 54.5t1 54.5h141q0 -18 -0.5 -43t0 -50.5t0.5 -43.5q2 -51 58 -51q29 0 42 13t13 38v637h150v-609q0 -108 -46 -154.5t-159 -46.5z" />
    <glyph glyph-name="uni01C8" unicode="&#x1c8;" horiz-adv-x="640" 
d="M40 0v800h150v-668h197v-132h-347zM447 687v113h150v-113h-150zM320 -206v111q14 -1 36.5 -1.5t36.5 -0.5q26 0 40.5 13t14.5 37v647h150v-635q0 -95 -50.5 -136.5t-154.5 -41.5q-17 0 -36 2t-37 5z" />
    <glyph glyph-name="uni01C9" unicode="&#x1c9;" horiz-adv-x="463" 
d="M40 0v800h150v-800h-150zM270 687v113h150v-113h-150zM143 -206v111q14 -1 36.5 -1.5t36.5 -0.5q26 0 40.5 13t14.5 37v647h150v-635q0 -95 -50.5 -136.5t-154.5 -41.5q-17 0 -36 2t-37 5z" />
    <glyph glyph-name="uni01CA" unicode="&#x1ca;" horiz-adv-x="998" 
d="M40 0v800h217l60 -255l55 -413h26l-28 325l-12 343h145v-800h-228l-60 262l-41 407h-28l26 -362l13 -307h-145zM753 -10q-73 0 -116 20.5t-62 64.5t-21 116q-1 24 -1 54.5t1 54.5h141q0 -18 -0.5 -43t0 -50.5t0.5 -43.5q2 -51 58 -51q29 0 42 13t13 38v637h150v-609
q0 -108 -46 -154.5t-159 -46.5z" />
    <glyph glyph-name="uni01CB" unicode="&#x1cb;" horiz-adv-x="776" 
d="M40 0v800h217l60 -255l55 -413h26l-28 325l-12 343h145v-800h-228l-60 262l-41 407h-28l26 -362l13 -307h-145zM583 687v113h150v-113h-150zM456 -206v111q14 -1 36.5 -1.5t36.5 -0.5q26 0 40.5 13t14.5 37v647h150v-635q0 -95 -50.5 -136.5t-154.5 -41.5q-17 0 -36 2
t-37 5z" />
    <glyph glyph-name="uni01CC" unicode="&#x1cc;" horiz-adv-x="737" 
d="M40 0v600h150v-65h26q21 36 44 55.5t70 19.5q62 0 97.5 -39t35.5 -130v-441h-150v454q0 47 -48 47q-20 0 -43 -11.5t-32 -31.5v-458h-150zM544 687v113h150v-113h-150zM417 -206v111q14 -1 36.5 -1.5t36.5 -0.5q26 0 40.5 13t14.5 37v647h150v-635q0 -95 -50.5 -136.5
t-154.5 -41.5q-17 0 -36 2t-37 5z" />
    <glyph glyph-name="uni01CD" unicode="&#x1cd;" horiz-adv-x="498" 
d="M20 0l111 800h236l111 -800h-154l-17 167h-116l-17 -167h-154zM205 299h88l-18 177l-12 192h-28l-12 -192zM89 942h96l59 -57l59 57h96l-112 -99h-86z" />
    <glyph glyph-name="uni01CE" unicode="&#x1ce;" horiz-adv-x="471" 
d="M157 -8q-67 0 -98 32.5t-38 111.5q-2 22 0 44q5 62 39.5 97t115.5 64q27 10 52 16.5t53 13.5v77q-1 24 -10.5 37t-38.5 13q-25 0 -34 -10.5t-11 -34.5q0 -7 -0.5 -23.5t0 -34t0.5 -26.5h-146q-1 5 -1.5 28t0.5 39q3 61 22 99t61 56.5t113 18.5q75 0 116 -20.5t58.5 -64
t19.5 -113.5l-1 -412h-150v65h-19q-18 -38 -40.5 -55.5t-62.5 -17.5zM220 99q20 0 35 11t25 29v136q-38 -8 -65 -20q-26 -12 -35 -31.5t-11 -43.5q-1 -18 0 -32q5 -49 51 -49zM114 800h86l34 -66l34 66h86l-82 -139h-76z" />
    <glyph glyph-name="uni01CF" unicode="&#x1cf;" horiz-adv-x="230" 
d="M40 0v800h150v-800h-150zM-45 942h96l59 -57l59 57h96l-112 -99h-86z" />
    <glyph glyph-name="uni01D0" unicode="&#x1d0;" horiz-adv-x="230" 
d="M40 0v600h150v-600h-150zM-6 800h86l34 -66l34 66h86l-82 -139h-76z" />
    <glyph glyph-name="uni01D1" unicode="&#x1d1;" horiz-adv-x="507" 
d="M253 -10q-110 0 -159.5 46.5t-51.5 154.5q-2 98 -2 209.5t2 209.5q2 107 51.5 153.5t159.5 46.5t158 -46.5t52 -153.5q4 -100 4 -210.5t-4 -208.5q-4 -108 -52 -154.5t-158 -46.5zM253 112q58 0 60 51t3.5 112t1.5 125.5t-1.5 125.5t-3.5 112q-2 50 -60 50q-59 0 -61 -50
q-2 -51 -3 -112t-1 -125.5t1 -125.5t3 -112t61 -51zM94 942h96l59 -57l59 57h96l-112 -99h-86z" />
    <glyph glyph-name="uni01D2" unicode="&#x1d2;" horiz-adv-x="495" 
d="M248 -10q-73 0 -117 20t-64.5 64t-24.5 117q-1 17 -1.5 46t-0.5 62t0.5 62.5t1.5 48.5q4 72 24.5 116t64 64t117.5 20q75 0 118 -20.5t63 -64.5t24 -115q1 -17 1.5 -46t0.5 -62t-0.5 -62.5t-1.5 -48.5q-4 -71 -24 -115.5t-63 -65t-118 -20.5zM248 102q29 0 41.5 13
t13.5 38q2 69 2 147.5t-2 147.5q-1 24 -13.5 37t-41.5 13q-54 0 -56 -50q-2 -69 -2 -148t2 -147q2 -51 56 -51zM127 800h86l34 -66l34 66h86l-82 -139h-76z" />
    <glyph glyph-name="uni01D3" unicode="&#x1d3;" horiz-adv-x="505" 
d="M253 -10q-112 0 -160.5 46.5t-50.5 154.5q-5 305 0 609h150q-2 -100 -2.5 -209.5t0.5 -218t2 -209.5q0 -51 61 -51q60 0 60 51q1 101 2 209.5t0.5 218t-2.5 209.5h150q5 -304 0 -609q-1 -108 -49.5 -154.5t-160.5 -46.5zM93 942h96l59 -57l59 57h96l-112 -99h-86z" />
    <glyph glyph-name="uni01D4" unicode="&#x1d4;" horiz-adv-x="504" 
d="M180 -10q-62 0 -99.5 39t-37.5 130v441h150v-454q0 -47 46 -47q20 0 43 12t32 31v458h150v-600h-150v65h-20q-23 -40 -49.5 -57.5t-64.5 -17.5zM131 800h86l34 -66l34 66h86l-82 -139h-76z" />
    <glyph glyph-name="uni01D5" unicode="&#x1d5;" horiz-adv-x="505" 
d="M253 -10q-112 0 -160.5 46.5t-50.5 154.5q-5 305 0 609h150q-2 -100 -2.5 -209.5t0.5 -218t2 -209.5q0 -51 61 -51q60 0 60 51q1 101 2 209.5t0.5 218t-2.5 209.5h150q5 -304 0 -609q-1 -108 -49.5 -154.5t-160.5 -46.5zM278 851v89h109v-89h-109zM119 851v89h109v-89
h-109zM80 981v62h346v-62h-346z" />
    <glyph glyph-name="uni01D6" unicode="&#x1d6;" horiz-adv-x="504" 
d="M180 -10q-62 0 -99.5 39t-37.5 130v441h150v-454q0 -47 46 -47q20 0 43 12t32 31v458h150v-600h-150v65h-20q-23 -40 -49.5 -57.5t-64.5 -17.5zM277 661v109h109v-109h-109zM118 661v109h109v-109h-109zM59 821v72h386v-72h-386z" />
    <glyph glyph-name="uni01D7" unicode="&#x1d7;" horiz-adv-x="505" 
d="M253 -10q-112 0 -160.5 46.5t-50.5 154.5q-5 305 0 609h150q-2 -100 -2.5 -209.5t0.5 -218t2 -209.5q0 -51 61 -51q60 0 60 51q1 101 2 209.5t0.5 218t-2.5 209.5h150q5 -304 0 -609q-1 -108 -49.5 -154.5t-160.5 -46.5zM278 851v89h109v-89h-109zM119 851v89h109v-89
h-109zM223 991v3l111 87h85v-3l-120 -87h-76z" />
    <glyph glyph-name="uni01D8" unicode="&#x1d8;" horiz-adv-x="504" 
d="M180 -10q-62 0 -99.5 39t-37.5 130v441h150v-454q0 -47 46 -47q20 0 43 12t32 31v458h150v-600h-150v65h-20q-23 -40 -49.5 -57.5t-64.5 -17.5zM277 661v109h109v-109h-109zM118 661v109h109v-109h-109zM208 821l87 139h96l-92 -139h-91z" />
    <glyph glyph-name="uni01D9" unicode="&#x1d9;" horiz-adv-x="505" 
d="M253 -10q-112 0 -160.5 46.5t-50.5 154.5q-5 305 0 609h150q-2 -100 -2.5 -209.5t0.5 -218t2 -209.5q0 -51 61 -51q60 0 60 51q1 101 2 209.5t0.5 218t-2.5 209.5h150q5 -304 0 -609q-1 -108 -49.5 -154.5t-160.5 -46.5zM278 851v89h109v-89h-109zM119 851v89h109v-89
h-109zM93 1082h96l59 -57l59 57h96l-112 -99h-86z" />
    <glyph glyph-name="uni01DA" unicode="&#x1da;" horiz-adv-x="504" 
d="M180 -10q-62 0 -99.5 39t-37.5 130v441h150v-454q0 -47 46 -47q20 0 43 12t32 31v458h150v-600h-150v65h-20q-23 -40 -49.5 -57.5t-64.5 -17.5zM277 661v109h109v-109h-109zM118 661v109h109v-109h-109zM131 960h86l34 -66l34 66h86l-82 -139h-76z" />
    <glyph glyph-name="uni01DB" unicode="&#x1db;" horiz-adv-x="505" 
d="M253 -10q-112 0 -160.5 46.5t-50.5 154.5q-5 305 0 609h150q-2 -100 -2.5 -209.5t0.5 -218t2 -209.5q0 -51 61 -51q60 0 60 51q1 101 2 209.5t0.5 218t-2.5 209.5h150q5 -304 0 -609q-1 -108 -49.5 -154.5t-160.5 -46.5zM278 851v89h109v-89h-109zM119 851v89h109v-89
h-109zM103 1078v3h85l111 -87v-3h-76z" />
    <glyph glyph-name="uni01DC" unicode="&#x1dc;" horiz-adv-x="504" 
d="M180 -10q-62 0 -99.5 39t-37.5 130v441h150v-454q0 -47 46 -47q20 0 43 12t32 31v458h150v-600h-150v65h-20q-23 -40 -49.5 -57.5t-64.5 -17.5zM277 661v109h109v-109h-109zM118 661v109h109v-109h-109zM114 960h96l92 -139h-96z" />
    <glyph glyph-name="uni01DD" unicode="&#x1dd;" horiz-adv-x="469" 
d="M178 367h-146q-1 5 -1.5 26.5t0.5 38.5q4 95 49.5 136.5t144.5 41.5q103 0 150 -41.5t52 -136.5q1 -17 1.5 -52.5t0.5 -77t-0.5 -77.5t-1.5 -55q-7 -97 -53.5 -138.5t-146.5 -41.5q-101 0 -146.5 40.5t-49.5 133.5q-1 11 -1 38.5v61t2 61.5h247q0 32 -0.5 63t-1.5 60
q-1 27 -13 38.5t-39 11.5q-24 0 -35 -11.5t-12 -38.5q-2 -25 0 -81zM227 102q26 0 37.5 10.5t12.5 34.5q1 18 1 36.5t1 38.5h-102q0 -27 0.5 -49t0.5 -26q1 -24 12.5 -34.5t36.5 -10.5z" />
    <glyph glyph-name="Gcaron" unicode="&#x1e6;" horiz-adv-x="487" 
d="M254 -10q-75 0 -120.5 20.5t-66.5 64.5t-24 116q-1 42 -2 95.5t-1 111t1 110.5t2 93q3 76 24.5 122t67 66.5t119.5 20.5q105 0 153 -46.5t55 -153.5q2 -23 2 -55t-2 -55h-150q2 28 2 69t-2 69q-3 50 -58 50q-58 0 -61 -50q-4 -70 -5.5 -154t0 -167.5t5.5 -153.5
q3 -51 61 -51q29 0 46 13t19 38q1 12 1.5 30.5t0 37.5t-1.5 30h-55v130h201q2 -46 1.5 -100t-2.5 -100q-5 -108 -54 -154.5t-156 -46.5zM90 942h96l59 -57l59 57h96l-112 -99h-86z" />
    <glyph glyph-name="gcaron" unicode="&#x1e7;" horiz-adv-x="508" 
d="M251 -202q-91 0 -143 27t-61 63q-5 19 -2 38q4 23 19.5 38t52.5 21v21q-64 7 -73 58q-3 17 0 33q4 21 22.5 38t52.5 21v20q-81 37 -88 161q-3 54 0 93q8 97 55.5 138.5t150.5 41.5q130 0 175 -69h19q5 31 22.5 44.5t54.5 14.5v-113h-15q-27 0 -38.5 -11.5t-11.5 -38.5
q1 -44 0.5 -65t-1.5 -35q-6 -97 -53.5 -139t-151.5 -42h-9q-40 -1 -53 -7t-13 -20v-3q1 -15 23.5 -20.5t77.5 -6.5q104 -1 154 -33t62 -93q2 -8 2 -21t-2 -27q-8 -48 -39.5 -75.5t-80 -39.5t-108.5 -12zM237 268q57 0 60 51q3 58 0 129q-3 50 -60 50q-59 0 -61 -50
q-3 -71 0 -129q3 -51 61 -51zM257 -100q83 0 99 37q7 15 -1 33q-7 16 -32 23.5t-66 7.5q-40 0 -60 -9.5t-26 -25.5t0 -32q6 -17 26 -25.5t60 -8.5zM116 800h86l34 -66l34 66h86l-82 -139h-76z" />
    <glyph glyph-name="uni01EA" unicode="&#x1ea;" horiz-adv-x="507" 
d="M253 -10q-110 0 -159.5 46.5t-51.5 154.5q-2 98 -2 209.5t2 209.5q2 107 51.5 153.5t159.5 46.5t158 -46.5t52 -153.5q4 -100 4 -210.5t-4 -208.5q-4 -108 -52 -154.5t-158 -46.5zM253 112q58 0 60 51t3.5 112t1.5 125.5t-1.5 125.5t-3.5 112q-2 50 -60 50q-59 0 -61 -50
q-2 -51 -3 -112t-1 -125.5t1 -125.5t3 -112t61 -51zM264 -80q0 47 51 58l20 -17q-12 -15 -12 -32q0 -11 7.5 -18.5t25.5 -7.5q10 0 21.5 2t19.5 3l12 -48q-24 -8 -58 -8q-43 0 -65 18.5t-22 49.5z" />
    <glyph glyph-name="uni01EB" unicode="&#x1eb;" horiz-adv-x="495" 
d="M248 -10q-73 0 -117 20t-64.5 64t-24.5 117q-1 17 -1.5 46t-0.5 62t0.5 62.5t1.5 48.5q4 72 24.5 116t64 64t117.5 20q75 0 118 -20.5t63 -64.5t24 -115q1 -17 1.5 -46t0.5 -62t-0.5 -62.5t-1.5 -48.5q-4 -71 -24 -115.5t-63 -65t-118 -20.5zM248 102q29 0 41.5 13
t13.5 38q2 69 2 147.5t-2 147.5q-1 24 -13.5 37t-41.5 13q-54 0 -56 -50q-2 -69 -2 -148t2 -147q2 -51 56 -51zM278 -73q0 47 51 58l20 -17q-12 -15 -12 -32q0 -11 7.5 -18.5t25.5 -7.5q10 0 21.5 2t19.5 3l12 -48q-24 -8 -58 -8q-43 0 -65 18.5t-22 49.5z" />
    <glyph glyph-name="Aringacute" unicode="&#x1fa;" horiz-adv-x="498" 
d="M20 0l111 800h236l111 -800h-154l-17 167h-116l-17 -167h-154zM205 299h88l-18 177l-12 192h-28l-12 -192zM249 747q-40 0 -69 29t-29 69q0 41 29 69.5t69 28.5q41 0 69.5 -28.5t28.5 -69.5q0 -40 -28.5 -69t-69.5 -29zM206 845q0 -18 12.5 -30.5t30.5 -12.5t30.5 12.5
t12.5 30.5t-12.5 30.5t-30.5 12.5t-30.5 -12.5t-12.5 -30.5zM219 1004v3l111 87h85v-3l-120 -87h-76z" />
    <glyph glyph-name="aringacute" unicode="&#x1fb;" horiz-adv-x="471" 
d="M157 -8q-67 0 -98 32.5t-38 111.5q-2 22 0 44q5 62 39.5 97t115.5 64q27 10 52 16.5t53 13.5v77q-1 24 -10.5 37t-38.5 13q-25 0 -34 -10.5t-11 -34.5q0 -7 -0.5 -23.5t0 -34t0.5 -26.5h-146q-1 5 -1.5 28t0.5 39q3 61 22 99t61 56.5t113 18.5q75 0 116 -20.5t58.5 -64
t19.5 -113.5l-1 -412h-150v65h-19q-18 -38 -40.5 -55.5t-62.5 -17.5zM220 99q20 0 35 11t25 29v136q-38 -8 -65 -20q-26 -12 -35 -31.5t-11 -43.5q-1 -18 0 -32q5 -49 51 -49zM235 533q-38 0 -70 18.5t-50.5 50.5t-18.5 70q0 39 18.5 70.5t50.5 50t70 18.5q39 0 70.5 -18.5
t50 -50t18.5 -70.5q0 -38 -18.5 -70t-50 -50.5t-70.5 -18.5zM174 672q0 -25 18 -43t43 -18q26 0 43.5 18t17.5 43q0 26 -17.5 43.5t-43.5 17.5q-25 0 -43 -17.5t-18 -43.5zM191 852l87 139h96l-92 -139h-91z" />
    <glyph glyph-name="AEacute" unicode="&#x1fc;" horiz-adv-x="692" 
d="M672 668h-196v-195h186v-132h-186v-209h196v-132h-346v167h-106l-36 -167h-164l166 800h486v-132zM248 299h78v369h-26l-22 -232zM381 851v3l111 87h85v-3l-120 -87h-76z" />
    <glyph glyph-name="aeacute" unicode="&#x1fd;" horiz-adv-x="708" 
d="M157 -8q-59 0 -95 32.5t-41 111.5q-2 22 0 44q5 62 41 97.5t114 63.5q27 10 52 16.5t52 13.5v77q0 24 -9.5 37t-38.5 13q-25 0 -34 -10.5t-11 -34.5q0 -7 -0.5 -23.5t0 -34t0.5 -26.5h-146q-1 5 -1.5 28t0.5 39q3 61 22 99t61 56.5t113 18.5q81 0 122 -24q23 13 54 18.5
t69 5.5q101 0 146.5 -40.5t49.5 -133.5q1 -11 1 -38.5v-61t-2 -61.5h-248v-123q0 -27 14 -38.5t41 -11.5q24 0 35 11.5t12 38.5q2 25 0 81h146q1 -5 1.5 -26.5t-0.5 -38.5q-4 -95 -49.5 -136.5t-144.5 -41.5q-136 0 -179 75h-11q-19 -39 -55.5 -56t-80.5 -17zM428 378h103
q0 20 -0.5 41.5t-0.5 33.5q0 45 -49 45q-53 0 -53 -45v-75zM220 99q13 0 26.5 6.5t23.5 28t11 67.5q0 16 -0.5 35t-0.5 39q-16 -4 -33.5 -8.5t-31.5 -11.5q-26 -12 -35 -30.5t-11 -44.5q-1 -17 0 -32q5 -49 51 -49zM315 661l87 139h96l-92 -139h-91z" />
    <glyph glyph-name="Oslashacute" unicode="&#x1fe;" horiz-adv-x="507" 
d="M253 -10q-110 0 -159.5 46.5t-51.5 154.5q-2 98 -2 209.5t2 209.5q2 107 51.5 153.5t159.5 46.5t158 -46.5t52 -153.5q4 -100 4 -210.5t-4 -208.5q-4 -108 -52 -154.5t-158 -46.5zM192 638q-3 -61 -4 -137t0 -152l121 310q-13 29 -56 29q-59 0 -61 -50zM253 112
q58 0 60 51q2 52 3.5 113.5t0.5 124.5l-108 -276q16 -13 44 -13zM224 851v3l111 87h85v-3l-120 -87h-76z" />
    <glyph glyph-name="oslashacute" unicode="&#x1ff;" horiz-adv-x="495" 
d="M248 -10q-73 0 -117 20t-64.5 64t-24.5 117q-1 17 -1.5 46t-0.5 62t0.5 62.5t1.5 48.5q4 72 24.5 116t64 64t117.5 20q75 0 118 -20.5t63 -64.5t24 -115q1 -17 1.5 -46t0.5 -62t-0.5 -62.5t-1.5 -48.5q-4 -71 -24 -115.5t-63 -65t-118 -20.5zM192 448q-2 -50 -2.5 -105.5
t0.5 -109.5l99 253q-13 12 -41 12q-54 0 -56 -50zM248 102q29 0 41.5 13t13.5 38q3 83 2 176l-87 -222q12 -5 30 -5zM204 661l87 139h96l-92 -139h-91z" />
    <glyph glyph-name="uni0200" unicode="&#x200;" horiz-adv-x="498" 
d="M20 0l111 800h236l111 -800h-154l-17 167h-116l-17 -167h-154zM205 299h88l-18 177l-12 192h-28l-12 -192zM154 841l-113 75v2h64l112 -74v-3h-63zM171 916v2h64l112 -74v-3h-63z" />
    <glyph glyph-name="uni0201" unicode="&#x201;" horiz-adv-x="471" 
d="M157 -8q-67 0 -98 32.5t-38 111.5q-2 22 0 44q5 62 39.5 97t115.5 64q27 10 52 16.5t53 13.5v77q-1 24 -10.5 37t-38.5 13q-25 0 -34 -10.5t-11 -34.5q0 -7 -0.5 -23.5t0 -34t0.5 -26.5h-146q-1 5 -1.5 28t0.5 39q3 61 22 99t61 56.5t113 18.5q75 0 116 -20.5t58.5 -64
t19.5 -113.5l-1 -412h-150v65h-19q-18 -38 -40.5 -55.5t-62.5 -17.5zM220 99q20 0 35 11t25 29v136q-38 -8 -65 -20q-26 -12 -35 -31.5t-11 -43.5q-1 -18 0 -32q5 -49 51 -49zM133 641l-109 94v2h64l108 -93v-3h-63zM154 735v2h64l108 -93v-3h-63z" />
    <glyph glyph-name="uni0202" unicode="&#x202;" horiz-adv-x="498" 
d="M20 0l111 800h236l111 -800h-154l-17 167h-116l-17 -167h-154zM205 299h88l-18 177l-12 192h-28l-12 -192zM102 841q3 45 44.5 75t101.5 30t102 -30t45 -75h-85q0 17 -18 29t-44 12t-44 -12t-18 -29h-84z" />
    <glyph glyph-name="uni0203" unicode="&#x203;" horiz-adv-x="471" 
d="M157 -8q-67 0 -98 32.5t-38 111.5q-2 22 0 44q5 62 39.5 97t115.5 64q27 10 52 16.5t53 13.5v77q-1 24 -10.5 37t-38.5 13q-25 0 -34 -10.5t-11 -34.5q0 -7 -0.5 -23.5t0 -34t0.5 -26.5h-146q-1 5 -1.5 28t0.5 39q3 61 22 99t61 56.5t113 18.5q75 0 116 -20.5t58.5 -64
t19.5 -113.5l-1 -412h-150v65h-19q-18 -38 -40.5 -55.5t-62.5 -17.5zM220 99q20 0 35 11t25 29v136q-38 -8 -65 -20q-26 -12 -35 -31.5t-11 -43.5q-1 -18 0 -32q5 -49 51 -49zM84 659h89q0 39 14.5 56t47.5 17t47.5 -17t14.5 -56h89q-5 79 -40 113.5t-111 34.5t-111 -34.5
t-40 -113.5z" />
    <glyph glyph-name="uni0204" unicode="&#x204;" horiz-adv-x="406" 
d="M40 0v800h346v-132h-196v-195h186v-132h-186v-209h196v-132h-346zM120 841l-113 75v2h64l112 -74v-3h-63zM137 916v2h64l112 -74v-3h-63z" />
    <glyph glyph-name="uni0205" unicode="&#x205;" horiz-adv-x="469" 
d="M291 233h146q1 -5 1.5 -26.5t-0.5 -38.5q-4 -95 -49.5 -136.5t-144.5 -41.5q-103 0 -150 41.5t-52 136.5q-1 17 -1.5 52.5t-0.5 77t0.5 77.5t1.5 55q7 97 53.5 138.5t146.5 41.5q101 0 146.5 -40.5t49.5 -133.5q1 -11 1 -38.5v-61t-2 -61.5h-247q0 -32 0.5 -63t1.5 -60
q1 -27 13 -38.5t39 -11.5q24 0 35 11.5t12 38.5q2 25 0 81zM242 498q-26 0 -37.5 -10.5t-12.5 -34.5q-1 -18 -1 -36.5t-1 -38.5h102q0 27 -0.5 49t-0.5 26q-1 24 -12.5 34.5t-36.5 10.5zM138 641l-109 94v2h64l108 -93v-3h-63zM159 735v2h64l108 -93v-3h-63z" />
    <glyph glyph-name="uni0206" unicode="&#x206;" horiz-adv-x="406" 
d="M40 0v800h346v-132h-196v-195h186v-132h-186v-209h196v-132h-346zM68 841q3 45 44.5 75t101.5 30t102 -30t45 -75h-85q0 17 -18 29t-44 12t-44 -12t-18 -29h-84z" />
    <glyph glyph-name="uni0207" unicode="&#x207;" horiz-adv-x="469" 
d="M291 233h146q1 -5 1.5 -26.5t-0.5 -38.5q-4 -95 -49.5 -136.5t-144.5 -41.5q-103 0 -150 41.5t-52 136.5q-1 17 -1.5 52.5t-0.5 77t0.5 77.5t1.5 55q7 97 53.5 138.5t146.5 41.5q101 0 146.5 -40.5t49.5 -133.5q1 -11 1 -38.5v-61t-2 -61.5h-247q0 -32 0.5 -63t1.5 -60
q1 -27 13 -38.5t39 -11.5q24 0 35 11.5t12 38.5q2 25 0 81zM242 498q-26 0 -37.5 -10.5t-12.5 -34.5q-1 -18 -1 -36.5t-1 -38.5h102q0 27 -0.5 49t-0.5 26q-1 24 -12.5 34.5t-36.5 10.5zM89 659h89q0 39 14.5 56t47.5 17t47.5 -17t14.5 -56h89q-5 79 -40 113.5t-111 34.5
t-111 -34.5t-40 -113.5z" />
    <glyph glyph-name="uni0208" unicode="&#x208;" horiz-adv-x="230" 
d="M40 0v800h150v-800h-150zM20 841l-113 75v2h64l112 -74v-3h-63zM37 916v2h64l112 -74v-3h-63z" />
    <glyph glyph-name="uni0209" unicode="&#x209;" horiz-adv-x="230" 
d="M40 0v600h150v-600h-150zM13 641l-109 94v2h64l108 -93v-3h-63zM34 735v2h64l108 -93v-3h-63z" />
    <glyph glyph-name="uni020A" unicode="&#x20a;" horiz-adv-x="230" 
d="M40 0v800h150v-800h-150zM-32 841q3 45 44.5 75t101.5 30t102 -30t45 -75h-85q0 17 -18 29t-44 12t-44 -12t-18 -29h-84z" />
    <glyph glyph-name="uni020B" unicode="&#x20b;" horiz-adv-x="230" 
d="M40 0v600h150v-600h-150zM-36 659h89q0 39 14.5 56t47.5 17t47.5 -17t14.5 -56h89q-5 79 -40 113.5t-111 34.5t-111 -34.5t-40 -113.5z" />
    <glyph glyph-name="uni020C" unicode="&#x20c;" horiz-adv-x="507" 
d="M253 -10q-110 0 -159.5 46.5t-51.5 154.5q-2 98 -2 209.5t2 209.5q2 107 51.5 153.5t159.5 46.5t158 -46.5t52 -153.5q4 -100 4 -210.5t-4 -208.5q-4 -108 -52 -154.5t-158 -46.5zM253 112q58 0 60 51t3.5 112t1.5 125.5t-1.5 125.5t-3.5 112q-2 50 -60 50q-59 0 -61 -50
q-2 -51 -3 -112t-1 -125.5t1 -125.5t3 -112t61 -51zM159 841l-113 75v2h64l112 -74v-3h-63zM176 916v2h64l112 -74v-3h-63z" />
    <glyph glyph-name="uni020D" unicode="&#x20d;" horiz-adv-x="495" 
d="M248 -10q-73 0 -117 20t-64.5 64t-24.5 117q-1 17 -1.5 46t-0.5 62t0.5 62.5t1.5 48.5q4 72 24.5 116t64 64t117.5 20q75 0 118 -20.5t63 -64.5t24 -115q1 -17 1.5 -46t0.5 -62t-0.5 -62.5t-1.5 -48.5q-4 -71 -24 -115.5t-63 -65t-118 -20.5zM248 102q29 0 41.5 13
t13.5 38q2 69 2 147.5t-2 147.5q-1 24 -13.5 37t-41.5 13q-54 0 -56 -50q-2 -69 -2 -148t2 -147q2 -51 56 -51zM146 641l-109 94v2h64l108 -93v-3h-63zM167 735v2h64l108 -93v-3h-63z" />
    <glyph glyph-name="uni020E" unicode="&#x20e;" horiz-adv-x="507" 
d="M253 -10q-110 0 -159.5 46.5t-51.5 154.5q-2 98 -2 209.5t2 209.5q2 107 51.5 153.5t159.5 46.5t158 -46.5t52 -153.5q4 -100 4 -210.5t-4 -208.5q-4 -108 -52 -154.5t-158 -46.5zM253 112q58 0 60 51t3.5 112t1.5 125.5t-1.5 125.5t-3.5 112q-2 50 -60 50q-59 0 -61 -50
q-2 -51 -3 -112t-1 -125.5t1 -125.5t3 -112t61 -51zM107 841q3 45 44.5 75t101.5 30t102 -30t45 -75h-85q0 17 -18 29t-44 12t-44 -12t-18 -29h-84z" />
    <glyph glyph-name="uni020F" unicode="&#x20f;" horiz-adv-x="495" 
d="M248 -10q-73 0 -117 20t-64.5 64t-24.5 117q-1 17 -1.5 46t-0.5 62t0.5 62.5t1.5 48.5q4 72 24.5 116t64 64t117.5 20q75 0 118 -20.5t63 -64.5t24 -115q1 -17 1.5 -46t0.5 -62t-0.5 -62.5t-1.5 -48.5q-4 -71 -24 -115.5t-63 -65t-118 -20.5zM248 102q29 0 41.5 13
t13.5 38q2 69 2 147.5t-2 147.5q-1 24 -13.5 37t-41.5 13q-54 0 -56 -50q-2 -69 -2 -148t2 -147q2 -51 56 -51zM97 659h89q0 39 14.5 56t47.5 17t47.5 -17t14.5 -56h89q-5 79 -40 113.5t-111 34.5t-111 -34.5t-40 -113.5z" />
    <glyph glyph-name="uni0210" unicode="&#x210;" horiz-adv-x="479" 
d="M40 0v800h193q112 0 161.5 -45.5t53.5 -149.5q1 -28 1.5 -49t0 -42t-1.5 -49q-2 -65 -22 -106.5t-61 -63.5l94 -295h-159l-76 270h-34v-270h-150zM190 402h43q62 0 65 55q5 78 0 156q-3 55 -65 55h-43v-266zM141 841l-113 75v2h64l112 -74v-3h-63zM158 916v2h64l112 -74
v-3h-63z" />
    <glyph glyph-name="uni0211" unicode="&#x211;" horiz-adv-x="360" 
d="M40 0v600h150v-75h26q5 44 26 61.5t55 17.5q13 0 25 -0.5t18 -2.5v-114h-41q-58 0 -81 -17.5t-28 -47.5v-422h-150zM88 641l-109 94v2h64l108 -93v-3h-63zM109 735v2h64l108 -93v-3h-63z" />
    <glyph glyph-name="uni0212" unicode="&#x212;" horiz-adv-x="479" 
d="M40 0v800h193q112 0 161.5 -45.5t53.5 -149.5q1 -28 1.5 -49t0 -42t-1.5 -49q-2 -65 -22 -106.5t-61 -63.5l94 -295h-159l-76 270h-34v-270h-150zM190 402h43q62 0 65 55q5 78 0 156q-3 55 -65 55h-43v-266zM89 841q3 45 44.5 75t101.5 30t102 -30t45 -75h-85
q0 17 -18 29t-44 12t-44 -12t-18 -29h-84z" />
    <glyph glyph-name="uni0213" unicode="&#x213;" horiz-adv-x="360" 
d="M40 0v600h150v-75h26q5 44 26 61.5t55 17.5q13 0 25 -0.5t18 -2.5v-114h-41q-58 0 -81 -17.5t-28 -47.5v-422h-150zM39 659h89q0 39 14.5 56t47.5 17t47.5 -17t14.5 -56h89q-5 79 -40 113.5t-111 34.5t-111 -34.5t-40 -113.5z" />
    <glyph glyph-name="uni0214" unicode="&#x214;" horiz-adv-x="505" 
d="M253 -10q-112 0 -160.5 46.5t-50.5 154.5q-5 305 0 609h150q-2 -100 -2.5 -209.5t0.5 -218t2 -209.5q0 -51 61 -51q60 0 60 51q1 101 2 209.5t0.5 218t-2.5 209.5h150q5 -304 0 -609q-1 -108 -49.5 -154.5t-160.5 -46.5zM158 841l-113 75v2h64l112 -74v-3h-63zM175 916v2
h64l112 -74v-3h-63z" />
    <glyph glyph-name="uni0215" unicode="&#x215;" horiz-adv-x="504" 
d="M180 -10q-62 0 -99.5 39t-37.5 130v441h150v-454q0 -47 46 -47q20 0 43 12t32 31v458h150v-600h-150v65h-20q-23 -40 -49.5 -57.5t-64.5 -17.5zM150 641l-109 94v2h64l108 -93v-3h-63zM171 735v2h64l108 -93v-3h-63z" />
    <glyph glyph-name="uni0216" unicode="&#x216;" horiz-adv-x="505" 
d="M253 -10q-112 0 -160.5 46.5t-50.5 154.5q-5 305 0 609h150q-2 -100 -2.5 -209.5t0.5 -218t2 -209.5q0 -51 61 -51q60 0 60 51q1 101 2 209.5t0.5 218t-2.5 209.5h150q5 -304 0 -609q-1 -108 -49.5 -154.5t-160.5 -46.5zM106 841q3 45 44.5 75t101.5 30t102 -30t45 -75
h-85q0 17 -18 29t-44 12t-44 -12t-18 -29h-84z" />
    <glyph glyph-name="uni0217" unicode="&#x217;" horiz-adv-x="504" 
d="M180 -10q-62 0 -99.5 39t-37.5 130v441h150v-454q0 -47 46 -47q20 0 43 12t32 31v458h150v-600h-150v65h-20q-23 -40 -49.5 -57.5t-64.5 -17.5zM101 659h89q0 39 14.5 56t47.5 17t47.5 -17t14.5 -56h89q-5 79 -40 113.5t-111 34.5t-111 -34.5t-40 -113.5z" />
    <glyph glyph-name="uni0218" unicode="&#x218;" horiz-adv-x="504" 
d="M253 -10q-110 0 -156.5 46.5t-51.5 154.5q-1 24 -0.5 54.5t4.5 54.5h141q-2 -37 -2.5 -72.5t2.5 -64.5q5 -51 63 -51q29 0 43 13t17 38q6 51 0 101q-2 21 -13 38t-35 23l-82 21q-78 20 -109 67t-33 122q-1 40 0 75q3 72 24.5 116t67 64t120.5 20q107 0 155 -46.5
t52 -153.5q1 -22 0.5 -53t-2.5 -57h-144q2 35 2.5 69.5t-1.5 68.5q-1 24 -17.5 37t-44.5 13q-30 0 -44.5 -13t-17.5 -37q-6 -51 0 -103q2 -20 14 -36.5t37 -22.5l71 -17q84 -20 116 -69t35 -126q1 -17 0.5 -36.5t-1.5 -36.5q-4 -108 -51.5 -154.5t-158.5 -46.5zM193 -139v89
h109v-89l-32 -61h-55l27 61h-49z" />
    <glyph glyph-name="uni0219" unicode="&#x219;" horiz-adv-x="466" 
d="M229 -10q-97 0 -138.5 41.5t-46.5 136.5q-1 17 -0.5 38.5t1.5 26.5h131q-2 -56 0 -81q2 -27 15.5 -38.5t37.5 -11.5q31 0 45 11.5t14 38.5v32q0 15 -7.5 26t-24.5 15l-71 20q-67 20 -106 55t-39 101v28q0 97 44 139t152 42q98 0 139 -40.5t45 -133.5q1 -16 0.5 -39
t-1.5 -28h-136q1 9 1 26.5v34t-1 23.5q-1 24 -11.5 34.5t-35.5 10.5q-27 0 -38 -10.5t-12 -34.5q-1 -11 -1 -19.5v-19.5q0 -19 7 -32t30 -18l62 -15q70 -16 106 -52t36 -105v-28q0 -93 -45.5 -133.5t-151.5 -40.5zM167 -182v112h137v-99l-49 -90h-71l34 77h-51z" />
    <glyph glyph-name="uni021A" unicode="&#x21a;" horiz-adv-x="447" 
d="M149 0v668h-129v132h407v-132h-128v-668h-150zM165 -139v89h109v-89l-32 -61h-55l27 61h-49z" />
    <glyph glyph-name="uni021B" unicode="&#x21b;" horiz-adv-x="390" 
d="M312 -10q-115 0 -165 41.5t-50 136.5v319h-57v113h58v170h153l-2 -170h101v-113h-103v-336q0 -27 12.5 -38.5t52.5 -11.5q11 0 22.5 0.5t25.5 0.5v-107q-10 -3 -22 -4t-26 -1zM171 -182v112h137v-99l-49 -90h-71l34 77h-51z" />
    <glyph glyph-name="uni022A" unicode="&#x22a;" horiz-adv-x="507" 
d="M253 -10q-110 0 -159.5 46.5t-51.5 154.5q-2 98 -2 209.5t2 209.5q2 107 51.5 153.5t159.5 46.5t158 -46.5t52 -153.5q4 -100 4 -210.5t-4 -208.5q-4 -108 -52 -154.5t-158 -46.5zM253 112q58 0 60 51t3.5 112t1.5 125.5t-1.5 125.5t-3.5 112q-2 50 -60 50q-59 0 -61 -50
q-2 -51 -3 -112t-1 -125.5t1 -125.5t3 -112t61 -51zM279 851v89h109v-89h-109zM120 851v89h109v-89h-109zM81 981v62h346v-62h-346z" />
    <glyph glyph-name="uni022B" unicode="&#x22b;" horiz-adv-x="495" 
d="M248 -10q-73 0 -117 20t-64.5 64t-24.5 117q-1 17 -1.5 46t-0.5 62t0.5 62.5t1.5 48.5q4 72 24.5 116t64 64t117.5 20q75 0 118 -20.5t63 -64.5t24 -115q1 -17 1.5 -46t0.5 -62t-0.5 -62.5t-1.5 -48.5q-4 -71 -24 -115.5t-63 -65t-118 -20.5zM248 102q29 0 41.5 13
t13.5 38q2 69 2 147.5t-2 147.5q-1 24 -13.5 37t-41.5 13q-54 0 -56 -50q-2 -69 -2 -148t2 -147q2 -51 56 -51zM273 661v109h109v-109h-109zM114 661v109h109v-109h-109zM55 821v72h386v-72h-386z" />
    <glyph glyph-name="uni022C" unicode="&#x22c;" horiz-adv-x="507" 
d="M253 -10q-110 0 -159.5 46.5t-51.5 154.5q-2 98 -2 209.5t2 209.5q2 107 51.5 153.5t159.5 46.5t158 -46.5t52 -153.5q4 -100 4 -210.5t-4 -208.5q-4 -108 -52 -154.5t-158 -46.5zM253 112q58 0 60 51t3.5 112t1.5 125.5t-1.5 125.5t-3.5 112q-2 50 -60 50q-59 0 -61 -50
q-2 -51 -3 -112t-1 -125.5t1 -125.5t3 -112t61 -51zM109 839q3 47 26 68t63 21q30 0 48 -8.5t32 -17t32 -8.5q17 0 27 9.5t11 24.5h51q-6 -95 -90 -95q-28 0 -47 9t-34 17.5t-34 8.5q-31 0 -34 -29h-51zM81 967v62h346v-62h-346z" />
    <glyph glyph-name="uni022D" unicode="&#x22d;" horiz-adv-x="495" 
d="M248 -10q-73 0 -117 20t-64.5 64t-24.5 117q-1 17 -1.5 46t-0.5 62t0.5 62.5t1.5 48.5q4 72 24.5 116t64 64t117.5 20q75 0 118 -20.5t63 -64.5t24 -115q1 -17 1.5 -46t0.5 -62t-0.5 -62.5t-1.5 -48.5q-4 -71 -24 -115.5t-63 -65t-118 -20.5zM248 102q29 0 41.5 13
t13.5 38q2 69 2 147.5t-2 147.5q-1 24 -13.5 37t-41.5 13q-54 0 -56 -50q-2 -69 -2 -148t2 -147q2 -51 56 -51zM89 660q4 62 30 89t67 27q34 0 53.5 -11.5t35 -23.5t35.5 -12q39 0 41 34h56q-3 -59 -29.5 -84.5t-69.5 -25.5q-30 0 -51 12t-37.5 24t-36.5 12q-35 0 -38 -41
h-56zM55 827v72h386v-72h-386z" />
    <glyph glyph-name="uni0230" unicode="&#x230;" horiz-adv-x="507" 
d="M253 -10q-110 0 -159.5 46.5t-51.5 154.5q-2 98 -2 209.5t2 209.5q2 107 51.5 153.5t159.5 46.5t158 -46.5t52 -153.5q4 -100 4 -210.5t-4 -208.5q-4 -108 -52 -154.5t-158 -46.5zM253 112q58 0 60 51t3.5 112t1.5 125.5t-1.5 125.5t-3.5 112q-2 50 -60 50q-59 0 -61 -50
q-2 -51 -3 -112t-1 -125.5t1 -125.5t3 -112t61 -51zM199 850v89h110v-89h-110zM81 980v62h346v-62h-346z" />
    <glyph glyph-name="uni0231" unicode="&#x231;" horiz-adv-x="495" 
d="M248 -10q-73 0 -117 20t-64.5 64t-24.5 117q-1 17 -1.5 46t-0.5 62t0.5 62.5t1.5 48.5q4 72 24.5 116t64 64t117.5 20q75 0 118 -20.5t63 -64.5t24 -115q1 -17 1.5 -46t0.5 -62t-0.5 -62.5t-1.5 -48.5q-4 -71 -24 -115.5t-63 -65t-118 -20.5zM248 102q29 0 41.5 13
t13.5 38q2 69 2 147.5t-2 147.5q-1 24 -13.5 37t-41.5 13q-54 0 -56 -50q-2 -69 -2 -148t2 -147q2 -51 56 -51zM194 661v109h109v-109h-109zM55 821v72h386v-72h-386z" />
    <glyph glyph-name="uni0232" unicode="&#x232;" horiz-adv-x="490" 
d="M170 0v191l-11 45l-139 564h153l43 -194l15 -235h28l15 235l43 194h153l-139 -563l-11 -46v-191h-150zM67 841v62h346v-62h-346z" />
    <glyph glyph-name="uni0233" unicode="&#x233;" horiz-adv-x="465" 
d="M134 0l-114 600h152l36 -271l17 -219h28l13 219l27 271h152l-101 -633q-10 -63 -33.5 -102t-69 -57.5t-122.5 -18.5q-17 0 -36 2t-37 5v111q14 -1 36.5 -1.5t36.5 -0.5q40 0 55.5 11.5t19.5 38.5l6 45h-66zM38 661v72h386v-72h-386z" />
    <glyph glyph-name="uni0237" unicode="&#x237;" horiz-adv-x="233" 
d="M-87 -206v111q14 -1 36.5 -1.5t36.5 -0.5q26 0 40.5 13t14.5 37v647h150v-635q0 -95 -50.5 -136.5t-154.5 -41.5q-17 0 -36 2t-37 5z" />
    <glyph glyph-name="uni0259" unicode="&#x259;" horiz-adv-x="469" 
d="M178 367h-146q-1 5 -1.5 26.5t0.5 38.5q4 95 49.5 136.5t144.5 41.5q103 0 150 -41.5t52 -136.5q1 -17 1.5 -52.5t0.5 -77t-0.5 -77.5t-1.5 -55q-7 -97 -53.5 -138.5t-146.5 -41.5q-101 0 -146.5 40.5t-49.5 133.5q-1 11 -1 38.5v61t2 61.5h247q0 32 -0.5 63t-1.5 60
q-1 27 -13 38.5t-39 11.5q-24 0 -35 -11.5t-12 -38.5q-2 -25 0 -81zM227 102q26 0 37.5 10.5t12.5 34.5q1 18 1 36.5t1 38.5h-102q0 -27 0.5 -49t0.5 -26q1 -24 12.5 -34.5t36.5 -10.5z" />
    <glyph glyph-name="uni02B9" unicode="&#x2b9;" horiz-adv-x="203" 
d="M40 658v142h123v-142l-26 -142h-71z" />
    <glyph glyph-name="uni02BA" unicode="&#x2ba;" horiz-adv-x="403" 
d="M66 516l-26 142v142h123v-142l-26 -142h-71zM240 658v142h123v-142l-26 -142h-71z" />
    <glyph glyph-name="uni02BB" unicode="&#x2bb;" horiz-adv-x="217" 
d="M40 660v99l49 90h71l-34 -77h51v-112h-137z" />
    <glyph glyph-name="uni02BC" unicode="&#x2bc;" horiz-adv-x="203" 
d="M40 658v142h123v-142l-26 -142h-71z" />
    <glyph glyph-name="uni02BE" unicode="&#x2be;" horiz-adv-x="219" 
d="M40 533v78q26 0 43.5 18t17.5 43q0 26 -17.5 43.5t-43.5 17.5v78q39 0 70.5 -18.5t50 -50t18.5 -70.5q0 -38 -18.5 -70t-50 -50.5t-70.5 -18.5z" />
    <glyph glyph-name="uni02BF" unicode="&#x2bf;" horiz-adv-x="219" 
d="M40 672q0 39 18.5 70.5t50.5 50t70 18.5v-78q-25 0 -43 -17.5t-18 -43.5q0 -25 18 -43t43 -18v-78q-38 0 -70 18.5t-50.5 50.5t-18.5 70z" />
    <glyph glyph-name="circumflex" unicode="&#x2c6;" horiz-adv-x="330" 
d="M40 641l82 139h86l82 -139h-96l-29 56l-29 -56h-96z" />
    <glyph glyph-name="caron" unicode="&#x2c7;" horiz-adv-x="320" 
d="M40 800h86l34 -66l34 66h86l-82 -139h-76z" />
    <glyph glyph-name="uni02C8" unicode="&#x2c8;" horiz-adv-x="205" 
d="M40 428v372h125v-372h-125z" />
    <glyph glyph-name="uni02C9" unicode="&#x2c9;" horiz-adv-x="466" 
d="M40 661v72h386v-72h-386z" />
    <glyph glyph-name="uni02CA" unicode="&#x2ca;" horiz-adv-x="307" 
d="M267 800h-123l-104 -284h71z" />
    <glyph glyph-name="uni02CB" unicode="&#x2cb;" horiz-adv-x="307" 
d="M40 800h123l104 -284h-71z" />
    <glyph glyph-name="uni02CC" unicode="&#x2cc;" horiz-adv-x="205" 
d="M40 -200v388h125v-388h-125z" />
    <glyph glyph-name="breve" unicode="&#x2d8;" horiz-adv-x="382" 
d="M40 800h89q0 -39 14.5 -56t47.5 -17t47.5 17t14.5 56h89q-5 -79 -40 -113.5t-111 -34.5t-111 34.5t-40 113.5z" />
    <glyph glyph-name="dotaccent" unicode="&#x2d9;" horiz-adv-x="189" 
d="M40 661v109h109v-109h-109z" />
    <glyph glyph-name="ring" unicode="&#x2da;" horiz-adv-x="358" 
d="M179 533q-38 0 -70 18.5t-50.5 50.5t-18.5 70q0 39 18.5 70.5t50.5 50t70 18.5q39 0 70.5 -18.5t50 -50t18.5 -70.5q0 -38 -18.5 -70t-50 -50.5t-70.5 -18.5zM118 672q0 -25 18 -43t43 -18q26 0 43.5 18t17.5 43q0 26 -17.5 43.5t-43.5 17.5q-25 0 -43 -17.5t-18 -43.5z
" />
    <glyph glyph-name="ogonek" unicode="&#x2db;" horiz-adv-x="225" 
d="M40 -73q0 47 51 58v25h58l10 -10q-30 -11 -45 -28.5t-15 -35.5q0 -11 7.5 -18.5t25.5 -7.5q10 0 21.5 2t19.5 3l12 -48q-24 -8 -58 -8q-43 0 -65 18.5t-22 49.5z" />
    <glyph glyph-name="tilde" unicode="&#x2dc;" horiz-adv-x="398" 
d="M40 660q4 62 30 89t67 27q34 0 53.5 -11.5t35 -23.5t35.5 -12q39 0 41 34h56q-3 -59 -29.5 -84.5t-69.5 -25.5q-30 0 -51 12t-37.5 24t-36.5 12q-35 0 -38 -41h-56z" />
    <glyph glyph-name="hungarumlaut" unicode="&#x2dd;" horiz-adv-x="416" 
d="M233 641h-63v3l142 156h64v-2zM40 641v3l142 156h64v-2l-143 -157h-63z" />
    <glyph glyph-name="gravecomb" unicode="&#x300;" 
d="M40 800h96l92 -139h-96z" />
    <glyph glyph-name="acutecomb" unicode="&#x301;" 
d="M30 641l87 139h96l-92 -139h-91z" />
    <glyph glyph-name="uni0302" unicode="&#x302;" 
d="M40 641l82 139h86l82 -139h-96l-29 56l-29 -56h-96z" />
    <glyph glyph-name="tildecomb" unicode="&#x303;" 
d="M40 660q4 62 30 89t67 27q34 0 53.5 -11.5t35 -23.5t35.5 -12q39 0 41 34h56q-3 -59 -29.5 -84.5t-69.5 -25.5q-30 0 -51 12t-37.5 24t-36.5 12q-35 0 -38 -41h-56z" />
    <glyph glyph-name="uni0304" unicode="&#x304;" 
d="M40 661v72h386v-72h-386z" />
    <glyph glyph-name="uni0306" unicode="&#x306;" 
d="M40 800h89q0 -39 14.5 -56t47.5 -17t47.5 17t14.5 56h89q-5 -79 -40 -113.5t-111 -34.5t-111 34.5t-40 113.5z" />
    <glyph glyph-name="uni0307" unicode="&#x307;" 
d="M40 661v109h109v-109h-109z" />
    <glyph glyph-name="uni0308" unicode="&#x308;" 
d="M199 661v109h109v-109h-109zM40 661v109h109v-109h-109z" />
    <glyph glyph-name="hookabovecomb" unicode="&#x309;" 
d="M40 778q24 8 62 8t59 -18t21 -53q0 -34 -16 -52.5t-54 -18.5v-34h-52v73l7 7h35q24 0 24 25q0 20 -24 20q-33 0 -50 -3z" />
    <glyph glyph-name="uni030A" unicode="&#x30a;" 
d="M179 533q-38 0 -70 18.5t-50.5 50.5t-18.5 70q0 39 18.5 70.5t50.5 50t70 18.5q39 0 70.5 -18.5t50 -50t18.5 -70.5q0 -38 -18.5 -70t-50 -50.5t-70.5 -18.5zM118 672q0 -25 18 -43t43 -18q26 0 43.5 18t17.5 43q0 26 -17.5 43.5t-43.5 17.5q-25 0 -43 -17.5t-18 -43.5z
" />
    <glyph glyph-name="uni030B" unicode="&#x30b;" 
d="M233 641h-63v3l142 156h64v-2zM40 641v3l142 156h64v-2l-143 -157h-63z" />
    <glyph glyph-name="uni030C" unicode="&#x30c;" 
d="M40 800h86l34 -66l34 66h86l-82 -139h-76z" />
    <glyph glyph-name="uni030F" unicode="&#x30f;" 
d="M149 641l-109 94v2h64l108 -93v-3h-63zM170 735v2h64l108 -93v-3h-63z" />
    <glyph glyph-name="uni0311" unicode="&#x311;" 
d="M40 659h89q0 39 14.5 56t47.5 17t47.5 -17t14.5 -56h89q-5 79 -40 113.5t-111 34.5t-111 -34.5t-40 -113.5z" />
    <glyph glyph-name="uni0312" unicode="&#x312;" 
d="M40 660v99l49 90h71l-34 -77h51v-112h-137z" />
    <glyph glyph-name="uni031B" unicode="&#x31b;" 
d="M84 552q-11 0 -23 0.5t-21 1.5v67q11 -1 22 -1.5t22 0.5q72 4 76 80q1 10 1 30v40.5t-1 29.5h75q1 -9 1 -29.5v-40.5t-1 -30q-4 -79 -39.5 -113.5t-111.5 -34.5z" />
    <glyph glyph-name="dotbelowcomb" unicode="&#x323;" 
d="M40 -179v109h110v-109h-110z" />
    <glyph glyph-name="uni0324" unicode="&#x324;" 
d="M199 -179v109h109v-109h-109zM40 -179v109h109v-109h-109z" />
    <glyph glyph-name="uni0326" unicode="&#x326;" 
d="M40 -182v112h137v-99l-49 -90h-71l34 77h-51z" />
    <glyph glyph-name="uni0327" unicode="&#x327;" 
d="M108 -176q-38 0 -62 8l12 46q17 -3 50 -3q24 0 24 20q0 25 -24 25h-61l-7 7v73h52v-34h16q38 0 59 -18t21 -53q0 -34 -21 -52.5t-59 -18.5z" />
    <glyph glyph-name="uni0328" unicode="&#x328;" 
d="M40 -73q0 47 51 58v25h58l10 -10q-30 -11 -45 -28.5t-15 -35.5q0 -11 7.5 -18.5t25.5 -7.5q10 0 21.5 2t19.5 3l12 -48q-24 -8 -58 -8q-43 0 -65 18.5t-22 49.5z" />
    <glyph glyph-name="uni032E" unicode="&#x32e;" 
d="M40 -51h89q0 -39 14.5 -56t47.5 -17t47.5 17t14.5 56h89q-5 -79 -40 -113.5t-111 -34.5t-111 34.5t-40 113.5z" />
    <glyph glyph-name="uni0331" unicode="&#x331;" 
d="M40 -112v72h386v-72h-386z" />
    <glyph glyph-name="uni0335" unicode="&#x335;" 
d="M40 319v72h278v-72h-278z" />
    <glyph glyph-name="pi" unicode="&#x3c0;" horiz-adv-x="705" 
d="M157 0v466h-97v132h576v-132h-106q-1 -47 -1 -102t1 -109t2 -98q1 -27 13 -38.5t52 -11.5q11 0 22.5 0.5t25.5 0.5v-107q-10 -3 -22 -4t-26 -1q-76 0 -122 18t-67.5 57t-25.5 103q-1 14 -1.5 42t-1 64t-0.5 71.5t0.5 65t0.5 44.5v5h-73v-466h-150z" />
    <glyph glyph-name="uni1E08" unicode="&#x1e08;" horiz-adv-x="485" 
d="M252 -10q-113 0 -161 46.5t-50 154.5q-1 42 -1 96.5v113v113.5t1 97q2 92 51.5 145.5t159.5 53.5q108 0 156.5 -46.5t51.5 -153.5q1 -25 0.5 -55t-1.5 -55h-150q1 19 1 44t0.5 50.5t-0.5 43.5q-2 50 -58 50q-59 0 -61 -50q-2 -70 -3 -154t0 -167.5t3 -153.5q2 -51 61 -51
q60 0 62 51q1 18 1 43.5v50.5t-1 43h150q1 -24 1 -54.5t-1 -54.5q-3 -108 -52.5 -154.5t-159.5 -46.5zM296 -166q-38 0 -62 8l12 46q17 -3 50 -3q24 0 24 20q0 25 -24 25h-61l-7 7v73h52v-34h16q38 0 59 -18t21 -53q0 -34 -21 -52.5t-59 -18.5zM218 851v3l111 87h85v-3
l-120 -87h-76z" />
    <glyph glyph-name="uni1E09" unicode="&#x1e09;" horiz-adv-x="468" 
d="M42 168q-1 17 -1.5 52.5t-0.5 77t0.5 77.5t1.5 55q7 97 53.5 138.5t146.5 41.5q101 0 146.5 -40.5t49.5 -133.5q1 -16 0.5 -39t-1.5 -28h-146q1 9 1 26.5v34t-1 23.5q-1 24 -12.5 34.5t-36.5 10.5q-26 0 -37.5 -10.5t-12.5 -34.5q-2 -71 -2 -151t2 -150q1 -27 13 -38.5
t39 -11.5q24 0 35 11.5t12 38.5q2 25 0 81h146q1 -5 1.5 -26.5t-0.5 -38.5q-4 -95 -49.5 -136.5t-144.5 -41.5q-103 0 -150 41.5t-52 136.5zM282 -166q-38 0 -62 8l12 46q17 -3 50 -3q24 0 24 20q0 25 -24 25h-61l-7 7v73h52v-34h16q38 0 59 -18t21 -53q0 -34 -21 -52.5
t-59 -18.5zM198 661l87 139h96l-92 -139h-91z" />
    <glyph glyph-name="uni1E0C" unicode="&#x1e0c;" horiz-adv-x="500" 
d="M40 0v800h203q113 0 163 -47.5t52 -157.5q2 -69 2.5 -131.5t0 -125t-2.5 -132.5q-2 -110 -52 -158t-163 -48h-203zM190 132h53q63 0 65 56q6 213 0 425q-2 55 -65 55h-53v-536zM175 -139v89h109v-89h-109z" />
    <glyph glyph-name="uni1E0D" unicode="&#x1e0d;" horiz-adv-x="493" 
d="M303 800h150v-800h-150v65h-21q-21 -36 -45 -55.5t-71 -19.5q-62 0 -95.5 39t-38.5 130q-1 24 -1.5 61.5t-0.5 79.5t0.5 79.5t1.5 61.5q5 91 39.5 130t96.5 39q47 0 70 -19.5t44 -55.5h21v265zM228 99q20 0 43 12t32 31v316q-9 20 -32 31.5t-43 11.5q-23 0 -33.5 -11.5
t-12.5 -35.5q-2 -43 -3 -100.5t0 -113t3 -94.5q2 -24 12.5 -35.5t33.5 -11.5zM187 -179v109h110v-109h-110z" />
    <glyph glyph-name="uni1E0E" unicode="&#x1e0e;" horiz-adv-x="500" 
d="M40 0v800h203q113 0 163 -47.5t52 -157.5q2 -69 2.5 -131.5t0 -125t-2.5 -132.5q-2 -110 -52 -158t-163 -48h-203zM190 132h53q63 0 65 56q6 213 0 425q-2 55 -65 55h-53v-536zM67 -112v62h346v-62h-346z" />
    <glyph glyph-name="uni1E0F" unicode="&#x1e0f;" horiz-adv-x="493" 
d="M303 800h150v-800h-150v65h-21q-21 -36 -45 -55.5t-71 -19.5q-62 0 -95.5 39t-38.5 130q-1 24 -1.5 61.5t-0.5 79.5t0.5 79.5t1.5 61.5q5 91 39.5 130t96.5 39q47 0 70 -19.5t44 -55.5h21v265zM228 99q20 0 43 12t32 31v316q-9 20 -32 31.5t-43 11.5q-23 0 -33.5 -11.5
t-12.5 -35.5q-2 -43 -3 -100.5t0 -113t3 -94.5q2 -24 12.5 -35.5t33.5 -11.5zM39 -112v72h386v-72h-386z" />
    <glyph glyph-name="uni1E14" unicode="&#x1e14;" horiz-adv-x="406" 
d="M40 0v800h346v-132h-196v-195h186v-132h-186v-209h196v-132h-346zM42 841v62h346v-62h-346zM65 1041v3h85l111 -87v-3h-76z" />
    <glyph glyph-name="uni1E15" unicode="&#x1e15;" horiz-adv-x="469" 
d="M291 233h146q1 -5 1.5 -26.5t-0.5 -38.5q-4 -95 -49.5 -136.5t-144.5 -41.5q-103 0 -150 41.5t-52 136.5q-1 17 -1.5 52.5t-0.5 77t0.5 77.5t1.5 55q7 97 53.5 138.5t146.5 41.5q101 0 146.5 -40.5t49.5 -133.5q1 -11 1 -38.5v-61t-2 -61.5h-247q0 -32 0.5 -63t1.5 -60
q1 -27 13 -38.5t39 -11.5q24 0 35 11.5t12 38.5q2 25 0 81zM242 498q-26 0 -37.5 -10.5t-12.5 -34.5q-1 -18 -1 -36.5t-1 -38.5h102q0 27 -0.5 49t-0.5 26q-1 24 -12.5 34.5t-36.5 10.5zM47 661v72h386v-72h-386zM102 933h96l92 -139h-96z" />
    <glyph glyph-name="uni1E16" unicode="&#x1e16;" horiz-adv-x="406" 
d="M40 0v800h346v-132h-196v-195h186v-132h-186v-209h196v-132h-346zM42 841v62h346v-62h-346zM185 954v3l111 87h85v-3l-120 -87h-76z" />
    <glyph glyph-name="uni1E17" unicode="&#x1e17;" horiz-adv-x="469" 
d="M291 233h146q1 -5 1.5 -26.5t-0.5 -38.5q-4 -95 -49.5 -136.5t-144.5 -41.5q-103 0 -150 41.5t-52 136.5q-1 17 -1.5 52.5t-0.5 77t0.5 77.5t1.5 55q7 97 53.5 138.5t146.5 41.5q101 0 146.5 -40.5t49.5 -133.5q1 -11 1 -38.5v-61t-2 -61.5h-247q0 -32 0.5 -63t1.5 -60
q1 -27 13 -38.5t39 -11.5q24 0 35 11.5t12 38.5q2 25 0 81zM242 498q-26 0 -37.5 -10.5t-12.5 -34.5q-1 -18 -1 -36.5t-1 -38.5h102q0 27 -0.5 49t-0.5 26q-1 24 -12.5 34.5t-36.5 10.5zM47 661v72h386v-72h-386zM196 794l87 139h96l-92 -139h-91z" />
    <glyph glyph-name="uni1E1C" unicode="&#x1e1c;" horiz-adv-x="406" 
d="M40 0v800h346v-132h-196v-195h186v-132h-186v-209h196v-132h-346zM266 -166q-38 0 -62 8l12 46q17 -3 50 -3q24 0 24 20q0 25 -24 25h-61l-7 7v73h52v-34h16q38 0 59 -18t21 -53q0 -34 -21 -52.5t-59 -18.5zM69 941h84q0 -17 18 -29t44 -12t44 12t18 29h85
q-3 -45 -45 -75t-102 -30t-101.5 30t-44.5 75z" />
    <glyph glyph-name="uni1E1D" unicode="&#x1e1d;" horiz-adv-x="469" 
d="M291 233h146q1 -5 1.5 -26.5t-0.5 -38.5q-4 -95 -49.5 -136.5t-144.5 -41.5q-103 0 -150 41.5t-52 136.5q-1 17 -1.5 52.5t-0.5 77t0.5 77.5t1.5 55q7 97 53.5 138.5t146.5 41.5q101 0 146.5 -40.5t49.5 -133.5q1 -11 1 -38.5v-61t-2 -61.5h-247q0 -32 0.5 -63t1.5 -60
q1 -27 13 -38.5t39 -11.5q24 0 35 11.5t12 38.5q2 25 0 81zM242 498q-26 0 -37.5 -10.5t-12.5 -34.5q-1 -18 -1 -36.5t-1 -38.5h102q0 27 -0.5 49t-0.5 26q-1 24 -12.5 34.5t-36.5 10.5zM288 -166q-38 0 -62 8l12 46q17 -3 50 -3q24 0 24 20q0 25 -24 25h-61l-7 7v73h52v-34
h16q38 0 59 -18t21 -53q0 -34 -21 -52.5t-59 -18.5zM89 800h89q0 -39 14.5 -56t47.5 -17t47.5 17t14.5 56h89q-5 -79 -40 -113.5t-111 -34.5t-111 34.5t-40 113.5z" />
    <glyph glyph-name="uni1E20" unicode="&#x1e20;" horiz-adv-x="487" 
d="M254 -10q-75 0 -120.5 20.5t-66.5 64.5t-24 116q-1 42 -2 95.5t-1 111t1 110.5t2 93q3 76 24.5 122t67 66.5t119.5 20.5q105 0 153 -46.5t55 -153.5q2 -23 2 -55t-2 -55h-150q2 28 2 69t-2 69q-3 50 -58 50q-58 0 -61 -50q-4 -70 -5.5 -154t0 -167.5t5.5 -153.5
q3 -51 61 -51q29 0 46 13t19 38q1 12 1.5 30.5t0 37.5t-1.5 30h-55v130h201q2 -46 1.5 -100t-2.5 -100q-5 -108 -54 -154.5t-156 -46.5zM77 841v62h346v-62h-346z" />
    <glyph glyph-name="uni1E21" unicode="&#x1e21;" horiz-adv-x="508" 
d="M251 -202q-91 0 -143 27t-61 63q-5 19 -2 38q4 23 19.5 38t52.5 21v21q-64 7 -73 58q-3 17 0 33q4 21 22.5 38t52.5 21v20q-81 37 -88 161q-3 54 0 93q8 97 55.5 138.5t150.5 41.5q130 0 175 -69h19q5 31 22.5 44.5t54.5 14.5v-113h-15q-27 0 -38.5 -11.5t-11.5 -38.5
q1 -44 0.5 -65t-1.5 -35q-6 -97 -53.5 -139t-151.5 -42h-9q-40 -1 -53 -7t-13 -20v-3q1 -15 23.5 -20.5t77.5 -6.5q104 -1 154 -33t62 -93q2 -8 2 -21t-2 -27q-8 -48 -39.5 -75.5t-80 -39.5t-108.5 -12zM237 268q57 0 60 51q3 58 0 129q-3 50 -60 50q-59 0 -61 -50
q-3 -71 0 -129q3 -51 61 -51zM257 -100q83 0 99 37q7 15 -1 33q-7 16 -32 23.5t-66 7.5q-40 0 -60 -9.5t-26 -25.5t0 -32q6 -17 26 -25.5t60 -8.5zM44 661v72h386v-72h-386z" />
    <glyph glyph-name="uni1E24" unicode="&#x1e24;" horiz-adv-x="485" 
d="M40 0v800h150v-327h105v327h150v-800h-150v341h-105v-341h-150zM188 -139v89h109v-89h-109z" />
    <glyph glyph-name="uni1E25" unicode="&#x1e25;" horiz-adv-x="494" 
d="M40 0v800h150v-265h26q21 36 44 55.5t70 19.5q62 0 97.5 -39t35.5 -130v-441h-150v454q0 47 -48 47q-20 0 -43 -11.5t-32 -31.5v-458h-150zM195 -179v109h110v-109h-110z" />
    <glyph glyph-name="uni1E2A" unicode="&#x1e2a;" horiz-adv-x="485" 
d="M40 0v800h150v-327h105v327h150v-800h-150v341h-105v-341h-150zM96 -50h84q0 -17 18 -29t44 -12t44 12t18 29h85q-3 -45 -45 -75t-102 -30t-101.5 30t-44.5 75z" />
    <glyph glyph-name="uni1E2B" unicode="&#x1e2b;" horiz-adv-x="494" 
d="M40 0v800h150v-265h26q21 36 44 55.5t70 19.5q62 0 97.5 -39t35.5 -130v-441h-150v454q0 47 -48 47q-20 0 -43 -11.5t-32 -31.5v-458h-150zM99 -51h89q0 -39 14.5 -56t47.5 -17t47.5 17t14.5 56h89q-5 -79 -40 -113.5t-111 -34.5t-111 34.5t-40 113.5z" />
    <glyph glyph-name="uni1E2E" unicode="&#x1e2e;" horiz-adv-x="230" 
d="M40 0v800h150v-800h-150zM140 851v89h109v-89h-109zM-19 851v89h109v-89h-109zM85 991v3l111 87h85v-3l-120 -87h-76z" />
    <glyph glyph-name="uni1E2F" unicode="&#x1e2f;" horiz-adv-x="230" 
d="M40 0v600h150v-600h-150zM140 661v109h109v-109h-109zM-19 661v109h109v-109h-109zM71 821l87 139h96l-92 -139h-91z" />
    <glyph glyph-name="uni1E36" unicode="&#x1e36;" horiz-adv-x="407" 
d="M40 0v800h150v-668h197v-132h-347zM149 -139v89h109v-89h-109z" />
    <glyph glyph-name="uni1E37" unicode="&#x1e37;" horiz-adv-x="230" 
d="M40 0v800h150v-800h-150zM60 -179v109h110v-109h-110z" />
    <glyph glyph-name="uni1E3A" unicode="&#x1e3a;" horiz-adv-x="407" 
d="M40 0v800h150v-668h197v-132h-347zM41 -112v62h346v-62h-346z" />
    <glyph glyph-name="uni1E3B" unicode="&#x1e3b;" horiz-adv-x="230" 
d="M40 0v800h150v-800h-150zM-88 -112v72h386v-72h-386z" />
    <glyph glyph-name="uni1E42" unicode="&#x1e42;" horiz-adv-x="745" 
d="M40 0v800h241l66 -303l13 -365h26l12 365l67 303h240v-800h-150v246l29 422h-27l-42 -432l-62 -236h-161l-61 236l-43 432h-26l28 -422v-246h-150zM318 -139v89h109v-89h-109z" />
    <glyph glyph-name="uni1E43" unicode="&#x1e43;" horiz-adv-x="770" 
d="M40 0v600h150v-65h26q21 36 44 55.5t70 19.5q45 0 75.5 -20t44.5 -65h24q21 36 48.5 60.5t74.5 24.5q62 0 96 -39t35 -130l2 -441h-150l-2 454q-1 47 -46 47q-19 0 -39.5 -14t-31.5 -32l2 -455h-150l-2 454q0 47 -46 47q-20 0 -43 -11.5t-32 -31.5v-458h-150zM331 -179
v109h110v-109h-110z" />
    <glyph glyph-name="uni1E44" unicode="&#x1e44;" horiz-adv-x="543" 
d="M40 0v800h217l60 -255l55 -413h26l-28 325l-12 343h145v-800h-228l-60 262l-41 407h-28l26 -362l13 -307h-145zM217 850v89h110v-89h-110z" />
    <glyph glyph-name="uni1E45" unicode="&#x1e45;" horiz-adv-x="504" 
d="M40 0v600h150v-65h26q21 36 44 55.5t70 19.5q62 0 97.5 -39t35.5 -130v-441h-150v454q0 47 -48 47q-20 0 -43 -11.5t-32 -31.5v-458h-150zM198 661v109h109v-109h-109z" />
    <glyph glyph-name="uni1E46" unicode="&#x1e46;" horiz-adv-x="543" 
d="M40 0v800h217l60 -255l55 -413h26l-28 325l-12 343h145v-800h-228l-60 262l-41 407h-28l26 -362l13 -307h-145zM217 -139v89h109v-89h-109z" />
    <glyph glyph-name="uni1E47" unicode="&#x1e47;" horiz-adv-x="504" 
d="M40 0v600h150v-65h26q21 36 44 55.5t70 19.5q62 0 97.5 -39t35.5 -130v-441h-150v454q0 47 -48 47q-20 0 -43 -11.5t-32 -31.5v-458h-150zM197 -179v109h110v-109h-110z" />
    <glyph glyph-name="uni1E48" unicode="&#x1e48;" horiz-adv-x="543" 
d="M40 0v800h217l60 -255l55 -413h26l-28 325l-12 343h145v-800h-228l-60 262l-41 407h-28l26 -362l13 -307h-145zM109 -112v62h346v-62h-346z" />
    <glyph glyph-name="uni1E49" unicode="&#x1e49;" horiz-adv-x="504" 
d="M40 0v600h150v-65h26q21 36 44 55.5t70 19.5q62 0 97.5 -39t35.5 -130v-441h-150v454q0 47 -48 47q-20 0 -43 -11.5t-32 -31.5v-458h-150zM49 -112v72h386v-72h-386z" />
    <glyph glyph-name="uni1E4C" unicode="&#x1e4c;" horiz-adv-x="507" 
d="M253 -10q-110 0 -159.5 46.5t-51.5 154.5q-2 98 -2 209.5t2 209.5q2 107 51.5 153.5t159.5 46.5t158 -46.5t52 -153.5q4 -100 4 -210.5t-4 -208.5q-4 -108 -52 -154.5t-158 -46.5zM253 112q58 0 60 51t3.5 112t1.5 125.5t-1.5 125.5t-3.5 112q-2 50 -60 50q-59 0 -61 -50
q-2 -51 -3 -112t-1 -125.5t1 -125.5t3 -112t61 -51zM109 839q3 47 26 68t63 21q30 0 48 -8.5t32 -17t32 -8.5q17 0 27 9.5t11 24.5h51q-6 -95 -90 -95q-28 0 -47 9t-34 17.5t-34 8.5q-31 0 -34 -29h-51zM224 977v3l111 87h85v-3l-120 -87h-76z" />
    <glyph glyph-name="uni1E4D" unicode="&#x1e4d;" horiz-adv-x="495" 
d="M248 -10q-73 0 -117 20t-64.5 64t-24.5 117q-1 17 -1.5 46t-0.5 62t0.5 62.5t1.5 48.5q4 72 24.5 116t64 64t117.5 20q75 0 118 -20.5t63 -64.5t24 -115q1 -17 1.5 -46t0.5 -62t-0.5 -62.5t-1.5 -48.5q-4 -71 -24 -115.5t-63 -65t-118 -20.5zM248 102q29 0 41.5 13
t13.5 38q2 69 2 147.5t-2 147.5q-1 24 -13.5 37t-41.5 13q-54 0 -56 -50q-2 -69 -2 -148t2 -147q2 -51 56 -51zM89 660q4 62 30 89t67 27q34 0 53.5 -11.5t35 -23.5t35.5 -12q39 0 41 34h56q-3 -59 -29.5 -84.5t-69.5 -25.5q-30 0 -51 12t-37.5 24t-36.5 12q-35 0 -38 -41
h-56zM204 827l87 139h96l-92 -139h-91z" />
    <glyph glyph-name="uni1E4E" unicode="&#x1e4e;" horiz-adv-x="507" 
d="M253 -10q-110 0 -159.5 46.5t-51.5 154.5q-2 98 -2 209.5t2 209.5q2 107 51.5 153.5t159.5 46.5t158 -46.5t52 -153.5q4 -100 4 -210.5t-4 -208.5q-4 -108 -52 -154.5t-158 -46.5zM253 112q58 0 60 51t3.5 112t1.5 125.5t-1.5 125.5t-3.5 112q-2 50 -60 50q-59 0 -61 -50
q-2 -51 -3 -112t-1 -125.5t1 -125.5t3 -112t61 -51zM109 839q3 47 26 68t63 21q30 0 48 -8.5t32 -17t32 -8.5q17 0 27 9.5t11 24.5h51q-6 -95 -90 -95q-28 0 -47 9t-34 17.5t-34 8.5q-31 0 -34 -29h-51zM279 977v89h109v-89h-109zM120 977v89h109v-89h-109z" />
    <glyph glyph-name="uni1E4F" unicode="&#x1e4f;" horiz-adv-x="495" 
d="M248 -10q-73 0 -117 20t-64.5 64t-24.5 117q-1 17 -1.5 46t-0.5 62t0.5 62.5t1.5 48.5q4 72 24.5 116t64 64t117.5 20q75 0 118 -20.5t63 -64.5t24 -115q1 -17 1.5 -46t0.5 -62t-0.5 -62.5t-1.5 -48.5q-4 -71 -24 -115.5t-63 -65t-118 -20.5zM248 102q29 0 41.5 13
t13.5 38q2 69 2 147.5t-2 147.5q-1 24 -13.5 37t-41.5 13q-54 0 -56 -50q-2 -69 -2 -148t2 -147q2 -51 56 -51zM89 660q4 62 30 89t67 27q34 0 53.5 -11.5t35 -23.5t35.5 -12q39 0 41 34h56q-3 -59 -29.5 -84.5t-69.5 -25.5q-30 0 -51 12t-37.5 24t-36.5 12q-35 0 -38 -41
h-56zM273 827v109h109v-109h-109zM114 827v109h109v-109h-109z" />
    <glyph glyph-name="uni1E50" unicode="&#x1e50;" horiz-adv-x="507" 
d="M253 -10q-110 0 -159.5 46.5t-51.5 154.5q-2 98 -2 209.5t2 209.5q2 107 51.5 153.5t159.5 46.5t158 -46.5t52 -153.5q4 -100 4 -210.5t-4 -208.5q-4 -108 -52 -154.5t-158 -46.5zM253 112q58 0 60 51t3.5 112t1.5 125.5t-1.5 125.5t-3.5 112q-2 50 -60 50q-59 0 -61 -50
q-2 -51 -3 -112t-1 -125.5t1 -125.5t3 -112t61 -51zM81 841v62h346v-62h-346zM104 1041v3h85l111 -87v-3h-76z" />
    <glyph glyph-name="uni1E51" unicode="&#x1e51;" horiz-adv-x="495" 
d="M248 -10q-73 0 -117 20t-64.5 64t-24.5 117q-1 17 -1.5 46t-0.5 62t0.5 62.5t1.5 48.5q4 72 24.5 116t64 64t117.5 20q75 0 118 -20.5t63 -64.5t24 -115q1 -17 1.5 -46t0.5 -62t-0.5 -62.5t-1.5 -48.5q-4 -71 -24 -115.5t-63 -65t-118 -20.5zM248 102q29 0 41.5 13
t13.5 38q2 69 2 147.5t-2 147.5q-1 24 -13.5 37t-41.5 13q-54 0 -56 -50q-2 -69 -2 -148t2 -147q2 -51 56 -51zM55 661v72h386v-72h-386zM110 933h96l92 -139h-96z" />
    <glyph glyph-name="uni1E52" unicode="&#x1e52;" horiz-adv-x="507" 
d="M253 -10q-110 0 -159.5 46.5t-51.5 154.5q-2 98 -2 209.5t2 209.5q2 107 51.5 153.5t159.5 46.5t158 -46.5t52 -153.5q4 -100 4 -210.5t-4 -208.5q-4 -108 -52 -154.5t-158 -46.5zM253 112q58 0 60 51t3.5 112t1.5 125.5t-1.5 125.5t-3.5 112q-2 50 -60 50q-59 0 -61 -50
q-2 -51 -3 -112t-1 -125.5t1 -125.5t3 -112t61 -51zM81 841v62h346v-62h-346zM224 954v3l111 87h85v-3l-120 -87h-76z" />
    <glyph glyph-name="uni1E53" unicode="&#x1e53;" horiz-adv-x="495" 
d="M248 -10q-73 0 -117 20t-64.5 64t-24.5 117q-1 17 -1.5 46t-0.5 62t0.5 62.5t1.5 48.5q4 72 24.5 116t64 64t117.5 20q75 0 118 -20.5t63 -64.5t24 -115q1 -17 1.5 -46t0.5 -62t-0.5 -62.5t-1.5 -48.5q-4 -71 -24 -115.5t-63 -65t-118 -20.5zM248 102q29 0 41.5 13
t13.5 38q2 69 2 147.5t-2 147.5q-1 24 -13.5 37t-41.5 13q-54 0 -56 -50q-2 -69 -2 -148t2 -147q2 -51 56 -51zM55 661v72h386v-72h-386zM204 794l87 139h96l-92 -139h-91z" />
    <glyph glyph-name="uni1E5A" unicode="&#x1e5a;" horiz-adv-x="479" 
d="M40 0v800h193q112 0 161.5 -45.5t53.5 -149.5q1 -28 1.5 -49t0 -42t-1.5 -49q-2 -65 -22 -106.5t-61 -63.5l94 -295h-159l-76 270h-34v-270h-150zM190 402h43q62 0 65 55q5 78 0 156q-3 55 -65 55h-43v-266zM195 -139v89h109v-89h-109z" />
    <glyph glyph-name="uni1E5B" unicode="&#x1e5b;" horiz-adv-x="360" 
d="M40 0v600h150v-75h26q5 44 26 61.5t55 17.5q13 0 25 -0.5t18 -2.5v-114h-41q-58 0 -81 -17.5t-28 -47.5v-422h-150zM135 -179v109h110v-109h-110z" />
    <glyph glyph-name="uni1E5E" unicode="&#x1e5e;" horiz-adv-x="479" 
d="M40 0v800h193q112 0 161.5 -45.5t53.5 -149.5q1 -28 1.5 -49t0 -42t-1.5 -49q-2 -65 -22 -106.5t-61 -63.5l94 -295h-159l-76 270h-34v-270h-150zM190 402h43q62 0 65 55q5 78 0 156q-3 55 -65 55h-43v-266zM87 -112v62h346v-62h-346z" />
    <glyph glyph-name="uni1E5F" unicode="&#x1e5f;" horiz-adv-x="360" 
d="M40 0v600h150v-75h26q5 44 26 61.5t55 17.5q13 0 25 -0.5t18 -2.5v-114h-41q-58 0 -81 -17.5t-28 -47.5v-422h-150zM-13 -112v72h386v-72h-386z" />
    <glyph glyph-name="uni1E60" unicode="&#x1e60;" horiz-adv-x="504" 
d="M253 -10q-110 0 -156.5 46.5t-51.5 154.5q-1 24 -0.5 54.5t4.5 54.5h141q-2 -37 -2.5 -72.5t2.5 -64.5q5 -51 63 -51q29 0 43 13t17 38q6 51 0 101q-2 21 -13 38t-35 23l-82 21q-78 20 -109 67t-33 122q-1 40 0 75q3 72 24.5 116t67 64t120.5 20q107 0 155 -46.5
t52 -153.5q1 -22 0.5 -53t-2.5 -57h-144q2 35 2.5 69.5t-1.5 68.5q-1 24 -17.5 37t-44.5 13q-30 0 -44.5 -13t-17.5 -37q-6 -51 0 -103q2 -20 14 -36.5t37 -22.5l71 -17q84 -20 116 -69t35 -126q1 -17 0.5 -36.5t-1.5 -36.5q-4 -108 -51.5 -154.5t-158.5 -46.5zM197 850v89
h110v-89h-110z" />
    <glyph glyph-name="uni1E61" unicode="&#x1e61;" horiz-adv-x="466" 
d="M229 -10q-97 0 -138.5 41.5t-46.5 136.5q-1 17 -0.5 38.5t1.5 26.5h131q-2 -56 0 -81q2 -27 15.5 -38.5t37.5 -11.5q31 0 45 11.5t14 38.5v32q0 15 -7.5 26t-24.5 15l-71 20q-67 20 -106 55t-39 101v28q0 97 44 139t152 42q98 0 139 -40.5t45 -133.5q1 -16 0.5 -39
t-1.5 -28h-136q1 9 1 26.5v34t-1 23.5q-1 24 -11.5 34.5t-35.5 10.5q-27 0 -38 -10.5t-12 -34.5q-1 -11 -1 -19.5v-19.5q0 -19 7 -32t30 -18l62 -15q70 -16 106 -52t36 -105v-28q0 -93 -45.5 -133.5t-151.5 -40.5zM177 661v109h109v-109h-109z" />
    <glyph glyph-name="uni1E62" unicode="&#x1e62;" horiz-adv-x="504" 
d="M253 -10q-110 0 -156.5 46.5t-51.5 154.5q-1 24 -0.5 54.5t4.5 54.5h141q-2 -37 -2.5 -72.5t2.5 -64.5q5 -51 63 -51q29 0 43 13t17 38q6 51 0 101q-2 21 -13 38t-35 23l-82 21q-78 20 -109 67t-33 122q-1 40 0 75q3 72 24.5 116t67 64t120.5 20q107 0 155 -46.5
t52 -153.5q1 -22 0.5 -53t-2.5 -57h-144q2 35 2.5 69.5t-1.5 68.5q-1 24 -17.5 37t-44.5 13q-30 0 -44.5 -13t-17.5 -37q-6 -51 0 -103q2 -20 14 -36.5t37 -22.5l71 -17q84 -20 116 -69t35 -126q1 -17 0.5 -36.5t-1.5 -36.5q-4 -108 -51.5 -154.5t-158.5 -46.5zM197 -139v89
h109v-89h-109z" />
    <glyph glyph-name="uni1E63" unicode="&#x1e63;" horiz-adv-x="466" 
d="M229 -10q-97 0 -138.5 41.5t-46.5 136.5q-1 17 -0.5 38.5t1.5 26.5h131q-2 -56 0 -81q2 -27 15.5 -38.5t37.5 -11.5q31 0 45 11.5t14 38.5v32q0 15 -7.5 26t-24.5 15l-71 20q-67 20 -106 55t-39 101v28q0 97 44 139t152 42q98 0 139 -40.5t45 -133.5q1 -16 0.5 -39
t-1.5 -28h-136q1 9 1 26.5v34t-1 23.5q-1 24 -11.5 34.5t-35.5 10.5q-27 0 -38 -10.5t-12 -34.5q-1 -11 -1 -19.5v-19.5q0 -19 7 -32t30 -18l62 -15q70 -16 106 -52t36 -105v-28q0 -93 -45.5 -133.5t-151.5 -40.5zM176 -179v109h110v-109h-110z" />
    <glyph glyph-name="uni1E64" unicode="&#x1e64;" horiz-adv-x="504" 
d="M253 -10q-110 0 -156.5 46.5t-51.5 154.5q-1 24 -0.5 54.5t4.5 54.5h141q-2 -37 -2.5 -72.5t2.5 -64.5q5 -51 63 -51q29 0 43 13t17 38q6 51 0 101q-2 21 -13 38t-35 23l-82 21q-78 20 -109 67t-33 122q-1 40 0 75q3 72 24.5 116t67 64t120.5 20q107 0 155 -46.5
t52 -153.5q1 -22 0.5 -53t-2.5 -57h-144q2 35 2.5 69.5t-1.5 68.5q-1 24 -17.5 37t-44.5 13q-30 0 -44.5 -13t-17.5 -37q-6 -51 0 -103q2 -20 14 -36.5t37 -22.5l71 -17q84 -20 116 -69t35 -126q1 -17 0.5 -36.5t-1.5 -36.5q-4 -108 -51.5 -154.5t-158.5 -46.5zM222 851v3
l111 87h85v-3l-120 -87h-76zM227 978v89h110v-89h-110z" />
    <glyph glyph-name="uni1E65" unicode="&#x1e65;" horiz-adv-x="466" 
d="M229 -10q-97 0 -138.5 41.5t-46.5 136.5q-1 17 -0.5 38.5t1.5 26.5h131q-2 -56 0 -81q2 -27 15.5 -38.5t37.5 -11.5q31 0 45 11.5t14 38.5v32q0 15 -7.5 26t-24.5 15l-71 20q-67 20 -106 55t-39 101v28q0 97 44 139t152 42q98 0 139 -40.5t45 -133.5q1 -16 0.5 -39
t-1.5 -28h-136q1 9 1 26.5v34t-1 23.5q-1 24 -11.5 34.5t-35.5 10.5q-27 0 -38 -10.5t-12 -34.5q-1 -11 -1 -19.5v-19.5q0 -19 7 -32t30 -18l62 -15q70 -16 106 -52t36 -105v-28q0 -93 -45.5 -133.5t-151.5 -40.5zM187 661l87 139h96l-92 -139h-91zM242 881v109h109v-109
h-109z" />
    <glyph glyph-name="uni1E66" unicode="&#x1e66;" horiz-adv-x="504" 
d="M253 -10q-110 0 -156.5 46.5t-51.5 154.5q-1 24 -0.5 54.5t4.5 54.5h141q-2 -37 -2.5 -72.5t2.5 -64.5q5 -51 63 -51q29 0 43 13t17 38q6 51 0 101q-2 21 -13 38t-35 23l-82 21q-78 20 -109 67t-33 122q-1 40 0 75q3 72 24.5 116t67 64t120.5 20q107 0 155 -46.5
t52 -153.5q1 -22 0.5 -53t-2.5 -57h-144q2 35 2.5 69.5t-1.5 68.5q-1 24 -17.5 37t-44.5 13q-30 0 -44.5 -13t-17.5 -37q-6 -51 0 -103q2 -20 14 -36.5t37 -22.5l71 -17q84 -20 116 -69t35 -126q1 -17 0.5 -36.5t-1.5 -36.5q-4 -108 -51.5 -154.5t-158.5 -46.5zM92 942h96
l59 -57l59 57h96l-112 -99h-86zM198 1000v89h110v-89h-110z" />
    <glyph glyph-name="uni1E67" unicode="&#x1e67;" horiz-adv-x="466" 
d="M229 -10q-97 0 -138.5 41.5t-46.5 136.5q-1 17 -0.5 38.5t1.5 26.5h131q-2 -56 0 -81q2 -27 15.5 -38.5t37.5 -11.5q31 0 45 11.5t14 38.5v32q0 15 -7.5 26t-24.5 15l-71 20q-67 20 -106 55t-39 101v28q0 97 44 139t152 42q98 0 139 -40.5t45 -133.5q1 -16 0.5 -39
t-1.5 -28h-136q1 9 1 26.5v34t-1 23.5q-1 24 -11.5 34.5t-35.5 10.5q-27 0 -38 -10.5t-12 -34.5q-1 -11 -1 -19.5v-19.5q0 -19 7 -32t30 -18l62 -15q70 -16 106 -52t36 -105v-28q0 -93 -45.5 -133.5t-151.5 -40.5zM110 800h86l34 -66l34 66h86l-82 -139h-76zM177 860v109
h109v-109h-109z" />
    <glyph glyph-name="uni1E68" unicode="&#x1e68;" horiz-adv-x="504" 
d="M253 -10q-110 0 -156.5 46.5t-51.5 154.5q-1 24 -0.5 54.5t4.5 54.5h141q-2 -37 -2.5 -72.5t2.5 -64.5q5 -51 63 -51q29 0 43 13t17 38q6 51 0 101q-2 21 -13 38t-35 23l-82 21q-78 20 -109 67t-33 122q-1 40 0 75q3 72 24.5 116t67 64t120.5 20q107 0 155 -46.5
t52 -153.5q1 -22 0.5 -53t-2.5 -57h-144q2 35 2.5 69.5t-1.5 68.5q-1 24 -17.5 37t-44.5 13q-30 0 -44.5 -13t-17.5 -37q-6 -51 0 -103q2 -20 14 -36.5t37 -22.5l71 -17q84 -20 116 -69t35 -126q1 -17 0.5 -36.5t-1.5 -36.5q-4 -108 -51.5 -154.5t-158.5 -46.5zM197 -139v89
h109v-89h-109zM197 850v89h110v-89h-110z" />
    <glyph glyph-name="uni1E69" unicode="&#x1e69;" horiz-adv-x="466" 
d="M229 -10q-97 0 -138.5 41.5t-46.5 136.5q-1 17 -0.5 38.5t1.5 26.5h131q-2 -56 0 -81q2 -27 15.5 -38.5t37.5 -11.5q31 0 45 11.5t14 38.5v32q0 15 -7.5 26t-24.5 15l-71 20q-67 20 -106 55t-39 101v28q0 97 44 139t152 42q98 0 139 -40.5t45 -133.5q1 -16 0.5 -39
t-1.5 -28h-136q1 9 1 26.5v34t-1 23.5q-1 24 -11.5 34.5t-35.5 10.5q-27 0 -38 -10.5t-12 -34.5q-1 -11 -1 -19.5v-19.5q0 -19 7 -32t30 -18l62 -15q70 -16 106 -52t36 -105v-28q0 -93 -45.5 -133.5t-151.5 -40.5zM176 -179v109h110v-109h-110zM177 661v109h109v-109h-109z
" />
    <glyph glyph-name="uni1E6C" unicode="&#x1e6c;" horiz-adv-x="447" 
d="M149 0v668h-129v132h407v-132h-128v-668h-150zM169 -139v89h109v-89h-109z" />
    <glyph glyph-name="uni1E6D" unicode="&#x1e6d;" horiz-adv-x="390" 
d="M312 -10q-115 0 -165 41.5t-50 136.5v319h-57v113h58v170h153l-2 -170h101v-113h-103v-336q0 -27 12.5 -38.5t52.5 -11.5q11 0 22.5 0.5t25.5 0.5v-107q-10 -3 -22 -4t-26 -1zM180 -179v109h110v-109h-110z" />
    <glyph glyph-name="uni1E6E" unicode="&#x1e6e;" horiz-adv-x="447" 
d="M149 0v668h-129v132h407v-132h-128v-668h-150zM61 -112v62h346v-62h-346z" />
    <glyph glyph-name="uni1E6F" unicode="&#x1e6f;" horiz-adv-x="390" 
d="M312 -10q-115 0 -165 41.5t-50 136.5v319h-57v113h58v170h153l-2 -170h101v-113h-103v-336q0 -27 12.5 -38.5t52.5 -11.5q11 0 22.5 0.5t25.5 0.5v-107q-10 -3 -22 -4t-26 -1zM32 -112v72h386v-72h-386z" />
    <glyph glyph-name="uni1E78" unicode="&#x1e78;" horiz-adv-x="505" 
d="M253 -10q-112 0 -160.5 46.5t-50.5 154.5q-5 305 0 609h150q-2 -100 -2.5 -209.5t0.5 -218t2 -209.5q0 -51 61 -51q60 0 60 51q1 101 2 209.5t0.5 218t-2.5 209.5h150q5 -304 0 -609q-1 -108 -49.5 -154.5t-160.5 -46.5zM108 839q3 47 26 68t63 21q30 0 48 -8.5t32 -17
t32 -8.5q17 0 27 9.5t11 24.5h51q-6 -95 -90 -95q-28 0 -47 9t-34 17.5t-34 8.5q-31 0 -34 -29h-51zM223 977v3l111 87h85v-3l-120 -87h-76z" />
    <glyph glyph-name="uni1E79" unicode="&#x1e79;" horiz-adv-x="504" 
d="M180 -10q-62 0 -99.5 39t-37.5 130v441h150v-454q0 -47 46 -47q20 0 43 12t32 31v458h150v-600h-150v65h-20q-23 -40 -49.5 -57.5t-64.5 -17.5zM93 660q4 62 30 89t67 27q34 0 53.5 -11.5t35 -23.5t35.5 -12q39 0 41 34h56q-3 -59 -29.5 -84.5t-69.5 -25.5q-30 0 -51 12
t-37.5 24t-36.5 12q-35 0 -38 -41h-56zM208 827l87 139h96l-92 -139h-91z" />
    <glyph glyph-name="uni1E7A" unicode="&#x1e7a;" horiz-adv-x="505" 
d="M253 -10q-112 0 -160.5 46.5t-50.5 154.5q-5 305 0 609h150q-2 -100 -2.5 -209.5t0.5 -218t2 -209.5q0 -51 61 -51q60 0 60 51q1 101 2 209.5t0.5 218t-2.5 209.5h150q5 -304 0 -609q-1 -108 -49.5 -154.5t-160.5 -46.5zM80 841v62h346v-62h-346zM278 954v89h109v-89
h-109zM119 954v89h109v-89h-109z" />
    <glyph glyph-name="uni1E7B" unicode="&#x1e7b;" horiz-adv-x="504" 
d="M180 -10q-62 0 -99.5 39t-37.5 130v441h150v-454q0 -47 46 -47q20 0 43 12t32 31v458h150v-600h-150v65h-20q-23 -40 -49.5 -57.5t-64.5 -17.5zM59 661v72h386v-72h-386zM277 794v109h109v-109h-109zM118 794v109h109v-109h-109z" />
    <glyph glyph-name="Wgrave" unicode="&#x1e80;" horiz-adv-x="806" 
d="M96 0l-76 800h151l26 -366l15 -302h27l-2 302l70 361h192l70 -361l-2 -302h27l15 302l26 366h151l-76 -800h-245l-37 223l-12 445h-26l-12 -445l-37 -223h-245zM253 938v3h85l111 -87v-3h-76z" />
    <glyph glyph-name="wgrave" unicode="&#x1e81;" horiz-adv-x="775" 
d="M104 0l-84 600h152l29 -301l7 -189h28l7 189l30 301h229l29 -301l7 -189h28l7 189l30 301h152l-85 -600h-241l-21 234l-7 256h-28l-7 -256l-21 -234h-241zM250 800h96l92 -139h-96z" />
    <glyph glyph-name="Wacute" unicode="&#x1e82;" horiz-adv-x="806" 
d="M96 0l-76 800h151l26 -366l15 -302h27l-2 302l70 361h192l70 -361l-2 -302h27l15 302l26 366h151l-76 -800h-245l-37 223l-12 445h-26l-12 -445l-37 -223h-245zM373 851v3l111 87h85v-3l-120 -87h-76z" />
    <glyph glyph-name="wacute" unicode="&#x1e83;" horiz-adv-x="775" 
d="M104 0l-84 600h152l29 -301l7 -189h28l7 189l30 301h229l29 -301l7 -189h28l7 189l30 301h152l-85 -600h-241l-21 234l-7 256h-28l-7 -256l-21 -234h-241zM344 661l87 139h96l-92 -139h-91z" />
    <glyph glyph-name="Wdieresis" unicode="&#x1e84;" horiz-adv-x="806" 
d="M96 0l-76 800h151l26 -366l15 -302h27l-2 302l70 361h192l70 -361l-2 -302h27l15 302l26 366h151l-76 -800h-245l-37 223l-12 445h-26l-12 -445l-37 -223h-245zM428 851v89h109v-89h-109zM269 851v89h109v-89h-109z" />
    <glyph glyph-name="wdieresis" unicode="&#x1e85;" horiz-adv-x="775" 
d="M104 0l-84 600h152l29 -301l7 -189h28l7 189l30 301h229l29 -301l7 -189h28l7 189l30 301h152l-85 -600h-241l-21 234l-7 256h-28l-7 -256l-21 -234h-241zM413 661v109h109v-109h-109zM254 661v109h109v-109h-109z" />
    <glyph glyph-name="uni1E8E" unicode="&#x1e8e;" horiz-adv-x="490" 
d="M170 0v191l-11 45l-139 564h153l43 -194l15 -235h28l15 235l43 194h153l-139 -563l-11 -46v-191h-150zM185 850v89h110v-89h-110z" />
    <glyph glyph-name="uni1E8F" unicode="&#x1e8f;" horiz-adv-x="465" 
d="M134 0l-114 600h152l36 -271l17 -219h28l13 219l27 271h152l-101 -633q-10 -63 -33.5 -102t-69 -57.5t-122.5 -18.5q-17 0 -36 2t-37 5v111q14 -1 36.5 -1.5t36.5 -0.5q40 0 55.5 11.5t19.5 38.5l6 45h-66zM177 661v109h109v-109h-109z" />
    <glyph glyph-name="uni1E92" unicode="&#x1e92;" horiz-adv-x="423" 
d="M20 0v125l223 543h-211v132h371v-128l-233 -540h218v-132h-368zM154 -139v89h109v-89h-109z" />
    <glyph glyph-name="uni1E93" unicode="&#x1e93;" horiz-adv-x="402" 
d="M20 0v95l203 395h-199v110h358v-98l-206 -392h205v-110h-361zM146 -179v109h110v-109h-110z" />
    <glyph glyph-name="uni1E97" unicode="&#x1e97;" horiz-adv-x="390" 
d="M312 -10q-115 0 -165 41.5t-50 136.5v319h-57v113h58v170h153l-2 -170h101v-113h-103v-336q0 -27 12.5 -38.5t52.5 -11.5q11 0 22.5 0.5t25.5 0.5v-107q-10 -3 -22 -4t-26 -1zM207 829v109h109v-109h-109zM48 829v109h109v-109h-109z" />
    <glyph glyph-name="uni1E9E" unicode="&#x1e9e;" horiz-adv-x="534" 
d="M40 0v600q0 107 50.5 153.5t160.5 46.5h229v-113l-105 -227q65 -23 90.5 -69.5t28.5 -116.5q1 -17 0.5 -36.5t-1.5 -36.5q-4 -108 -51.5 -154.5t-158.5 -46.5h-52v122h52q29 0 43 13t17 38q6 51 0 101q-2 21 -12.5 41t-35.5 20h-64l-2 117l95 226h-73q-28 0 -44.5 -13
t-16.5 -37v-628h-150z" />
    <glyph glyph-name="uni1EA0" unicode="&#x1ea0;" horiz-adv-x="498" 
d="M20 0l111 800h236l111 -800h-154l-17 167h-116l-17 -167h-154zM205 299h88l-18 177l-12 192h-28l-12 -192zM194 -139v89h109v-89h-109z" />
    <glyph glyph-name="uni1EA1" unicode="&#x1ea1;" horiz-adv-x="471" 
d="M157 -8q-67 0 -98 32.5t-38 111.5q-2 22 0 44q5 62 39.5 97t115.5 64q27 10 52 16.5t53 13.5v77q-1 24 -10.5 37t-38.5 13q-25 0 -34 -10.5t-11 -34.5q0 -7 -0.5 -23.5t0 -34t0.5 -26.5h-146q-1 5 -1.5 28t0.5 39q3 61 22 99t61 56.5t113 18.5q75 0 116 -20.5t58.5 -64
t19.5 -113.5l-1 -412h-150v65h-19q-18 -38 -40.5 -55.5t-62.5 -17.5zM220 99q20 0 35 11t25 29v136q-38 -8 -65 -20q-26 -12 -35 -31.5t-11 -43.5q-1 -18 0 -32q5 -49 51 -49zM170 -179v109h110v-109h-110z" />
    <glyph glyph-name="uni1EA2" unicode="&#x1ea2;" horiz-adv-x="498" 
d="M20 0l111 800h236l111 -800h-154l-17 167h-116l-17 -167h-154zM205 299h88l-18 177l-12 192h-28l-12 -192zM194 976q24 8 62 8t59 -18t21 -53q0 -23 -7 -40.5t-30.5 -26t-71.5 -4.5v46h29q24 0 24 25q0 20 -24 20q-33 0 -50 -3z" />
    <glyph glyph-name="uni1EA3" unicode="&#x1ea3;" horiz-adv-x="471" 
d="M157 -8q-67 0 -98 32.5t-38 111.5q-2 22 0 44q5 62 39.5 97t115.5 64q27 10 52 16.5t53 13.5v77q-1 24 -10.5 37t-38.5 13q-25 0 -34 -10.5t-11 -34.5q0 -7 -0.5 -23.5t0 -34t0.5 -26.5h-146q-1 5 -1.5 28t0.5 39q3 61 22 99t61 56.5t113 18.5q75 0 116 -20.5t58.5 -64
t19.5 -113.5l-1 -412h-150v65h-19q-18 -38 -40.5 -55.5t-62.5 -17.5zM220 99q20 0 35 11t25 29v136q-38 -8 -65 -20q-26 -12 -35 -31.5t-11 -43.5q-1 -18 0 -32q5 -49 51 -49zM192 808q24 8 62 8t59 -18t21 -53q0 -34 -16 -52.5t-54 -18.5v-34h-52v73l7 7h35q24 0 24 25
q0 20 -24 20q-33 0 -50 -3z" />
    <glyph glyph-name="uni1EA4" unicode="&#x1ea4;" horiz-adv-x="498" 
d="M20 0l111 800h236l111 -800h-154l-17 167h-116l-17 -167h-154zM205 299h88l-18 177l-12 192h-28l-12 -192zM89 841l112 99h86l112 -99h-96l-59 57l-59 -57h-96zM216 991v3l111 87h85v-3l-120 -87h-76z" />
    <glyph glyph-name="uni1EA5" unicode="&#x1ea5;" horiz-adv-x="471" 
d="M157 -8q-67 0 -98 32.5t-38 111.5q-2 22 0 44q5 62 39.5 97t115.5 64q27 10 52 16.5t53 13.5v77q-1 24 -10.5 37t-38.5 13q-25 0 -34 -10.5t-11 -34.5q0 -7 -0.5 -23.5t0 -34t0.5 -26.5h-146q-1 5 -1.5 28t0.5 39q3 61 22 99t61 56.5t113 18.5q75 0 116 -20.5t58.5 -64
t19.5 -113.5l-1 -412h-150v65h-19q-18 -38 -40.5 -55.5t-62.5 -17.5zM220 99q20 0 35 11t25 29v136q-38 -8 -65 -20q-26 -12 -35 -31.5t-11 -43.5q-1 -18 0 -32q5 -49 51 -49zM105 641l82 139h86l82 -139h-96l-29 56l-29 -56h-96zM205 811v3l111 87h85v-3l-120 -87h-76z" />
    <glyph glyph-name="uni1EA6" unicode="&#x1ea6;" horiz-adv-x="498" 
d="M20 0l111 800h236l111 -800h-154l-17 167h-116l-17 -167h-154zM205 299h88l-18 177l-12 192h-28l-12 -192zM89 841l112 99h86l112 -99h-96l-59 57l-59 -57h-96zM73 1073v3h85l111 -87v-3h-76z" />
    <glyph glyph-name="uni1EA7" unicode="&#x1ea7;" horiz-adv-x="471" 
d="M157 -8q-67 0 -98 32.5t-38 111.5q-2 22 0 44q5 62 39.5 97t115.5 64q27 10 52 16.5t53 13.5v77q-1 24 -10.5 37t-38.5 13q-25 0 -34 -10.5t-11 -34.5q0 -7 -0.5 -23.5t0 -34t0.5 -26.5h-146q-1 5 -1.5 28t0.5 39q3 61 22 99t61 56.5t113 18.5q75 0 116 -20.5t58.5 -64
t19.5 -113.5l-1 -412h-150v65h-19q-18 -38 -40.5 -55.5t-62.5 -17.5zM220 99q20 0 35 11t25 29v136q-38 -8 -65 -20q-26 -12 -35 -31.5t-11 -43.5q-1 -18 0 -32q5 -49 51 -49zM105 641l82 139h86l82 -139h-96l-29 56l-29 -56h-96zM65 898v3h85l111 -87v-3h-76z" />
    <glyph glyph-name="uni1EA8" unicode="&#x1ea8;" horiz-adv-x="498" 
d="M20 0l111 800h236l111 -800h-154l-17 167h-116l-17 -167h-154zM205 299h88l-18 177l-12 192h-28l-12 -192zM89 841l112 99h86l112 -99h-96l-59 57l-59 -57h-96zM302 1069q24 8 62 8t59 -18t21 -53q0 -23 -7 -40.5t-30.5 -26t-71.5 -4.5v46h29q24 0 24 25q0 20 -24 20
q-33 0 -50 -3z" />
    <glyph glyph-name="uni1EA9" unicode="&#x1ea9;" horiz-adv-x="471" 
d="M157 -8q-67 0 -98 32.5t-38 111.5q-2 22 0 44q5 62 39.5 97t115.5 64q27 10 52 16.5t53 13.5v77q-1 24 -10.5 37t-38.5 13q-25 0 -34 -10.5t-11 -34.5q0 -7 -0.5 -23.5t0 -34t0.5 -26.5h-146q-1 5 -1.5 28t0.5 39q3 61 22 99t61 56.5t113 18.5q75 0 116 -20.5t58.5 -64
t19.5 -113.5l-1 -412h-150v65h-19q-18 -38 -40.5 -55.5t-62.5 -17.5zM220 99q20 0 35 11t25 29v136q-38 -8 -65 -20q-26 -12 -35 -31.5t-11 -43.5q-1 -18 0 -32q5 -49 51 -49zM391 779v-20h-52v59l7 7h35q24 0 24 25q0 20 -24 20q-33 0 -50 -3l-12 46q24 8 62 8t59 -18
t21 -53q0 -34 -16 -52.5t-54 -18.5zM105 641l82 139h86l82 -139h-96l-29 56l-29 -56h-96z" />
    <glyph glyph-name="uni1EAA" unicode="&#x1eaa;" horiz-adv-x="498" 
d="M20 0l111 800h236l111 -800h-154l-17 167h-116l-17 -167h-154zM205 299h88l-18 177l-12 192h-28l-12 -192zM89 841l112 99h86l112 -99h-96l-59 57l-59 -57h-96zM101 979q3 47 26 68t63 21q30 0 48 -8.5t32 -17t32 -8.5q17 0 27 9.5t11 24.5h51q-6 -95 -90 -95
q-28 0 -47 9t-34 17.5t-34 8.5q-31 0 -34 -29h-51z" />
    <glyph glyph-name="uni1EAB" unicode="&#x1eab;" horiz-adv-x="471" 
d="M157 -8q-67 0 -98 32.5t-38 111.5q-2 22 0 44q5 62 39.5 97t115.5 64q27 10 52 16.5t53 13.5v77q-1 24 -10.5 37t-38.5 13q-25 0 -34 -10.5t-11 -34.5q0 -7 -0.5 -23.5t0 -34t0.5 -26.5h-146q-1 5 -1.5 28t0.5 39q3 61 22 99t61 56.5t113 18.5q75 0 116 -20.5t58.5 -64
t19.5 -113.5l-1 -412h-150v65h-19q-18 -38 -40.5 -55.5t-62.5 -17.5zM220 99q20 0 35 11t25 29v136q-38 -8 -65 -20q-26 -12 -35 -31.5t-11 -43.5q-1 -18 0 -32q5 -49 51 -49zM105 641l82 139h86l82 -139h-96l-29 56l-29 -56h-96zM90 819q3 47 26 68t63 21q30 0 48 -8.5
t32 -17t32 -8.5q17 0 27 9.5t11 24.5h51q-6 -95 -90 -95q-28 0 -47 9t-34 17.5t-34 8.5q-31 0 -34 -29h-51z" />
    <glyph glyph-name="uni1EAC" unicode="&#x1eac;" horiz-adv-x="498" 
d="M20 0l111 800h236l111 -800h-154l-17 167h-116l-17 -167h-154zM205 299h88l-18 177l-12 192h-28l-12 -192zM194 -139v89h109v-89h-109zM89 841l112 99h86l112 -99h-96l-59 57l-59 -57h-96z" />
    <glyph glyph-name="uni1EAD" unicode="&#x1ead;" horiz-adv-x="471" 
d="M157 -8q-67 0 -98 32.5t-38 111.5q-2 22 0 44q5 62 39.5 97t115.5 64q27 10 52 16.5t53 13.5v77q-1 24 -10.5 37t-38.5 13q-25 0 -34 -10.5t-11 -34.5q0 -7 -0.5 -23.5t0 -34t0.5 -26.5h-146q-1 5 -1.5 28t0.5 39q3 61 22 99t61 56.5t113 18.5q75 0 116 -20.5t58.5 -64
t19.5 -113.5l-1 -412h-150v65h-19q-18 -38 -40.5 -55.5t-62.5 -17.5zM220 99q20 0 35 11t25 29v136q-38 -8 -65 -20q-26 -12 -35 -31.5t-11 -43.5q-1 -18 0 -32q5 -49 51 -49zM170 -179v109h110v-109h-110zM105 641l82 139h86l82 -139h-96l-29 56l-29 -56h-96z" />
    <glyph glyph-name="uni1EAE" unicode="&#x1eae;" horiz-adv-x="498" 
d="M20 0l111 800h236l111 -800h-154l-17 167h-116l-17 -167h-154zM205 299h88l-18 177l-12 192h-28l-12 -192zM103 941h84q0 -17 18 -29t44 -12t44 12t18 29h85q-3 -45 -45 -75t-102 -30t-101.5 30t-44.5 75zM219 1001v3l111 87h85v-3l-120 -87h-76z" />
    <glyph glyph-name="uni1EAF" unicode="&#x1eaf;" horiz-adv-x="471" 
d="M157 -8q-67 0 -98 32.5t-38 111.5q-2 22 0 44q5 62 39.5 97t115.5 64q27 10 52 16.5t53 13.5v77q-1 24 -10.5 37t-38.5 13q-25 0 -34 -10.5t-11 -34.5q0 -7 -0.5 -23.5t0 -34t0.5 -26.5h-146q-1 5 -1.5 28t0.5 39q3 61 22 99t61 56.5t113 18.5q75 0 116 -20.5t58.5 -64
t19.5 -113.5l-1 -412h-150v65h-19q-18 -38 -40.5 -55.5t-62.5 -17.5zM220 99q20 0 35 11t25 29v136q-38 -8 -65 -20q-26 -12 -35 -31.5t-11 -43.5q-1 -18 0 -32q5 -49 51 -49zM84 800h89q0 -39 14.5 -56t47.5 -17t47.5 17t14.5 56h89q-5 -79 -40 -113.5t-111 -34.5
t-111 34.5t-40 113.5zM184 831v3l111 87h85v-3l-120 -87h-76z" />
    <glyph glyph-name="uni1EB0" unicode="&#x1eb0;" horiz-adv-x="498" 
d="M20 0l111 800h236l111 -800h-154l-17 167h-116l-17 -167h-154zM205 299h88l-18 177l-12 192h-28l-12 -192zM103 941h84q0 -17 18 -29t44 -12t44 12t18 29h85q-3 -45 -45 -75t-102 -30t-101.5 30t-44.5 75zM99 1088v3h85l111 -87v-3h-76z" />
    <glyph glyph-name="uni1EB1" unicode="&#x1eb1;" horiz-adv-x="471" 
d="M157 -8q-67 0 -98 32.5t-38 111.5q-2 22 0 44q5 62 39.5 97t115.5 64q27 10 52 16.5t53 13.5v77q-1 24 -10.5 37t-38.5 13q-25 0 -34 -10.5t-11 -34.5q0 -7 -0.5 -23.5t0 -34t0.5 -26.5h-146q-1 5 -1.5 28t0.5 39q3 61 22 99t61 56.5t113 18.5q75 0 116 -20.5t58.5 -64
t19.5 -113.5l-1 -412h-150v65h-19q-18 -38 -40.5 -55.5t-62.5 -17.5zM220 99q20 0 35 11t25 29v136q-38 -8 -65 -20q-26 -12 -35 -31.5t-11 -43.5q-1 -18 0 -32q5 -49 51 -49zM84 800h89q0 -39 14.5 -56t47.5 -17t47.5 17t14.5 56h89q-5 -79 -40 -113.5t-111 -34.5
t-111 34.5t-40 113.5zM85 918v3h85l111 -87v-3h-76z" />
    <glyph glyph-name="uni1EB2" unicode="&#x1eb2;" horiz-adv-x="498" 
d="M20 0l111 800h236l111 -800h-154l-17 167h-116l-17 -167h-154zM205 299h88l-18 177l-12 192h-28l-12 -192zM103 941h84q0 -17 18 -29t44 -12t44 12t18 29h85q-3 -45 -45 -75t-102 -30t-101.5 30t-44.5 75zM197 1106q24 8 62 8t59 -18t21 -53q0 -23 -7 -40.5t-30.5 -26
t-71.5 -4.5v46h29q24 0 24 25q0 20 -24 20q-33 0 -50 -3z" />
    <glyph glyph-name="uni1EB3" unicode="&#x1eb3;" horiz-adv-x="471" 
d="M157 -8q-67 0 -98 32.5t-38 111.5q-2 22 0 44q5 62 39.5 97t115.5 64q27 10 52 16.5t53 13.5v77q-1 24 -10.5 37t-38.5 13q-25 0 -34 -10.5t-11 -34.5q0 -7 -0.5 -23.5t0 -34t0.5 -26.5h-146q-1 5 -1.5 28t0.5 39q3 61 22 99t61 56.5t113 18.5q75 0 116 -20.5t58.5 -64
t19.5 -113.5l-1 -412h-150v65h-19q-18 -38 -40.5 -55.5t-62.5 -17.5zM220 99q20 0 35 11t25 29v136q-38 -8 -65 -20q-26 -12 -35 -31.5t-11 -43.5q-1 -18 0 -32q5 -49 51 -49zM84 800h89q0 -39 14.5 -56t47.5 -17t47.5 17t14.5 56h89q-5 -79 -40 -113.5t-111 -34.5
t-111 34.5t-40 113.5zM189 970q24 8 62 8t59 -18t21 -53q0 -23 -7 -40.5t-30.5 -26t-71.5 -4.5v46h29q24 0 24 25q0 20 -24 20q-33 0 -50 -3z" />
    <glyph glyph-name="uni1EB4" unicode="&#x1eb4;" horiz-adv-x="498" 
d="M20 0l111 800h236l111 -800h-154l-17 167h-116l-17 -167h-154zM205 299h88l-18 177l-12 192h-28l-12 -192zM103 941h84q0 -17 18 -29t44 -12t44 12t18 29h85q-3 -45 -45 -75t-102 -30t-101.5 30t-44.5 75zM104 989q3 47 26 68t63 21q30 0 48 -8.5t32 -17t32 -8.5
q17 0 27 9.5t11 24.5h51q-6 -95 -90 -95q-28 0 -47 9t-34 17.5t-34 8.5q-31 0 -34 -29h-51z" />
    <glyph glyph-name="uni1EB5" unicode="&#x1eb5;" horiz-adv-x="471" 
d="M157 -8q-67 0 -98 32.5t-38 111.5q-2 22 0 44q5 62 39.5 97t115.5 64q27 10 52 16.5t53 13.5v77q-1 24 -10.5 37t-38.5 13q-25 0 -34 -10.5t-11 -34.5q0 -7 -0.5 -23.5t0 -34t0.5 -26.5h-146q-1 5 -1.5 28t0.5 39q3 61 22 99t61 56.5t113 18.5q75 0 116 -20.5t58.5 -64
t19.5 -113.5l-1 -412h-150v65h-19q-18 -38 -40.5 -55.5t-62.5 -17.5zM220 99q20 0 35 11t25 29v136q-38 -8 -65 -20q-26 -12 -35 -31.5t-11 -43.5q-1 -18 0 -32q5 -49 51 -49zM84 800h89q0 -39 14.5 -56t47.5 -17t47.5 17t14.5 56h89q-5 -79 -40 -113.5t-111 -34.5
t-111 34.5t-40 113.5zM96 859q3 47 26 68t63 21q30 0 48 -8.5t32 -17t32 -8.5q17 0 27 9.5t11 24.5h51q-6 -95 -90 -95q-28 0 -47 9t-34 17.5t-34 8.5q-31 0 -34 -29h-51z" />
    <glyph glyph-name="uni1EB6" unicode="&#x1eb6;" horiz-adv-x="498" 
d="M20 0l111 800h236l111 -800h-154l-17 167h-116l-17 -167h-154zM205 299h88l-18 177l-12 192h-28l-12 -192zM194 -139v89h109v-89h-109zM103 941h84q0 -17 18 -29t44 -12t44 12t18 29h85q-3 -45 -45 -75t-102 -30t-101.5 30t-44.5 75z" />
    <glyph glyph-name="uni1EB7" unicode="&#x1eb7;" horiz-adv-x="471" 
d="M157 -8q-67 0 -98 32.5t-38 111.5q-2 22 0 44q5 62 39.5 97t115.5 64q27 10 52 16.5t53 13.5v77q-1 24 -10.5 37t-38.5 13q-25 0 -34 -10.5t-11 -34.5q0 -7 -0.5 -23.5t0 -34t0.5 -26.5h-146q-1 5 -1.5 28t0.5 39q3 61 22 99t61 56.5t113 18.5q75 0 116 -20.5t58.5 -64
t19.5 -113.5l-1 -412h-150v65h-19q-18 -38 -40.5 -55.5t-62.5 -17.5zM220 99q20 0 35 11t25 29v136q-38 -8 -65 -20q-26 -12 -35 -31.5t-11 -43.5q-1 -18 0 -32q5 -49 51 -49zM170 -179v109h110v-109h-110zM84 800h89q0 -39 14.5 -56t47.5 -17t47.5 17t14.5 56h89
q-5 -79 -40 -113.5t-111 -34.5t-111 34.5t-40 113.5z" />
    <glyph glyph-name="uni1EB8" unicode="&#x1eb8;" horiz-adv-x="406" 
d="M40 0v800h346v-132h-196v-195h186v-132h-186v-209h196v-132h-346zM163 -139v89h109v-89h-109z" />
    <glyph glyph-name="uni1EB9" unicode="&#x1eb9;" horiz-adv-x="469" 
d="M291 233h146q1 -5 1.5 -26.5t-0.5 -38.5q-4 -95 -49.5 -136.5t-144.5 -41.5q-103 0 -150 41.5t-52 136.5q-1 17 -1.5 52.5t-0.5 77t0.5 77.5t1.5 55q7 97 53.5 138.5t146.5 41.5q101 0 146.5 -40.5t49.5 -133.5q1 -11 1 -38.5v-61t-2 -61.5h-247q0 -32 0.5 -63t1.5 -60
q1 -27 13 -38.5t39 -11.5q24 0 35 11.5t12 38.5q2 25 0 81zM242 498q-26 0 -37.5 -10.5t-12.5 -34.5q-1 -18 -1 -36.5t-1 -38.5h102q0 27 -0.5 49t-0.5 26q-1 24 -12.5 34.5t-36.5 10.5zM185 -179v109h110v-109h-110z" />
    <glyph glyph-name="uni1EBA" unicode="&#x1eba;" horiz-adv-x="406" 
d="M40 0v800h346v-132h-196v-195h186v-132h-186v-209h196v-132h-346zM160 976q24 8 62 8t59 -18t21 -53q0 -23 -7 -40.5t-30.5 -26t-71.5 -4.5v46h29q24 0 24 25q0 20 -24 20q-33 0 -50 -3z" />
    <glyph glyph-name="uni1EBB" unicode="&#x1ebb;" horiz-adv-x="469" 
d="M291 233h146q1 -5 1.5 -26.5t-0.5 -38.5q-4 -95 -49.5 -136.5t-144.5 -41.5q-103 0 -150 41.5t-52 136.5q-1 17 -1.5 52.5t-0.5 77t0.5 77.5t1.5 55q7 97 53.5 138.5t146.5 41.5q101 0 146.5 -40.5t49.5 -133.5q1 -11 1 -38.5v-61t-2 -61.5h-247q0 -32 0.5 -63t1.5 -60
q1 -27 13 -38.5t39 -11.5q24 0 35 11.5t12 38.5q2 25 0 81zM242 498q-26 0 -37.5 -10.5t-12.5 -34.5q-1 -18 -1 -36.5t-1 -38.5h102q0 27 -0.5 49t-0.5 26q-1 24 -12.5 34.5t-36.5 10.5zM197 808q24 8 62 8t59 -18t21 -53q0 -34 -16 -52.5t-54 -18.5v-34h-52v73l7 7h35
q24 0 24 25q0 20 -24 20q-33 0 -50 -3z" />
    <glyph glyph-name="uni1EBC" unicode="&#x1ebc;" horiz-adv-x="406" 
d="M40 0v800h346v-132h-196v-195h186v-132h-186v-209h196v-132h-346zM70 839q3 47 26 68t63 21q30 0 48 -8.5t32 -17t32 -8.5q17 0 27 9.5t11 24.5h51q-6 -95 -90 -95q-28 0 -47 9t-34 17.5t-34 8.5q-31 0 -34 -29h-51z" />
    <glyph glyph-name="uni1EBD" unicode="&#x1ebd;" horiz-adv-x="469" 
d="M291 233h146q1 -5 1.5 -26.5t-0.5 -38.5q-4 -95 -49.5 -136.5t-144.5 -41.5q-103 0 -150 41.5t-52 136.5q-1 17 -1.5 52.5t-0.5 77t0.5 77.5t1.5 55q7 97 53.5 138.5t146.5 41.5q101 0 146.5 -40.5t49.5 -133.5q1 -11 1 -38.5v-61t-2 -61.5h-247q0 -32 0.5 -63t1.5 -60
q1 -27 13 -38.5t39 -11.5q24 0 35 11.5t12 38.5q2 25 0 81zM242 498q-26 0 -37.5 -10.5t-12.5 -34.5q-1 -18 -1 -36.5t-1 -38.5h102q0 27 -0.5 49t-0.5 26q-1 24 -12.5 34.5t-36.5 10.5zM81 660q4 62 30 89t67 27q34 0 53.5 -11.5t35 -23.5t35.5 -12q39 0 41 34h56
q-3 -59 -29.5 -84.5t-69.5 -25.5q-30 0 -51 12t-37.5 24t-36.5 12q-35 0 -38 -41h-56z" />
    <glyph glyph-name="uni1EBE" unicode="&#x1ebe;" horiz-adv-x="406" 
d="M40 0v800h346v-132h-196v-195h186v-132h-186v-209h196v-132h-346zM55 841l112 99h86l112 -99h-96l-59 57l-59 -57h-96zM182 991v3l111 87h85v-3l-120 -87h-76z" />
    <glyph glyph-name="uni1EBF" unicode="&#x1ebf;" horiz-adv-x="469" 
d="M291 233h146q1 -5 1.5 -26.5t-0.5 -38.5q-4 -95 -49.5 -136.5t-144.5 -41.5q-103 0 -150 41.5t-52 136.5q-1 17 -1.5 52.5t-0.5 77t0.5 77.5t1.5 55q7 97 53.5 138.5t146.5 41.5q101 0 146.5 -40.5t49.5 -133.5q1 -11 1 -38.5v-61t-2 -61.5h-247q0 -32 0.5 -63t1.5 -60
q1 -27 13 -38.5t39 -11.5q24 0 35 11.5t12 38.5q2 25 0 81zM242 498q-26 0 -37.5 -10.5t-12.5 -34.5q-1 -18 -1 -36.5t-1 -38.5h102q0 27 -0.5 49t-0.5 26q-1 24 -12.5 34.5t-36.5 10.5zM110 641l82 139h86l82 -139h-96l-29 56l-29 -56h-96zM210 811v3l111 87h85v-3
l-120 -87h-76z" />
    <glyph glyph-name="uni1EC0" unicode="&#x1ec0;" horiz-adv-x="406" 
d="M40 0v800h346v-132h-196v-195h186v-132h-186v-209h196v-132h-346zM55 841l112 99h86l112 -99h-96l-59 57l-59 -57h-96zM39 1073v3h85l111 -87v-3h-76z" />
    <glyph glyph-name="uni1EC1" unicode="&#x1ec1;" horiz-adv-x="469" 
d="M291 233h146q1 -5 1.5 -26.5t-0.5 -38.5q-4 -95 -49.5 -136.5t-144.5 -41.5q-103 0 -150 41.5t-52 136.5q-1 17 -1.5 52.5t-0.5 77t0.5 77.5t1.5 55q7 97 53.5 138.5t146.5 41.5q101 0 146.5 -40.5t49.5 -133.5q1 -11 1 -38.5v-61t-2 -61.5h-247q0 -32 0.5 -63t1.5 -60
q1 -27 13 -38.5t39 -11.5q24 0 35 11.5t12 38.5q2 25 0 81zM242 498q-26 0 -37.5 -10.5t-12.5 -34.5q-1 -18 -1 -36.5t-1 -38.5h102q0 27 -0.5 49t-0.5 26q-1 24 -12.5 34.5t-36.5 10.5zM110 641l82 139h86l82 -139h-96l-29 56l-29 -56h-96zM70 898v3h85l111 -87v-3h-76z
" />
    <glyph glyph-name="uni1EC2" unicode="&#x1ec2;" horiz-adv-x="406" 
d="M40 0v800h346v-132h-196v-195h186v-132h-186v-209h196v-132h-346zM55 841l112 99h86l112 -99h-96l-59 57l-59 -57h-96zM268 1069q24 8 62 8t59 -18t21 -53q0 -23 -7 -40.5t-30.5 -26t-71.5 -4.5v46h29q24 0 24 25q0 20 -24 20q-33 0 -50 -3z" />
    <glyph glyph-name="uni1EC3" unicode="&#x1ec3;" horiz-adv-x="469" 
d="M291 233h146q1 -5 1.5 -26.5t-0.5 -38.5q-4 -95 -49.5 -136.5t-144.5 -41.5q-103 0 -150 41.5t-52 136.5q-1 17 -1.5 52.5t-0.5 77t0.5 77.5t1.5 55q7 97 53.5 138.5t146.5 41.5q101 0 146.5 -40.5t49.5 -133.5q1 -11 1 -38.5v-61t-2 -61.5h-247q0 -32 0.5 -63t1.5 -60
q1 -27 13 -38.5t39 -11.5q24 0 35 11.5t12 38.5q2 25 0 81zM242 498q-26 0 -37.5 -10.5t-12.5 -34.5q-1 -18 -1 -36.5t-1 -38.5h102q0 27 -0.5 49t-0.5 26q-1 24 -12.5 34.5t-36.5 10.5zM396 779v-20h-52v59l7 7h35q24 0 24 25q0 20 -24 20q-33 0 -50 -3l-12 46q24 8 62 8
t59 -18t21 -53q0 -34 -16 -52.5t-54 -18.5zM110 641l82 139h86l82 -139h-96l-29 56l-29 -56h-96z" />
    <glyph glyph-name="uni1EC4" unicode="&#x1ec4;" horiz-adv-x="406" 
d="M40 0v800h346v-132h-196v-195h186v-132h-186v-209h196v-132h-346zM55 841l112 99h86l112 -99h-96l-59 57l-59 -57h-96zM67 979q3 47 26 68t63 21q30 0 48 -8.5t32 -17t32 -8.5q17 0 27 9.5t11 24.5h51q-6 -95 -90 -95q-28 0 -47 9t-34 17.5t-34 8.5q-31 0 -34 -29h-51z
" />
    <glyph glyph-name="uni1EC5" unicode="&#x1ec5;" horiz-adv-x="469" 
d="M291 233h146q1 -5 1.5 -26.5t-0.5 -38.5q-4 -95 -49.5 -136.5t-144.5 -41.5q-103 0 -150 41.5t-52 136.5q-1 17 -1.5 52.5t-0.5 77t0.5 77.5t1.5 55q7 97 53.5 138.5t146.5 41.5q101 0 146.5 -40.5t49.5 -133.5q1 -11 1 -38.5v-61t-2 -61.5h-247q0 -32 0.5 -63t1.5 -60
q1 -27 13 -38.5t39 -11.5q24 0 35 11.5t12 38.5q2 25 0 81zM242 498q-26 0 -37.5 -10.5t-12.5 -34.5q-1 -18 -1 -36.5t-1 -38.5h102q0 27 -0.5 49t-0.5 26q-1 24 -12.5 34.5t-36.5 10.5zM110 641l82 139h86l82 -139h-96l-29 56l-29 -56h-96zM95 819q3 47 26 68t63 21
q30 0 48 -8.5t32 -17t32 -8.5q17 0 27 9.5t11 24.5h51q-6 -95 -90 -95q-28 0 -47 9t-34 17.5t-34 8.5q-31 0 -34 -29h-51z" />
    <glyph glyph-name="uni1EC6" unicode="&#x1ec6;" horiz-adv-x="406" 
d="M40 0v800h346v-132h-196v-195h186v-132h-186v-209h196v-132h-346zM163 -139v89h109v-89h-109zM55 841l112 99h86l112 -99h-96l-59 57l-59 -57h-96z" />
    <glyph glyph-name="uni1EC7" unicode="&#x1ec7;" horiz-adv-x="469" 
d="M291 233h146q1 -5 1.5 -26.5t-0.5 -38.5q-4 -95 -49.5 -136.5t-144.5 -41.5q-103 0 -150 41.5t-52 136.5q-1 17 -1.5 52.5t-0.5 77t0.5 77.5t1.5 55q7 97 53.5 138.5t146.5 41.5q101 0 146.5 -40.5t49.5 -133.5q1 -11 1 -38.5v-61t-2 -61.5h-247q0 -32 0.5 -63t1.5 -60
q1 -27 13 -38.5t39 -11.5q24 0 35 11.5t12 38.5q2 25 0 81zM242 498q-26 0 -37.5 -10.5t-12.5 -34.5q-1 -18 -1 -36.5t-1 -38.5h102q0 27 -0.5 49t-0.5 26q-1 24 -12.5 34.5t-36.5 10.5zM185 -179v109h110v-109h-110zM110 641l82 139h86l82 -139h-96l-29 56l-29 -56h-96z
" />
    <glyph glyph-name="uni1EC8" unicode="&#x1ec8;" horiz-adv-x="230" 
d="M40 0v800h150v-800h-150zM60 976q24 8 62 8t59 -18t21 -53q0 -23 -7 -40.5t-30.5 -26t-71.5 -4.5v46h29q24 0 24 25q0 20 -24 20q-33 0 -50 -3z" />
    <glyph glyph-name="uni1EC9" unicode="&#x1ec9;" horiz-adv-x="230" 
d="M40 0v600h150v-600h-150zM72 808q24 8 62 8t59 -18t21 -53q0 -34 -16 -52.5t-54 -18.5v-34h-52v73l7 7h35q24 0 24 25q0 20 -24 20q-33 0 -50 -3z" />
    <glyph glyph-name="uni1ECA" unicode="&#x1eca;" horiz-adv-x="230" 
d="M40 0v800h150v-800h-150zM60 -139v89h109v-89h-109z" />
    <glyph glyph-name="uni1ECB" unicode="&#x1ecb;" horiz-adv-x="230" 
d="M40 687v113h150v-113h-150zM40 0v600h150v-600h-150zM60 -179v109h110v-109h-110z" />
    <glyph glyph-name="uni1ECC" unicode="&#x1ecc;" horiz-adv-x="507" 
d="M253 -10q-110 0 -159.5 46.5t-51.5 154.5q-2 98 -2 209.5t2 209.5q2 107 51.5 153.5t159.5 46.5t158 -46.5t52 -153.5q4 -100 4 -210.5t-4 -208.5q-4 -108 -52 -154.5t-158 -46.5zM253 112q58 0 60 51t3.5 112t1.5 125.5t-1.5 125.5t-3.5 112q-2 50 -60 50q-59 0 -61 -50
q-2 -51 -3 -112t-1 -125.5t1 -125.5t3 -112t61 -51zM199 -139v89h109v-89h-109z" />
    <glyph glyph-name="uni1ECD" unicode="&#x1ecd;" horiz-adv-x="495" 
d="M248 -10q-73 0 -117 20t-64.5 64t-24.5 117q-1 17 -1.5 46t-0.5 62t0.5 62.5t1.5 48.5q4 72 24.5 116t64 64t117.5 20q75 0 118 -20.5t63 -64.5t24 -115q1 -17 1.5 -46t0.5 -62t-0.5 -62.5t-1.5 -48.5q-4 -71 -24 -115.5t-63 -65t-118 -20.5zM248 102q29 0 41.5 13
t13.5 38q2 69 2 147.5t-2 147.5q-1 24 -13.5 37t-41.5 13q-54 0 -56 -50q-2 -69 -2 -148t2 -147q2 -51 56 -51zM193 -179v109h110v-109h-110z" />
    <glyph glyph-name="uni1ECE" unicode="&#x1ece;" horiz-adv-x="507" 
d="M253 -10q-110 0 -159.5 46.5t-51.5 154.5q-2 98 -2 209.5t2 209.5q2 107 51.5 153.5t159.5 46.5t158 -46.5t52 -153.5q4 -100 4 -210.5t-4 -208.5q-4 -108 -52 -154.5t-158 -46.5zM253 112q58 0 60 51t3.5 112t1.5 125.5t-1.5 125.5t-3.5 112q-2 50 -60 50q-59 0 -61 -50
q-2 -51 -3 -112t-1 -125.5t1 -125.5t3 -112t61 -51zM199 976q24 8 62 8t59 -18t21 -53q0 -23 -7 -40.5t-30.5 -26t-71.5 -4.5v46h29q24 0 24 25q0 20 -24 20q-33 0 -50 -3z" />
    <glyph glyph-name="uni1ECF" unicode="&#x1ecf;" horiz-adv-x="495" 
d="M248 -10q-73 0 -117 20t-64.5 64t-24.5 117q-1 17 -1.5 46t-0.5 62t0.5 62.5t1.5 48.5q4 72 24.5 116t64 64t117.5 20q75 0 118 -20.5t63 -64.5t24 -115q1 -17 1.5 -46t0.5 -62t-0.5 -62.5t-1.5 -48.5q-4 -71 -24 -115.5t-63 -65t-118 -20.5zM248 102q29 0 41.5 13
t13.5 38q2 69 2 147.5t-2 147.5q-1 24 -13.5 37t-41.5 13q-54 0 -56 -50q-2 -69 -2 -148t2 -147q2 -51 56 -51zM205 808q24 8 62 8t59 -18t21 -53q0 -34 -16 -52.5t-54 -18.5v-34h-52v73l7 7h35q24 0 24 25q0 20 -24 20q-33 0 -50 -3z" />
    <glyph glyph-name="uni1ED0" unicode="&#x1ed0;" horiz-adv-x="507" 
d="M253 -10q-110 0 -159.5 46.5t-51.5 154.5q-2 98 -2 209.5t2 209.5q2 107 51.5 153.5t159.5 46.5t158 -46.5t52 -153.5q4 -100 4 -210.5t-4 -208.5q-4 -108 -52 -154.5t-158 -46.5zM253 112q58 0 60 51t3.5 112t1.5 125.5t-1.5 125.5t-3.5 112q-2 50 -60 50q-59 0 -61 -50
q-2 -51 -3 -112t-1 -125.5t1 -125.5t3 -112t61 -51zM94 841l112 99h86l112 -99h-96l-59 57l-59 -57h-96zM221 991v3l111 87h85v-3l-120 -87h-76z" />
    <glyph glyph-name="uni1ED1" unicode="&#x1ed1;" horiz-adv-x="495" 
d="M248 -10q-73 0 -117 20t-64.5 64t-24.5 117q-1 17 -1.5 46t-0.5 62t0.5 62.5t1.5 48.5q4 72 24.5 116t64 64t117.5 20q75 0 118 -20.5t63 -64.5t24 -115q1 -17 1.5 -46t0.5 -62t-0.5 -62.5t-1.5 -48.5q-4 -71 -24 -115.5t-63 -65t-118 -20.5zM248 102q29 0 41.5 13
t13.5 38q2 69 2 147.5t-2 147.5q-1 24 -13.5 37t-41.5 13q-54 0 -56 -50q-2 -69 -2 -148t2 -147q2 -51 56 -51zM118 641l82 139h86l82 -139h-96l-29 56l-29 -56h-96zM218 811v3l111 87h85v-3l-120 -87h-76z" />
    <glyph glyph-name="uni1ED2" unicode="&#x1ed2;" horiz-adv-x="507" 
d="M253 -10q-110 0 -159.5 46.5t-51.5 154.5q-2 98 -2 209.5t2 209.5q2 107 51.5 153.5t159.5 46.5t158 -46.5t52 -153.5q4 -100 4 -210.5t-4 -208.5q-4 -108 -52 -154.5t-158 -46.5zM253 112q58 0 60 51t3.5 112t1.5 125.5t-1.5 125.5t-3.5 112q-2 50 -60 50q-59 0 -61 -50
q-2 -51 -3 -112t-1 -125.5t1 -125.5t3 -112t61 -51zM94 841l112 99h86l112 -99h-96l-59 57l-59 -57h-96zM78 1073v3h85l111 -87v-3h-76z" />
    <glyph glyph-name="uni1ED3" unicode="&#x1ed3;" horiz-adv-x="495" 
d="M248 -10q-73 0 -117 20t-64.5 64t-24.5 117q-1 17 -1.5 46t-0.5 62t0.5 62.5t1.5 48.5q4 72 24.5 116t64 64t117.5 20q75 0 118 -20.5t63 -64.5t24 -115q1 -17 1.5 -46t0.5 -62t-0.5 -62.5t-1.5 -48.5q-4 -71 -24 -115.5t-63 -65t-118 -20.5zM248 102q29 0 41.5 13
t13.5 38q2 69 2 147.5t-2 147.5q-1 24 -13.5 37t-41.5 13q-54 0 -56 -50q-2 -69 -2 -148t2 -147q2 -51 56 -51zM118 641l82 139h86l82 -139h-96l-29 56l-29 -56h-96zM78 898v3h85l111 -87v-3h-76z" />
    <glyph glyph-name="uni1ED4" unicode="&#x1ed4;" horiz-adv-x="507" 
d="M253 -10q-110 0 -159.5 46.5t-51.5 154.5q-2 98 -2 209.5t2 209.5q2 107 51.5 153.5t159.5 46.5t158 -46.5t52 -153.5q4 -100 4 -210.5t-4 -208.5q-4 -108 -52 -154.5t-158 -46.5zM253 112q58 0 60 51t3.5 112t1.5 125.5t-1.5 125.5t-3.5 112q-2 50 -60 50q-59 0 -61 -50
q-2 -51 -3 -112t-1 -125.5t1 -125.5t3 -112t61 -51zM94 841l112 99h86l112 -99h-96l-59 57l-59 -57h-96zM307 1069q24 8 62 8t59 -18t21 -53q0 -23 -7 -40.5t-30.5 -26t-71.5 -4.5v46h29q24 0 24 25q0 20 -24 20q-33 0 -50 -3z" />
    <glyph glyph-name="uni1ED5" unicode="&#x1ed5;" horiz-adv-x="495" 
d="M248 -10q-73 0 -117 20t-64.5 64t-24.5 117q-1 17 -1.5 46t-0.5 62t0.5 62.5t1.5 48.5q4 72 24.5 116t64 64t117.5 20q75 0 118 -20.5t63 -64.5t24 -115q1 -17 1.5 -46t0.5 -62t-0.5 -62.5t-1.5 -48.5q-4 -71 -24 -115.5t-63 -65t-118 -20.5zM248 102q29 0 41.5 13
t13.5 38q2 69 2 147.5t-2 147.5q-1 24 -13.5 37t-41.5 13q-54 0 -56 -50q-2 -69 -2 -148t2 -147q2 -51 56 -51zM404 779v-20h-52v59l7 7h35q24 0 24 25q0 20 -24 20q-33 0 -50 -3l-12 46q24 8 62 8t59 -18t21 -53q0 -34 -16 -52.5t-54 -18.5zM118 641l82 139h86l82 -139h-96
l-29 56l-29 -56h-96z" />
    <glyph glyph-name="uni1ED6" unicode="&#x1ed6;" horiz-adv-x="507" 
d="M253 -10q-110 0 -159.5 46.5t-51.5 154.5q-2 98 -2 209.5t2 209.5q2 107 51.5 153.5t159.5 46.5t158 -46.5t52 -153.5q4 -100 4 -210.5t-4 -208.5q-4 -108 -52 -154.5t-158 -46.5zM253 112q58 0 60 51t3.5 112t1.5 125.5t-1.5 125.5t-3.5 112q-2 50 -60 50q-59 0 -61 -50
q-2 -51 -3 -112t-1 -125.5t1 -125.5t3 -112t61 -51zM94 841l112 99h86l112 -99h-96l-59 57l-59 -57h-96zM106 979q3 47 26 68t63 21q30 0 48 -8.5t32 -17t32 -8.5q17 0 27 9.5t11 24.5h51q-6 -95 -90 -95q-28 0 -47 9t-34 17.5t-34 8.5q-31 0 -34 -29h-51z" />
    <glyph glyph-name="uni1ED7" unicode="&#x1ed7;" horiz-adv-x="495" 
d="M248 -10q-73 0 -117 20t-64.5 64t-24.5 117q-1 17 -1.5 46t-0.5 62t0.5 62.5t1.5 48.5q4 72 24.5 116t64 64t117.5 20q75 0 118 -20.5t63 -64.5t24 -115q1 -17 1.5 -46t0.5 -62t-0.5 -62.5t-1.5 -48.5q-4 -71 -24 -115.5t-63 -65t-118 -20.5zM248 102q29 0 41.5 13
t13.5 38q2 69 2 147.5t-2 147.5q-1 24 -13.5 37t-41.5 13q-54 0 -56 -50q-2 -69 -2 -148t2 -147q2 -51 56 -51zM118 641l82 139h86l82 -139h-96l-29 56l-29 -56h-96zM103 819q3 47 26 68t63 21q30 0 48 -8.5t32 -17t32 -8.5q17 0 27 9.5t11 24.5h51q-6 -95 -90 -95
q-28 0 -47 9t-34 17.5t-34 8.5q-31 0 -34 -29h-51z" />
    <glyph glyph-name="uni1ED8" unicode="&#x1ed8;" horiz-adv-x="507" 
d="M253 -10q-110 0 -159.5 46.5t-51.5 154.5q-2 98 -2 209.5t2 209.5q2 107 51.5 153.5t159.5 46.5t158 -46.5t52 -153.5q4 -100 4 -210.5t-4 -208.5q-4 -108 -52 -154.5t-158 -46.5zM253 112q58 0 60 51t3.5 112t1.5 125.5t-1.5 125.5t-3.5 112q-2 50 -60 50q-59 0 -61 -50
q-2 -51 -3 -112t-1 -125.5t1 -125.5t3 -112t61 -51zM199 -139v89h109v-89h-109zM94 841l112 99h86l112 -99h-96l-59 57l-59 -57h-96z" />
    <glyph glyph-name="uni1ED9" unicode="&#x1ed9;" horiz-adv-x="495" 
d="M248 -10q-73 0 -117 20t-64.5 64t-24.5 117q-1 17 -1.5 46t-0.5 62t0.5 62.5t1.5 48.5q4 72 24.5 116t64 64t117.5 20q75 0 118 -20.5t63 -64.5t24 -115q1 -17 1.5 -46t0.5 -62t-0.5 -62.5t-1.5 -48.5q-4 -71 -24 -115.5t-63 -65t-118 -20.5zM248 102q29 0 41.5 13
t13.5 38q2 69 2 147.5t-2 147.5q-1 24 -13.5 37t-41.5 13q-54 0 -56 -50q-2 -69 -2 -148t2 -147q2 -51 56 -51zM193 -179v109h110v-109h-110zM118 641l82 139h86l82 -139h-96l-29 56l-29 -56h-96z" />
    <glyph glyph-name="uni1EDA" unicode="&#x1eda;" horiz-adv-x="587" 
d="M253 -10q-110 0 -159.5 46.5t-51.5 154.5q-2 98 -2 209.5t2 209.5q2 107 51.5 153.5t159.5 46.5t158 -46.5t52 -153.5q4 -100 4 -210.5t-4 -208.5q-4 -108 -52 -154.5t-158 -46.5zM253 112q58 0 60 51t3.5 112t1.5 125.5t-1.5 125.5t-3.5 112q-2 50 -60 50q-59 0 -61 -50
q-2 -51 -3 -112t-1 -125.5t1 -125.5t3 -112t61 -51zM443 552q-11 0 -23 0.5t-21 1.5v67q11 -1 22 -1.5t22 0.5q72 4 76 80q1 10 1 30v40.5t-1 29.5h75q1 -9 1 -29.5v-40.5t-1 -30q-4 -79 -39.5 -113.5t-111.5 -34.5zM224 851v3l111 87h85v-3l-120 -87h-76z" />
    <glyph glyph-name="uni1EDB" unicode="&#x1edb;" horiz-adv-x="575" 
d="M248 -10q-73 0 -117 20t-64.5 64t-24.5 117q-1 17 -1.5 46t-0.5 62t0.5 62.5t1.5 48.5q4 72 24.5 116t64 64t117.5 20q75 0 118 -20.5t63 -64.5t24 -115q1 -17 1.5 -46t0.5 -62t-0.5 -62.5t-1.5 -48.5q-4 -71 -24 -115.5t-63 -65t-118 -20.5zM248 102q29 0 41.5 13
t13.5 38q2 69 2 147.5t-2 147.5q-1 24 -13.5 37t-41.5 13q-54 0 -56 -50q-2 -69 -2 -148t2 -147q2 -51 56 -51zM431 352q-11 0 -23 0.5t-21 1.5v67q11 -1 22 -1.5t22 0.5q72 4 76 80q1 10 1 30v40.5t-1 29.5h75q1 -9 1 -29.5v-40.5t-1 -30q-4 -79 -39.5 -113.5t-111.5 -34.5
zM204 661l87 139h96l-92 -139h-91z" />
    <glyph glyph-name="uni1EDC" unicode="&#x1edc;" horiz-adv-x="587" 
d="M253 -10q-110 0 -159.5 46.5t-51.5 154.5q-2 98 -2 209.5t2 209.5q2 107 51.5 153.5t159.5 46.5t158 -46.5t52 -153.5q4 -100 4 -210.5t-4 -208.5q-4 -108 -52 -154.5t-158 -46.5zM253 112q58 0 60 51t3.5 112t1.5 125.5t-1.5 125.5t-3.5 112q-2 50 -60 50q-59 0 -61 -50
q-2 -51 -3 -112t-1 -125.5t1 -125.5t3 -112t61 -51zM443 552q-11 0 -23 0.5t-21 1.5v67q11 -1 22 -1.5t22 0.5q72 4 76 80q1 10 1 30v40.5t-1 29.5h75q1 -9 1 -29.5v-40.5t-1 -30q-4 -79 -39.5 -113.5t-111.5 -34.5zM104 938v3h85l111 -87v-3h-76z" />
    <glyph glyph-name="uni1EDD" unicode="&#x1edd;" horiz-adv-x="575" 
d="M248 -10q-73 0 -117 20t-64.5 64t-24.5 117q-1 17 -1.5 46t-0.5 62t0.5 62.5t1.5 48.5q4 72 24.5 116t64 64t117.5 20q75 0 118 -20.5t63 -64.5t24 -115q1 -17 1.5 -46t0.5 -62t-0.5 -62.5t-1.5 -48.5q-4 -71 -24 -115.5t-63 -65t-118 -20.5zM248 102q29 0 41.5 13
t13.5 38q2 69 2 147.5t-2 147.5q-1 24 -13.5 37t-41.5 13q-54 0 -56 -50q-2 -69 -2 -148t2 -147q2 -51 56 -51zM431 352q-11 0 -23 0.5t-21 1.5v67q11 -1 22 -1.5t22 0.5q72 4 76 80q1 10 1 30v40.5t-1 29.5h75q1 -9 1 -29.5v-40.5t-1 -30q-4 -79 -39.5 -113.5t-111.5 -34.5
zM110 800h96l92 -139h-96z" />
    <glyph glyph-name="uni1EDE" unicode="&#x1ede;" horiz-adv-x="587" 
d="M253 -10q-110 0 -159.5 46.5t-51.5 154.5q-2 98 -2 209.5t2 209.5q2 107 51.5 153.5t159.5 46.5t158 -46.5t52 -153.5q4 -100 4 -210.5t-4 -208.5q-4 -108 -52 -154.5t-158 -46.5zM253 112q58 0 60 51t3.5 112t1.5 125.5t-1.5 125.5t-3.5 112q-2 50 -60 50q-59 0 -61 -50
q-2 -51 -3 -112t-1 -125.5t1 -125.5t3 -112t61 -51zM443 552q-11 0 -23 0.5t-21 1.5v67q11 -1 22 -1.5t22 0.5q72 4 76 80q1 10 1 30v40.5t-1 29.5h75q1 -9 1 -29.5v-40.5t-1 -30q-4 -79 -39.5 -113.5t-111.5 -34.5zM199 976q24 8 62 8t59 -18t21 -53q0 -23 -7 -40.5
t-30.5 -26t-71.5 -4.5v46h29q24 0 24 25q0 20 -24 20q-33 0 -50 -3z" />
    <glyph glyph-name="uni1EDF" unicode="&#x1edf;" horiz-adv-x="575" 
d="M248 -10q-73 0 -117 20t-64.5 64t-24.5 117q-1 17 -1.5 46t-0.5 62t0.5 62.5t1.5 48.5q4 72 24.5 116t64 64t117.5 20q75 0 118 -20.5t63 -64.5t24 -115q1 -17 1.5 -46t0.5 -62t-0.5 -62.5t-1.5 -48.5q-4 -71 -24 -115.5t-63 -65t-118 -20.5zM248 102q29 0 41.5 13
t13.5 38q2 69 2 147.5t-2 147.5q-1 24 -13.5 37t-41.5 13q-54 0 -56 -50q-2 -69 -2 -148t2 -147q2 -51 56 -51zM431 352q-11 0 -23 0.5t-21 1.5v67q11 -1 22 -1.5t22 0.5q72 4 76 80q1 10 1 30v40.5t-1 29.5h75q1 -9 1 -29.5v-40.5t-1 -30q-4 -79 -39.5 -113.5t-111.5 -34.5
zM205 808q24 8 62 8t59 -18t21 -53q0 -34 -16 -52.5t-54 -18.5v-34h-52v73l7 7h35q24 0 24 25q0 20 -24 20q-33 0 -50 -3z" />
    <glyph glyph-name="uni1EE0" unicode="&#x1ee0;" horiz-adv-x="587" 
d="M253 -10q-110 0 -159.5 46.5t-51.5 154.5q-2 98 -2 209.5t2 209.5q2 107 51.5 153.5t159.5 46.5t158 -46.5t52 -153.5q4 -100 4 -210.5t-4 -208.5q-4 -108 -52 -154.5t-158 -46.5zM253 112q58 0 60 51t3.5 112t1.5 125.5t-1.5 125.5t-3.5 112q-2 50 -60 50q-59 0 -61 -50
q-2 -51 -3 -112t-1 -125.5t1 -125.5t3 -112t61 -51zM443 552q-11 0 -23 0.5t-21 1.5v67q11 -1 22 -1.5t22 0.5q72 4 76 80q1 10 1 30v40.5t-1 29.5h75q1 -9 1 -29.5v-40.5t-1 -30q-4 -79 -39.5 -113.5t-111.5 -34.5zM109 839q3 47 26 68t63 21q30 0 48 -8.5t32 -17t32 -8.5
q17 0 27 9.5t11 24.5h51q-6 -95 -90 -95q-28 0 -47 9t-34 17.5t-34 8.5q-31 0 -34 -29h-51z" />
    <glyph glyph-name="uni1EE1" unicode="&#x1ee1;" horiz-adv-x="575" 
d="M248 -10q-73 0 -117 20t-64.5 64t-24.5 117q-1 17 -1.5 46t-0.5 62t0.5 62.5t1.5 48.5q4 72 24.5 116t64 64t117.5 20q75 0 118 -20.5t63 -64.5t24 -115q1 -17 1.5 -46t0.5 -62t-0.5 -62.5t-1.5 -48.5q-4 -71 -24 -115.5t-63 -65t-118 -20.5zM248 102q29 0 41.5 13
t13.5 38q2 69 2 147.5t-2 147.5q-1 24 -13.5 37t-41.5 13q-54 0 -56 -50q-2 -69 -2 -148t2 -147q2 -51 56 -51zM431 352q-11 0 -23 0.5t-21 1.5v67q11 -1 22 -1.5t22 0.5q72 4 76 80q1 10 1 30v40.5t-1 29.5h75q1 -9 1 -29.5v-40.5t-1 -30q-4 -79 -39.5 -113.5t-111.5 -34.5
zM89 660q4 62 30 89t67 27q34 0 53.5 -11.5t35 -23.5t35.5 -12q39 0 41 34h56q-3 -59 -29.5 -84.5t-69.5 -25.5q-30 0 -51 12t-37.5 24t-36.5 12q-35 0 -38 -41h-56z" />
    <glyph glyph-name="uni1EE2" unicode="&#x1ee2;" horiz-adv-x="587" 
d="M253 -10q-110 0 -159.5 46.5t-51.5 154.5q-2 98 -2 209.5t2 209.5q2 107 51.5 153.5t159.5 46.5t158 -46.5t52 -153.5q4 -100 4 -210.5t-4 -208.5q-4 -108 -52 -154.5t-158 -46.5zM253 112q58 0 60 51t3.5 112t1.5 125.5t-1.5 125.5t-3.5 112q-2 50 -60 50q-59 0 -61 -50
q-2 -51 -3 -112t-1 -125.5t1 -125.5t3 -112t61 -51zM443 552q-11 0 -23 0.5t-21 1.5v67q11 -1 22 -1.5t22 0.5q72 4 76 80q1 10 1 30v40.5t-1 29.5h75q1 -9 1 -29.5v-40.5t-1 -30q-4 -79 -39.5 -113.5t-111.5 -34.5zM199 -139v89h109v-89h-109z" />
    <glyph glyph-name="uni1EE3" unicode="&#x1ee3;" horiz-adv-x="575" 
d="M248 -10q-73 0 -117 20t-64.5 64t-24.5 117q-1 17 -1.5 46t-0.5 62t0.5 62.5t1.5 48.5q4 72 24.5 116t64 64t117.5 20q75 0 118 -20.5t63 -64.5t24 -115q1 -17 1.5 -46t0.5 -62t-0.5 -62.5t-1.5 -48.5q-4 -71 -24 -115.5t-63 -65t-118 -20.5zM248 102q29 0 41.5 13
t13.5 38q2 69 2 147.5t-2 147.5q-1 24 -13.5 37t-41.5 13q-54 0 -56 -50q-2 -69 -2 -148t2 -147q2 -51 56 -51zM431 352q-11 0 -23 0.5t-21 1.5v67q11 -1 22 -1.5t22 0.5q72 4 76 80q1 10 1 30v40.5t-1 29.5h75q1 -9 1 -29.5v-40.5t-1 -30q-4 -79 -39.5 -113.5t-111.5 -34.5
zM193 -179v109h110v-109h-110z" />
    <glyph glyph-name="uni1EE4" unicode="&#x1ee4;" horiz-adv-x="505" 
d="M253 -10q-112 0 -160.5 46.5t-50.5 154.5q-5 305 0 609h150q-2 -100 -2.5 -209.5t0.5 -218t2 -209.5q0 -51 61 -51q60 0 60 51q1 101 2 209.5t0.5 218t-2.5 209.5h150q5 -304 0 -609q-1 -108 -49.5 -154.5t-160.5 -46.5zM198 -139v89h109v-89h-109z" />
    <glyph glyph-name="uni1EE5" unicode="&#x1ee5;" horiz-adv-x="504" 
d="M180 -10q-62 0 -99.5 39t-37.5 130v441h150v-454q0 -47 46 -47q20 0 43 12t32 31v458h150v-600h-150v65h-20q-23 -40 -49.5 -57.5t-64.5 -17.5zM197 -179v109h110v-109h-110z" />
    <glyph glyph-name="uni1EE6" unicode="&#x1ee6;" horiz-adv-x="505" 
d="M253 -10q-112 0 -160.5 46.5t-50.5 154.5q-5 305 0 609h150q-2 -100 -2.5 -209.5t0.5 -218t2 -209.5q0 -51 61 -51q60 0 60 51q1 101 2 209.5t0.5 218t-2.5 209.5h150q5 -304 0 -609q-1 -108 -49.5 -154.5t-160.5 -46.5zM198 976q24 8 62 8t59 -18t21 -53q0 -23 -7 -40.5
t-30.5 -26t-71.5 -4.5v46h29q24 0 24 25q0 20 -24 20q-33 0 -50 -3z" />
    <glyph glyph-name="uni1EE7" unicode="&#x1ee7;" horiz-adv-x="504" 
d="M180 -10q-62 0 -99.5 39t-37.5 130v441h150v-454q0 -47 46 -47q20 0 43 12t32 31v458h150v-600h-150v65h-20q-23 -40 -49.5 -57.5t-64.5 -17.5zM209 808q24 8 62 8t59 -18t21 -53q0 -34 -16 -52.5t-54 -18.5v-34h-52v73l7 7h35q24 0 24 25q0 20 -24 20q-33 0 -50 -3z" />
    <glyph glyph-name="uni1EE8" unicode="&#x1ee8;" horiz-adv-x="595" 
d="M253 -10q-112 0 -160.5 46.5t-50.5 154.5q-5 305 0 609h150q-2 -100 -2.5 -209.5t0.5 -218t2 -209.5q0 -51 61 -51q60 0 60 51q1 101 2 209.5t0.5 218t-2.5 209.5h150q5 -304 0 -609q-1 -108 -49.5 -154.5t-160.5 -46.5zM440 552q-11 0 -23 0.5t-21 1.5v67q11 -1 22 -1.5
t22 0.5q72 4 76 80q1 10 1 30v40.5t-1 29.5h75q1 -9 1 -29.5v-40.5t-1 -30q-4 -79 -39.5 -113.5t-111.5 -34.5zM223 851v3l111 87h85v-3l-120 -87h-76z" />
    <glyph glyph-name="uni1EE9" unicode="&#x1ee9;" horiz-adv-x="592" 
d="M180 -10q-62 0 -99.5 39t-37.5 130v441h150v-454q0 -47 46 -47q20 0 43 12t32 31v458h150v-600h-150v65h-20q-23 -40 -49.5 -57.5t-64.5 -17.5zM440 352q-11 0 -23 0.5t-21 1.5v67q11 -1 22 -1.5t22 0.5q72 4 76 80q1 10 1 30v40.5t-1 29.5h75q1 -9 1 -29.5v-40.5t-1 -30
q-4 -79 -39.5 -113.5t-111.5 -34.5zM208 661l87 139h96l-92 -139h-91z" />
    </font>
</defs>
</svg>
